<svg width="480" height="360" viewBox="0 0 480 360" fill="none" xmlns="http://www.w3.org/2000/svg">
<g clip-path="url(#clip0_707_6884)">
<path d="M186.892 252.522C186.804 253.143 186.777 253.771 186.811 254.398L186.892 252.522Z" fill="#CBCCCE"/>
<path d="M295.338 207.116C295.338 207.263 295.338 207.425 295.338 207.557C295.347 207.41 295.347 207.263 295.338 207.116V207.116Z" fill="#CBCCCE"/>
<path d="M186.789 280.579L186.84 280.535C186.818 280.499 186.803 280.506 186.789 280.579Z" fill="#CBCCCE"/>
<path d="M217.051 54.7465L217.655 54.592L217.051 54.7465Z" fill="#CBCCCE"/>
<path d="M295.692 65.2339C295.692 63.9174 295.692 62.5716 295.728 61.189C295.728 59.1885 295.795 57.144 295.831 55.0406H295.397C294.881 55.0848 294.3 55.1215 293.688 55.151L291.936 55.2171C291.14 55.2539 290.264 55.2686 289.402 55.2833C288.01 55.262 286.618 55.3209 285.234 55.4598C284.961 55.298 275.217 55.4598 280.815 55.0921C281.239 55.0468 281.668 55.0592 282.089 55.1289L282.759 54.9156C277.103 54.5111 272.448 55.1362 266.873 55.0774C268.538 55.1436 270.747 55.1289 269.267 55.276H264.067L265.15 55.0921L257.395 54.9892L258.463 55.2098C254.67 55.0995 253.307 54.717 249.058 55.0333C247.121 55.2098 252.652 55.3348 248.645 55.4084C243.578 55.2539 235.978 55.0259 229.497 54.9597C230.101 55.2098 228.363 55.2024 226.551 55.2539L226.338 55.0333C219.474 55.3348 223.819 54.5552 217.006 54.7979L215.806 55.0995C209.649 55.526 212.484 54.6435 205.65 55.2319C208.353 55.1951 206.924 55.7172 203.595 55.6216L204.442 55.4084C202.601 55.4525 201.982 55.5407 200.76 55.4966C201.857 55.3863 201.342 55.1951 198.631 55.2319L200.443 54.9671L195.332 55.3495C194.212 55.2907 192.909 55.2686 191.583 55.2613H186.236C186.236 56.2321 186.236 57.1587 186.236 58.0339C186.236 58.7693 186.236 59.4018 186.236 59.9975C186.236 60.8506 186.192 61.5273 186.141 61.9465C186.141 61.9465 186.023 72.0368 186.295 74.3534C186.126 72.3236 186.067 77.8909 185.868 76.3023C186.06 78.9205 186.222 86.6427 186.023 89.7315V89.1432C185.817 100.579 186.325 108.699 186.074 118.958C186.288 118.487 186.178 123.908 186.45 122.569C186.723 133.182 185.912 141.926 186.752 145.758C186.804 150.582 186.56 151.479 186.516 153.973L186.472 152.825C186.553 161.871 186.56 164.497 186.546 171.211C186.634 174.565 187.024 175.095 186.936 181.103C186.774 179.162 186.804 181.618 186.811 183.861C186.811 182.427 186.723 181.986 186.627 184.935C186.671 185.347 186.7 185.994 186.73 186.597C186.73 186.597 186.73 186.737 186.686 186.678C186.745 190.429 186.796 189.774 186.811 188.031C186.811 188.119 186.87 187.972 186.914 187.435C186.715 191.326 186.914 198.291 186.664 198.761C186.737 210.05 187.017 218.118 187.128 227.502C186.995 228.561 186.87 226.37 186.818 223.641L186.87 230.304C186.671 230.246 186.752 226.473 186.715 224.421C186.398 232.356 187.047 240.777 186.759 250.081L186.914 252.007V252.559C187.064 253.697 187.133 254.845 187.12 255.993C186.951 257.303 186.73 255.898 186.737 260.502C186.575 264.179 186.833 270.849 186.929 275.615C186.929 273.048 187.054 273.88 187.113 274.983C187.113 277.285 186.951 278.608 187.024 280.388L186.848 280.565C187.017 280.881 187.039 286.698 187.128 287.478C186.958 288.787 186.98 283.904 186.848 283.33L186.892 297.178C187.069 302.106 187.113 296.281 187.319 298.649C187.363 303.003 187.533 307.247 187.393 312.24L187.599 310.659C187.768 318.83 187.746 323.713 187.54 329.222C187.687 334.37 187.827 338.782 187.96 342.46V358.434H188.755C188.254 358.794 188.431 359.073 188.851 359.272C188.998 360.265 189.116 360.191 189.227 359.419C189.827 359.586 190.44 359.699 191.06 359.757C194.537 360.25 196.319 359.515 200.443 359.265C204.074 359.338 205.039 359.801 208.802 359.559C210.592 359.559 212.484 359.434 214.259 359.353C215.092 358.97 216.565 359.353 217.544 358.992L217.927 359.198C218.271 359.062 218.649 359.034 219.01 359.117V359.176C219.518 359.015 220.085 359.103 220.343 359.015V359.081H220.954L220.851 359.169C221.706 359 222.582 358.953 223.451 359.029L223.377 358.779C225.1 359.037 225.719 358.5 227.273 358.779V358.838C229.225 358.147 230.373 359.257 232.391 358.588C232.141 358.676 232.502 358.72 232.48 358.779C233.091 358.791 233.697 358.668 234.255 358.419H234.991V358.485C234.988 358.463 234.988 358.441 234.991 358.419H240.309C240.492 358.482 240.679 358.536 240.868 358.581C242.341 358.581 243.814 358.522 245.287 358.419H254.434L254.508 358.522C254.552 358.706 254.832 358.566 255.126 358.419H293.659C293.718 358.691 293.784 358.713 293.858 358.419H295.102V335.62C295.186 333.34 295.269 330.859 295.353 328.177L295.419 328.722C295.588 316.66 295.625 309.071 295.279 300.775C295.706 299.458 295.323 290.868 295.463 288.044V288.309C295.139 280.954 295.736 273.159 295.463 266.062C295.605 266.738 295.66 267.43 295.625 268.121C295.574 262.973 295.478 255.891 295.721 255.508C295.655 243.167 295.773 225.936 295.375 218L295.448 218.545C295.183 214.036 295.404 212.713 295.272 207.675C295.272 207.395 295.323 207.042 295.331 207.101C295.073 202.188 295.294 192.775 295.183 188.803L295.345 188.546V178.772L295.309 182.449C294.859 181.184 295.588 175.05 295.309 167.968C295.36 161.349 294.366 154.51 294.572 147.618C294.366 144.331 294.918 150.509 294.756 145.603C294.992 145.441 294.904 147.898 295.088 146.633C294.977 141.808 295.331 138.72 295.176 132.77L295.353 132.527C295.021 124.768 295.596 117.892 295.279 112.722C295.124 104.72 295.824 107.36 295.463 99.0202L295.714 95.7843C295.75 92.2174 295.404 93.2323 295.53 89.2756C295.684 89.5183 295.655 84.2819 295.802 86.5986C295.92 82.1859 295.802 77.6556 295.802 72.809C295.714 70.3747 295.692 67.8668 295.692 65.2339Z" fill="#CCCCCC"/>
<path d="M353.814 171.417C354.845 153.862 354.227 134.513 355.287 116.95C355.56 112.346 355.825 107.706 355.25 103.124C354.462 96.7992 352.084 90.7538 351.303 84.4217C350.633 79.0382 351.133 73.5812 351.634 68.1757L353.328 49.9587C353.674 46.1638 353.888 41.913 351.413 39.0227C346.302 37.6989 341.662 35.9191 336.551 34.61C336.22 33.1391 336.949 31.2932 336.618 29.8002C337.375 29.8229 338.12 29.6119 338.753 29.196C339.385 28.7802 339.874 28.1796 340.153 27.4762C340.685 26.0538 340.787 24.5067 340.447 23.0268C340.148 21.1322 339.472 19.3167 338.459 17.6874C338.629 16.2817 338.505 14.8558 338.093 13.5009C337.681 12.1459 336.99 10.8917 336.065 9.81818C334.121 7.76629 331.374 7.56772 328.597 8.1193C328.111 8.21908 327.64 8.38486 327.198 8.61205C327.634 7.67435 327.821 6.64016 327.739 5.60946C327.658 4.57877 327.312 3.58646 326.734 2.72849C326.042 1.70826 325.056 0.921251 323.907 0.470993C322.758 0.0207356 321.5 -0.0716778 320.297 0.205918C318.955 0.570319 317.758 1.3411 316.873 2.41225C315.768 3.66809 315.192 5.30208 315.267 6.97201C315.425 8.24532 315.979 9.43709 316.851 10.3792C317.723 11.3214 318.869 11.9663 320.128 12.2231C321.514 12.5101 322.957 12.3209 324.223 11.6862C323.872 12.3504 323.609 13.0575 323.442 13.7896C322.823 16.4225 323.236 19.1804 323.648 21.8795L325.423 33.345C314.847 31.2196 303.064 35.1542 292.908 38.802C285.307 41.5379 277.677 44.2811 270.563 48.0981C268.876 49.0027 267.16 50.0249 266.144 51.6502C265.128 53.2756 265.098 55.6511 266.557 56.8793C267.376 57.4646 268.332 57.8316 269.333 57.9457C277.172 59.4832 285.157 60.1516 293.143 59.9387C294.16 61.4096 295.552 61.667 297.231 61.0051C303.955 68.3595 310.819 75.361 317.535 82.7007C316.585 102.734 315.061 122.577 314.111 142.617C313.897 147.03 313.728 151.707 315.584 155.745C317.793 160.496 322.426 163.57 326.837 166.402L343.835 177.301C345.249 184.81 345.853 192.458 346.553 200.1C346.685 201.519 344.446 201.872 343.054 202.188L335.69 203.88C334.554 204.073 333.46 204.461 332.456 205.027C331.959 205.318 331.545 205.73 331.252 206.226C330.96 206.722 330.799 207.284 330.785 207.859C330.786 208.128 330.883 208.388 331.057 208.594C331.352 208.818 331.72 208.923 332.088 208.888L354.551 209.432C354.551 201.232 353.962 191.046 353.932 182.868C357.011 184.538 359.691 186.229 362.77 187.899C363.933 188.531 365.23 189.37 365.355 190.679C365.375 191.16 365.297 191.64 365.127 192.091C363.97 195.768 361.717 199.063 360.339 202.688C359.924 203.638 359.72 204.667 359.743 205.704C359.73 206.238 359.874 206.763 360.157 207.216C360.44 207.669 360.85 208.029 361.337 208.251C361.823 208.473 362.363 208.549 362.892 208.467C363.42 208.385 363.913 208.151 364.309 207.792C365.15 207.124 365.849 206.293 366.364 205.351C369.996 199.531 372.479 193.07 373.677 186.317C366.792 181.712 360.161 176.738 353.814 171.417V171.417ZM305.472 58.8944C304.938 58.635 304.467 58.2608 304.095 57.7986C303.743 57.1339 303.525 56.4068 303.454 55.6584C303.319 54.9156 303.029 54.2095 302.603 53.5861C302.176 52.9626 301.623 52.4358 300.979 52.04C300.324 51.6654 299.569 51.5011 298.816 51.5695C298.064 51.6379 297.351 51.9357 296.774 52.4225C294.683 51.9665 290.404 52.0106 288.923 51.1281C293.784 49.9514 304.22 47.3994 309.14 46.4874C307.608 52.1136 308.69 58.3428 312.542 62.7187C310.112 61.3213 307.902 60.3138 305.472 58.8944ZM330.682 150.56C331.838 142.757 332.928 134.755 334.754 127.085C336.463 138.44 339.571 148.516 341.287 159.871C338.032 156.708 334.003 153.634 330.682 150.568V150.56Z" fill="#75787B"/>
<path d="M353.814 171.417C354.845 153.862 354.227 134.513 355.287 116.95C355.56 112.346 355.825 107.706 355.25 103.124C354.462 96.7992 352.084 90.7538 351.303 84.4217C350.633 79.0382 351.133 73.5812 351.634 68.1757L353.328 49.9587C353.674 46.1638 353.888 41.913 351.413 39.0227C346.302 37.6989 341.662 35.9191 336.551 34.61C336.22 33.1391 336.949 31.2932 336.618 29.8002C337.375 29.8229 338.12 29.6119 338.753 29.196C339.385 28.7802 339.874 28.1796 340.153 27.4762C340.685 26.0538 340.787 24.5067 340.447 23.0268C340.148 21.1322 339.472 19.3167 338.459 17.6874C338.629 16.2817 338.505 14.8558 338.093 13.5009C337.681 12.1459 336.99 10.8917 336.065 9.81818C334.121 7.76629 331.374 7.56772 328.597 8.1193C328.111 8.21908 327.64 8.38486 327.198 8.61205C327.634 7.67435 327.821 6.64016 327.739 5.60946C327.658 4.57877 327.312 3.58646 326.734 2.72849C326.042 1.70826 325.056 0.921251 323.907 0.470993C322.758 0.0207356 321.5 -0.0716778 320.297 0.205918C318.955 0.570319 317.758 1.3411 316.873 2.41225C315.768 3.66809 315.192 5.30208 315.267 6.97201C315.425 8.24532 315.979 9.43709 316.851 10.3792C317.723 11.3214 318.869 11.9663 320.128 12.2231C321.514 12.5101 322.957 12.3209 324.223 11.6862C323.872 12.3504 323.609 13.0575 323.442 13.7896C322.823 16.4225 323.236 19.1804 323.648 21.8795L325.423 33.345C314.847 31.2196 303.064 35.1542 292.908 38.802C285.307 41.5379 277.677 44.2811 270.563 48.0981C268.876 49.0027 267.16 50.0249 266.144 51.6502C265.128 53.2756 265.098 55.6511 266.557 56.8793C267.376 57.4646 268.332 57.8316 269.333 57.9457C277.172 59.4832 285.157 60.1516 293.143 59.9387C294.16 61.4096 295.552 61.667 297.231 61.0051C303.955 68.3595 310.819 75.361 317.535 82.7007C316.585 102.734 315.061 122.577 314.111 142.617C313.897 147.03 313.728 151.707 315.584 155.745C317.793 160.496 322.426 163.57 326.837 166.402L343.835 177.301C345.249 184.81 345.853 192.458 346.553 200.1C346.685 201.519 344.446 201.872 343.054 202.188L335.69 203.88C334.554 204.073 333.46 204.461 332.456 205.027C331.959 205.318 331.545 205.73 331.252 206.226C330.96 206.722 330.799 207.284 330.785 207.859C330.786 208.128 330.883 208.388 331.057 208.594C331.352 208.818 331.72 208.923 332.088 208.888L354.551 209.432C354.551 201.232 353.962 191.046 353.932 182.868C357.011 184.538 359.691 186.229 362.77 187.899C363.933 188.531 365.23 189.37 365.355 190.679C365.375 191.16 365.297 191.64 365.127 192.091C363.97 195.768 361.717 199.063 360.339 202.688C359.924 203.638 359.72 204.667 359.743 205.704C359.73 206.238 359.874 206.763 360.157 207.216C360.44 207.669 360.85 208.029 361.337 208.251C361.823 208.473 362.363 208.549 362.892 208.467C363.42 208.385 363.913 208.151 364.309 207.792C365.15 207.124 365.849 206.293 366.364 205.351C369.996 199.531 372.479 193.07 373.677 186.317C366.792 181.712 360.161 176.738 353.814 171.417V171.417ZM305.472 58.8944C304.938 58.635 304.467 58.2608 304.095 57.7986C303.743 57.1339 303.525 56.4068 303.454 55.6584C303.319 54.9156 303.029 54.2095 302.603 53.5861C302.176 52.9626 301.623 52.4358 300.979 52.04C300.324 51.6654 299.569 51.5011 298.816 51.5695C298.064 51.6379 297.351 51.9357 296.774 52.4225C294.683 51.9665 290.404 52.0106 288.923 51.1281C293.784 49.9514 304.22 47.3994 309.14 46.4874C307.608 52.1136 308.69 58.3428 312.542 62.7187C310.112 61.3213 307.902 60.3138 305.472 58.8944ZM330.682 150.56C331.838 142.757 332.928 134.755 334.754 127.085C336.463 138.44 339.571 148.516 341.287 159.871C338.032 156.708 334.003 153.634 330.682 150.568V150.56Z" fill="#53565A"/>
<path d="M278.178 48.7453L278.214 48.796C278.215 48.7903 278.215 48.7844 278.214 48.7787C278.213 48.7731 278.21 48.7677 278.207 48.763C278.204 48.7583 278.199 48.7543 278.194 48.7512C278.189 48.7482 278.184 48.7461 278.178 48.7453Z" fill="white"/>
<path d="M277.486 49.9955C278.06 50.1205 278.186 50.3338 278.797 50.3338C279.087 50.3732 279.38 50.3904 279.673 50.3853C279.82 50.2529 280.034 50.4294 280.211 50.3191L280.262 50.4147C280.321 50.378 280.388 50.3559 280.432 50.4147C280.52 50.3559 280.601 50.4147 280.645 50.4147H280.748C280.884 50.3633 281.033 50.3633 281.168 50.4147V50.3044C281.426 50.4589 281.559 50.2529 281.787 50.4221C282.133 50.1794 282.251 50.6721 282.612 50.4221C282.568 50.4221 282.612 50.4736 282.612 50.503C282.766 50.503 282.928 50.503 282.95 50.2897C283.061 50.2897 283.032 50.3632 283.039 50.4441C283.039 50.3559 283.149 50.3265 283.23 50.3338H283.186H283.437V50.1573C283.562 50.2235 283.437 50.3706 283.569 50.3412V50.2014C283.746 50.2529 283.82 50.4809 283.982 50.6059C284.681 50.7604 285.499 50.4883 286.125 50.8266V50.9369C286.125 51.0913 286.338 50.731 286.346 50.8781L286.434 50.8119C286.434 50.8119 286.493 50.878 286.434 50.9148C286.508 50.9148 286.508 50.9148 286.567 50.8633L286.633 50.9663C286.905 51.0766 287.163 50.9222 287.458 50.9663C287.91 51.1473 288.408 51.1783 288.879 51.0546C289.446 50.8928 289.999 51.5914 290.588 51.3929H290.654L291.162 51.4811C291.162 51.4811 293.615 51.8488 291.899 50.3191C291.634 50.2014 291.457 50.1573 291.243 50.3191C291.243 50.1058 291.022 50.2676 290.963 50.1941C290.772 50.3338 290.632 50.0102 290.448 50.1353C290.448 50.1353 290.448 50.0617 290.507 50.0691C290.382 50.0691 290.22 50.0691 290.22 49.9808C289.932 49.9808 289.542 49.8705 289.336 50.0397C289.211 50.1573 289.196 50.0396 289.071 50.0911C288.938 50.2088 288.739 50.0911 288.636 50.0911V50.0691H288.408H288.489C288.43 50.2897 288.334 49.9073 288.157 50.0323C288.01 49.9882 287.789 50.4589 287.642 50.3265C287.553 50.4221 287.73 50.1647 287.605 50.2309C287.605 50.1205 287.671 50.1647 287.649 50.0691C287.531 50.1132 287.487 49.9293 287.34 49.9882V49.8999C287.134 50.0397 287.016 49.7381 286.876 49.8999C286.736 50.0617 286.788 49.6131 286.574 49.7675L286.515 49.6352C286.434 49.6352 286.434 49.7822 286.353 49.7087C286.272 49.6352 286.243 49.6352 286.309 49.569C286.117 49.4219 285.867 49.6866 285.624 49.4439C285.543 49.591 285.418 49.4439 285.359 49.591C285.359 49.5248 285.086 49.5469 285.256 49.4219H285.292V49.3336C285.16 49.1424 284.998 49.3925 284.851 49.3336C284.887 49.3336 284.954 49.3336 284.902 49.4219H284.762L284.799 49.3483L284.593 49.2821V49.3777C284.49 49.3116 284.475 49.1498 284.342 49.2674C284.21 49.3851 284.423 49.4072 284.342 49.4219C284.186 49.3183 284.018 49.2343 283.842 49.1718C283.842 49.2748 283.797 49.2674 283.746 49.2821V49.1865C283.54 49.2895 283.702 48.9806 283.503 49.0615V48.9953L283.429 49.1792C283.238 49.341 283.363 48.9806 283.142 49.1792C283.223 49.1792 283.142 49.3851 283.068 49.3336V49.2527C283.017 49.2527 282.995 49.2969 282.958 49.2527C282.921 49.2086 282.995 49.1277 282.914 49.1351L282.98 49.0321L282.818 49.1718C282.722 49.0615 282.538 49.1718 282.509 49.0321C282.509 49.0321 282.288 48.9438 282.214 49.0689C282.273 48.9953 282.148 48.9438 282.214 48.8482C282.14 48.9365 281.949 48.9953 281.89 48.885C281.64 48.7526 281.426 48.9733 281.205 48.8188C281.205 48.9218 281.087 48.8188 281.095 48.988C280.837 49.0909 280.69 48.657 280.55 49.0615C280.432 49.0615 280.424 48.9512 280.373 48.9218C280.231 48.9418 280.087 48.9418 279.946 48.9218C279.865 48.9218 279.828 49.1424 279.695 49.0762C279.747 49.01 279.695 49.0174 279.636 49.01C279.577 49.0027 279.688 48.9733 279.636 48.9144C279.627 48.934 279.612 48.9497 279.592 48.9586V48.9586C279.504 48.9586 279.519 49.0027 279.555 49.0174C279.552 49.0344 279.552 49.0518 279.555 49.0689C279.482 48.9585 279.305 49.0689 279.312 48.9144C279.078 48.9401 278.847 48.9843 278.62 49.0468C278.62 48.9733 278.664 48.9218 278.73 48.8997H278.576C278.576 48.8041 278.672 48.8556 278.716 48.8409C278.554 48.6644 278.318 48.9512 278.127 48.782L278.075 48.8482C278.067 48.8704 278.055 48.8905 278.038 48.9071C278.022 48.9236 278.001 48.9362 277.979 48.9438C277.979 48.8556 277.979 48.7453 277.906 48.7379C277.832 48.7306 277.663 48.7379 277.545 48.782C277.604 48.782 277.545 48.8482 277.545 48.8777C277.545 48.9071 277.471 48.782 277.427 48.8188V48.7011C277.427 48.8115 277.28 48.7968 277.25 48.8409C277.25 48.7526 277.346 48.782 277.361 48.7159H277.044C276.919 48.7894 277.044 48.8262 276.985 48.9218C276.926 49.0174 276.771 48.9953 276.668 48.9218V49.0321C276.596 49.0639 276.516 49.0718 276.439 49.0546C276.362 49.0373 276.293 48.996 276.241 48.9365C274.768 49.591 275.807 50.0397 275.807 50.0397C276.499 50.2529 276.823 49.9882 277.486 49.9955Z" fill="white"/>
<path d="M327.183 66.683L327.265 66.646C327.265 66.646 327.22 66.6386 327.183 66.683Z" fill="white"/>
<path d="M327.581 68.3375C328.224 67.7084 328.82 67.0324 329.363 66.315C329.724 65.8664 330.1 65.3516 330.394 64.8956C330.438 64.5867 330.844 64.3073 330.939 63.9763L331.087 63.9322C331.096 63.8744 331.118 63.8193 331.149 63.77C331.181 63.7207 331.222 63.6783 331.271 63.6454V63.6454C331.315 63.4762 331.462 63.3585 331.484 63.2703L331.595 63.1085V63.16C331.71 62.9017 331.872 62.6672 332.073 62.4686L331.978 62.4245C332.412 62.0568 332.361 61.7626 332.773 61.4537C332.935 60.7845 333.51 60.7845 333.716 60.1079C333.716 60.1961 333.782 60.1079 333.797 60.1079C333.959 59.8505 334.143 59.5931 333.981 59.4607C334.113 59.2842 334.143 59.3577 334.224 59.3871C334.15 59.3283 334.224 59.1591 334.334 59.0194V59.1003L334.607 58.6958H334.415C334.614 58.5193 334.622 58.7767 334.739 58.5561L334.622 58.4678C334.865 58.2031 335.167 58.1663 335.461 57.9604C336.389 56.8646 337.052 55.4157 338.068 54.5111H338.194C338.334 54.5847 338.23 54.0772 338.378 54.1213L338.422 53.9522C338.466 53.9522 338.547 53.886 338.525 53.9522C338.558 53.9207 338.583 53.883 338.601 53.8413C338.619 53.7996 338.628 53.7548 338.628 53.7095L338.834 53.7463C339.239 53.3418 339.387 52.849 339.784 52.4004C340.46 51.7235 341.024 50.9441 341.456 50.0911C341.942 49.0836 343.216 48.4584 343.666 47.4067C343.71 47.4067 343.725 47.2891 343.71 47.2744L344.358 46.4801C344.358 46.4801 347.451 42.5822 344.1 44.7739V44.7297C343.75 45.0036 343.493 45.3785 343.364 45.8035C343.157 45.7226 343.062 46.1565 342.929 46.2153C342.848 46.5904 342.391 46.6934 342.303 47.0464C342.29 47.028 342.284 47.0062 342.284 46.9839C342.284 46.9615 342.29 46.9397 342.303 46.9213C342.178 47.1273 342.009 47.4141 341.905 47.3553C341.515 47.7909 341.199 48.2879 340.97 48.8261V48.782C340.97 49.0321 340.823 49.01 340.734 49.238H340.69C340.69 49.4954 340.3 49.7749 340.226 49.9734L340.16 49.9293L339.895 50.3044L340.013 50.1794C340.153 50.3632 339.689 50.3632 339.6 50.7162C339.394 50.9442 339.6 51.4958 339.306 51.6797C339.306 51.8709 339.254 51.4738 339.173 51.6797C339.077 51.6135 339.173 51.5473 339.07 51.5399C338.982 51.7532 338.753 51.7532 338.643 52.0253L338.569 51.9738C338.481 52.3636 338.054 52.4445 338.032 52.7093C337.862 53.0476 337.663 52.7093 337.568 53.1579L337.376 53.202C337.258 53.3197 337.428 53.3859 337.266 53.4962C337.214 53.4374 337.074 53.6433 337.081 53.4962C336.728 53.7463 336.699 54.2317 336.198 54.5773C336.249 54.7612 336.006 54.9303 336.043 55.0701C335.984 55.0701 335.697 55.4966 335.771 55.1657C335.771 55.1657 335.807 55.0995 335.829 55.1215L335.778 55.0333C335.454 55.1804 335.505 55.5408 335.292 55.7687C335.373 55.7173 335.439 55.6143 335.439 55.7173L335.255 55.9379V55.8423L334.96 56.1512H335.071C334.902 56.2836 334.732 56.2468 334.688 56.5189C334.688 56.6439 334.909 56.438 334.798 56.6292C334.518 56.8572 334.252 57.1029 334.003 57.3647C334.106 57.4014 334.047 57.475 334.003 57.5706L333.922 57.5191C333.789 57.9015 333.679 57.5191 333.524 57.8648V57.8059L333.613 57.9971C333.546 58.3796 333.355 57.9971 333.318 58.4752C333.399 58.3501 333.517 58.5487 333.377 58.6664L333.333 58.5781C333.289 58.6664 333.333 58.7179 333.237 58.762C333.237 58.6811 333.156 58.659 333.075 58.762V58.6149L333.031 58.9385C332.817 59.0488 332.699 59.4018 332.545 59.3945C332.545 59.3945 332.213 59.7254 332.25 59.8946C332.25 59.7696 332.059 59.9534 332.029 59.8357C332.017 59.9442 331.981 60.0486 331.924 60.1415C331.867 60.2343 331.789 60.3133 331.698 60.3726C331.293 60.733 331.256 61.1816 330.866 61.4831C330.961 61.5273 330.763 61.6891 330.91 61.7258C330.711 62.1965 330.173 62.2701 330.357 62.6672C330.24 62.8584 330.114 62.8143 330.026 62.8952V62.8437C329.871 63.0846 329.702 63.3155 329.518 63.535C329.459 63.6821 329.599 63.8219 329.385 64.0131C329.385 63.8954 329.326 64.0131 329.26 64.0793C329.26 64.0204 329.26 63.9837 329.157 64.0793C329.164 64.1107 329.164 64.1434 329.157 64.1749V64.1749C329.076 64.3293 329.113 64.322 329.157 64.2631C329.201 64.2043 329.157 64.2631 329.209 64.2631C329.024 64.344 328.907 64.6676 328.789 64.6014C328.494 65.0353 328.369 65.4178 328.141 65.7929C328.06 65.7929 328.074 65.6752 328.141 65.5575L327.964 65.8149C327.89 65.7561 328.03 65.6384 328.074 65.5502C327.721 65.7487 327.736 66.2488 327.338 66.5062V66.6239C327.338 66.6239 327.338 66.7563 327.338 66.8151C327.338 66.874 327.183 66.6901 327.058 66.8666C326.933 67.0431 326.793 67.2711 326.697 67.477C326.778 67.3888 326.793 67.477 326.786 67.477C326.778 67.477 326.616 67.5579 326.594 67.6462L326.498 67.5873C326.609 67.5873 326.417 67.8815 326.432 67.9403C326.329 67.9403 326.476 67.7638 326.432 67.705C326.182 68.0507 326.307 67.8741 326.049 68.2198C325.983 68.4552 326.167 68.2566 326.174 68.4037C326.097 68.6036 325.973 68.7824 325.813 68.9258H325.939C325.833 69.2012 325.638 69.4339 325.386 69.5877C324.311 72.3457 325.924 70.7645 325.924 70.7645C326.712 70.0731 326.83 69.4333 327.581 68.3375Z" fill="white"/>
<path d="M310.34 60.5859V60.6513C310.348 60.6422 310.352 60.6306 310.352 60.6186C310.352 60.6066 310.348 60.5951 310.34 60.5859Z" fill="white"/>
<path d="M311.209 62.9173L311.202 62.9099L311.187 62.9173H311.209Z" fill="white"/>
<path d="M309.066 61.314C309.611 61.7553 309.655 62.0494 310.296 62.3657C310.586 62.5687 310.888 62.753 311.202 62.9173C311.423 62.8731 311.57 63.16 311.798 63.16V63.2703C311.879 63.2703 311.96 63.2703 311.982 63.3659C312.1 63.3659 312.167 63.4541 312.225 63.4541L312.329 63.513H312.292C312.46 63.5481 312.614 63.6326 312.734 63.7557L312.785 63.6601C312.991 63.9469 313.212 63.8292 313.389 64.1087C313.86 64.1087 313.779 64.5941 314.251 64.5867C314.192 64.5867 314.251 64.6456 314.251 64.6676C314.42 64.7412 314.59 64.8294 314.707 64.6676C314.81 64.7485 314.759 64.7853 314.707 64.8588C314.759 64.7853 314.869 64.8147 314.958 64.8588H314.899L315.164 64.9986L315.208 64.8221C315.311 64.9471 315.127 65.0206 315.274 65.0648L315.348 64.9397C315.517 65.0795 315.503 65.3295 315.621 65.5354C316.306 66.0576 317.285 66.2709 317.83 66.896V67.0063C317.764 67.1461 318.147 66.9254 318.095 67.0652H318.213C318.213 67.1019 318.25 67.1608 318.213 67.1681C318.279 67.2196 318.294 67.1681 318.375 67.1681V67.3005C318.625 67.5432 318.972 67.5432 319.251 67.7638C319.661 68.1635 320.169 68.4478 320.724 68.5875C321.409 68.7346 321.726 69.6686 322.44 69.7863C322.44 69.7863 322.529 69.7863 322.536 69.7863L323.044 70.1246C323.044 70.1246 325.57 71.7132 324.304 69.4333C324.221 69.3176 324.11 69.225 323.981 69.1644C323.852 69.1039 323.709 69.0775 323.567 69.0876C323.648 68.8891 323.346 68.9258 323.309 68.8302C323.044 68.867 323.015 68.4993 322.772 68.5214C322.772 68.5214 322.823 68.4625 322.86 68.4846C322.728 68.4331 322.536 68.3669 322.588 68.2566C322.278 68.1095 321.903 67.808 321.616 67.8595C321.439 67.9109 321.468 67.7933 321.314 67.7786V67.7418C321.129 67.7786 320.967 67.5506 320.842 67.5432L320.879 67.4697L320.643 67.3373L320.717 67.4108C320.57 67.58 320.614 67.1828 320.371 67.1975C320.231 67.0799 319.804 67.3961 319.701 67.1975C319.568 67.1975 319.863 67.0946 319.701 67.0872C319.76 66.9843 319.796 67.0872 319.819 66.9622C319.671 66.9622 319.693 66.7416 319.517 66.7269V66.646C319.244 66.646 319.237 66.3224 319.03 66.3812C318.802 66.3297 319.03 66.0723 318.765 66.1017V65.9473C318.692 65.8811 318.625 66.0355 318.567 65.9473C318.508 65.859 318.478 65.8223 318.567 65.7929C318.427 65.5575 318.051 65.6678 317.889 65.3222C317.742 65.4104 317.653 65.2486 317.55 65.3222C317.55 65.256 317.278 65.131 317.506 65.1089C317.506 65.1089 317.55 65.1089 317.506 65.1457L317.572 65.0868C317.506 64.8441 317.241 64.9765 317.101 64.8588C317.101 64.9103 317.189 64.9471 317.101 64.9692L316.968 64.8662L317.035 64.8221L316.843 64.6456V64.7485C316.762 64.6382 316.843 64.4764 316.622 64.5132C316.401 64.55 316.622 64.6823 316.526 64.6382C316.401 64.4576 316.258 64.2901 316.099 64.1381C316.055 64.2337 316.011 64.2043 315.952 64.1896L315.996 64.1087C315.738 64.1087 316.033 63.8954 315.79 63.8513L315.842 63.8145L315.687 63.9395C315.422 63.9837 315.687 63.7189 315.378 63.8071C315.459 63.8071 315.304 63.9984 315.23 63.9028L315.304 63.8439C315.245 63.8439 315.201 63.8439 315.179 63.8439C315.196 63.8439 315.213 63.837 315.226 63.8245C315.238 63.8121 315.245 63.7953 315.245 63.7777C315.245 63.7602 315.238 63.7433 315.226 63.7309C315.213 63.7185 315.196 63.7115 315.179 63.7115L315.289 63.6527L315.061 63.6968C315.002 63.5424 314.766 63.535 314.788 63.3953C314.788 63.3953 314.59 63.1967 314.457 63.2703C314.553 63.2335 314.457 63.1232 314.531 63.0644C314.42 63.0644 314.199 63.0644 314.184 62.9173C313.978 62.6525 313.654 62.7334 313.492 62.4686C313.441 62.5643 313.352 62.4319 313.308 62.5716C312.984 62.5201 313.013 62.0421 312.689 62.3289C312.564 62.2701 312.616 62.1598 312.564 62.1009H312.608C312.451 62.0332 312.303 61.9468 312.167 61.8435C312.063 61.8435 311.946 61.9759 311.835 61.8435C311.923 61.8067 311.835 61.7847 311.835 61.7479C311.835 61.7111 311.901 61.7479 311.835 61.6523C311.813 61.6544 311.791 61.6544 311.769 61.6523C311.666 61.6523 311.666 61.6523 311.703 61.6523C311.698 61.6692 311.698 61.6869 311.703 61.7038C311.703 61.5641 311.452 61.542 311.511 61.4243C311.257 61.3176 310.997 61.2291 310.73 61.1596C310.73 61.086 310.826 61.0639 310.907 61.086L310.738 61.0051C310.797 60.9242 310.856 61.0051 310.914 61.0051C310.826 60.7477 310.451 60.8801 310.325 60.6153H310.237C310.217 60.6306 310.195 60.6417 310.171 60.648C310.147 60.6543 310.122 60.6557 310.097 60.6521C310.097 60.5565 310.207 60.4903 310.097 60.4168C309.987 60.3432 309.839 60.2917 309.707 60.255C309.758 60.3064 309.707 60.3359 309.67 60.3359C309.633 60.3359 309.633 60.2108 309.567 60.2182L309.633 60.1152C309.589 60.2182 309.427 60.1152 309.383 60.1152C309.383 60.027 309.5 60.1152 309.552 60.0637L309.228 59.8578C309.066 59.8578 309.184 59.9681 309.073 60.0123C308.963 60.0564 308.816 59.9608 308.742 59.821V59.9314C308.652 59.9198 308.567 59.8834 308.497 59.8262C308.427 59.769 308.374 59.6934 308.344 59.6078C306.474 59.3209 307.394 60.3432 307.394 60.3432C307.902 60.9757 308.366 60.9316 309.066 61.314Z" fill="white"/>
<path d="M320.938 83.5759L321.034 83.6278C321.034 83.6278 321.012 83.5907 320.938 83.5759Z" fill="white"/>
<path d="M325.202 83.9657L325.18 83.9878L325.202 83.9657Z" fill="white"/>
<path d="M319.517 84.7452C320.095 84.8968 320.687 84.9929 321.284 85.0321C321.895 85.0705 322.508 84.9906 323.088 84.7967C323.822 84.6089 324.529 84.3323 325.195 83.973C325.438 83.6936 326.027 83.5538 326.307 83.2376H326.484C326.576 83.1262 326.699 83.0443 326.837 83.0022C326.977 82.8404 327.191 82.7595 327.257 82.6787L327.456 82.5463V82.5978C327.702 82.3673 327.983 82.1763 328.288 82.0315L328.207 81.9506C328.826 81.7005 328.943 81.3843 329.488 81.2151C329.974 80.5826 330.601 80.7444 331.109 80.112C331.042 80.1855 331.175 80.112 331.182 80.1634C331.47 79.9428 331.779 79.7295 331.676 79.5457C331.897 79.4133 331.889 79.4942 331.956 79.5457C331.911 79.4721 332.081 79.3177 332.25 79.2074L332.184 79.2883L332.663 78.95L332.471 78.8617C332.758 78.744 332.655 79.0014 332.876 78.8102L332.803 78.6925C333.16 78.5591 333.53 78.463 333.907 78.4057C335.38 77.5453 336.757 76.2582 338.238 75.6184L338.356 75.6772C338.466 75.7949 338.606 75.2433 338.731 75.3316L338.849 75.1771C338.908 75.1771 339.018 75.1771 338.96 75.2139C339.107 75.133 339.099 75.1036 339.18 75.0006H339.387C339.998 74.7064 340.388 74.2652 341.007 73.8901C342.028 73.3926 342.977 72.7593 343.828 72.0074C344.807 71.1101 346.427 70.838 347.414 69.8966C347.466 69.8966 347.532 69.7863 347.517 69.7716L348.563 69.1465C348.563 69.1465 353.615 66.0356 349.108 67.3299V67.2858C348.614 67.4651 348.175 67.7692 347.834 68.1683C347.657 68.0286 347.355 68.4478 347.186 68.4699C346.928 68.8229 346.405 68.8008 346.148 69.1391C346.148 69.1391 346.148 69.0582 346.206 69.0067C345.978 69.1833 345.669 69.4333 345.588 69.3377C344.98 69.6814 344.42 70.1043 343.923 70.5953V70.5512C343.783 70.7939 343.666 70.735 343.467 70.941H343.423C343.261 71.1984 342.76 71.3822 342.605 71.544L342.546 71.4852L342.097 71.7867L342.281 71.6985C342.34 71.9265 341.854 71.7941 341.603 72.125C341.272 72.3015 341.221 72.9193 340.867 73.0296C340.771 73.2208 340.911 72.8016 340.727 73.0296C340.653 72.934 340.793 72.8973 340.683 72.8605C340.484 73.0443 340.248 72.9929 340.013 73.2356L339.954 73.162C339.674 73.5297 339.217 73.493 339.041 73.7798C338.709 74.0813 338.643 73.7062 338.348 74.1034H338.098C337.914 74.1916 338.054 74.3093 337.84 74.3755C337.84 74.3019 337.568 74.4711 337.641 74.3387C337.155 74.5005 336.905 75.0227 336.22 75.1918C336.176 75.3978 335.852 75.5007 335.822 75.6478C335.771 75.6037 335.262 75.9935 335.498 75.6478C335.498 75.6478 335.564 75.589 335.572 75.6478V75.5522C335.167 75.6037 335.049 75.9935 334.725 76.1626C334.828 76.1626 334.953 76.0449 334.902 76.1626L334.607 76.3318V76.2288L334.15 76.4642L334.261 76.5083C334.025 76.5965 333.863 76.5083 333.701 76.773C333.627 76.9054 333.966 76.773 333.76 76.9201C333.36 77.0685 332.969 77.2404 332.589 77.4349C332.685 77.5011 332.589 77.56 332.493 77.6409L332.434 77.5673C332.118 77.9203 332.184 77.4864 331.86 77.81V77.9645C331.617 78.3322 331.573 77.913 331.33 78.3689C331.47 78.2586 331.506 78.494 331.33 78.5749V78.4719C331.234 78.5528 331.219 78.6043 331.145 78.6337C331.072 78.6631 331.109 78.5013 330.961 78.6337L331.006 78.4719L330.807 78.7955C330.534 78.847 330.247 79.1706 330.07 79.1191C330.07 79.1191 329.562 79.3692 329.533 79.553C329.577 79.4206 329.304 79.553 329.319 79.428C329.256 79.539 329.171 79.6364 329.07 79.7146C328.969 79.7929 328.853 79.8504 328.73 79.884V79.884C328.141 80.134 327.89 80.6194 327.338 80.7812C327.419 80.8547 327.132 80.9651 327.272 81.046C326.844 81.4725 326.226 81.3622 326.263 81.8255C326.042 81.98 325.939 81.8991 325.813 81.9506L325.858 81.8991C325.587 82.0891 325.301 82.2564 325.003 82.3992C324.863 82.5095 324.922 82.7081 324.613 82.7963C324.672 82.686 324.561 82.7522 324.451 82.7963C324.517 82.7522 324.525 82.7228 324.355 82.7375C324.345 82.7702 324.324 82.7987 324.296 82.8184V82.8184C324.12 82.9213 324.164 82.9287 324.252 82.9066C324.34 82.8846 324.252 82.9066 324.304 82.9066C324.075 82.9066 323.766 83.1346 323.7 83.017C323.247 83.254 322.782 83.4675 322.308 83.6568C322.234 83.598 322.308 83.5171 322.47 83.4582L322.138 83.5538C322.138 83.4656 322.322 83.4582 322.418 83.4215C321.991 83.3553 321.608 83.7377 321.122 83.598L321.026 83.6789C321.026 83.7156 320.923 83.7671 320.85 83.7818C320.776 83.7965 320.85 83.5833 320.629 83.5833C320.408 83.5833 320.106 83.5833 319.848 83.5833C319.981 83.62 319.929 83.6568 319.848 83.6789C319.767 83.7009 319.686 83.5538 319.59 83.5759V83.4582C319.59 83.5759 319.259 83.495 319.207 83.5244C319.207 83.4215 319.406 83.5244 319.45 83.4509C319.223 83.3968 318.999 83.328 318.78 83.2449C318.515 83.2449 318.78 83.3626 318.625 83.4067C318.387 83.3664 318.164 83.2651 317.977 83.1126V83.2449C317.649 83.1504 317.372 82.9312 317.204 82.6345C316.737 82.3503 316.289 82.0358 315.864 81.6932C315.621 81.5387 315.532 81.6049 315.495 81.752C315.519 82.1322 315.635 82.5008 315.834 82.8257C316.186 83.4337 316.719 83.9171 317.359 84.2084C318.048 84.492 318.775 84.6729 319.517 84.7452V84.7452Z" fill="white"/>
<path d="M311.451 40.4347H311.393C311.402 40.4407 311.412 40.4439 311.422 40.4439C311.433 40.4439 311.443 40.4407 311.451 40.4347Z" fill="white"/>
<path d="M309.611 41.0018L309.604 40.9863L309.611 41.0018Z" fill="white"/>
<path d="M310.421 39.5081C310.178 39.8905 309.95 39.9126 309.832 40.3686C309.737 40.5723 309.661 40.7839 309.604 41.001C309.707 41.1628 309.493 41.2658 309.567 41.4276H309.471C309.471 41.4864 309.471 41.5453 309.471 41.56C309.508 41.6409 309.471 41.6924 309.471 41.7291V41.8027C309.482 41.8569 309.481 41.913 309.467 41.9666C309.453 42.0201 309.426 42.0697 309.39 42.1116L309.493 42.1483C309.302 42.2954 309.493 42.4499 309.28 42.5749C309.456 42.9058 308.963 42.8617 309.125 43.1927C309.125 43.1485 309.066 43.1927 309.044 43.1927C309.044 43.3103 309 43.428 309.198 43.5089C309.198 43.5824 309.11 43.5457 309.036 43.5089C309.069 43.5235 309.095 43.5498 309.108 43.5826C309.122 43.6154 309.123 43.6522 309.11 43.6854V43.6486L309.073 43.8325H309.25C309.169 43.9134 309.044 43.7884 309.051 43.8913L309.184 43.9355C309.11 44.0531 308.882 44.0531 308.735 44.1414C308.491 44.6415 308.646 45.3107 308.248 45.7152H308.138C307.983 45.7152 308.315 45.9212 308.175 45.8991L308.226 45.98C308.19 45.98 308.153 45.98 308.123 45.98C308.094 45.98 308.123 46.0388 308.16 46.0903H308.05C307.91 46.2742 308.05 46.5095 307.932 46.7154C307.667 46.9214 307.696 47.4509 307.718 47.7818C307.829 48.2452 307.1 48.5173 307.254 49.0321C307.254 49.0321 307.254 49.0909 307.291 49.0909L307.173 49.466C307.104 49.7199 307.089 49.9855 307.129 50.2456C307.203 50.5618 307.49 50.731 308.285 50.1941C308.41 50.0102 308.462 49.8852 308.329 49.7087C308.536 49.7087 308.388 49.5469 308.469 49.5175C308.344 49.3557 308.661 49.2969 308.55 49.1424C308.55 49.1424 308.624 49.1424 308.617 49.1939C308.617 49.1056 308.617 48.9732 308.72 48.9953C308.72 48.782 308.874 48.5099 308.72 48.3261C308.609 48.2157 308.72 48.2231 308.683 48.1201C308.646 48.0172 308.683 48.1201 308.72 48.1201C308.617 48.0025 308.764 47.8774 308.72 47.7892H308.801V47.62L308.764 47.6789C308.558 47.5906 308.933 47.5906 308.83 47.4362C308.889 47.3332 308.447 47.0758 308.587 46.9949C308.506 46.9067 308.742 47.0905 308.69 46.9949C308.801 46.9949 308.749 47.0537 308.845 47.0611C308.845 46.9655 309 46.9655 308.948 46.8405H309.036C308.919 46.664 309.228 46.6345 309.103 46.5022C308.978 46.3698 309.39 46.5022 309.265 46.3036H309.397C309.434 46.2521 309.265 46.2153 309.346 46.1712C309.427 46.1271 309.434 46.105 309.493 46.1712C309.655 46.0682 309.427 45.8256 309.685 45.6932C309.552 45.6049 309.685 45.5387 309.574 45.4725C309.64 45.4725 309.648 45.2813 309.751 45.4358L309.832 45.4799C310.023 45.4284 309.832 45.2519 309.869 45.1489C309.832 45.1489 309.824 45.2225 309.78 45.1489L309.824 45.0533L309.891 45.0975L309.979 44.9651H309.883C309.957 44.9062 310.119 44.9651 310.023 44.8106C309.928 44.6562 309.876 44.8106 309.876 44.7518C309.993 44.6641 310.098 44.5601 310.185 44.4429C310.082 44.4429 310.097 44.3914 310.09 44.3473H310.178C310.112 44.1708 310.384 44.3473 310.34 44.2002H310.399L310.112 44.1855C309.987 44.0016 310.311 44.1855 310.112 43.9722C310.112 44.0311 309.92 43.9207 309.979 43.8766L310.053 43.9207C310.053 43.8766 310.053 43.8546 310.053 43.8398C310.053 43.8251 310.171 43.8913 310.178 43.8398L310.266 43.9134L310.149 43.7589C310.266 43.7148 310.207 43.553 310.333 43.5677C310.333 43.5677 310.45 43.428 310.333 43.3398C310.399 43.4059 310.465 43.3398 310.546 43.3839C310.473 43.3103 310.45 43.1559 310.546 43.1485C310.723 43.0088 310.546 42.7882 310.73 42.6705C310.627 42.6705 310.73 42.5749 310.583 42.5455C310.524 42.3175 310.966 42.3395 310.583 42.1189C310.583 42.0307 310.708 42.0674 310.745 42.0307C310.759 41.9253 310.792 41.8233 310.841 41.7291C310.841 41.6556 310.649 41.5747 310.738 41.4938C310.797 41.56 310.797 41.4938 310.819 41.4938C310.841 41.4938 310.819 41.5379 310.907 41.4938L310.87 41.4423C310.87 41.3688 310.87 41.3761 310.819 41.3982C310.805 41.3925 310.789 41.3925 310.775 41.3982C310.892 41.3982 310.841 41.229 310.966 41.2731C310.981 41.092 310.981 40.91 310.966 40.7289C310.996 40.734 311.023 40.7491 311.043 40.7719C311.064 40.7946 311.075 40.8236 311.076 40.8539V40.7363C311.165 40.7804 311.076 40.8245 311.076 40.8613C311.283 40.8025 311.076 40.5377 311.253 40.4568L311.194 40.3906C311.176 40.3793 311.16 40.3643 311.147 40.3466C311.134 40.3289 311.125 40.3089 311.121 40.2877C311.209 40.2877 311.305 40.3686 311.327 40.2877C311.349 40.2068 311.371 40.1111 311.364 40.0155C311.327 40.0523 311.29 40.0155 311.275 40.0155C311.261 40.0155 311.378 40.0155 311.356 39.9494L311.459 40.0008C311.356 39.9641 311.401 39.8537 311.364 39.817C311.452 39.817 311.408 39.9052 311.459 39.942L311.548 39.7214C311.511 39.6037 311.445 39.7214 311.371 39.6037C311.297 39.486 311.371 39.4272 311.445 39.3757H311.342C311.342 39.2066 311.378 39.1404 311.518 39.0962C311.246 37.7651 310.59 38.3608 310.59 38.3608C310.392 38.6844 310.568 39.0374 310.421 39.5081Z" fill="white"/>
<path d="M330.534 111.39C330.524 112.103 330.583 112.815 330.711 113.516C330.77 113.972 330.888 114.45 330.983 114.884C331.175 115.068 331.087 115.465 331.256 115.693L331.182 115.803C331.215 115.838 331.238 115.881 331.251 115.927C331.264 115.973 331.266 116.021 331.256 116.068C331.344 116.185 331.33 116.34 331.374 116.391V116.546C331.472 116.748 331.522 116.969 331.521 117.193H331.624C331.58 117.642 331.823 117.767 331.742 118.179C332.103 118.627 331.676 118.988 332.029 119.451C331.985 119.392 331.978 119.488 331.948 119.488C332.022 119.716 332.073 119.966 332.287 119.936C332.287 120.105 332.243 120.083 332.162 120.12C332.258 120.12 332.316 120.245 332.346 120.378L332.302 120.326L332.39 120.701L332.552 120.598C332.552 120.804 332.353 120.679 332.427 120.87H332.567C332.567 121.157 332.397 121.356 332.339 121.606C332.464 122.746 333.024 123.893 332.942 124.981L332.847 125.048C332.692 125.092 333.119 125.298 332.987 125.364L333.075 125.474C333.075 125.474 333.038 125.592 332.994 125.533C332.994 125.651 333.031 125.651 333.09 125.717L332.942 125.82C332.942 126.276 333.193 126.629 333.23 127.099C333.232 127.858 333.387 128.608 333.686 129.306C334.062 130.13 333.605 131.225 334.01 132.056C334.01 132.056 334.055 132.159 334.077 132.152L334.187 132.961C334.187 132.961 334.762 136.866 335.572 133.696H335.609C335.663 133.343 335.578 132.982 335.373 132.689C335.572 132.608 335.373 132.321 335.373 132.211C335.167 131.968 335.417 131.637 335.226 131.402C335.226 131.402 335.307 131.402 335.321 131.461C335.262 131.277 335.174 131.027 335.321 130.99C335.278 130.523 335.145 130.069 334.931 129.651H334.968C334.806 129.512 334.909 129.446 334.813 129.269C334.651 129.107 334.703 128.747 334.629 128.614H334.703L334.629 128.261V128.394C334.393 128.394 334.725 128.107 334.533 127.872C334.533 127.622 333.988 127.452 334.062 127.188C333.937 127.085 334.246 127.261 334.136 127.099C334.253 127.099 334.224 127.166 334.305 127.099C334.224 126.93 334.379 126.791 334.268 126.592H334.357C334.143 126.342 334.357 126.04 334.195 125.857C334.077 125.577 334.43 125.614 334.195 125.342L334.298 125.202C334.298 125.07 334.128 125.136 334.165 124.981C334.246 124.981 334.165 124.79 334.283 124.864C334.349 124.518 334.003 124.231 334.136 123.768C333.974 123.694 334.025 123.466 333.9 123.415C333.966 123.415 333.841 122.981 334.025 123.202V123.253H334.121C334.246 122.981 333.951 122.827 333.937 122.577C333.937 122.657 333.937 122.753 333.87 122.694V122.466L333.951 122.503V122.143L333.863 122.201C333.863 122.032 334.032 121.944 333.863 121.782C333.694 121.62 333.76 121.959 333.708 121.782C333.747 121.497 333.762 121.209 333.753 120.922C333.657 120.966 333.65 120.922 333.613 120.819H333.701C333.532 120.547 333.885 120.679 333.701 120.4H333.767L333.561 120.355C333.34 120.12 333.731 120.179 333.436 119.922C333.436 120.039 333.244 120.01 333.259 119.863H333.355C333.355 119.789 333.281 119.767 333.289 119.708C333.296 119.649 333.421 119.708 333.384 119.598L333.51 119.657L333.311 119.466C333.377 119.274 333.215 119.024 333.311 118.936C333.406 118.848 333.311 118.561 333.163 118.495C333.259 118.554 333.259 118.348 333.37 118.392C333.259 118.311 333.134 118.039 333.215 117.914C333.215 117.48 332.957 117.23 333.023 116.833C332.92 116.869 332.942 116.656 332.817 116.73C332.618 116.362 332.972 115.994 332.537 115.906C332.486 115.737 332.596 115.685 332.604 115.59V115.627C332.54 115.41 332.494 115.188 332.464 114.965C332.405 114.847 332.213 114.862 332.221 114.634C332.309 114.693 332.28 114.634 332.265 114.523C332.265 114.575 332.316 114.582 332.353 114.465C332.328 114.456 332.306 114.437 332.294 114.413V114.413C332.25 114.281 332.228 114.31 332.228 114.376C332.221 114.373 332.214 114.371 332.206 114.371C332.198 114.371 332.191 114.373 332.184 114.376C332.258 114.222 332.11 113.979 332.243 113.942C332.14 113.538 331.956 113.266 331.853 112.935C331.911 112.883 331.985 112.935 332.029 113.045L331.963 112.81C332.059 112.81 332.044 112.942 332.073 113.008C332.184 112.692 331.816 112.442 331.904 112.074L331.816 112.023C331.771 112.023 331.705 111.957 331.683 111.913C331.661 111.868 331.882 111.913 331.845 111.714C331.808 111.515 331.742 111.346 331.668 111.177C331.668 111.273 331.617 111.251 331.58 111.221C331.543 111.192 331.639 111.074 331.58 111.015H331.69C331.595 111.067 331.543 110.817 331.492 110.795C331.565 110.728 331.587 110.912 331.654 110.92C331.587 110.589 331.617 110.751 331.551 110.42C331.44 110.25 331.447 110.471 331.337 110.42C331.252 110.272 331.212 110.104 331.219 109.934L331.131 110.008C331.07 109.906 331.032 109.792 331.02 109.674C331.007 109.556 331.02 109.436 331.057 109.324C329.864 107.242 329.849 109.044 329.849 109.044C329.908 109.956 330.284 110.375 330.534 111.39Z" fill="white"/>
<path d="M341.574 158.231V158.305C341.574 158.305 341.604 158.268 341.574 158.231Z" fill="white"/>
<path d="M340.123 158.694C340.683 159.29 340.705 159.584 341.375 160.106C341.673 160.389 341.985 160.657 342.31 160.908C342.554 160.908 342.686 161.261 342.936 161.312V161.437C343.025 161.437 343.113 161.496 343.135 161.584C343.261 161.584 343.327 161.732 343.393 161.746L343.504 161.835H343.459C343.641 161.916 343.798 162.042 343.916 162.202L343.982 162.114C344.181 162.467 344.432 162.408 344.594 162.746C345.109 162.842 344.969 163.364 345.485 163.482C345.418 163.482 345.485 163.533 345.441 163.555C345.617 163.673 345.787 163.813 345.934 163.666C346.044 163.769 345.978 163.798 345.934 163.872C345.993 163.806 346.118 163.872 346.206 163.945H346.14L346.413 164.159L346.479 163.982C346.582 164.144 346.368 164.173 346.523 164.261L346.619 164.151C346.788 164.342 346.744 164.6 346.847 164.842C347.539 165.578 348.578 166.056 349.057 166.88L349.012 166.983C348.917 167.115 349.359 166.983 349.285 167.122H349.417C349.417 167.166 349.417 167.233 349.381 167.218C349.447 167.292 349.469 167.277 349.557 167.292V167.439C349.793 167.762 350.169 167.858 350.449 168.174C350.849 168.715 351.368 169.158 351.966 169.468C352.702 169.821 352.901 170.888 353.66 171.233C353.66 171.233 353.741 171.27 353.755 171.233L354.263 171.741C354.263 171.741 356.753 174.168 355.736 171.41C355.508 171.079 355.339 170.895 355 170.836C355.11 170.652 354.779 170.601 354.757 170.491C354.47 170.447 354.492 170.057 354.219 170.005C354.219 170.005 354.278 169.954 354.322 170.005C354.182 169.91 353.984 169.785 354.057 169.689C353.741 169.439 353.372 169.012 353.048 168.954H353.085C352.886 168.954 352.938 168.836 352.768 168.77C352.768 168.77 352.768 168.77 352.768 168.733C352.562 168.733 352.415 168.431 352.282 168.387L352.334 168.321L352.091 168.115L352.165 168.211C351.98 168.343 352.084 167.939 351.818 167.887C351.678 167.718 351.178 167.931 351.082 167.696C350.927 167.696 351.266 167.637 351.082 167.586C351.156 167.497 351.185 167.586 351.222 167.49C351.067 167.417 351.111 167.225 350.92 167.144L350.979 167.078C350.677 167.027 350.714 166.659 350.478 166.659C350.235 166.541 350.537 166.343 350.22 166.291V166.13C350.147 166.034 350.051 166.181 349.999 166.049C350.058 165.997 349.926 165.894 349.999 165.887C349.874 165.6 349.454 165.615 349.314 165.196C349.152 165.254 349.071 165.056 348.946 165.093C348.983 165.041 348.674 164.82 348.946 164.865C348.946 164.865 348.99 164.865 348.946 164.909L349.027 164.865C348.983 164.592 348.674 164.659 348.534 164.489C348.534 164.556 348.629 164.607 348.534 164.614L348.394 164.467H348.482L348.291 164.225V164.32C348.217 164.188 348.291 164.033 348.077 164.019C347.974 164.019 348.077 164.21 347.959 164.122C347.845 163.896 347.709 163.682 347.554 163.482C347.495 163.57 347.451 163.526 347.385 163.482L347.444 163.408C347.164 163.32 347.51 163.195 347.245 163.092H347.311L347.127 163.18C346.825 163.18 347.164 162.952 346.803 162.952C346.884 163.019 346.7 163.136 346.634 163.019L346.715 162.974C346.648 162.974 346.611 162.974 346.589 162.908C346.567 162.842 346.693 162.827 346.589 162.769L346.715 162.732H346.464C346.413 162.563 346.155 162.482 346.199 162.349C346.199 162.349 346 162.077 345.853 162.121C345.956 162.121 345.853 161.96 345.956 161.923C345.823 161.923 345.588 161.82 345.588 161.68C345.389 161.349 345.021 161.349 344.851 161.026C344.792 161.114 344.704 160.952 344.638 161.084C344.299 160.945 344.373 160.452 343.99 160.673C343.864 160.577 343.923 160.467 343.879 160.4H343.923C343.758 160.286 343.605 160.156 343.467 160.011C343.356 159.966 343.209 160.099 343.099 159.93C343.202 159.93 343.135 159.871 343.099 159.819C343.062 159.768 343.172 159.819 343.143 159.731H343.062C342.951 159.665 342.951 159.694 342.988 159.731C342.984 159.738 342.982 159.745 342.982 159.753C342.982 159.761 342.984 159.769 342.988 159.775C342.988 159.621 342.73 159.54 342.804 159.43C342.536 159.255 342.258 159.095 341.972 158.952C341.972 158.878 342.09 158.885 342.171 158.952L342.001 158.827C342.067 158.753 342.126 158.871 342.193 158.9C342.112 158.606 341.692 158.65 341.574 158.334H341.471C341.471 158.371 341.353 158.334 341.309 158.334C341.265 158.334 341.449 158.194 341.309 158.091C341.169 157.988 341.036 157.893 340.889 157.819C340.941 157.885 340.889 157.9 340.838 157.9C340.786 157.9 340.838 157.76 340.742 157.745L340.815 157.657C340.764 157.76 340.595 157.606 340.543 157.657C340.543 157.562 340.675 157.657 340.734 157.657L340.396 157.363C340.219 157.319 340.344 157.466 340.219 157.481C340.094 157.495 339.939 157.37 339.873 157.209L339.836 157.319C339.737 157.283 339.649 157.224 339.577 157.147C339.505 157.071 339.453 156.978 339.423 156.878C337.406 156.142 338.334 157.422 338.334 157.422C338.893 158.054 339.394 158.113 340.123 158.694Z" fill="white"/>
<path d="M344.461 177.911V177.969C344.461 177.969 344.49 177.933 344.461 177.911Z" fill="white"/>
<path d="M343.371 178.816C343.828 179.132 343.857 179.375 344.387 179.588C344.624 179.728 344.87 179.851 345.124 179.956C345.308 179.882 345.426 180.125 345.617 180.081V180.191C345.684 180.191 345.757 180.191 345.772 180.25C345.875 180.25 345.927 180.309 345.978 180.302L346.066 180.338H346.03C346.098 180.338 346.166 180.352 346.229 180.378C346.293 180.405 346.35 180.444 346.398 180.493L346.442 180.397C346.611 180.625 346.803 180.485 346.936 180.721C347.333 180.625 347.245 181.118 347.672 181.037C347.628 181.037 347.672 181.096 347.672 181.118C347.812 181.162 347.952 181.221 348.055 181.037C348.143 181.096 348.099 181.14 348.055 181.214C348.099 181.133 348.195 181.147 348.269 181.177H348.217L348.431 181.265L348.482 181.088C348.563 181.199 348.401 181.287 348.526 181.309L348.593 181.184C348.725 181.294 348.703 181.53 348.791 181.706C349.351 182.096 350.169 182.133 350.588 182.67V182.773C350.522 182.92 350.861 182.662 350.809 182.773H350.905C350.905 182.809 350.905 182.854 350.905 182.868C350.905 182.883 350.979 182.868 351.045 182.868V182.986C351.237 183.185 351.531 183.133 351.782 183.31C351.98 183.648 352.621 183.802 352.997 183.891C353.564 183.942 353.77 184.788 354.367 184.81C354.367 184.81 354.433 184.81 354.44 184.81L354.853 185.067C354.853 185.067 356.856 186.281 355.957 184.266C355.766 184.06 355.633 183.964 355.39 184.023C355.464 183.824 355.206 183.898 355.191 183.802C354.97 183.861 354.97 183.515 354.764 183.567C354.764 183.567 354.808 183.508 354.845 183.523C354.735 183.486 354.573 183.457 354.624 183.339C354.374 183.236 354.079 183.001 353.829 183.082C353.674 183.148 353.704 183.037 353.579 183.037C353.424 183.096 353.299 182.898 353.196 182.905V182.831L353.004 182.743L353.063 182.795C352.93 182.979 352.997 182.596 352.783 182.64C352.673 182.545 352.297 182.905 352.223 182.736C352.106 182.787 352.363 182.618 352.223 182.633C352.282 182.53 352.304 182.596 352.327 182.501C352.209 182.501 352.238 182.309 352.083 182.309L352.128 182.228C351.892 182.295 351.907 181.964 351.73 182.052C351.539 182.052 351.73 181.758 351.516 181.824V181.714C351.457 181.655 351.391 181.817 351.34 181.714C351.288 181.611 351.281 181.611 351.34 181.567C351.229 181.368 350.905 181.522 350.78 181.214C350.662 181.316 350.588 181.177 350.5 181.258C350.5 181.191 350.279 181.118 350.5 181.066L350.559 180.993C350.515 180.772 350.286 180.941 350.169 180.846C350.169 180.897 350.242 180.919 350.169 180.956L350.058 180.875L350.117 180.824L349.962 180.684V180.78C349.904 180.691 349.962 180.537 349.786 180.596C349.609 180.655 349.786 180.75 349.705 180.721C349.606 180.572 349.49 180.437 349.359 180.316C349.322 180.412 349.285 180.39 349.233 180.382L349.278 180.302C349.057 180.302 349.314 180.096 349.115 180.096L349.16 180.044L349.02 180.191C348.791 180.265 349.02 179.978 348.762 180.11C348.836 180.11 348.696 180.302 348.637 180.221L348.703 180.154C348.652 180.154 348.615 180.154 348.6 180.154C348.585 180.154 348.674 180.051 348.6 180.029L348.696 179.956L348.497 180.029C348.453 179.897 348.254 179.919 348.276 179.794C348.276 179.794 348.114 179.632 348.003 179.721C348.084 179.669 348.003 179.581 348.077 179.515C347.981 179.566 347.79 179.551 347.782 179.434C347.62 179.22 347.341 179.345 347.208 179.125C347.164 179.22 347.09 179.125 347.046 179.25C346.781 179.25 346.818 178.794 346.538 179.117C346.435 179.117 346.479 178.97 346.442 178.926C346.311 178.887 346.187 178.827 346.074 178.75C345.993 178.75 345.89 178.912 345.794 178.809C345.868 178.764 345.794 178.75 345.794 178.72C345.794 178.691 345.853 178.72 345.794 178.632H345.735C345.647 178.632 345.654 178.632 345.676 178.632C345.672 178.649 345.672 178.667 345.676 178.684C345.676 178.559 345.463 178.573 345.521 178.448C345.306 178.394 345.087 178.354 344.866 178.331C344.873 178.299 344.892 178.271 344.92 178.253C344.948 178.235 344.981 178.228 345.013 178.235L344.873 178.183C344.925 178.103 344.976 178.183 345.021 178.183C344.954 177.963 344.63 178.147 344.527 177.919L344.454 177.963C344.454 177.963 344.373 178.022 344.336 178.022C344.299 178.022 344.439 177.853 344.336 177.801C344.233 177.75 344.122 177.728 344.004 177.713C344.049 177.757 344.004 177.786 344.004 177.801C344.004 177.816 344.004 177.691 343.923 177.705L343.975 177.602C343.938 177.705 343.806 177.639 343.761 177.669C343.761 177.58 343.864 177.669 343.909 177.595L343.636 177.455C343.504 177.455 343.636 177.566 343.504 177.625C343.371 177.683 343.29 177.625 343.231 177.507V177.617C343.157 177.619 343.084 177.598 343.023 177.555C342.962 177.513 342.916 177.452 342.892 177.382C341.316 177.448 342.082 178.235 342.082 178.235C342.406 178.698 342.789 178.573 343.371 178.816Z" fill="white"/>
<path d="M301.046 306.195C301.009 306.195 300.972 306.452 300.965 307.136L301.046 306.195Z" fill="#F86959"/>
<path d="M300.943 320.242H300.993C300.993 320.242 300.957 320.205 300.943 320.242Z" fill="#F86959"/>
<path d="M331.204 207.189L331.808 207.108L331.204 207.189Z" fill="#F86959"/>
<path d="M409.845 212.434C409.845 211.779 409.845 211.102 409.882 210.411C409.882 209.411 409.948 208.389 409.985 207.337H409.536L407.827 207.388L406.075 207.425H403.541C401.825 207.425 400.175 207.425 399.373 207.513C399.1 207.433 389.357 207.513 394.954 207.33C395.378 207.3 395.804 207.3 396.228 207.33L396.898 207.219C391.242 207.021 386.587 207.33 381.012 207.3C382.677 207.3 384.886 207.3 383.406 207.403H378.206L379.289 207.308L371.534 207.256L372.602 207.366C368.809 207.315 367.446 207.124 363.197 207.278C361.26 207.366 366.791 207.433 362.785 207.469C357.718 207.388 350.117 207.278 343.636 207.241C344.247 207.366 342.502 207.366 340.69 207.388L340.484 207.278C333.613 207.433 337.965 207.043 331.146 207.16L329.945 207.315C323.795 207.528 326.624 207.087 319.789 207.381C322.492 207.381 321.063 207.624 317.734 207.572L318.581 207.469C316.74 207.469 316.121 207.536 314.899 207.513C315.996 207.455 315.481 207.359 312.77 207.381L314.59 207.249L309.434 207.44C308.315 207.44 307.011 207.396 305.686 207.396H300.339V208.778C300.339 209.131 300.339 209.462 300.339 209.764C300.336 210.092 300.304 210.42 300.243 210.742C300.243 210.742 300.125 215.795 300.398 216.949C300.228 215.934 300.169 218.722 299.97 217.927C300.22 220.159 300.272 222.409 300.125 224.649V224.355C299.926 230.084 300.427 234.144 300.177 239.277C300.39 239.049 300.28 241.763 300.552 241.087C300.825 246.404 300.015 250.78 300.854 252.699C300.858 254.073 300.782 255.446 300.626 256.81L300.574 256.237C300.655 260.767 300.663 262.076 300.648 265.444C300.736 267.121 301.127 267.386 301.038 270.394C300.876 269.423 300.913 270.651 300.913 271.777C300.913 271.041 300.832 270.835 300.729 272.314C300.773 272.519 300.803 272.843 300.832 273.145C300.832 273.145 300.832 273.218 300.795 273.189C300.847 275.064 300.898 274.74 300.921 273.865C300.921 273.909 300.972 273.865 301.016 273.564C300.817 275.513 301.016 278.999 300.773 279.234C300.84 284.89 301.119 288.927 301.23 293.627C301.097 294.156 300.972 293.053 300.921 291.692L300.972 295.024C300.773 295.024 300.854 293.112 300.817 292.082C300.501 296.054 301.149 300.268 300.862 304.923L301.024 305.894V306.166C301.178 306.726 301.252 307.306 301.245 307.887C301.075 308.549 300.854 307.843 300.869 310.145C300.7 311.969 300.957 315.33 301.053 317.712C301.053 316.425 301.178 316.845 301.237 317.396C301.237 318.551 301.075 319.213 301.149 320.103L300.972 320.191C301.141 320.345 301.164 323.265 301.252 323.648C301.083 324.309 301.105 321.86 300.972 321.574L301.016 328.509C301.193 330.973 301.237 328.06 301.443 329.244C301.488 331.451 301.657 333.547 301.517 336.047L301.723 335.253C301.898 338.35 301.878 341.454 301.664 344.549C301.812 347.145 301.952 349.337 302.084 351.168V359.162H302.88C302.379 359.346 302.556 359.478 302.975 359.581C303.123 360.081 303.248 360.045 303.351 359.655C304.124 359.78 305.185 359.824 305.185 359.824C308.661 360.074 310.443 359.706 314.567 359.581C318.198 359.618 319.163 359.846 322.926 359.721C324.723 359.721 326.609 359.662 328.384 359.625C329.216 359.434 330.689 359.625 331.668 359.442L332.059 359.545C332.413 359.475 332.775 359.46 333.134 359.5V359.537C333.642 359.449 334.217 359.493 334.467 359.456H335.078L334.975 359.5C335.839 359.421 336.708 359.398 337.575 359.434L337.501 359.309C339.225 359.434 339.843 359.169 341.397 359.309C343.349 358.956 344.498 359.515 346.508 359.184C346.258 359.184 346.619 359.243 346.597 359.28C347.193 359.285 347.789 359.223 348.372 359.096H349.108H354.426L354.985 359.177C356.458 359.177 357.931 359.177 359.404 359.096H368.588L368.662 359.147C368.706 359.243 368.986 359.147 369.28 359.096H407.813C407.872 359.236 407.945 359.243 408.012 359.096H409.256V347.8C409.337 346.66 409.418 345.417 409.507 344.071L409.573 344.343C409.795 339.686 409.748 335.021 409.433 330.369C409.86 329.708 409.477 325.405 409.617 323.993V324.126C409.293 320.448 409.89 316.543 409.617 312.991C409.746 313.318 409.799 313.67 409.772 314.021C409.72 311.432 409.624 307.894 409.867 307.703C409.809 301.525 409.919 292.906 409.529 288.942L409.595 289.214C409.33 286.964 409.551 286.272 409.418 283.772C409.418 283.639 409.47 283.455 409.484 283.485C409.219 281.029 409.44 276.314 409.33 274.329L409.492 274.196L409.455 269.306V271.137C409.006 270.504 409.742 267.46 409.455 263.885C409.514 260.561 408.52 257.149 408.719 253.699C408.505 252.052 409.057 255.17 408.895 252.692C409.131 252.611 409.043 253.839 409.234 253.207C409.116 250.787 409.47 249.243 409.315 246.264L409.499 246.146C409.16 242.263 409.735 238.792 409.418 236.233C409.264 232.224 409.963 233.541 409.602 229.371L409.853 227.753C409.89 225.966 409.543 226.473 409.669 224.495C409.823 224.613 409.794 221.994 409.941 223.149C410.059 220.943 409.978 218.678 409.941 216.251C409.867 215.015 409.845 213.757 409.845 212.434Z" fill="#00F3B3"/>
<path d="M72.0016 269.629C71.9084 270.148 71.8787 270.676 71.9132 271.202L72.0016 269.629Z" fill="#2E66FF"/>
<path d="M180.448 231.444C180.448 231.569 180.448 231.709 180.448 231.819C180.457 231.695 180.457 231.569 180.448 231.444V231.444Z" fill="#2E66FF"/>
<path d="M71.8911 293.221L71.9492 293.177C71.9492 293.177 71.9129 293.156 71.8911 293.221Z" fill="#2E66FF"/>
<path d="M102.16 103.33L102.764 103.205L102.16 103.33Z" fill="#2E66FF"/>
<path d="M180.801 112.148C180.801 111.037 180.801 109.942 180.838 108.743C180.868 107.066 180.902 105.35 180.941 103.595H180.492C179.969 103.595 179.395 103.661 178.783 103.69L177.03 103.742C176.235 103.742 175.359 103.786 174.497 103.801C172.781 103.801 171.131 103.801 170.321 103.948C170.056 103.815 160.312 103.948 165.902 103.639C166.326 103.591 166.753 103.591 167.176 103.639L167.847 103.462C162.19 103.124 157.536 103.646 151.961 103.595C153.625 103.654 155.835 103.639 154.354 103.764H149.155L150.237 103.617L142.482 103.528L143.55 103.712C139.757 103.617 138.395 103.301 134.145 103.565C132.209 103.712 137.739 103.815 133.733 103.874C128.666 103.749 121.066 103.558 114.585 103.499C115.189 103.712 113.45 103.705 111.639 103.749L111.433 103.565C104.561 103.815 108.914 103.161 102.101 103.367L100.901 103.617C94.744 103.984 97.5794 103.242 90.7449 103.734C93.4478 103.734 92.019 104.139 88.6902 104.058L89.5371 103.882C87.6959 103.918 87.0773 103.992 85.8547 103.955C86.9521 103.859 86.4292 103.698 83.7263 103.727L85.538 103.506L80.3827 103.83C79.2706 103.779 77.9671 103.756 76.634 103.756H71.3903C71.3903 104.573 71.3903 105.352 71.3903 106.088C71.3903 106.684 71.3903 107.235 71.3903 107.735C71.3907 108.284 71.3563 108.831 71.2872 109.375C71.2872 109.375 71.1768 117.862 71.4493 119.811C71.2799 118.105 71.2209 122.753 71.0221 121.451C71.2716 125.209 71.3233 128.977 71.1768 132.74V132.248C70.9779 141.86 71.4787 148.685 71.2357 157.312C71.4493 156.922 71.3388 161.474 71.6113 160.349C71.8838 169.277 71.0736 176.624 71.9132 179.846C71.9648 183.905 71.7217 184.663 71.6776 186.759L71.6334 185.788C71.707 193.4 71.7217 195.606 71.707 201.232C71.788 204.056 72.1857 204.498 72.09 209.55C71.9353 207.917 71.9648 209.984 71.9721 211.874C71.9721 210.668 71.8838 210.293 71.7807 212.771C71.8322 213.124 71.8617 213.661 71.8838 214.169C71.8838 214.169 71.8838 214.286 71.8838 214.235C71.9427 217.397 71.9942 216.846 72.009 215.382C72.009 215.456 72.0679 215.331 72.1047 214.875C71.9132 218.155 72.1047 224.009 71.8617 224.436C71.9353 233.923 72.2152 240.704 72.3257 248.602C72.1931 249.485 72.0679 247.639 72.009 245.352L72.0679 250.948C71.869 250.904 71.9501 247.734 71.9132 246.006C71.5965 252.677 72.2446 259.759 71.9574 267.577L72.1121 269.202V269.665C72.263 270.621 72.3369 271.588 72.333 272.556C72.1636 273.666 71.9353 272.482 71.9501 276.351C71.788 279.41 72.0458 285.051 72.1415 289.059C72.1415 286.897 72.2667 287.588 72.3257 288.529C72.3257 290.464 72.1636 291.574 72.2373 293.075L72.0605 293.214C72.2299 293.486 72.252 298.362 72.3404 299.032C72.171 300.135 72.1931 296.031 72.0605 295.546L72.1047 307.188C72.2815 311.328 72.3257 306.452 72.5245 308.416C72.5761 312.093 72.7381 315.638 72.6055 319.837L72.8117 318.514C72.9738 325.383 72.959 329.494 72.7528 334.12C72.9001 338.481 73.04 342.158 73.1652 345.269V358.706H73.9606C73.4598 359.007 73.6292 359.242 74.0564 359.441C74.1963 360.279 74.3215 360.177 74.432 359.566C75.0351 359.708 75.6482 359.804 76.2658 359.853C79.7346 360.265 81.5242 359.647 85.6485 359.434C89.2793 359.5 90.2441 359.89 94.0075 359.684C95.7972 359.684 97.6899 359.581 99.4648 359.507C100.297 359.191 101.77 359.507 102.749 359.206L103.132 359.375C103.483 359.265 103.854 359.242 104.215 359.309V359.36C104.654 359.292 105.097 359.248 105.541 359.228V359.279H106.152L106.049 359.353C106.908 359.209 107.78 359.169 108.649 359.235L108.575 359.022C110.298 359.242 110.917 358.794 112.471 359.022V359.073C114.423 358.485 115.572 359.419 117.589 358.86C117.339 358.934 117.693 358.97 117.678 359.022C118.283 359.03 118.884 358.928 119.453 358.72H120.101V358.772C120.097 358.755 120.097 358.737 120.101 358.72H125.418C125.595 358.764 125.779 358.816 125.978 358.853C127.451 358.853 128.924 358.801 130.397 358.72H139.544L139.617 358.801C139.662 358.956 139.942 358.801 140.236 358.72H178.769C178.827 358.948 178.894 358.963 178.967 358.72H180.212V339.511C180.293 337.584 180.374 335.51 180.462 333.245L180.529 333.708C180.698 323.566 180.735 317.182 180.389 310.174C180.809 309.07 180.433 301.841 180.566 299.466L180.602 299.694C180.278 293.508 180.875 286.948 180.602 280.991C180.745 281.556 180.799 282.139 180.764 282.719C180.705 278.373 180.617 272.423 180.86 272.107C180.794 261.73 180.912 247.249 180.514 240.601L180.588 241.057C180.315 237.269 180.543 236.151 180.411 231.915C180.411 231.687 180.462 231.385 180.47 231.43C180.212 227.304 180.433 219.383 180.323 216.051L180.485 215.831L180.448 207.616V210.683C179.998 209.624 180.728 204.468 180.448 198.511C180.499 192.929 179.505 187.193 179.711 181.397C179.505 178.639 180.057 183.832 179.895 179.706C180.131 179.566 180.043 181.633 180.227 180.566C180.116 176.514 180.47 173.947 180.308 168.917L180.492 168.711C180.161 162.188 180.735 156.4 180.418 152.06C180.264 145.331 180.956 147.545 180.602 140.536L180.845 137.815C180.89 134.814 180.543 135.667 180.669 132.343C180.823 132.549 180.787 128.144 180.941 130.093C181.059 126.357 180.978 122.577 180.941 118.495C180.823 116.472 180.794 114.362 180.801 112.148Z" fill="#CCCCCC"/>
</g>
<defs>
<clipPath id="clip0_707_6884">
<rect width="339" height="360" fill="white" transform="translate(71)"/>
</clipPath>
</defs>
</svg>
