<svg width="292" height="600" viewBox="0 0 292 600" fill="none" xmlns="http://www.w3.org/2000/svg">
<g clip-path="url(#clip0_1403_4826)">
<path d="M275.593 497.233L275.465 497.533C275.528 497.528 275.578 497.452 275.593 497.233Z" fill="#1F1F1F"/>
<path d="M271.263 508.936V508.92L271.232 508.842L271.263 508.936Z" fill="#1F1F1F"/>
<path d="M276.2 534.396C275.666 533.22 276.768 533.765 276.039 532.455C276.083 532.977 275.437 532.695 275.559 532.061L275.82 532.223C275.765 531.871 275.658 531.753 275.713 531.519C275.854 531.727 276.093 531.631 276.052 531.114L276.38 531.461L275.901 530.48C276.185 529.727 275.838 528.529 276.208 528.219C276.208 528.219 276.398 526.596 275.994 526.223C276.255 526.549 276.344 525.654 276.638 525.91C276.46 525.582 276.35 525.221 276.315 524.85C276.28 524.478 276.321 524.103 276.435 523.747L276.469 523.844C276.787 522.005 276.057 520.693 276.44 519.044C276.122 519.117 276.299 518.246 275.893 518.46C275.502 516.751 276.729 515.347 275.481 514.726C275.418 513.944 275.778 513.806 275.843 513.404L275.908 513.589C275.823 512.605 275.798 511.616 275.835 510.628C275.715 510.088 275.137 510.002 275.28 509.034C275.509 509.347 275.468 508.953 275.47 508.591C275.504 508.823 275.59 508.893 275.747 508.419C275.678 508.344 275.626 508.255 275.595 508.158C275.614 508.158 275.627 508.134 275.653 508.145C275.572 507.54 275.502 507.644 275.468 507.926C275.434 507.91 275.387 507.926 275.324 508.02C275.624 507.393 275.309 506.272 275.707 506.193C275.621 504.367 275.217 503.063 275.069 501.563C275.272 501.396 275.452 501.748 275.53 502.189L275.46 501.114C275.752 501.114 275.627 501.733 275.684 502.061C276.164 500.788 275.22 499.429 275.661 497.932L275.429 497.621L275.468 497.533C275.345 497.533 275.178 497.201 275.142 496.977C275.403 496.768 275.731 496.995 275.715 496.254C275.976 495.667 275.598 494.587 275.455 493.82C275.41 494.233 275.267 494.1 275.178 493.922C275.178 493.549 275.426 493.338 275.319 493.051L275.663 493.017C275.478 493.1 275.402 492.774 275.327 492.453C274.738 492.503 274.141 492.532 273.539 492.532C272.877 492.532 272.236 492.493 271.584 492.433C271.61 492.793 271.636 493.16 271.654 493.557C271.275 496.638 271.095 499.74 271.115 502.844C271.06 504.84 271.188 506.968 271.253 508.92C271.711 509.846 271.253 511.479 271.633 512.572L271.373 512.994C271.533 513.374 271.559 513.797 271.448 514.194L271.373 514.171C271.462 514.66 271.52 515.154 271.545 515.65L271.469 515.627L271.501 516.313L271.391 516.195C271.58 517.146 271.62 518.12 271.508 519.083L271.826 519.013C271.461 520.92 272.118 521.621 271.688 523.343L271.613 523.317C272.441 525.5 271.026 526.758 271.813 529.007C271.714 528.727 271.649 529.127 271.571 529.103C271.657 530.147 271.698 531.242 272.324 531.26C272.311 532.014 272.126 531.873 271.884 531.97C272.157 531.97 272.267 532.622 272.282 533.212L272.178 532.951L272.264 534.636L272.785 534.307C272.632 535.202 272.155 534.532 272.277 535.39H272.705C272.461 536.475 272.104 537.532 271.641 538.544C271.435 543.516 272.496 548.867 271.72 553.492L271.396 553.693C270.927 553.781 272.082 554.973 271.657 555.148L271.868 555.688C271.782 555.84 271.691 556.158 271.586 555.889C271.558 556.192 271.626 556.496 271.782 556.758L271.488 557.28C271.248 559.244 271.803 560.916 271.675 562.982C271.289 566.258 271.357 569.572 271.876 572.83C272.548 576.62 270.646 581.006 271.407 584.885C271.39 584.965 271.394 585.048 271.417 585.127C271.44 585.206 271.482 585.278 271.539 585.336L271.433 588.879C271.384 591.143 271.471 593.408 271.693 595.661C271.562 595.678 271.435 595.721 271.321 595.789C271.208 595.857 271.109 595.948 271.031 596.055C270.961 595.424 270.51 595.99 270.361 595.794L270.375 595.742C269.989 596.227 269.579 595.338 269.207 595.774C269.22 595.724 269.23 595.549 269.316 595.539C269.056 595.62 268.672 595.758 268.652 595.39C268.005 595.484 267.101 595.312 266.681 595.896L266.71 595.794C266.472 596.188 266.405 595.852 266.139 596.055C266.123 596.006 266.105 595.982 266.107 595.961C265.847 596.35 265.354 596.016 265.145 596.183L265.133 595.938L264.611 595.993L264.801 596.045C264.731 596.715 264.418 595.622 264.04 596.045C263.944 596.021 263.845 596.123 263.746 596.267L262.622 596.102L262.813 596.003L262.179 595.964V595.933C262.169 595.943 262.157 595.953 262.145 595.961L261.449 595.917H261.285L260.832 595.896C260.74 595.695 260.691 595.442 260.42 595.763L260.255 595.393C260.068 595.33 260.115 595.841 259.909 595.653C259.925 595.421 259.648 595.463 259.773 595.247C259.309 594.876 258.812 595.745 258.209 595.121C258.066 595.573 257.758 595.299 257.654 595.643C257.639 595.447 257.028 595.601 257.393 595.181C257.425 595.145 257.477 595.153 257.472 595.231L257.519 594.97C257.175 594.448 256.872 595.231 256.526 595.153C256.627 595.244 256.765 595.223 256.669 595.414L256.345 595.369L256.419 595.145L255.936 595.004L255.999 595.286C255.764 595.137 255.691 594.66 255.415 595.051C255.29 595.27 255.631 595.432 255.381 595.515C255.018 595.261 254.619 595.064 254.198 594.931C254.229 595.244 254.122 595.231 254.007 595.291V595.03C253.569 595.398 253.864 594.427 253.431 594.717L253.348 595.095C252.952 595.617 253.155 594.527 252.712 595.254C252.881 595.213 252.777 595.857 252.571 595.734L252.631 595.473C252.514 595.528 252.472 595.635 252.396 595.58C252.469 595.44 252.443 595.197 252.274 595.239L252.394 594.913L252.063 595.387C251.823 595.1 251.424 595.445 251.333 595.069C251.333 595.069 250.812 594.876 250.676 595.278C250.788 595.017 250.499 594.926 250.59 594.631C250.447 594.913 250.032 595.137 249.879 594.827L249.912 594.793C249.321 594.467 248.87 595.189 248.348 594.793C248.364 595.108 248.088 594.928 248.143 595.335C247.572 595.719 247.152 594.48 246.912 595.724C246.651 595.784 246.62 595.421 246.49 595.353L246.553 595.288C246.237 595.368 245.908 595.387 245.586 595.343C245.45 595.429 245.39 595.768 245.241 595.878L245.054 595.862C245.135 595.672 245.02 595.7 244.908 595.695C244.983 595.661 245.009 595.578 244.861 595.419C244.84 595.474 244.808 595.525 244.767 595.567C244.765 595.548 244.765 595.529 244.767 595.51C244.569 595.583 244.6 595.656 244.691 595.693C244.686 595.741 244.695 595.79 244.718 595.833V595.833C244.522 595.536 244.149 595.833 244.136 595.44C243.848 595.486 243.569 595.583 243.315 595.727C243.106 595.713 242.901 595.698 242.695 595.693C242.73 595.649 242.773 595.612 242.822 595.586L242.47 595.646C242.483 595.353 242.679 595.484 242.789 595.429C242.39 594.939 241.91 595.87 241.438 595.416L241.363 595.575H241.295C241.293 595.551 241.284 595.528 241.268 595.509C241.253 595.491 241.232 595.477 241.209 595.471L241.282 595.575H241.073C241.06 595.437 241.029 595.33 240.893 595.335C240.711 595.074 240.346 595.437 240.088 595.565C240.112 595.573 240.133 595.588 240.148 595.609H239.833V595.348C239.84 595.401 239.832 595.456 239.81 595.504C239.788 595.553 239.752 595.595 239.708 595.625H239.504C239.569 595.567 239.663 595.531 239.687 595.419L238.957 595.437C238.925 595.46 238.899 595.489 238.88 595.523C238.861 595.557 238.849 595.594 238.845 595.633C237.888 595.633 237.143 595.578 237.072 595.372C232.671 595.234 228.266 595.373 223.883 595.789L224.075 595.687C222.808 595.869 221.529 595.947 220.249 595.92C220.152 595.87 220.027 595.847 220.046 595.826C218.317 596.204 215.007 595.849 213.607 596.006L213.519 595.763L210.081 595.794L211.366 595.854C210.915 596.522 208.759 595.416 206.27 595.833C203.924 595.732 201.526 597.193 199.104 596.846C197.944 597.151 200.126 596.342 198.395 596.572C198.341 596.222 199.203 596.358 198.76 596.076C197.063 596.23 195.982 595.698 193.886 595.92L193.802 595.659C191.068 596.136 188.654 595.265 186.832 595.724C184.017 595.93 184.95 594.902 182.015 595.414L180.879 595.038C179.625 594.97 179.977 595.484 178.588 595.299C178.674 595.067 176.83 595.1 177.646 594.887C174.5 594.5 171.25 595.356 167.108 594.712C166.203 595.158 164.118 594.873 163.459 595.207C163.346 595.009 159.288 595.145 161.621 594.735C161.824 594.701 162.179 594.712 162.155 594.787L162.437 594.527C160.224 594.364 158.001 594.415 155.798 594.678C156.491 594.772 157.414 594.756 156.796 594.939L154.622 594.887L155.076 594.662L151.838 594.508L152.281 594.79C151.005 594.429 149.667 594.341 148.353 594.529C147.543 594.746 149.852 594.915 148.179 594.991C146.062 594.785 142.89 594.469 140.184 594.373C140.445 594.688 139.707 594.673 138.959 594.73L138.873 594.469C136.006 594.827 137.83 593.861 134.963 594.14L134.46 594.516C131.885 595.038 133.079 593.942 130.216 594.66C131.345 594.62 130.738 595.262 129.354 595.134L129.708 594.874C129.199 594.953 128.685 594.987 128.17 594.975C128.629 594.834 128.413 594.592 127.284 594.631L128.043 594.305L125.902 594.774C124.252 594.48 121.633 594.816 120.95 594.44C119.492 594.318 118.025 594.383 116.584 594.633C117.301 594.373 115.343 594.273 115.904 593.981C114.354 594.339 112.75 594.401 111.178 594.164L111.384 594.13C107.362 593.791 104.5 594.506 100.895 594.101C101.056 594.42 99.1507 594.234 99.6199 594.641C95.882 595.014 92.8166 593.77 91.4586 595.009C90.4831 595.003 89.5121 594.876 88.5678 594.631L88.9745 594.568C85.7892 594.647 84.8664 594.652 82.5022 594.607C81.3214 594.72 81.1313 595.299 79.0173 595.129C79.7029 594.905 78.8373 594.941 78.0475 594.936C78.5532 594.902 78.7095 594.819 77.672 594.657C77.4845 594.731 77.2882 594.78 77.0881 594.803C77.0881 594.785 77.036 594.772 77.0595 594.748C75.7379 594.819 75.9674 594.892 76.58 594.928C76.5487 594.965 76.6007 595.009 76.7884 595.074C75.4199 594.767 72.9698 595.074 72.8056 594.67C68.8331 594.733 65.9946 595.121 62.6894 595.252C62.3192 595.043 63.0933 594.868 64.0525 594.798L61.7065 594.855C61.7299 594.56 63.0543 594.696 63.7763 594.641C60.9898 594.146 58.0208 595.074 54.7521 594.615L54.0718 594.842L53.8764 594.803C53.8764 594.926 53.149 595.087 52.6641 595.121C52.2027 594.86 52.7008 594.534 51.0795 594.537C50.6231 594.462 50.1602 594.433 49.6979 594.451C49.6536 594.409 49.6144 594.367 49.5675 594.326L49.5859 594.221C49.0099 594.005 48.6528 593.96 48.2826 594.482C48.194 593.853 47.816 594.435 47.6752 594.237V594.185C47.3494 594.683 46.9505 593.812 46.6325 594.258C46.6325 594.206 46.6457 594.033 46.7213 594.02C46.4815 594.109 46.1556 594.258 46.1243 593.893C45.5509 594.005 44.7429 593.861 44.3857 594.453L44.4064 594.352C44.2396 594.683 44.1616 594.511 44.0052 594.56C44.0041 594.548 43.9983 594.536 43.9893 594.527V594.563C43.9543 594.575 43.9226 594.595 43.8957 594.62C43.8827 594.574 43.8642 594.547 43.8668 594.529C43.6452 594.923 43.1943 594.602 43.0118 594.772V594.61H43.0353H43.0118V594.54L42.5533 594.605H42.5765H42.3159C42.2867 594.584 42.2517 594.572 42.2157 594.572C42.1797 594.572 42.1444 594.584 42.1151 594.605H40.374V594.584L40.3504 594.605H39.7901C39.6911 594.55 39.5999 594.524 39.5295 594.605H39.2167C39.1125 594.407 39.0811 594.06 38.8152 594.417L38.6666 594.049C38.4998 593.987 38.5443 594.498 38.3592 594.31C38.3722 594.078 38.1272 594.125 38.2393 593.903C37.8248 593.538 37.3817 594.407 36.8395 593.786C36.7118 594.237 36.4379 593.963 36.3441 594.307C36.3311 594.109 35.7864 594.266 36.1071 593.846C36.1357 593.809 36.1826 593.817 36.1774 593.893L36.2191 593.632C35.9167 593.11 35.6431 593.893 35.3329 593.812C35.4241 593.903 35.5465 593.882 35.4605 594.073L35.1738 594.028L35.239 593.804L34.8114 593.663L34.8636 593.942C34.655 593.793 34.603 593.319 34.3424 593.707C34.2277 593.927 34.5299 594.088 34.3058 594.172C33.9915 593.92 33.6396 593.719 33.2631 593.577C33.2865 593.893 33.19 593.877 33.0884 593.937V593.676C32.6948 594.041 32.9712 593.071 32.5828 593.358L32.6219 593.17L32.5019 593.736C32.1396 594.258 32.3404 593.165 31.9311 593.887C32.0823 593.846 31.978 594.49 31.7981 594.365L31.8557 594.104C31.7514 594.156 31.7122 594.266 31.6444 594.206C31.7122 594.067 31.6941 593.825 31.5429 593.864L31.6549 593.54L31.3526 594.01C31.1441 593.718 30.7816 594.054 30.7086 593.681C30.7086 593.681 30.2448 593.478 30.1171 593.877C30.224 593.616 29.9683 593.522 30.0595 593.23C29.9214 593.509 29.5382 593.726 29.4209 593.413L29.4495 593.379C28.9282 593.037 28.5139 593.752 28.0578 593.347C28.0578 593.663 27.818 593.478 27.8545 593.885C27.3331 594.258 27.0046 593.006 26.744 594.242C26.512 594.294 26.4962 593.932 26.3815 593.859L26.4417 593.796C26.1582 593.865 25.8634 593.874 25.5762 593.822C25.4094 593.934 25.3417 594.511 25.0706 594.344C25.1801 594.122 25.0704 594.153 24.9557 594.146C25.0261 594.114 25.0522 594.034 24.9271 593.867C24.907 593.92 24.8771 593.97 24.8386 594.013C24.8359 593.994 24.8359 593.974 24.8386 593.955C24.6562 594.023 24.6822 594.096 24.7604 594.135C24.7539 594.184 24.7592 594.235 24.776 594.281C24.617 593.968 24.2676 594.26 24.2754 593.864C23.7541 593.911 23.3293 594.294 22.8757 594.407C22.8615 594.318 22.8751 594.228 22.9149 594.148C22.9546 594.068 23.0186 594.002 23.0975 593.96L22.7793 594.007C22.808 593.715 22.9723 593.853 23.074 593.804C22.7455 593.298 22.2683 594.208 21.8721 593.734L21.7601 593.958L21.7366 593.916C21.7272 593.978 21.7056 594.038 21.673 594.092C21.6403 594.145 21.5972 594.192 21.5463 594.229C21.5098 593.968 21.6064 593.642 21.3901 593.64C21.2415 593.379 20.8948 593.718 20.6576 593.833C20.7749 593.887 20.7202 594.023 20.6576 594.109C20.5507 594.109 20.5115 593.848 20.4177 593.947L20.4412 593.6C20.4412 593.929 20.1259 593.921 20.0737 594.06C20.0372 593.799 20.2613 593.856 20.3082 593.668L19.6566 593.65C19.3959 593.885 19.6565 593.979 19.5236 594.268C19.3124 594.315 19.0882 594.529 18.8745 594.302L18.9165 594.615C18.8285 594.673 18.7272 594.707 18.6221 594.715C18.5171 594.722 18.4118 594.702 18.3167 594.657C18.4861 594.187 18.6609 593.676 18.8382 593.092L18.9372 593.18C19.2919 591.691 19.2414 590.133 18.7911 588.67C19.4245 588.464 18.8747 587.073 19.0832 586.622L19.1354 586.664C18.6636 585.474 19.5629 584.227 19.1354 583.082C19.1849 583.127 19.357 583.153 19.3648 583.416C19.2944 582.581 19.164 581.444 19.5315 581.384C19.6548 579.359 19.4996 577.327 19.0702 575.345L19.1717 575.433C18.7833 574.706 19.1195 574.494 18.9266 573.68C18.9736 573.639 18.9997 573.581 19.0205 573.589C18.6347 572.807 18.9763 571.283 18.8146 570.644L19.0571 570.602L19.0129 569.037L18.9553 569.624C18.288 569.415 19.3854 568.437 18.9553 567.294C19.0465 566.225 17.5766 565.119 17.9129 564.01C17.6027 563.488 18.4211 564.48 18.1735 563.689C18.5228 563.663 18.3897 564.06 18.6686 563.856C18.5096 563.073 19.0335 562.586 18.8041 561.626L19.0778 561.589C18.5877 560.337 19.4506 559.241 18.9814 558.401C18.7624 557.11 19.7946 557.54 19.2681 556.197L19.641 555.675C19.7035 555.101 19.1927 555.26 19.3804 554.632C19.6124 554.671 19.5706 553.828 19.7896 554.201C20.1597 552.764 19.289 551.274 19.9146 549.38C19.4637 548.966 19.7375 548.011 19.3934 547.703C19.5915 547.653 19.4351 545.788 19.8574 546.863C19.8912 546.957 19.8833 547.124 19.8077 547.108L20.0683 547.236C20.5896 546.159 19.8079 545.269 19.8834 544.2C19.7948 544.515 19.8157 544.938 19.6229 544.656L19.6645 543.662L19.8885 543.868L20.0266 542.387L19.7479 542.59C19.8939 541.865 20.3709 541.614 19.9773 540.793C19.7584 540.422 19.5994 541.479 19.5159 540.712C19.7807 539.507 19.9729 538.287 20.0919 537.06C19.7791 537.172 19.792 536.84 19.7294 536.496L19.9904 536.46C19.6202 535.142 20.5923 535.98 20.2977 534.675L19.9197 534.443C19.3854 533.267 20.488 533.812 19.7555 532.502C19.7998 533.024 19.1561 532.742 19.276 532.108L19.5366 532.27C19.4819 531.918 19.3724 531.8 19.4272 531.566C19.5679 531.774 19.8103 531.678 19.7686 531.161L20.0944 531.508L19.6149 530.527C19.9016 529.773 19.5524 528.576 19.9251 528.266C19.9251 528.266 20.1128 526.643 19.7088 526.27C19.9694 526.596 20.0608 525.701 20.3553 525.957C20.1765 525.629 20.0659 525.269 20.0305 524.897C19.9951 524.525 20.0354 524.15 20.1491 523.794L20.1832 523.891C20.5012 522.052 19.7714 520.74 20.1545 519.091C19.8391 519.164 20.0138 518.293 19.6098 518.507C19.2188 516.798 20.4437 515.394 19.1977 514.773C19.1326 513.991 19.495 513.853 19.5602 513.451L19.6254 513.636C19.5399 512.652 19.5154 511.663 19.5522 510.675C19.4323 510.135 18.8511 510.049 18.9944 509.081C19.2264 509.394 19.1847 509 19.1847 508.638C19.2212 508.87 19.3048 508.94 19.4612 508.466C19.3931 508.39 19.3416 508.301 19.3101 508.205C19.3283 508.205 19.3439 508.181 19.3673 508.192C19.2891 507.587 19.216 507.691 19.1847 507.973C19.1482 507.957 19.1041 507.973 19.039 508.067C19.3387 507.44 19.0259 506.319 19.4221 506.24C19.3361 504.414 18.932 503.11 18.7835 501.61C18.9894 501.443 19.1692 501.795 19.2448 502.236L19.1745 501.161C19.4691 501.161 19.3412 501.78 19.3985 502.108C19.8781 500.835 18.9345 499.476 19.375 497.979L19.1456 497.668L19.1847 497.58C19.0622 497.58 18.8954 497.248 18.8563 497.024C19.117 496.815 19.4456 497.042 19.4326 496.301C19.5279 495.481 19.4386 494.649 19.1717 493.867C19.1273 494.28 18.9867 494.146 18.9111 493.969C18.9111 493.596 19.1586 493.385 19.0492 493.098L19.396 493.064C19.2187 493.142 19.1354 492.855 19.0676 492.542C18.7731 492.542 18.4809 492.568 18.1811 492.568C17.2218 492.561 16.264 492.491 15.3139 492.357C15.3452 492.748 15.3739 493.155 15.3947 493.593C15.0146 496.674 14.8343 499.776 14.8551 502.88C14.8003 504.876 14.9283 507.005 14.9935 508.956C15.4523 509.882 14.9932 511.515 15.3712 512.608L15.1106 513.031C15.2704 513.411 15.2972 513.834 15.1863 514.231L15.1106 514.207C15.2006 514.696 15.2589 515.19 15.2853 515.686L15.207 515.663L15.2385 516.349L15.1316 516.232C15.3215 517.182 15.3601 518.157 15.2461 519.12L15.5643 519.049C15.202 520.956 15.8563 521.658 15.4288 523.38L15.353 523.353C16.1793 525.537 14.7667 526.794 15.5513 529.043C15.4548 528.764 15.387 529.163 15.3114 529.14C15.3974 530.183 15.439 531.279 16.062 531.297C16.062 532.051 15.864 531.91 15.6241 532.007C15.8848 532.007 16.0073 532.659 16.0203 533.248L15.9162 532.987L16.0022 534.673L16.5234 534.344C16.3696 535.239 15.8927 534.568 16.0022 535.427H16.4295C16.1875 536.512 15.8319 537.569 15.3686 538.58C15.1601 543.553 16.2237 548.903 15.4444 553.528L15.1211 553.729C14.6519 553.818 15.8092 555.01 15.3817 555.185L15.593 555.725C15.5096 555.876 15.4156 556.194 15.3139 555.926C15.2839 556.229 15.3526 556.533 15.5096 556.794L15.2124 557.316C14.9752 559.28 15.5279 560.953 15.4001 563.019C15.0163 566.295 15.0847 569.609 15.6035 572.867C16.276 576.657 14.3705 581.042 15.1316 584.921C15.1169 585.002 15.1212 585.084 15.1443 585.163C15.1674 585.241 15.2087 585.313 15.2646 585.373L15.1577 588.915C15.1057 591.234 15.1987 593.555 15.4364 595.862C15.494 596.398 15.6203 596.924 15.8119 597.427C15.8433 597.503 15.8862 597.574 15.9395 597.636C15.9577 597.636 15.9762 597.673 15.9996 597.675C16.2342 598.479 22.3154 598.852 22.3154 598.852C30.7426 599.59 35.1008 598.732 45.1389 598.565C53.9597 598.784 56.2954 599.394 65.442 599.22C69.8029 599.3 74.4583 599.196 78.7227 599.157C80.748 598.708 84.3191 599.191 86.7172 598.82L87.6425 599.081C88.5089 598.924 89.3944 598.903 90.2673 599.019L90.2151 599.097C91.448 598.907 92.8376 599.034 93.4502 598.94L93.398 599.016L94.8966 598.993L94.636 599.1C96.7366 598.92 98.8474 598.893 100.952 599.019L100.793 598.698C104.963 599.084 106.496 598.437 110.26 598.886L110.208 598.961C114.976 598.158 117.731 599.587 122.644 598.828C122.032 598.922 122.905 598.993 122.855 599.071C125.115 598.995 127.532 598.967 127.571 598.343C129.218 598.361 128.91 598.547 129.135 598.789C129.135 598.528 130.558 598.414 131.843 598.406L131.251 598.507L134.937 598.44L134.217 597.918C136.17 598.082 134.708 598.552 136.582 598.44L136.561 598.012C138.877 598.259 141.179 598.626 143.458 599.11C154.33 599.371 166.021 598.367 176.135 599.193L176.578 599.52C176.771 599.989 179.375 598.844 179.758 599.282L180.936 599.076C181.267 599.162 181.963 599.256 181.376 599.358C182.016 599.393 182.657 599.33 183.277 599.17L184.442 599.473C188.735 599.734 192.389 599.193 196.907 599.34C204.079 599.756 211.27 599.719 218.437 599.227C224.555 599.082 230.676 599.293 236.77 599.861C237.099 599.973 237.453 599.986 237.789 599.9C239.092 599.947 240.396 599.968 241.681 599.942C242.059 600.035 242.451 600.051 242.835 599.989C243.503 600.021 244.172 599.991 244.835 599.9C244.863 599.862 244.896 599.828 244.934 599.799C245.198 599.804 245.461 599.769 245.716 599.697C245.777 599.692 245.838 599.678 245.896 599.655H246.117L246.193 599.809C246.32 599.681 246.469 599.595 246.589 599.741V599.817C246.759 599.647 246.933 599.718 247.037 599.671H247.077V599.728L247.303 599.702L247.261 599.809C247.363 599.75 247.473 599.706 247.587 599.679H248.124C248.154 599.684 248.184 599.691 248.213 599.7V599.679L253.572 599.765C253.572 599.765 256.202 599.796 259.544 599.765L259.57 599.898C259.583 600.143 259.698 599.945 259.815 599.762H260.719L260.753 599.82C261.076 599.908 261.42 599.882 261.726 599.747L262.831 599.726C263.523 599.948 264.27 599.929 264.95 599.671C265.899 599.64 266.829 599.6 267.705 599.553C268.419 599.851 269.142 600.177 269.817 599.752C269.858 599.82 269.965 599.668 269.965 599.616L271.13 599.681C271.13 599.681 274.9 599.788 273.922 597.707L274.099 597.665H274.076C274.045 597.661 274.015 597.661 273.985 597.665C273.961 597.672 273.938 597.681 273.917 597.693C273.803 597.466 273.664 597.25 273.505 597.052C273.578 596.927 273.654 596.791 273.732 596.645C274.276 595.496 274.729 594.306 275.087 593.087L275.189 593.175C275.541 591.685 275.49 590.128 275.04 588.665C275.674 588.459 275.124 587.068 275.335 586.617L275.384 586.659C274.913 585.469 275.815 584.222 275.384 583.077C275.434 583.121 275.609 583.147 275.616 583.411C275.543 582.576 275.416 581.439 275.783 581.379C275.907 579.354 275.751 577.322 275.322 575.34L275.424 575.428C275.033 574.7 275.371 574.489 275.176 573.675C275.225 573.633 275.249 573.576 275.27 573.584C274.886 572.801 275.225 571.278 275.064 570.639L275.309 570.597L275.262 569.032L275.207 569.619C274.537 569.41 275.635 568.432 275.207 567.289C275.298 566.22 273.828 565.113 274.164 564.005C273.854 563.483 274.67 564.474 274.425 563.684C274.774 563.658 274.642 564.054 274.923 563.851C274.761 563.068 275.288 562.58 275.059 561.62L275.319 561.584C274.829 560.332 275.692 559.236 275.223 558.396C275.006 557.105 276.036 557.535 275.512 556.192L275.882 555.67C275.945 555.096 275.434 555.255 275.621 554.627C275.853 554.666 275.812 553.823 276.028 554.196C276.398 552.759 275.53 551.269 276.153 549.375C275.705 548.96 275.979 548.006 275.632 547.698C275.83 547.648 275.676 545.783 276.096 546.858C276.13 546.952 276.122 547.119 276.046 547.103L276.307 547.231C276.829 546.153 276.046 545.264 276.125 544.194C276.033 544.51 276.054 544.933 275.864 544.651L275.906 543.657L276.13 543.863L276.271 542.381L275.989 542.585C276.138 541.86 276.612 541.609 276.221 540.787C276.002 540.417 275.84 541.473 275.757 540.707C276.023 539.502 276.216 538.282 276.336 537.054C276.02 537.167 276.033 536.835 275.971 536.491L276.231 536.454C275.859 535.137 276.834 535.974 276.539 534.67L276.2 534.396ZM42.707 594.68C42.6731 594.941 42.587 594.842 42.4671 594.712C42.5609 594.704 42.6314 594.691 42.707 594.68ZM41.8364 594.787C41.8008 594.838 41.7678 594.89 41.7374 594.944C41.6795 594.951 41.6225 594.965 41.5678 594.986C41.3828 594.881 41.5575 594.827 41.8364 594.782V594.787ZM241.264 595.557V595.573V595.565H241.324L241.295 595.627L241.266 595.588C241.26 595.639 241.242 595.688 241.214 595.732L241.055 595.747C241.055 595.7 241.055 595.659 241.042 595.614C241.114 595.591 241.188 595.574 241.264 595.565V595.557Z" fill="#1F1F1F"/>
<path d="M275.593 492.579V492.428H275.501C275.513 492.488 275.546 492.541 275.593 492.579V492.579Z" fill="#1F1F1F"/>
<path d="M276.581 534.628L276.771 534.743L276.581 534.628Z" fill="#1F1F1F"/>
<path d="M243.68 394.244L243.552 394.505C243.61 394.495 243.662 394.435 243.68 394.244Z" fill="#1F1F1F"/>
<path d="M239.348 404.123V404.11L239.316 404.045L239.348 404.123Z" fill="#1F1F1F"/>
<path d="M244.665 425.833L244.856 425.932L244.665 425.833Z" fill="#1F1F1F"/>
<path d="M239.21 398.979C239.155 400.664 239.283 402.464 239.348 404.11C239.806 404.893 239.348 406.273 239.728 407.201L239.468 407.559C239.547 407.714 239.595 407.883 239.608 408.057C239.621 408.231 239.599 408.406 239.543 408.571L239.465 408.55C239.663 409.027 239.541 409.565 239.64 409.802L239.564 409.781L239.595 410.36L239.486 410.261C239.675 411.06 239.715 411.887 239.603 412.7L239.921 412.64C239.556 414.25 240.213 414.845 239.783 416.293L239.708 416.272C240.536 418.116 239.121 419.178 239.908 421.077C239.809 420.84 239.744 421.179 239.666 421.158C239.752 422.032 239.793 422.966 240.419 422.984C240.406 423.62 240.221 423.506 239.979 423.584C240.239 423.584 240.362 424.134 240.377 424.627L240.273 424.398L240.359 425.822L240.88 425.546C240.727 426.3 240.25 425.734 240.359 426.456H240.787C240.695 427.5 240.044 428.107 239.723 429.117C239.517 433.317 240.578 437.838 239.801 441.743L239.478 441.913C239.009 441.986 240.166 442.995 239.739 443.141L239.95 443.598C239.864 443.726 239.773 443.994 239.668 443.767C239.641 444.028 239.71 444.289 239.864 444.5L239.569 444.952C239.332 446.608 239.885 448.022 239.757 449.767C239.372 452.533 239.44 455.343 239.96 458.087C240.633 461.287 238.728 464.987 239.489 468.26C239.421 468.367 239.567 468.644 239.621 468.641L239.515 471.634C239.47 473.447 239.542 475.261 239.731 477.065H242.387C242.629 476.543 242.885 475.927 243.169 475.187L243.268 475.262C243.622 474.006 243.57 472.67 243.12 471.446C243.753 471.276 243.206 470.1 243.414 469.719L243.463 469.755C242.992 468.748 243.894 467.697 243.463 466.727C243.513 466.766 243.685 466.789 243.693 467.011C243.623 466.307 243.492 465.344 243.86 465.294C243.983 463.58 243.827 461.857 243.399 460.192L243.5 460.267C243.109 459.649 243.448 459.472 243.253 458.786C243.302 458.749 243.328 458.7 243.346 458.707C242.963 458.037 243.305 456.759 243.141 456.219L243.386 456.185L243.338 454.857L243.284 455.353C242.614 455.175 243.711 454.351 243.284 453.383C243.375 452.48 241.905 451.541 242.241 450.607C241.931 450.159 242.747 451.007 242.502 450.347C242.854 450.328 242.721 450.66 243 450.49C242.838 449.833 243.364 449.418 243.135 448.607L243.396 448.575C242.908 447.516 243.768 446.587 243.299 445.88C243.083 444.793 244.113 445.158 243.589 444.02L243.959 443.582C244.021 443.097 243.511 443.233 243.698 442.695C243.93 442.729 243.889 442.017 244.105 442.335C244.478 441.12 243.607 439.86 244.23 438.263C243.782 437.911 244.055 437.105 243.708 436.844C243.904 436.802 243.75 435.227 244.17 436.137C244.204 436.215 244.199 436.351 244.121 436.343L244.381 436.453C244.902 435.542 244.121 434.788 244.199 433.886C244.108 434.147 244.128 434.509 243.938 434.269L243.98 433.429L244.204 433.607L244.345 432.354L244.063 432.527C244.212 431.914 244.686 431.702 244.295 431.008C244.076 430.695 243.914 431.587 243.831 430.94C244.096 429.926 244.289 428.894 244.41 427.852C244.094 427.948 244.107 427.667 244.045 427.377L244.305 427.346C243.933 426.234 244.908 426.941 244.613 425.838L244.233 425.642C243.711 424.646 244.801 425.12 244.071 424.001C244.115 424.44 243.469 424.205 243.591 423.667L243.852 423.806C243.797 423.508 243.688 423.409 243.745 423.211C243.886 423.388 244.126 423.307 244.084 422.869L244.412 423.164L243.933 422.334C244.217 421.698 243.87 420.686 244.241 420.425C244.241 420.425 244.431 419.055 244.027 418.737C244.287 419.014 244.376 418.26 244.67 418.476C244.494 418.21 244.384 417.905 244.348 417.588C244.313 417.27 244.354 416.949 244.467 416.65L244.501 416.728C244.819 415.163 244.087 414.067 244.472 412.674C244.154 412.737 244.331 412.001 243.925 412.181C243.534 410.736 244.762 409.554 243.513 409.027C243.451 408.37 243.81 408.245 243.876 407.911L243.941 408.067C243.856 407.236 243.831 406.4 243.868 405.566C243.748 405.109 243.169 405.044 243.312 404.22C243.542 404.48 243.5 404.149 243.503 403.844C243.537 404.04 243.623 404.105 243.779 403.7C243.711 403.638 243.66 403.56 243.628 403.474C243.646 403.474 243.659 403.455 243.685 403.474C243.604 402.952 243.534 403.051 243.5 403.288C243.464 403.275 243.419 403.288 243.354 403.369C243.656 402.847 243.341 401.893 243.737 401.83C243.654 400.294 243.25 399.195 243.101 397.917C243.305 397.774 243.485 398.074 243.563 398.439L243.492 397.534C243.784 397.534 243.659 398.055 243.716 398.332C244.193 397.257 243.252 396.107 243.693 394.844L243.461 394.583L243.5 394.51C243.378 394.51 243.211 394.228 243.172 394.04C243.432 393.863 243.761 394.056 243.748 393.43C244.008 392.934 243.63 392.021 243.487 391.372C243.443 391.721 243.302 391.609 243.213 391.458C243.213 391.145 243.474 390.965 243.351 390.725L243.698 390.696C243.372 390.816 243.352 389.877 243.211 389.76C243.472 389.582 243.427 390.245 243.62 390.326L243.581 388.442L243.563 388.406C242.908 388.468 242.246 388.502 241.574 388.502C240.839 388.502 240.117 388.458 239.405 388.387C239.52 389.196 239.629 390.086 239.689 391.145C239.331 393.74 239.171 396.359 239.21 398.979V398.979Z" fill="#1F1F1F"/>
<path d="M78.6004 310.505L78.4697 310.706C78.5324 310.695 78.5822 310.654 78.6004 310.505Z" fill="#1F1F1F"/>
<path d="M74.2132 318.333L74.1816 318.281L74.2132 318.333Z" fill="#1F1F1F"/>
<path d="M73.9946 369.41C73.9268 369.493 74.07 369.715 74.1247 369.715L73.9997 372.092C73.9997 372.092 73.9867 372.47 73.9841 373.033H77.9357C77.8932 372.667 77.7797 372.313 77.6019 371.99C78.2353 371.865 77.6934 370.918 77.9045 370.615L77.9564 370.646C77.4898 369.838 78.397 369.011 77.9799 368.233C78.0294 368.265 78.2016 368.286 78.2068 368.463C78.1416 367.9 78.0165 367.13 78.384 367.096C78.5167 365.724 78.3695 364.34 77.9513 363.026L78.0528 363.086C77.667 362.591 78.006 362.453 77.8157 361.905C77.8626 361.876 77.8887 361.837 77.9096 361.845C77.529 361.305 77.8758 360.28 77.7168 359.86L77.9618 359.836L77.9226 358.774L77.8654 359.171C77.1981 359.022 78.2981 358.375 77.8784 357.606C77.9749 356.888 76.5098 356.126 76.8513 355.386C76.5437 355.023 77.3543 355.706 77.1119 355.172C77.4612 355.159 77.3284 355.433 77.6073 355.292C77.4509 354.77 77.9798 354.441 77.753 353.792L78.014 353.771C77.5291 352.923 78.3969 352.19 77.9303 351.624C77.7217 350.753 78.749 351.055 78.2303 350.145L78.6029 349.8C78.6707 349.414 78.1573 349.516 78.3423 349.091C78.5743 349.12 78.5352 348.551 78.7515 348.806C79.1295 347.841 78.2667 346.832 78.9001 345.564C78.4518 345.28 78.7308 344.64 78.3945 344.429C78.5926 344.398 78.4465 343.143 78.861 343.871C78.8949 343.933 78.8869 344.043 78.8113 344.033L79.0723 344.124C79.5936 343.404 78.8114 342.796 78.9027 342.079C78.8088 342.29 78.8297 342.574 78.6421 342.381L78.6888 341.713L78.9132 341.857L79.0592 340.86L78.7776 340.993C78.9288 340.508 79.4059 340.344 79.0175 339.788C78.7986 339.527 78.6341 340.245 78.5533 339.728C78.8223 338.929 79.022 338.107 79.1502 337.273C78.8348 337.349 78.8481 337.125 78.7881 336.893L79.0487 336.869C78.6812 335.982 79.6508 336.553 79.364 335.674L78.986 335.515C78.4647 334.714 79.557 335.095 78.8323 334.211C78.8741 334.558 78.2277 334.367 78.3528 333.95L78.6134 334.062C78.5587 333.825 78.4518 333.744 78.5065 333.587C78.6473 333.731 78.8896 333.668 78.8479 333.326L79.1738 333.564L78.6993 332.899C78.9887 332.395 78.6473 331.594 79.0201 331.383C79.0201 331.383 79.2156 330.293 78.8142 330.034C79.0618 330.259 79.1659 329.659 79.4605 329.833C79.1789 329.546 78.9575 328.706 79.2651 328.375L79.2988 328.44C79.6246 327.206 78.9026 326.317 79.2988 325.211C78.9808 325.258 79.1607 324.673 78.7541 324.812C78.3709 323.659 79.6038 322.725 78.3605 322.297C78.3005 321.775 78.6602 321.681 78.728 321.413L78.7932 321.538C78.714 320.877 78.6941 320.21 78.7334 319.545C78.6161 319.18 78.0372 319.114 78.1858 318.465C78.4126 318.679 78.3735 318.413 78.3761 318.17C78.4126 318.326 78.4961 318.373 78.6551 318.058C78.5903 318.011 78.5383 317.948 78.504 317.875C78.5222 317.875 78.5378 317.86 78.5613 317.875C78.4857 317.468 78.4125 317.536 78.3786 317.726C78.3421 317.726 78.298 317.726 78.2329 317.789C78.5379 317.372 78.2329 316.613 78.6239 316.566C78.5483 315.342 78.1493 314.466 78.0086 313.435C78.2145 313.323 78.3918 313.563 78.4674 313.86L78.4022 313.138C78.6941 313.138 78.5663 313.555 78.6211 313.777C79.1059 312.924 78.1701 312 78.6211 310.999L78.3917 310.787L78.4308 310.727C78.3083 310.727 78.1443 310.5 78.1078 310.352C78.3685 310.213 78.6967 310.367 78.6863 309.869C78.947 309.478 78.5767 308.747 78.4464 308.231C78.3995 308.507 78.2588 308.416 78.1702 308.296C78.1702 308.035 78.431 307.905 78.3137 307.712L78.6602 307.691C78.3318 307.787 78.316 307.036 78.1753 306.942C78.4359 306.804 78.3919 307.331 78.5848 307.396L78.5613 306.321C77.1365 306.236 75.7241 306.005 74.3462 305.633C74.4923 306.421 74.5935 307.217 74.6488 308.017C74.2545 310.073 74.059 312.163 74.0649 314.257C74.0023 315.598 74.1196 317.033 74.1744 318.345C74.6305 318.973 74.1588 320.066 74.5393 320.81L74.2784 321.092C74.3557 321.21 74.4024 321.345 74.4143 321.486C74.4261 321.627 74.4027 321.768 74.3462 321.898L74.2708 321.882C74.4663 322.263 74.3411 322.691 74.4375 322.879L74.3621 322.863L74.3907 323.325L74.2813 323.244C74.4673 323.875 74.5028 324.54 74.3853 325.187L74.7035 325.143C74.3308 326.421 74.9823 326.901 74.547 328.054L74.4687 328.036C75.2872 329.513 73.8692 330.345 74.6434 331.866C74.5469 331.675 74.4791 331.944 74.4009 331.928C74.4817 332.625 74.5209 333.368 75.1439 333.386C75.1282 333.895 74.9434 333.799 74.701 333.861C74.9616 333.861 75.0815 334.302 75.0946 334.699L74.9902 334.516L75.0685 335.651L75.5897 335.434C75.4333 336.034 74.9564 335.578 75.0685 336.157H75.4958C75.402 336.986 74.7478 337.461 74.4194 338.267C74.19 341.609 75.2274 345.22 74.4194 348.321L74.0961 348.454C73.6243 348.507 74.7764 349.323 74.3411 349.435L74.5495 349.8C74.4635 349.9 74.3699 350.113 74.2682 349.931C74.2448 350.267 74.3204 350.275 74.4585 350.518L74.1613 350.873C73.9137 352.177 74.4585 353.322 74.323 354.71C73.9215 356.906 73.9745 359.161 74.4792 361.336C75.1778 363.872 73.2517 366.783 73.9946 369.41Z" fill="#1F1F1F"/>
<path d="M51.2727 394.244L51.1445 394.505C51.202 394.495 51.2544 394.435 51.2727 394.244Z" fill="#1F1F1F"/>
<path d="M46.9403 404.123V404.11L46.9087 404.045L46.9403 404.123Z" fill="#1F1F1F"/>
<path d="M52.2549 425.833L52.4455 425.932L52.2549 425.833Z" fill="#1F1F1F"/>
<path d="M46.8021 398.979C46.7474 400.664 46.8751 402.464 46.9402 404.11C47.399 404.893 46.9402 406.273 47.3208 407.202L47.0602 407.559C47.1397 407.714 47.1872 407.884 47.2002 408.057C47.2132 408.231 47.1912 408.406 47.1356 408.571L47.0573 408.55C47.2554 409.028 47.1329 409.565 47.232 409.803L47.1566 409.782L47.1878 410.361L47.0783 410.262C47.2676 411.06 47.3075 411.887 47.1957 412.701L47.5136 412.641C47.1487 414.25 47.8056 414.845 47.3755 416.293L47.2998 416.272C48.1287 418.116 46.7134 419.178 47.5006 421.077C47.4015 420.84 47.3363 421.179 47.2581 421.158C47.3441 422.032 47.386 422.966 48.0116 422.984C48.0116 423.621 47.8133 423.506 47.5709 423.584C47.8315 423.584 47.9542 424.135 47.9699 424.628L47.8655 424.398L47.9489 425.822L48.4701 425.546C48.3163 426.3 47.8394 425.734 47.9619 426.456H48.3896C48.2983 427.5 47.6465 428.108 47.3259 429.117C47.1199 433.317 48.1809 437.838 47.4041 441.743L47.0809 441.913C46.6117 441.986 47.7663 442.996 47.3415 443.142L47.5527 443.598C47.4667 443.726 47.3754 443.995 47.2711 443.768C47.2436 444.028 47.3134 444.289 47.4668 444.501L47.1722 444.952C46.935 446.609 47.4876 448.022 47.3599 449.768C46.9747 452.533 47.0434 455.343 47.5632 458.087C48.2357 461.288 46.3302 464.987 47.0914 468.261C47.0236 468.368 47.1696 468.644 47.2244 468.642L47.1175 471.634C47.0732 473.447 47.1455 475.261 47.3338 477.065H49.9898C50.2322 476.543 50.4878 475.928 50.7719 475.187L50.8708 475.263C51.2249 474.007 51.1728 472.671 50.7222 471.446C51.3557 471.276 50.8084 470.1 51.0169 469.719L51.0665 469.756C50.5947 468.749 51.4966 467.697 51.0665 466.727C51.1161 466.766 51.2881 466.789 51.2959 467.011C51.2256 466.307 51.0951 465.344 51.4627 465.295C51.5856 463.58 51.4297 461.857 51.0013 460.192L51.1028 460.268C50.7118 459.649 51.0507 459.472 50.8422 458.786C50.8917 458.749 50.9178 458.7 50.9361 458.708C50.5529 458.037 50.8944 456.759 50.7302 456.219L50.9752 456.185L50.9284 454.857L50.8734 455.353C50.2035 455.176 51.3009 454.351 50.8734 453.383C50.9646 452.481 49.4947 451.542 49.831 450.608C49.5208 450.159 50.3366 451.007 50.0916 450.347C50.4409 450.329 50.3106 450.66 50.5896 450.49C50.4279 449.833 50.9545 449.418 50.7251 448.607L50.9857 448.576C50.4983 447.516 51.3585 446.588 50.8893 445.881C50.6729 444.793 51.7025 445.158 51.1785 444.021L51.5486 443.582C51.6111 443.097 51.1003 443.233 51.288 442.696C51.52 442.729 51.4783 442.017 51.6946 442.336C52.0648 441.12 51.1967 439.86 51.8197 438.263C51.3713 437.911 51.6452 437.105 51.2985 436.844C51.4966 436.803 51.3427 435.227 51.7624 436.137C51.7963 436.216 51.791 436.351 51.7128 436.343L51.9737 436.453C52.495 435.543 51.7128 434.789 51.791 433.886C51.6998 434.147 51.7207 434.509 51.5304 434.269L51.5721 433.429L51.7961 433.607L51.9371 432.355L51.6555 432.527C51.8041 431.914 52.2785 431.703 51.8875 431.009C51.6685 430.696 51.5069 431.588 51.4235 430.941C51.6884 429.926 51.8819 428.894 52.0023 427.852C51.6869 427.949 51.6999 427.667 51.6374 427.377L51.898 427.346C51.5252 426.235 52.4999 426.942 52.2028 425.838L51.8251 425.642C51.3038 424.646 52.3933 425.121 51.6635 424.002C51.7078 424.44 51.0611 424.205 51.1836 423.668L51.4445 423.806C51.3898 423.509 51.2803 423.409 51.3376 423.211C51.4784 423.389 51.7182 423.308 51.6765 422.869L52.0049 423.164L51.525 422.335C51.8092 421.698 51.4626 420.686 51.8327 420.425C51.8327 420.425 52.0229 419.056 51.6189 418.737C51.8796 419.014 51.9684 418.26 52.2629 418.476C52.0863 418.21 51.9756 417.906 51.9403 417.588C51.9049 417.27 51.9459 416.949 52.0596 416.65L52.0933 416.729C52.4113 415.163 51.6789 414.068 52.0647 412.675C51.7467 412.737 51.924 412.002 51.5174 412.182C51.1264 410.736 52.3542 409.555 51.1057 409.028C51.0431 408.37 51.4026 408.245 51.4678 407.911L51.533 408.068C51.4476 407.237 51.4233 406.401 51.4601 405.566C51.3402 405.109 50.7615 405.044 50.9049 404.22C51.1343 404.481 51.0926 404.149 51.0952 403.844C51.129 404.04 51.2123 404.105 51.3714 403.701C51.3037 403.638 51.2519 403.56 51.2202 403.474C51.2385 403.474 51.2514 403.456 51.2775 403.474C51.1967 402.952 51.1265 403.051 51.0926 403.289C51.0561 403.276 51.0117 403.289 50.9466 403.369C51.2489 402.848 50.9335 401.893 51.3297 401.83C51.2463 400.294 50.8422 399.196 50.6936 397.917C50.8969 397.774 51.0768 398.074 51.155 398.439L51.0847 397.534C51.3766 397.534 51.249 398.056 51.309 398.332C51.786 397.257 50.8449 396.107 51.2854 394.844L51.0535 394.583L51.0926 394.51C50.9701 394.51 50.803 394.229 50.7639 394.041C51.0246 393.863 51.3532 394.056 51.3402 393.43C51.6008 392.935 51.2229 392.022 51.0796 391.372C51.0353 391.722 50.8942 391.609 50.8187 391.458C50.8187 391.145 51.0665 390.965 50.9571 390.725L51.3036 390.696C50.9777 390.816 50.9569 389.877 50.8161 389.76C51.0768 389.583 51.0324 390.245 51.2253 390.326L51.1865 388.471C50.8242 388.489 50.4592 388.502 50.089 388.502C49.0525 388.498 48.0176 388.419 46.9924 388.265C47.1123 389.105 47.2321 390.031 47.2947 391.135C46.932 393.733 46.7674 396.356 46.8021 398.979V398.979Z" fill="#1F1F1F"/>
<path d="M19.3622 497.233L19.2344 497.533C19.2866 497.528 19.3387 497.452 19.3622 497.233Z" fill="#1F1F1F"/>
<path d="M15.0247 508.936V508.92L14.9934 508.842L15.0247 508.936Z" fill="#1F1F1F"/>
<path d="M20.3394 534.628L20.53 534.743L20.3394 534.628Z" fill="#1F1F1F"/>
<path d="M19.3621 492.498H19.2942C19.3091 492.531 19.334 492.558 19.365 492.577L19.3621 492.498Z" fill="#1F1F1F"/>
<path d="M212.649 310.505L212.518 310.706C212.578 310.695 212.628 310.654 212.649 310.505Z" fill="#1F1F1F"/>
<path d="M208.261 318.333L208.23 318.281L208.261 318.333Z" fill="#1F1F1F"/>
<path d="M208.042 369.409C207.972 369.493 208.118 369.714 208.17 369.714L208.047 372.091C208.047 372.091 208.032 372.469 208.029 373.033H211.981C211.938 372.667 211.826 372.313 211.65 371.989C212.283 371.864 211.741 370.917 211.952 370.614L212.002 370.646C211.538 369.837 212.445 369.01 212.025 368.233C212.075 368.264 212.249 368.285 212.255 368.462C212.187 367.899 212.064 367.129 212.432 367.095C212.563 365.723 212.416 364.339 211.999 363.026L212.101 363.086C211.712 362.59 212.054 362.452 211.861 361.904C211.91 361.875 211.937 361.836 211.957 361.844C211.574 361.304 211.923 360.279 211.764 359.859L212.01 359.835L211.97 358.773L211.91 359.17C211.243 359.021 212.346 358.374 211.923 357.605C212.022 356.887 210.558 356.126 210.897 355.385C210.589 355.022 211.402 355.706 211.157 355.171C211.506 355.158 211.371 355.432 211.652 355.291C211.496 354.769 212.022 354.44 211.798 353.791L212.059 353.77C211.577 352.922 212.445 352.189 211.978 351.623C211.767 350.752 212.797 351.054 212.278 350.144L212.651 349.8C212.716 349.413 212.205 349.515 212.39 349.09C212.619 349.119 212.583 348.55 212.799 348.806C213.177 347.84 212.314 346.831 212.945 345.563C212.499 345.279 212.778 344.64 212.442 344.428C212.637 344.397 212.492 343.142 212.909 343.87C212.943 343.933 212.935 344.042 212.857 344.032L213.117 344.123C213.638 343.403 212.857 342.795 212.948 342.078C212.857 342.289 212.877 342.573 212.687 342.38L212.734 341.713L212.956 341.856L213.102 340.86L212.823 340.993C212.971 340.507 213.448 340.343 213.06 339.787C212.844 339.527 212.679 340.244 212.599 339.727C212.866 338.928 213.065 338.106 213.193 337.273C212.877 337.348 212.893 337.124 212.833 336.892L213.094 336.868C212.729 335.981 213.699 336.553 213.409 335.673L213.031 335.514C212.51 334.713 213.605 335.094 212.877 334.21C212.919 334.557 212.275 334.367 212.4 333.949L212.661 334.061C212.609 333.824 212.499 333.743 212.557 333.587C212.698 333.73 212.937 333.667 212.898 333.326L213.224 333.563L212.75 332.898C213.039 332.394 212.695 331.593 213.07 331.382C213.07 331.382 213.266 330.292 212.862 330.033C213.122 330.258 213.216 329.658 213.511 329.833C213.229 329.546 213.005 328.706 213.315 328.374L213.349 328.44C213.675 327.206 212.95 326.316 213.349 325.21C213.034 325.257 213.214 324.673 212.807 324.811C212.424 323.658 213.657 322.724 212.413 322.296C212.351 321.774 212.713 321.68 212.781 321.412L212.846 321.537C212.764 320.876 212.744 320.209 212.786 319.544C212.669 319.179 212.09 319.113 212.236 318.464C212.465 318.678 212.426 318.412 212.429 318.169C212.463 318.326 212.546 318.373 212.705 318.057C212.642 318.009 212.591 317.946 212.557 317.874C212.575 317.874 212.588 317.859 212.614 317.874C212.539 317.467 212.466 317.535 212.432 317.726C212.395 317.726 212.351 317.726 212.286 317.788C212.588 317.371 212.286 316.612 212.677 316.565C212.601 315.341 212.202 314.465 212.061 313.434C212.267 313.322 212.445 313.562 212.52 313.86L212.452 313.137C212.747 313.137 212.617 313.554 212.674 313.776C213.159 312.923 212.223 312 212.674 310.998L212.445 310.787L212.484 310.727C212.361 310.727 212.197 310.5 212.161 310.351C212.421 310.213 212.75 310.366 212.739 309.868C213 309.477 212.63 308.747 212.497 308.23C212.45 308.507 212.309 308.415 212.236 308.295C212.236 308.034 212.497 307.904 212.38 307.711L212.724 307.69C212.398 307.787 212.382 307.035 212.242 306.941C212.502 306.803 212.458 307.33 212.648 307.395L212.619 305.895C212.6 305.857 212.579 305.821 212.554 305.786C211.232 306.101 209.882 306.286 208.524 306.339C208.603 306.847 208.673 307.382 208.715 308.016C208.321 310.073 208.125 312.162 208.131 314.256C208.066 315.597 208.186 317.032 208.24 318.344C208.694 318.973 208.225 320.066 208.603 320.809L208.342 321.091C208.42 321.209 208.468 321.344 208.48 321.485C208.492 321.626 208.469 321.767 208.412 321.897L208.337 321.881C208.53 322.262 208.407 322.69 208.503 322.878L208.428 322.862L208.454 323.324L208.347 323.243C208.531 323.874 208.566 324.54 208.449 325.187L208.767 325.142C208.397 326.42 209.048 326.9 208.61 328.053L208.535 328.035C209.353 329.512 207.933 330.344 208.707 331.865C208.61 331.674 208.543 331.943 208.467 331.927C208.548 332.624 208.584 333.367 209.207 333.386C209.194 333.894 209.007 333.798 208.767 333.86C209.028 333.86 209.147 334.301 209.158 334.698L209.056 334.515L209.132 335.65L209.653 335.433C209.497 336.033 209.022 335.577 209.132 336.156H209.559C209.463 336.986 208.809 337.46 208.483 338.267C208.253 341.608 209.288 345.219 208.483 348.32L208.159 348.453C207.69 348.506 208.842 349.322 208.404 349.434L208.613 349.8C208.529 349.899 208.436 350.113 208.334 349.93C208.311 350.266 208.386 350.274 208.524 350.517L208.227 350.872C207.98 352.176 208.524 353.321 208.386 354.709C207.988 356.905 208.041 359.16 208.543 361.335C209.223 363.871 207.299 366.782 208.042 369.409Z" fill="#1F1F1F"/>
<path d="M53.2012 594.641L53.8579 594.774C53.8475 594.714 53.6808 594.662 53.2012 594.641Z" fill="#1F1F1F"/>
<path d="M220.022 595.81C220.075 595.81 220.135 595.794 220.182 595.784C220.072 595.792 220.036 595.8 220.022 595.81Z" fill="#1F1F1F"/>
<path d="M78.7934 599.121H78.7597C78.7022 599.134 78.6368 599.139 78.5872 599.152L78.7934 599.121Z" fill="#1F1F1F"/>
<path d="M134.937 594.099L135.198 593.911L134.937 594.099Z" fill="#1F1F1F"/>
<path d="M21.6455 593.757L21.7211 593.89C21.7265 593.863 21.7219 593.834 21.708 593.81C21.6941 593.785 21.672 593.767 21.6455 593.757V593.757Z" fill="#1F1F1F"/>
<path d="M244.861 599.873L244.834 599.904L244.861 599.873Z" fill="#1F1F1F"/>
<path d="M253.413 594.681L253.455 594.491L253.413 594.681Z" fill="#1F1F1F"/>
<path d="M74.3851 305.611C75.763 305.983 77.1754 306.214 78.6002 306.3C79.0537 306.328 79.5045 306.357 79.9659 306.357C81.8214 303.874 84.2301 301.857 87.0004 300.469C89.7708 299.08 92.8266 298.357 95.925 298.357C99.0235 298.357 102.079 299.08 104.85 300.469C107.62 301.857 110.028 303.874 111.884 306.357C113.739 303.874 116.148 301.858 118.918 300.469C121.688 299.08 124.744 298.357 127.842 298.357C130.94 298.357 133.996 299.08 136.766 300.469C139.536 301.858 141.944 303.874 143.799 306.357C145.655 303.874 148.063 301.858 150.833 300.469C153.603 299.08 156.659 298.357 159.757 298.357C162.856 298.357 165.911 299.08 168.681 300.469C171.451 301.858 173.86 303.874 175.715 306.357C177.57 303.874 179.979 301.858 182.749 300.469C185.519 299.08 188.575 298.357 191.673 298.357C194.771 298.357 197.826 299.08 200.596 300.469C203.367 301.858 205.775 303.874 207.63 306.357C207.941 306.357 208.24 306.331 208.545 306.318C209.903 306.265 211.253 306.08 212.575 305.765C220.233 303.939 225.851 297.98 225.851 290.895H61.7456C61.7456 297.782 67.0631 303.613 74.3851 305.611Z" fill="#00F3B3"/>
<path d="M47.039 388.255C48.0642 388.409 49.0991 388.488 50.1357 388.492C50.5058 388.492 50.8708 388.492 51.2331 388.461C54.1595 388.386 57.0275 387.626 59.6076 386.242C62.1877 384.858 64.408 382.889 66.0907 380.492C67.946 382.975 70.3545 384.991 73.1247 386.38C75.8948 387.769 78.9504 388.492 82.0486 388.492C85.1469 388.492 88.2025 387.769 90.9726 386.38C93.7428 384.991 96.151 382.975 98.0062 380.492V380.492C98.2278 380.833 98.4677 381.165 98.7206 381.491C98.8353 381.639 98.9551 381.783 99.075 381.929C99.2627 382.153 99.4557 382.372 99.6564 382.589C99.7737 382.714 99.8855 382.85 100.005 382.962C100.303 383.262 100.615 383.554 100.939 383.833C101.072 383.948 101.199 384.06 101.345 384.17C101.592 384.37 101.846 384.566 102.106 384.757C102.239 384.853 102.367 384.952 102.508 385.046C102.878 385.302 103.261 385.546 103.657 385.777C103.785 385.852 103.918 385.92 104.048 385.993C104.366 386.168 104.687 386.332 105.018 386.492C105.156 386.559 105.295 386.627 105.438 386.69C105.878 386.888 106.327 387.076 106.788 387.243C106.892 387.282 106.999 387.313 107.103 387.35C107.497 387.485 107.886 387.611 108.303 387.72L108.722 387.835C109.223 387.963 109.731 388.078 110.25 388.169L110.44 388.195C110.912 388.276 111.389 388.336 111.871 388.383L112.303 388.419C112.851 388.461 113.401 388.49 113.961 388.49C115.817 386.007 118.225 383.99 120.995 382.602C123.765 381.213 126.821 380.49 129.919 380.49C133.017 380.49 136.073 381.213 138.843 382.602C141.613 383.99 144.022 386.007 145.877 388.49C146.307 388.49 146.732 388.49 147.154 388.453C147.631 388.425 148.1 388.378 148.567 388.32C149.33 388.225 150.087 388.088 150.835 387.911C151.612 387.726 152.378 387.494 153.128 387.217C155.281 386.434 157.272 385.259 158.999 383.752C159.275 383.507 159.543 383.257 159.799 382.999C159.731 382.694 159.733 382.377 159.804 382.073C159.875 381.769 160.013 381.484 160.208 381.24C160.403 380.997 160.651 380.8 160.933 380.665C161.214 380.53 161.522 380.459 161.835 380.459C162.147 380.459 162.455 380.53 162.736 380.665C163.018 380.8 163.266 380.997 163.461 381.24C163.656 381.484 163.795 381.769 163.865 382.073C163.936 382.377 163.938 382.694 163.87 382.999C164.131 383.259 164.392 383.507 164.671 383.752C166.398 385.258 168.388 386.432 170.541 387.217C171.292 387.494 172.058 387.726 172.837 387.911C173.584 388.088 174.34 388.225 175.102 388.32C175.569 388.378 176.038 388.425 176.515 388.453C176.937 388.479 177.362 388.49 177.792 388.49C178.353 388.49 178.905 388.461 179.45 388.419L179.883 388.383C180.365 388.336 180.845 388.276 181.314 388.195L181.504 388.169C182.026 388.078 182.531 387.963 183.032 387.835L183.451 387.72C183.858 387.608 184.257 387.485 184.65 387.35C184.755 387.313 184.862 387.282 184.966 387.243C185.427 387.076 185.878 386.888 186.319 386.69C186.459 386.627 186.598 386.559 186.736 386.492C187.067 386.335 187.39 386.168 187.705 385.993C187.836 385.92 187.966 385.852 188.096 385.777C188.492 385.544 188.877 385.3 189.248 385.046C189.384 384.952 189.509 384.853 189.647 384.757C189.908 384.567 190.161 384.372 190.408 384.17C190.544 384.058 190.669 383.948 190.815 383.833C191.138 383.554 191.451 383.262 191.751 382.962C191.868 382.839 191.98 382.701 192.095 382.589C192.298 382.372 192.491 382.153 192.679 381.926C192.799 381.783 192.919 381.639 193.033 381.491C193.294 381.165 193.529 380.831 193.75 380.489C195.606 382.972 198.014 384.988 200.784 386.377C203.555 387.766 206.611 388.489 209.709 388.489C212.807 388.489 215.863 387.766 218.634 386.377C221.404 384.988 223.813 382.972 225.668 380.489C227.24 382.743 229.292 384.619 231.677 385.983C234.062 387.347 236.719 388.164 239.457 388.375C240.169 388.446 240.891 388.49 241.626 388.49C242.298 388.49 242.961 388.456 243.615 388.393C252.738 387.553 259.846 380.998 259.846 373.031H31.9075C31.9153 380.674 38.4554 387.003 47.039 388.255Z" fill="#00F3B3"/>
<path d="M242.384 477.07H0C0 484.776 6.65232 491.157 15.3454 492.321C16.2954 492.455 17.2532 492.525 18.2126 492.532C18.5124 492.532 18.8042 492.516 19.0988 492.506H19.2786H19.3463C22.2671 492.427 25.129 491.665 27.703 490.281C30.2769 488.897 32.4916 486.93 34.1702 484.536C36.0251 487.021 38.4334 489.038 41.2038 490.427C43.9742 491.816 47.0306 492.54 50.1294 492.54C53.2282 492.54 56.2842 491.816 59.0546 490.427C61.8251 489.038 64.2334 487.021 66.0883 484.536V484.536C66.2994 484.86 66.5289 485.173 66.7635 485.478C66.8912 485.648 67.0241 485.809 67.1596 485.974C67.23 486.057 67.3055 486.138 67.3785 486.235C68.3233 487.323 69.4025 488.288 70.59 489.104V489.104C70.9602 489.365 71.3432 489.605 71.7368 489.835C71.8645 489.91 71.9975 489.978 72.1278 490.051C72.2634 490.127 72.4068 490.195 72.545 490.265C72.8656 490.432 73.1835 490.599 73.5145 490.748C73.8794 490.912 74.255 491.061 74.633 491.204C74.8154 491.275 74.9977 491.342 75.1828 491.408C75.3783 491.476 75.5791 491.53 75.7772 491.593C76.3419 491.767 76.9206 491.919 77.5132 492.049C77.7739 492.109 78.0528 492.177 78.3291 492.227C78.999 492.344 79.687 492.425 80.383 492.488C80.9278 492.529 81.4803 492.561 82.0408 492.561C83.8954 490.076 86.3035 488.059 89.0737 486.67C91.844 485.281 94.9 484.557 97.9987 484.557C101.097 484.557 104.153 485.281 106.923 486.67C109.694 488.059 112.102 490.076 113.956 492.561C114.386 492.561 114.811 492.548 115.233 492.522C116.091 492.472 116.946 492.369 117.791 492.214C118.171 492.146 118.544 492.068 118.914 491.979C119.692 491.794 120.458 491.562 121.208 491.285C121.703 491.103 122.18 490.896 122.652 490.677C122.769 490.625 122.884 490.57 123.001 490.513C123.91 490.068 124.782 489.551 125.608 488.966L125.908 488.747C126.309 488.449 126.69 488.144 127.068 487.821C127.344 487.576 127.611 487.324 127.868 487.067C128.209 486.722 128.527 486.36 128.835 485.992C128.913 485.901 128.986 485.807 129.062 485.713C129.359 485.337 129.646 484.956 129.904 484.557C130.125 484.899 130.367 485.23 130.618 485.556C130.657 485.609 130.701 485.658 130.743 485.71L130.97 485.989C131.157 486.214 131.353 486.433 131.553 486.649C131.668 486.775 131.78 486.91 131.9 487.022L131.926 487.051C132.184 487.309 132.45 487.56 132.727 487.805L132.807 487.868L132.826 487.886C132.959 488.003 133.086 488.113 133.235 488.222C133.383 488.332 133.548 488.468 133.707 488.588C133.866 488.708 134.022 488.833 134.186 488.95C134.257 489 134.325 489.052 134.395 489.099C134.614 489.25 134.848 489.389 135.075 489.532C135.226 489.626 135.372 489.728 135.526 489.816L135.544 489.829C135.672 489.905 135.805 489.973 135.935 490.046C136.133 490.156 136.339 490.255 136.54 490.356C136.741 490.458 136.947 490.568 137.155 490.664C137.21 490.69 137.267 490.719 137.325 490.742C137.585 490.857 137.846 490.956 138.107 491.061C138.271 491.129 138.43 491.207 138.599 491.269L138.73 491.314L138.99 491.402C139.613 491.621 140.246 491.808 140.888 491.963C141.279 492.057 141.67 492.138 142.071 492.209H142.134L142.324 492.237L142.473 492.256C142.7 492.292 142.926 492.331 143.156 492.36C143.302 492.378 143.453 492.386 143.599 492.402L143.758 492.422L144.188 492.459H144.238C144.347 492.459 144.456 492.485 144.568 492.49C144.991 492.516 145.416 492.529 145.846 492.529C146.406 492.529 146.956 492.498 147.503 492.456C147.597 492.456 147.689 492.441 147.783 492.433C148.379 492.378 148.971 492.308 149.55 492.206C150.618 492.015 151.67 491.741 152.696 491.387V491.387L152.925 491.309C153.493 491.105 154.041 490.876 154.578 490.625L154.781 490.529C155.112 490.372 155.433 490.205 155.751 490.03C155.881 489.957 156.011 489.889 156.142 489.814C156.953 489.339 157.726 488.802 158.454 488.207V488.207C158.59 488.097 158.715 487.988 158.861 487.873C159.184 487.591 159.496 487.302 159.794 486.999C159.913 486.879 160.026 486.738 160.14 486.626C160.422 486.323 160.69 486.012 160.946 485.692L161.079 485.528C161.339 485.202 161.574 484.87 161.796 484.526C163.593 487.071 165.989 489.133 168.773 490.529C171.556 491.925 174.641 492.612 177.753 492.529C178.183 492.529 178.611 492.516 179.033 492.49C179.891 492.44 180.745 492.337 181.59 492.182C181.968 492.115 182.343 492.036 182.711 491.948C183.489 491.763 184.255 491.531 185.005 491.254C185.5 491.071 185.98 490.865 186.449 490.646C186.566 490.594 186.684 490.539 186.798 490.482C187.708 490.037 188.579 489.52 189.405 488.935L189.707 488.716C190.106 488.418 190.489 488.113 190.865 487.789C191.141 487.544 191.409 487.294 191.665 487.036C192.009 486.691 192.327 486.329 192.634 485.961C192.71 485.869 192.786 485.776 192.859 485.682C193.156 485.306 193.443 484.925 193.701 484.526C193.961 484.925 194.245 485.309 194.545 485.682C194.618 485.776 194.694 485.869 194.769 485.961C195.077 486.329 195.395 486.691 195.736 487.036C195.994 487.293 196.26 487.544 196.537 487.789C196.907 488.113 197.295 488.418 197.696 488.716L197.999 488.935C198.824 489.521 199.696 490.038 200.606 490.482C200.72 490.539 200.837 490.594 200.955 490.646C201.424 490.865 201.904 491.071 202.396 491.254C203.147 491.531 203.914 491.763 204.693 491.948C205.06 492.036 205.436 492.115 205.814 492.182C206.659 492.337 207.513 492.44 208.371 492.49C208.793 492.516 209.221 492.529 209.651 492.529C210.208 492.529 210.761 492.498 211.308 492.456C212.004 492.404 212.69 492.323 213.36 492.196H213.375C214.233 492.039 215.08 491.828 215.912 491.564C216.11 491.502 216.313 491.447 216.506 491.379C217.217 491.133 217.913 490.847 218.591 490.521V490.521C218.922 490.364 219.246 490.197 219.561 490.022C219.694 489.949 219.822 489.882 219.955 489.806C219.988 489.785 220.02 489.762 220.054 489.743C220.77 489.317 221.457 488.841 222.107 488.319C222.16 488.28 222.214 488.241 222.264 488.199C222.402 488.089 222.525 487.98 222.671 487.865C222.994 487.583 223.307 487.294 223.606 486.991C223.726 486.871 223.836 486.73 223.953 486.618C224.065 486.498 224.169 486.373 224.279 486.248C224.487 486.008 224.696 485.77 224.889 485.52C225.149 485.194 225.384 484.862 225.608 484.518C227.463 487.002 229.871 489.019 232.641 490.409C235.411 491.798 238.467 492.522 241.566 492.522C244.665 492.522 247.72 491.798 250.491 490.409C253.261 489.019 255.669 487.002 257.524 484.518C259.118 486.8 261.204 488.695 263.627 490.064C266.051 491.432 268.75 492.238 271.526 492.422C272.17 492.482 272.83 492.522 273.481 492.522C274.083 492.522 274.68 492.493 275.27 492.443L275.434 492.428H275.525C284.625 491.564 291.702 485.022 291.702 477.07H242.384Z" fill="#00F3B3"/>
<path d="M122.063 255.206C127.954 261.286 135.445 265.573 143.669 267.571C151.96 265.578 159.524 261.293 165.5 255.206C171.298 250.087 175.349 243.279 177.083 235.738C178.415 228.172 175.629 219.545 169.016 215.651C165.291 213.57 160.945 212.894 156.765 213.746C152.701 214.598 148.906 216.428 145.708 219.078C141.503 197.601 144.295 175.589 150.196 154.631C150.717 152.578 151.265 150.535 151.815 148.516C152.258 146.897 152.701 145.292 153.144 143.703C153.254 140.674 152.292 137.066 150.149 138.269C148.104 139.676 146.637 141.777 146.02 144.183C145.557 146.839 144.924 149.463 144.125 152.037C144.055 152.257 143.977 152.476 143.904 152.692C143.76 153.305 143.612 153.895 143.453 154.44C137.197 175.831 137.572 197.024 141.542 218.82C138.417 216.305 134.741 214.566 130.816 213.746C126.636 212.894 122.29 213.57 118.565 215.651C111.952 219.545 109.165 228.172 110.497 235.738C112.227 243.276 116.271 250.084 122.063 255.206V255.206ZM119.438 220.735C119.543 220.662 119.659 220.605 119.782 220.568C119.871 220.529 119.954 220.479 120.043 220.443L119.782 220.568C120.253 220.492 120.735 220.596 121.133 220.859C121.531 221.123 121.815 221.526 121.93 221.99C121.998 222.553 121.947 223.125 121.782 223.668C121.616 224.211 121.339 224.714 120.968 225.144C120.224 226.182 119.331 227.106 118.32 227.885C118.062 228.148 117.739 228.335 117.383 228.427C117.028 228.519 116.654 228.512 116.302 228.407C116.009 228.191 115.785 227.896 115.654 227.556C115.524 227.216 115.494 226.846 115.567 226.49C115.68 225.283 116.093 224.125 116.769 223.119C117.445 222.114 118.362 221.294 119.435 220.735H119.438Z" fill="#00F3B3"/>
<path d="M120.041 220.435C119.952 220.471 119.868 220.521 119.78 220.56L120.041 220.435Z" fill="white"/>
<path d="M119.785 220.568L119.357 220.777C119.383 220.759 119.412 220.751 119.436 220.735C118.361 221.296 117.444 222.117 116.769 223.123C116.093 224.13 115.681 225.29 115.57 226.498C115.497 226.854 115.527 227.224 115.657 227.564C115.787 227.904 116.012 228.199 116.305 228.415C116.657 228.52 117.031 228.527 117.386 228.435C117.742 228.343 118.065 228.156 118.323 227.893C119.334 227.114 120.227 226.19 120.971 225.152C121.342 224.722 121.619 224.22 121.784 223.676C121.95 223.133 122.001 222.562 121.933 221.998C121.82 221.533 121.536 221.127 121.138 220.862C120.74 220.597 120.257 220.492 119.785 220.568V220.568Z" fill="white"/>
<path d="M119.436 220.734C119.55 220.674 119.662 220.62 119.78 220.567C119.657 220.605 119.541 220.661 119.436 220.734Z" fill="white"/>
<path d="M119.785 220.567C119.667 220.62 119.555 220.674 119.441 220.734C119.417 220.75 119.388 220.758 119.362 220.776L119.785 220.567Z" fill="white"/>
<path d="M201.565 0H23.8401C25.1434 3.1487 26.4936 6.28174 27.9142 9.3913C27.8413 9.47478 27.7737 9.56348 27.7007 9.65217C27.0491 10.4009 26.4312 11.1757 25.8342 11.9661C21.7389 17.4564 18.9214 23.7932 17.5874 30.5133C16.2533 37.2334 16.4366 44.1669 18.1238 50.807C21.9086 65.0843 31.9832 77.8826 45.9573 82.633C48.5039 83.5017 50.8317 82.7478 52.8232 83.8252C53.2533 84.0578 53.6432 84.3582 53.9779 84.7148C54.3256 85.0906 54.6463 85.4908 54.9372 85.9122C56.7384 88.4713 58.2971 92.3791 59.9106 94.6096C62.627 98.3196 66.0889 101.42 70.0739 103.711C74.0589 106.002 78.479 107.434 83.0497 107.914C84.3192 108.039 85.6118 108.097 86.8604 108.329C87.3857 108.422 87.9027 108.559 88.4062 108.736C88.9351 108.93 89.4447 109.174 89.9284 109.463C91.9475 110.845 93.8072 112.447 95.4729 114.24C99.0389 117.967 103.746 120.396 108.847 121.143C109.021 121.597 109.19 122.053 109.353 122.512L109.397 122.64C109.71 123.532 109.999 124.432 110.265 125.34C111.948 131.285 112.746 137.446 112.632 143.624C112.318 148.133 112.386 152.661 112.836 157.158C113.076 159.41 113.798 161.584 114.952 163.532C116.106 165.48 117.665 167.157 119.524 168.449C122.073 169.737 124.948 170.234 127.78 169.877C130.613 169.519 133.275 168.324 135.424 166.443C139.504 162.758 142.445 157.982 143.899 152.679C143.972 152.463 144.05 152.243 144.12 152.024C144.919 149.449 145.552 146.826 146.015 144.17C147.741 134.331 147.201 124.229 144.435 114.631C144.159 113.675 143.861 112.723 143.541 111.777C143.432 111.454 143.307 111.133 143.189 110.81C146.236 107.565 148.944 104.017 151.27 100.221C156.042 93.1484 160.446 85.8343 164.465 78.3078C164.48 78.6678 164.478 79.0148 164.491 79.3722V79.5887C164.535 80.8435 164.569 82.093 164.574 83.3244C164.629 104.656 158.91 123.008 153.134 143.692C152.691 145.283 152.248 146.888 151.804 148.505C151.254 150.524 150.697 152.567 150.186 154.62C148.18 161.238 147.669 168.219 148.689 175.059C149.654 179.757 152.068 184.033 155.589 187.286C156.502 188.117 157.495 188.854 158.555 189.485C161.089 191.045 164.046 191.774 167.014 191.572C175.84 190.881 181.744 182.311 185.477 174.279C185.776 173.637 186.055 172.99 186.345 172.346C186.753 171.428 187.152 170.507 187.541 169.583C194.733 152.476 198.562 134.087 201.896 115.792C205.218 99.1546 207.335 82.2985 208.23 65.3557C208.781 43.3759 206.541 21.4151 201.565 0Z" fill="#53565A"/>
<path d="M111.323 122.739L111.444 122.833C111.444 122.794 111.415 122.757 111.323 122.739Z" fill="white"/>
<path d="M116.266 125.882L116.229 125.903L116.266 125.882Z" fill="white"/>
<path d="M143.289 111.835C142.767 112.479 141.933 113.238 141.852 113.906L141.829 113.83C141.816 114.245 141.584 114.136 141.422 114.456C141.386 114.443 141.357 114.456 141.352 114.436C141.279 114.843 140.653 115.098 140.526 115.359L140.406 115.247L139.937 115.706L140.145 115.573C140.361 115.969 139.6 115.69 139.41 116.212C139.016 116.421 139.217 117.48 138.696 117.579C138.63 117.882 138.664 117.188 138.479 117.511C138.338 117.326 138.524 117.303 138.349 117.198C138.141 117.477 137.776 117.31 137.536 117.67L137.421 117.527C137.184 118.127 136.464 117.845 136.326 118.289C135.928 118.68 135.745 117.994 135.43 118.576L135.125 118.466C134.9 118.544 135.125 118.813 134.83 118.839C134.773 118.693 134.483 118.891 134.551 118.685C133.941 118.774 133.597 119.496 132.727 119.468C132.688 119.812 132.255 119.807 132.224 120.068C132.156 119.956 131.488 120.368 131.791 119.924C131.817 119.885 131.879 119.864 131.895 119.924L131.877 119.736C131.355 119.614 131.191 120.203 130.748 120.297C130.894 120.31 131.056 120.24 130.985 120.394L130.584 120.501L130.618 120.331L130.008 120.443L130.146 120.592C129.828 120.592 129.625 120.331 129.393 120.689C129.291 120.876 129.739 120.837 129.455 120.994C129.244 120.994 128.981 120.994 128.71 121.017C128.436 121.011 128.161 121.023 127.889 121.054C127.99 121.244 127.852 121.27 127.724 121.343L127.665 121.171C127.195 121.547 127.372 120.832 126.898 121.156L126.914 121.02L126.864 121.424C126.465 121.891 126.525 121.116 126.103 121.727C126.307 121.646 126.286 122.095 126.009 122.082L126.038 121.894C125.902 121.964 125.871 122.053 125.777 122.029C125.845 121.923 125.777 121.769 125.564 121.836L125.665 121.599L125.324 121.983C124.977 121.847 124.524 122.16 124.354 121.938C124.354 121.938 123.669 121.938 123.554 122.223C123.663 122.035 123.293 122.029 123.361 121.818C123.218 122.035 122.725 122.28 122.49 122.079L122.527 122.05C121.745 121.915 121.247 122.455 120.535 122.269C120.585 122.476 120.212 122.397 120.322 122.656C119.618 123.01 118.985 122.168 118.758 123.021C118.429 123.076 118.361 122.838 118.192 122.799L118.268 122.752C117.856 122.823 117.437 122.855 117.019 122.846C116.792 122.932 116.758 123.331 116.344 123.219C116.477 123.07 116.31 123.094 116.156 123.089C116.253 123.068 116.284 123.013 116.083 122.901C116.054 122.943 116.015 122.977 115.968 123C115.968 122.987 115.968 122.979 115.968 122.961C115.708 123.008 115.755 123.057 115.872 123.081C115.872 123.104 115.872 123.136 115.911 123.18C115.651 122.971 115.168 123.18 115.129 122.903C114.347 122.932 113.792 123.216 113.14 123.256C113.078 123.115 113.237 122.995 113.425 122.971H112.968C112.984 122.776 113.229 122.88 113.377 122.854C112.856 122.491 112.241 123.07 111.629 122.726L111.483 122.867L111.449 122.838C111.449 122.922 111.287 123.018 111.188 123.036C111.115 122.859 111.235 122.645 110.927 122.629C110.695 122.452 110.216 122.645 109.885 122.682C110.057 122.736 109.989 122.823 109.906 122.872C109.747 122.854 109.679 122.674 109.548 122.729L109.564 122.496C109.577 122.588 109.499 122.629 109.408 122.658C109.721 123.55 110.01 124.45 110.276 125.358C111.333 125.71 112.438 125.896 113.552 125.909C114.446 125.969 115.403 125.909 116.276 125.888C116.688 125.609 117.423 125.867 117.908 125.603L118.101 125.773C118.177 125.718 118.266 125.683 118.359 125.67C118.452 125.658 118.547 125.669 118.635 125.703V125.755C118.883 125.614 119.156 125.684 119.292 125.616V125.666L119.597 125.635L119.548 125.71C119.96 125.568 120.397 125.507 120.833 125.53L120.783 125.324C121.654 125.481 121.919 125.014 122.714 125.223V125.275C123.609 124.63 124.297 125.421 125.209 124.753C125.097 124.839 125.282 124.852 125.279 124.904C125.728 124.769 126.21 124.643 126.134 124.247C126.465 124.2 126.429 124.32 126.504 124.471C126.465 124.294 126.734 124.15 126.984 124.077L126.882 124.174L127.597 123.936L127.378 123.636C127.782 123.636 127.571 124.02 127.92 123.85L127.849 123.574C128.392 123.498 128.811 123.835 129.393 123.916C130.487 123.587 131.552 123.166 132.576 122.658C133.527 122.088 134.56 121.666 135.638 121.406L135.815 121.552C135.993 121.813 136.11 120.858 136.311 121.077L136.456 120.835C136.543 120.85 136.699 120.835 136.626 120.952C136.829 120.853 136.808 120.806 136.905 120.644L137.21 120.696C137.609 120.539 137.978 120.315 138.302 120.034C138.614 119.723 138.957 119.446 139.327 119.207C140.026 118.954 140.663 118.557 141.198 118.041C141.782 117.443 142.316 116.783 142.699 116.306C143.2 115.669 143.795 115.112 144.464 114.655C144.188 113.698 143.89 112.747 143.57 111.801C143.453 111.863 143.367 111.889 143.289 111.835Z" fill="white"/>
<path d="M55.4324 44.1442C56.191 43.7033 56.9237 43.2285 57.6353 42.7328C57.6353 42.7328 58.2869 42.2842 59.0741 41.6294C59.9129 40.9462 60.697 40.1987 61.4198 39.3937C62.6762 37.9146 62.8171 37.0459 58.4667 38.9789V38.8902C57.5299 39.3724 56.7125 40.0578 56.0739 40.8963C55.7168 40.6355 55.1511 41.4859 54.8123 41.5381V41.4937C54.304 42.2111 53.2716 42.1355 52.7268 42.7355C52.7212 42.6875 52.73 42.6389 52.7523 42.5961C52.7746 42.5533 52.8093 42.5182 52.8519 42.4955C52.3905 42.8111 51.7363 43.2128 51.6008 43.0172C50.4226 43.6459 48.7047 44.0607 47.9514 44.5563L47.996 44.4781C47.5685 44.8094 47.3962 44.632 46.8801 44.8172C46.8488 44.7885 46.8097 44.7755 46.8123 44.7598C46.3171 45.0963 45.2954 44.8902 44.8783 44.9868L44.8573 44.8224C44.5159 44.8068 44.1694 44.8224 43.8305 44.7755C43.9583 44.8015 44.0913 44.8355 44.2086 44.8537C44.0235 45.2815 43.4681 44.5015 42.707 44.632C42.0788 44.4207 41.0465 45.1537 40.4157 44.6163C39.9961 44.6633 40.8459 44.4337 40.2881 44.3555C40.3741 44.1389 40.5749 44.3215 40.5306 44.0946C40.0093 43.9668 39.9049 43.5181 39.3132 43.312L39.394 43.1476C38.539 42.9546 38.3879 42.0494 37.8301 41.885C37.155 41.3633 37.8898 41.1337 37.0922 40.6746L37.1183 40.2624C36.9619 39.9363 36.709 40.2102 36.6178 39.7876C36.7638 39.7328 36.4771 39.2789 36.7222 39.4172C36.5188 38.5224 35.5963 37.852 35.6015 36.5085C35.2287 36.3363 35.226 35.6659 34.9575 35.5224C35.067 35.4598 34.6628 34.2468 35.1112 34.8911C35.1477 34.9485 35.1711 35.0555 35.1112 35.0607L35.3043 35.1024C35.4581 34.3198 34.8166 33.8476 34.7176 33.1068C34.7019 33.3363 34.7802 33.6285 34.6186 33.4511L34.5066 32.7676L34.6813 32.8798L34.5718 31.8494L34.4153 32.0241C34.4153 31.5024 34.6917 31.2728 34.3268 30.7511C34.1365 30.5215 34.1704 31.2728 34.014 30.7511C34.0302 29.8674 33.9857 28.9836 33.881 28.1059C33.6934 28.2311 33.6541 27.9937 33.5628 27.7615L33.735 27.6963C33.3023 26.8224 34.0635 27.2737 33.6647 26.392L33.3805 26.285C32.8592 25.5389 33.641 25.7633 32.9659 24.9494C33.0754 25.3041 32.6116 25.2102 32.5908 24.7485L32.7861 24.8215C32.6975 24.5815 32.601 24.5189 32.5984 24.3468C32.7261 24.4694 32.8591 24.365 32.747 24.0102L33.0079 24.2007L32.5255 23.5955C32.5751 23.0241 32.1422 22.2468 32.3273 21.9676C32.3273 21.9676 32.1371 20.8094 31.8061 20.6215C32.0277 20.8041 31.9208 20.165 32.1606 20.2902C31.8008 19.8885 31.6007 19.3688 31.5977 18.8294L31.6394 18.8894C31.4595 17.5563 30.727 16.8024 30.5967 15.5946C30.4142 15.712 30.336 15.0728 30.1222 15.3102C29.5019 14.2302 29.9059 13.0146 28.9806 12.8737C28.7512 12.352 28.9441 12.1824 28.8867 11.8955L28.9726 12.0076C28.6675 11.3666 28.396 10.71 28.1593 10.0407C28.0264 9.8398 27.8387 9.7798 27.6719 9.6311C27.0202 10.3798 26.4026 11.1546 25.8057 11.945C25.8782 12.0861 25.9655 12.219 26.0663 12.3415L26.009 12.6781C26.2074 12.8867 26.3272 13.1578 26.3479 13.445H26.2931C26.4652 13.7456 26.6185 14.0567 26.752 14.3763H26.6972L26.8796 14.8198L26.7831 14.765C27.1264 15.3491 27.3696 15.9866 27.5026 16.6511L27.6903 16.5363C27.8832 17.8746 28.4356 18.2163 28.5112 19.4528H28.4565C29.4288 20.7572 28.7461 21.8711 29.6558 23.2511C29.5437 23.0789 29.5695 23.3607 29.5174 23.3581C29.7494 24.0442 29.9657 24.7876 30.3723 24.7015C30.4949 25.2233 30.3489 25.1502 30.2082 25.2546C30.3854 25.2102 30.5577 25.6407 30.6593 26.0372L30.5496 25.8676L30.8678 27.0102L31.1545 26.7102C31.1936 27.3442 30.7791 26.9555 30.9903 27.5241L31.269 27.4563C31.2668 28.2341 31.1839 29.0096 31.0215 29.7702C31.7157 33.3564 32.6947 36.8815 33.9488 40.312L33.8263 40.552C33.5891 40.7659 34.7073 41.212 34.5352 41.465L34.8872 41.7468C34.9028 41.8746 34.9915 42.1198 34.8168 41.9815C35.0175 42.3207 35.0774 42.2946 35.338 42.4668L35.4424 42.9233C36.4092 44.1338 37.6456 45.1013 39.0526 45.7485C40.1079 46.5218 41.349 47.0015 42.6497 47.1389C43.9439 47.3072 45.2563 47.2693 46.5387 47.0268C47.9541 46.6981 49.4791 46.5755 51.0404 46.2442C52.5616 45.9714 53.9932 45.3311 55.211 44.3789C55.297 44.3868 55.4533 44.1729 55.4324 44.1442Z" fill="white"/>
<path d="M33.6777 26.4104L33.8187 26.4652L33.6777 26.4104Z" fill="white"/>
<path d="M94.5219 49.239L94.2971 49.4034C94.3311 49.4242 94.3965 49.3903 94.5219 49.239Z" fill="white"/>
<path d="M86.2402 56.1051L86.261 56.0347L86.2402 56.1051Z" fill="white"/>
<path d="M87.89 59.0769C88.0986 58.636 87.8249 58.3517 88.3931 57.7021C88.3592 58.0177 88.539 57.7021 88.7215 57.4412C88.625 57.6238 88.6356 57.7021 88.9614 57.4204C88.9625 57.3309 88.9802 57.2425 89.0136 57.1595C89.0136 57.1595 89.0423 57.1595 89.0502 57.1725C89.3108 56.7004 89.2196 56.7499 89.0502 56.943C89.0371 56.9195 89.0005 56.9195 88.9223 56.9586C89.4019 56.6143 89.7955 55.6751 90.0483 55.7717C90.9137 54.4099 91.3518 53.309 92.0243 52.1534C92.2198 52.109 92.1415 52.4325 91.9616 52.7821L92.4647 51.976C92.6185 52.0934 92.2431 52.4977 92.1102 52.7586C93.0121 52.0151 93.1843 50.6717 94.1956 49.7612L94.2294 49.4482L94.2971 49.3986C94.2268 49.3543 94.3102 49.049 94.404 48.8769C94.6517 48.8247 94.7141 49.1169 95.0894 48.5821C95.5604 48.0374 95.9417 47.421 96.2184 46.756C95.9786 47.0325 95.9576 46.8812 96.0176 46.7195C96.2079 46.4586 96.4554 46.4038 96.5388 46.1612L96.7421 46.276C96.4815 46.2447 97.0731 45.4569 97.0705 45.303C97.3181 45.2612 96.8803 45.796 96.9324 45.9369C97.7144 44.8934 97.3131 45.4151 98.1081 44.3717C98.4053 43.7195 97.8474 44.3351 97.9073 43.949C98.208 43.3772 98.5997 42.8582 99.0671 42.4125L98.7674 42.4543C99.1946 41.6723 99.798 41.0006 100.53 40.4925C101.274 39.3442 101.917 38.1336 102.453 36.8743C102.654 36.2534 102.453 36.1256 102.109 36.2169C101.647 36.407 101.216 36.6645 100.829 36.9812C100.57 37.1728 100.321 37.3783 100.084 37.5969C97.807 39.7891 95.8628 42.3026 94.3127 45.0577C92.4666 47.1228 90.7633 49.3114 89.2144 51.6082C88.1717 53.0482 87.1836 54.6525 86.2374 56.0925C86.0236 56.9404 84.9473 57.9421 84.598 58.876L84.2382 59.0795C84.1258 59.4185 83.9284 59.723 83.6648 59.9638L83.6361 59.9169C83.435 60.3016 83.2102 60.6736 82.9635 61.0308L82.9349 60.9838L82.596 61.4769V61.3517C82.2014 62.0984 81.7087 62.7889 81.131 63.4047L81.3369 63.4856C80.1144 64.6412 80.073 65.3951 78.8817 66.3551L78.8556 66.3056C78.0424 68.1317 76.6035 68.3117 75.6546 70.0934C75.7772 69.8717 75.5008 70.0934 75.48 70.0412C74.8935 70.7247 74.2523 71.4421 74.5286 71.7395C74.0516 72.196 74.0515 72.0212 73.8795 71.9664C74.0098 72.0917 73.6528 72.5456 73.2905 72.9108L73.413 72.6969C73.0793 73.0569 72.7248 73.3934 72.3703 73.7404L72.8161 73.7977C72.1722 74.2543 72.386 73.623 71.8908 74.189L72.0887 74.3951C71.2879 74.9008 70.4361 75.3205 69.5473 75.6473C67.853 76.9517 66.1352 78.3656 64.321 79.576C62.6075 80.7953 60.6796 81.6803 58.6384 82.1847L58.4014 82.0438C58.2293 81.783 57.536 82.8708 57.2883 82.623L56.8922 82.8838C56.7514 82.8682 56.4723 82.8838 56.6704 82.7586C56.4205 82.8154 56.1892 82.9347 55.9981 83.1056L55.5055 83.056C54.7162 83.2073 53.9398 83.4192 53.183 83.6899C53.0553 83.7291 52.9223 83.763 52.792 83.7995C53.2221 84.0321 53.612 84.3324 53.9467 84.689C54.2945 85.0649 54.6151 85.465 54.9061 85.8864C55.0323 85.8463 55.1518 85.7873 55.2605 85.7117C56.3501 85.2917 56.1649 86.0325 57.2336 85.3386L57.7548 85.4299C58.2761 85.3099 58.0155 85.036 58.6098 84.9708C58.628 85.1299 59.3397 84.8273 59.0686 85.0856C59.7371 84.9221 60.3801 84.6676 60.9794 84.329C61.6747 83.9257 62.4232 83.6219 63.2029 83.4264C63.4062 82.983 64.2664 82.7325 64.4098 82.4012C64.5271 82.516 65.9293 81.5299 65.2307 82.2838C65.1682 82.349 65.0379 82.4221 65.0223 82.3725L65.0093 82.5864C66.0363 82.3595 66.4897 81.5169 67.3212 81.0056C67.0449 81.1151 66.7323 81.3421 66.8809 81.0969L67.6626 80.6143L67.5872 80.8438C67.9808 80.6169 68.3691 80.3977 68.7601 80.1473L68.4995 80.1056C69.0886 79.7951 69.4691 79.9099 69.9148 79.2551C70.0999 78.9395 69.2581 79.4247 69.7872 78.9682C70.7688 78.4339 71.711 77.8306 72.6073 77.163C72.391 77.0717 72.6282 76.8812 72.8367 76.6412L72.9828 76.756C73.7205 75.7882 73.5771 76.756 74.3252 75.8221L74.3071 75.496C74.8493 74.5125 74.9977 75.3864 75.5086 74.2073C75.1932 74.5543 75.0733 74.069 75.5372 73.7299L75.5557 73.9543C75.759 73.6934 75.7822 73.5812 75.9595 73.4612C75.8917 73.6595 76.0663 73.7221 76.3817 73.3647L76.3114 73.7404C76.4495 73.4586 76.5721 73.169 76.705 72.8847C77.3149 72.5273 77.904 71.5804 78.2689 71.5517C78.2689 71.5517 79.356 70.5577 79.3768 70.1273C79.3091 70.4586 79.898 69.8977 79.898 70.2004C80.1264 69.5729 80.5367 69.0279 81.0763 68.6351L81.04 68.716C82.2756 67.5812 82.6404 66.3682 83.7587 65.3508C83.5501 65.2751 84.1209 64.7247 83.7898 64.7117C84.5249 63.3499 85.9169 62.8073 85.5781 61.8734C85.9482 61.2864 86.2167 61.323 86.4617 61.0569L86.4015 61.216C87.1105 60.1647 87.314 59.8517 87.89 59.0769Z" fill="white"/>
<path d="M178.887 56.0869L178.749 56.173C178.783 56.1965 178.827 56.1782 178.887 56.0869Z" fill="white"/>
<path d="M164.499 79.597C164.543 80.8518 164.577 82.1013 164.582 83.3326C164.634 83.3848 164.689 83.4031 164.697 83.2387C164.911 83.3327 164.752 83.4553 164.957 83.4553C165.017 83.0848 165.432 83.0379 165.479 82.5709L165.648 82.6361C165.609 81.9735 166.347 81.77 166.235 81.2874C166.368 80.6874 166.897 81.17 166.855 80.4579L167.181 80.3535C167.335 80.1344 166.998 80.0483 167.236 79.8318C167.366 79.9179 167.512 79.5553 167.564 79.7744C168.085 79.2892 167.861 78.4153 168.607 77.8153C168.422 77.51 168.779 77.197 168.641 76.9674C168.768 77.0066 169.055 76.1848 169.089 76.7587C169.089 76.8057 169.052 76.8709 169.008 76.8448L169.141 76.9779C169.662 76.6805 169.381 76.0831 169.649 75.6735C169.529 75.7779 169.456 75.9579 169.404 75.7857L169.631 75.3866L169.725 75.5405L170.108 74.9666H169.9C170.134 74.7057 170.47 74.7448 170.403 74.2909C170.348 74.0718 170.038 74.4631 170.142 74.1187C170.542 73.7036 170.906 73.255 171.229 72.7779C171.018 72.7309 171.093 72.5979 171.127 72.4361L171.297 72.5013C171.344 71.8466 171.755 72.4805 171.844 71.8544L171.664 71.6457C171.583 71.0013 172.131 71.5544 171.961 70.7953C171.883 71.0222 171.552 70.717 171.755 70.4874L171.878 70.6335C171.917 70.4718 171.878 70.3909 171.959 70.31C171.998 70.4379 172.162 70.4692 172.243 70.2422L172.368 70.4848L172.279 69.937C172.605 69.71 172.639 69.11 172.926 69.0918C172.926 69.0918 173.369 68.4761 173.202 68.2022C173.286 68.4109 173.528 68.0718 173.65 68.2648C173.567 68.004 173.684 67.4222 173.968 67.3074V67.357C174.531 66.6918 174.362 65.9327 174.928 65.364C174.724 65.2987 175.006 64.9909 174.719 64.9596C174.834 64.1353 175.853 63.9161 175.24 63.2926C175.36 62.9509 175.605 63.0005 175.725 62.8544V62.9483C175.873 62.5167 176.06 62.0994 176.283 61.7013C176.322 61.4405 175.994 61.2344 176.283 60.877C176.356 61.0753 176.413 60.9005 176.489 60.7492C176.463 60.8561 176.489 60.9109 176.687 60.7622C176.662 60.714 176.65 60.66 176.653 60.6057C176.653 60.6057 176.677 60.6057 176.69 60.6057C176.765 60.3448 176.69 60.3448 176.625 60.4622C176.606 60.4466 176.575 60.4413 176.518 60.4622C176.825 60.2927 176.867 59.737 177.117 59.8231C177.438 59.0405 177.461 58.3883 177.68 57.7179C177.837 57.7179 177.873 57.9083 177.829 58.1144L178.006 57.65C178.178 57.7413 177.98 57.9553 177.946 58.1066C178.491 57.7231 178.207 56.8805 178.775 56.3927L178.699 56.1944L178.741 56.1709C178.668 56.1344 178.637 55.9466 178.658 55.8448C178.856 55.8448 179.007 56.0248 179.15 55.7144C179.411 55.5474 179.411 54.9918 179.497 54.6344C179.385 54.7909 179.328 54.6944 179.312 54.5927C179.382 54.4387 179.573 54.4257 179.573 54.2744L179.786 54.3631C179.562 54.3266 179.786 53.8596 179.721 53.7605C179.917 53.7605 179.721 54.0631 179.828 54.1596L180.258 53.2257C180.258 52.8213 180.034 53.1866 179.932 52.9413C180.037 52.6309 180.034 52.2787 180.324 52.0074L180.089 52.0231C180.115 51.787 180.189 51.5588 180.306 51.3521C180.423 51.1454 180.58 50.9646 180.769 50.8205C181.29 46.0361 179.163 48.9553 179.163 48.9553C177.964 50.3431 178.087 51.4309 177.282 53.39C176.431 54.5466 175.689 55.7798 175.066 57.0735C174.625 57.8822 174.268 58.8005 173.908 59.6274C173.995 60.1492 173.387 60.6866 173.387 61.2526L173.142 61.3518C173.153 61.4483 173.141 61.546 173.107 61.6368C173.072 61.7275 173.016 61.8087 172.944 61.8735L172.902 61.8396C172.902 62.1318 172.702 62.3613 172.704 62.5048L172.662 62.4709L172.542 62.7631L172.501 62.6822C172.424 63.1273 172.246 63.5486 171.98 63.9135L172.185 63.9787C171.581 64.6596 171.828 65.1448 171.221 65.7292L171.182 65.6979C171.231 66.8457 170.139 66.9474 170.139 68.1109C170.139 67.9648 170.017 68.1109 169.975 68.0796C169.819 68.5335 169.618 69.0031 169.975 69.1961C169.816 69.504 169.733 69.3918 169.568 69.3605C169.733 69.4387 169.665 69.744 169.555 69.9918V69.8483L169.264 70.5709L169.639 70.5892C169.378 70.9126 169.217 70.4953 169.117 70.884L169.378 71.0066C169.073 71.4918 168.536 71.5987 168.103 71.9979C167.279 74.1477 166.279 76.2261 165.114 78.2118H164.882C164.582 78.1074 165.03 78.9448 164.736 78.8874L164.754 79.1744C164.673 79.2135 164.553 79.3179 164.545 79.1744C164.504 79.2358 164.478 79.3066 164.47 79.3805V79.4326C164.488 79.477 164.493 79.524 164.499 79.597Z" fill="white"/>
<path d="M171.849 71.8589L171.938 71.9632L171.849 71.8589Z" fill="white"/>
<path d="M184.038 169.143L183.994 168.963C183.965 168.989 183.967 169.044 184.038 169.143Z" fill="white"/>
<path d="M187.468 169.474C187.145 168.879 186.877 168.394 186.611 167.974C186.345 167.554 186.11 167.191 185.857 166.818C185.232 165.942 184.446 165.193 183.54 164.612C182.425 163.769 181.17 163.13 179.833 162.723C179.428 162.707 179.027 162.631 178.645 162.496C178.244 162.343 177.813 162.283 177.386 162.318L177.125 162.091C176.857 162.151 176.577 162.13 176.32 162.031L176.34 161.982C175.949 162.071 175.535 161.943 175.345 162.013L175.363 161.961H174.904L174.985 161.891C174.35 161.994 173.707 162.035 173.064 162.013L173.129 162.219C171.852 162.11 171.471 162.611 170.324 162.592V162.538C169.112 163.414 168.023 162.798 166.881 163.902C167.019 163.766 166.766 163.837 166.756 163.785C166.162 164.108 165.562 164.518 165.755 164.87C165.33 165.094 165.351 164.956 165.213 164.846C165.307 165.003 164.994 165.29 164.691 165.498L164.798 165.347C164.501 165.548 164.225 165.78 163.946 166.007L164.316 166.164C163.795 166.411 163.954 165.903 163.563 166.294L163.74 166.516C163.107 166.959 162.468 166.918 161.759 167.314C160.568 168.448 159.581 169.779 158.842 171.248C158.06 172.68 157.458 174.118 156.72 175.422L156.473 175.471C156.155 175.425 156.655 176.398 156.345 176.411L156.379 176.778C156.301 176.854 156.189 177.039 156.165 176.851C156.099 177.034 156.092 177.234 156.147 177.42L155.871 177.699C155.591 178.88 155.425 180.084 155.375 181.297C155.086 182.293 154.992 183.335 155.099 184.367C155.176 185.354 155.337 186.332 155.581 187.291C156.494 188.123 157.488 188.859 158.548 189.491C158.455 189.179 158.315 188.884 158.133 188.614L158.206 188.653C157.88 188.283 158.071 188.131 157.875 187.68C157.904 187.651 157.917 187.615 157.93 187.62C157.604 187.2 157.735 186.298 157.596 185.94L157.755 185.904C157.719 185.604 157.701 185.301 157.669 184.998L157.651 185.34C157.198 185.238 157.891 184.644 157.607 183.994C157.667 183.394 156.7 182.703 156.981 182.051C156.799 181.722 157.297 182.353 157.177 181.876C157.409 181.876 157.302 182.103 157.497 182.001C157.419 181.537 157.807 181.291 157.724 180.725H157.906C157.685 179.958 158.36 179.434 158.167 178.899C158.183 178.135 158.801 178.547 158.657 177.72L158.97 177.504C159.106 177.206 158.756 177.193 158.97 176.885C159.111 176.953 159.231 176.491 159.301 176.739C159.788 176.071 159.562 175.062 160.401 174.285C160.234 173.943 160.636 173.549 160.534 173.293C160.662 173.332 161.087 172.372 161.032 173.032C161.032 173.09 160.977 173.165 160.938 173.134L161.055 173.285C161.631 172.941 161.465 172.268 161.837 171.804C161.684 171.908 161.577 172.114 161.553 171.913L161.9 171.483L161.952 171.663C162.14 171.462 162.314 171.253 162.515 171.068L162.299 171.039C162.632 170.778 162.953 170.883 163.047 170.374C163.078 170.113 162.601 170.486 162.849 170.137C163.305 169.813 163.998 169.385 164.538 168.994C164.353 168.874 164.499 168.765 164.616 168.613L164.749 168.738C165.148 168.089 165.187 168.874 165.632 168.305L165.656 168.444L165.586 168.026C165.906 167.348 166.071 168.136 166.407 167.34C166.183 167.518 166.078 167.079 166.425 166.949L166.438 167.147C166.587 167.011 166.602 166.91 166.738 166.886C166.683 167.025 166.811 167.147 167.045 166.975L166.988 167.257L167.304 166.719C167.749 166.672 168.26 166.211 168.513 166.354C168.513 166.354 168.726 166.294 168.956 166.205C169.185 166.117 169.428 165.978 169.477 165.812C169.365 166.028 169.85 165.934 169.782 166.166C169.933 165.924 170.538 165.551 170.856 165.699L170.812 165.736C171.805 165.678 172.431 165.115 173.348 165.271C173.291 165.055 173.77 165.154 173.64 164.891C174.051 164.784 174.485 164.805 174.883 164.951C175.233 165.029 175.499 165.037 175.707 164.651C176.145 164.651 176.195 164.911 176.406 164.969L176.296 165C176.836 165.02 177.371 165.116 177.884 165.287C178.186 165.287 178.361 164.911 178.833 165.198C178.619 165.285 178.833 165.334 179.02 165.405C178.893 165.381 178.838 165.42 179.041 165.608C179.095 165.58 179.155 165.565 179.216 165.564C179.216 165.577 179.216 165.59 179.216 165.603C179.544 165.676 179.505 165.621 179.377 165.53C179.393 165.511 179.393 165.48 179.364 165.423C179.601 165.746 180.248 165.83 180.167 166.08C180.982 166.389 181.776 166.751 182.544 167.163C182.531 167.33 182.302 167.293 182.083 167.178L182.573 167.525C182.44 167.669 182.237 167.392 182.072 167.304C182.403 167.982 183.399 168.021 183.738 168.869L183.967 168.898L183.981 168.952C184.04 168.895 184.241 168.968 184.353 169.046C184.298 169.245 184.046 169.286 184.298 169.607C184.359 169.817 184.489 170.001 184.666 170.129L185.187 170.635C185.091 170.424 185.208 170.437 185.312 170.492C185.427 170.669 185.352 170.851 185.487 170.958L185.294 171.086C185.448 170.909 185.745 171.457 185.865 171.485C185.766 171.665 185.586 171.264 185.451 171.277C185.662 171.63 185.845 172 185.998 172.383C186.259 172.644 186.217 172.404 186.319 172.346C186.727 171.428 187.126 170.507 187.515 169.584L187.468 169.474Z" fill="white"/>
<path d="M134.533 57.3545L134.322 57.5815C134.358 57.5945 134.424 57.5423 134.533 57.3545Z" fill="white"/>
<path d="M126.523 66.157V66.1439L126.541 66.0657L126.523 66.157Z" fill="white"/>
<path d="M109.961 94.829L109.684 94.8499C110.252 94.3881 110.659 94.4168 111.032 93.6368C111.178 93.2664 110.375 93.9681 110.86 93.3759C111.826 92.6141 112.738 91.7869 113.591 90.9003C113.357 90.8507 113.592 90.6055 113.777 90.3186L113.941 90.4072C114.613 89.2516 114.569 90.3081 115.244 89.1681L115.197 88.829C115.664 87.689 115.89 88.5681 116.336 87.2638C116.034 87.6838 115.87 87.2012 116.336 86.7603L116.373 86.9951C116.568 86.7003 116.579 86.5594 116.748 86.3977C116.696 86.622 116.881 86.6429 117.173 86.2125L117.134 86.6246L117.475 85.649C118.085 85.1638 118.625 84.0838 119.011 83.9742C119.011 83.9742 120.053 82.7299 120.053 82.2707C119.998 82.6333 120.575 81.9446 120.575 82.2707C120.787 81.5674 121.177 80.9306 121.706 80.4212L121.672 80.5125C122.884 79.109 123.215 77.7603 124.31 76.5081C124.091 76.4586 124.662 75.7907 124.31 75.8246C125.022 74.2594 126.416 73.4768 126.038 72.5273C126.403 71.8438 126.69 71.849 126.93 71.5281L126.872 71.7107C127.55 70.4273 127.756 70.062 128.319 69.1438C128.522 68.6403 128.233 68.3768 128.783 67.5786C128.765 67.9255 128.934 67.5786 129.109 67.2577C129.017 67.469 129.033 67.5577 129.354 67.2003C129.352 67.1047 129.366 67.0095 129.395 66.9186C129.408 66.9186 129.427 66.9186 129.437 66.9186C129.685 66.3681 129.591 66.4359 129.437 66.6577C129.424 66.6342 129.388 66.6394 129.307 66.6942C129.786 66.2507 130.151 65.1786 130.417 65.2412C131.223 63.6264 131.616 62.3716 132.218 60.9994C132.416 60.9159 132.359 61.2812 132.203 61.6907L132.656 60.7281C132.826 60.8272 132.471 61.3203 132.351 61.6281C133.219 60.6551 133.303 59.1786 134.233 57.9916V57.6525L134.298 57.5873C134.223 57.5533 134.275 57.2064 134.353 56.9977C134.601 56.8907 134.695 57.1907 135.023 56.5333C135.45 55.8446 135.766 55.0928 135.959 54.3055C135.75 54.6603 135.724 54.4986 135.75 54.3055C135.909 53.9768 136.157 53.8646 136.22 53.5777L136.441 53.6507C136.18 53.682 136.663 52.6881 136.639 52.5264C136.887 52.4168 136.514 53.1003 136.59 53.2386L137.546 51.2507C137.739 50.4681 137.285 51.282 137.285 50.8568C137.5 50.1656 137.803 49.5046 138.185 48.8899L137.89 49.0255C138.175 48.0727 138.639 47.1829 139.256 46.4038C142.001 36.9733 138.109 43.5759 138.109 43.5759C136.438 46.5785 135.005 49.7082 133.824 52.9359C131.937 56.4342 131.1 57.1829 129.314 60.882C128.355 62.5881 127.43 64.4612 126.52 66.1412C126.351 67.0907 125.264 68.3116 124.956 69.3681L124.597 69.629C124.5 70.0181 124.307 70.3768 124.036 70.6725L124.005 70.6281C123.828 71.1655 123.434 71.6533 123.346 71.9325L123.314 71.8855L122.983 72.4699V72.3316C122.603 73.1979 122.118 74.0144 121.539 74.7629L121.758 74.8177C120.551 76.2603 120.525 77.0638 119.342 78.2977L119.31 78.2481C118.984 79.1187 118.466 79.9049 117.796 80.549C117.131 81.2158 116.586 81.9935 116.188 82.8472C116.302 82.5864 116.029 82.8759 116.003 82.8264C115.437 83.6638 114.806 84.5377 115.124 84.8064C114.671 85.3907 114.655 85.2029 114.47 85.1768C114.616 85.2864 114.269 85.8316 113.912 86.2829L114.027 86.0351L113.031 87.3394L113.5 87.3081C112.869 87.9238 113.036 87.2116 112.57 87.9133L112.794 88.0907C111.994 88.7817 111.14 89.4064 110.239 89.9586C107.18 93.7303 103.669 97.1121 99.7867 100.028L99.5 99.9864C99.2524 99.8064 98.8041 101.106 98.4913 100.983L98.1604 101.411C98.0092 101.455 97.7248 101.593 97.8995 101.382C97.6591 101.54 97.4571 101.749 97.308 101.995L96.7865 102.152C96.017 102.636 95.279 103.168 94.5763 103.746C93.8646 104.354 93.0965 104.893 92.2825 105.355C90.8671 106.005 88.792 107.215 86.8735 108.334C87.3989 108.428 87.9159 108.564 88.4193 108.741C88.9482 108.936 89.4578 109.18 89.9415 109.469C90.8538 108.947 91.3362 107.674 92.3372 107.278C92.6734 106.824 92.1182 107.799 92.7047 107.262C92.8481 107.447 92.4674 107.58 92.7359 107.632C93.3354 107.129 93.9429 107.166 94.6727 106.526L94.8054 106.659C95.6578 105.689 96.8907 105.525 97.3964 104.797C98.3713 103.946 98.413 104.726 99.2836 103.639L99.8494 103.521C100.334 103.206 99.9955 103.033 100.577 102.739C100.642 102.882 101.299 102.347 101.098 102.689C102.365 101.951 103.183 100.589 104.854 99.6264C104.964 99.1229 105.795 98.6168 105.87 98.2438C106.001 98.3116 107.304 96.9681 106.707 97.902C106.653 97.9829 106.53 98.0873 106.501 98.0429L106.528 98.2594C107.57 97.7794 107.831 96.7516 108.636 96.0473C108.376 96.2273 108.076 96.5351 108.19 96.2507L108.923 95.5699L108.879 95.8307C109.223 95.4994 109.603 95.1759 109.961 94.829Z" fill="white"/>
<path d="M115.247 89.1604L115.27 89.33L115.247 89.1604Z" fill="white"/>
</g>
<defs>
<clipPath id="clip0_1403_4826">
<rect width="291.769" height="600" fill="white"/>
</clipPath>
</defs>
</svg>
