<svg width="373" height="352" viewBox="0 0 373 352" fill="none" xmlns="http://www.w3.org/2000/svg">
<g clip-path="url(#clip0_1220_12302)">
<path d="M342.228 174.713H175.573L11.9058 243.439C23.4908 273.415 43.2281 299.553 68.8875 318.901C117.536 354.972 186.017 362.311 241.126 337.196C278.185 320.309 309.647 289.597 326.201 252.389C337.479 227.043 343.437 201.271 342.228 174.713Z" fill="#CCCCCC"/>
<path d="M0.902344 199.796C0.902344 199.854 0.919944 199.912 0.926984 199.972C1.13701 201.725 1.37168 203.475 1.63099 205.222C1.65211 205.363 1.67498 205.502 1.6961 205.641C1.95893 207.348 2.2464 209.05 2.5585 210.745C2.58842 210.921 2.62187 211.081 2.65355 211.25C2.96683 212.922 3.30357 214.591 3.66378 216.256C3.70426 216.442 3.74651 216.627 3.78875 216.812C4.15131 218.455 4.53792 220.097 4.94858 221.74C4.99786 221.937 5.05066 222.132 5.09994 222.33C5.51413 223.955 5.95061 225.574 6.40938 227.187C6.4657 227.388 6.52554 227.587 6.58538 227.786C7.05472 229.394 7.54106 230.995 8.04442 232.589C8.10954 232.791 8.17642 232.992 8.24154 233.194C8.75546 234.78 9.2905 236.36 9.84666 237.934C9.91882 238.14 9.9945 238.344 10.0684 238.548C10.6305 240.112 11.213 241.67 11.8161 243.221C11.8443 243.293 11.8707 243.367 11.8988 243.439L175.565 174.716L0.902344 199.796Z" fill="#75787B"/>
<path d="M4.88712 139.186C4.82904 139.411 4.78153 139.638 4.72521 139.862C4.44713 140.964 4.18136 142.069 3.92792 143.178C3.81176 143.685 3.69033 144.191 3.57593 144.7C3.32073 145.86 3.08312 147.023 2.8508 148.188C2.75752 148.653 2.66072 149.116 2.57096 149.582C2.32632 150.876 2.10104 152.177 1.88632 153.475C1.83176 153.81 1.76841 154.141 1.71033 154.475C1.4475 156.127 1.21283 157.783 1.00632 159.442C0.864351 160.569 0.733525 161.699 0.613845 162.83L0.598007 162.981C0.488887 164.029 0.390325 165.076 0.302325 166.123C0.290005 166.258 0.279444 166.396 0.267124 166.531C0.186164 167.537 0.11342 168.542 0.0488864 169.546L0.0277646 169.863C-0.179915 173.248 -0.282581 176.635 -0.280234 180.023V180.169C-0.280234 181.264 -0.267329 182.358 -0.241515 183.452V183.577C-0.215702 184.704 -0.178742 185.832 -0.130636 186.961C-0.0707957 188.404 0.0154452 189.848 0.112245 191.289C0.135125 191.609 0.156244 191.93 0.180884 192.248C0.286484 193.695 0.404404 195.14 0.548724 196.581V196.671C0.647284 197.659 0.75523 198.645 0.872564 199.628C0.872564 199.684 0.884884 199.741 0.890164 199.804L175.56 174.724L4.88712 139.186Z" fill="#53565A"/>
<path d="M114.835 18.9528L114.791 18.9686C111.641 20.0563 108.523 21.2343 105.438 22.5027C105.262 22.5784 105.074 22.6576 104.891 22.7333C103.6 23.2695 102.314 23.8221 101.031 24.3912C100.644 24.5672 100.26 24.7432 99.8751 24.9192C98.8015 25.4049 97.732 25.9024 96.6666 26.4117C96.209 26.6299 95.7531 26.8534 95.2973 27.077C94.3046 27.5627 93.3173 28.0584 92.3352 28.5641C91.8588 28.8105 91.3825 29.0581 90.9061 29.3069C89.9346 29.8196 88.9678 30.3423 88.0056 30.875C87.5498 31.1285 87.0922 31.3766 86.6381 31.6336C85.6032 32.2179 84.5771 32.8181 83.5563 33.4253C83.1938 33.6382 82.8295 33.8476 82.4704 34.0641C81.0882 34.8984 79.7184 35.7526 78.3608 36.6267C78.2781 36.6795 78.1989 36.7358 78.1162 36.7886C77.0426 37.4838 75.9778 38.1966 74.92 38.9165C74.5293 39.184 74.1439 39.4533 73.7549 39.7226C72.9582 40.2776 72.1656 40.839 71.3771 41.4069C71.0005 41.6779 70.6239 41.9472 70.2507 42.2217C69.1595 43.0219 68.0771 43.8351 67.0035 44.6611C66.8064 44.8142 66.6146 44.9709 66.4192 45.1222C65.5134 45.8262 64.6152 46.542 63.7247 47.2694C63.348 47.5739 62.9749 47.8837 62.6018 48.1934C61.8544 48.8129 61.1116 49.4384 60.3736 50.0696C60.0304 50.3653 59.6855 50.6574 59.344 50.9496C58.3267 51.839 57.3183 52.7377 56.3186 53.6459C56.0845 53.8606 55.8539 54.0806 55.6146 54.2954C54.8191 55.031 54.0306 55.7732 53.2491 56.5217C52.8971 56.8597 52.5451 57.2011 52.1931 57.5426C51.4891 58.2301 50.7898 58.9253 50.0952 59.6282C49.7925 59.9326 49.488 60.2371 49.187 60.5451C48.2484 61.5131 47.3156 62.4917 46.3887 63.4808C46.1405 63.7466 45.8976 64.0194 45.6512 64.2869C44.9472 65.0543 44.2497 65.8275 43.5586 66.6066C43.2347 66.9709 42.9109 67.3387 42.5906 67.7066C41.9276 68.4681 41.2717 69.2354 40.6229 70.0086C40.3642 70.3148 40.0949 70.6193 39.845 70.9291C38.9826 71.9699 38.1313 73.0206 37.2912 74.0813C37.0413 74.3963 36.7984 74.7149 36.552 75.0317C35.9313 75.8272 35.3165 76.6274 34.7075 77.4323C34.4118 77.8242 34.1185 78.2178 33.8275 78.6133C33.2139 79.444 32.6067 80.2806 32.0059 81.123C31.7894 81.4257 31.5695 81.7267 31.3547 82.0312C30.5792 83.1341 29.8165 84.2459 29.0667 85.3664C28.8203 85.7325 28.5792 86.1038 28.3363 86.4734C27.8025 87.2819 27.2745 88.0944 26.7523 88.911C26.4789 89.3381 26.2079 89.767 25.9392 90.1976C25.3901 91.0752 24.8498 91.9588 24.3182 92.8482C24.1299 93.1632 23.9363 93.473 23.7498 93.788C23.0739 94.932 22.411 96.0836 21.761 97.2429C21.5163 97.6793 21.277 98.1229 21.0341 98.5576C20.5976 99.3496 20.1676 100.145 19.744 100.942C19.4871 101.426 19.2324 101.909 18.9802 102.393C18.5214 103.276 18.0708 104.164 17.6285 105.056C17.3997 105.515 17.1691 105.972 16.9456 106.434C16.4317 107.49 15.9283 108.55 15.4355 109.614C15.1874 110.152 14.9445 110.693 14.7016 111.233C14.3766 111.958 14.0551 112.685 13.7371 113.412C13.489 113.986 13.239 114.56 12.9962 115.137C12.6641 115.929 12.3373 116.724 12.0159 117.523C11.6639 118.403 11.3154 119.287 10.9704 120.174C10.7328 120.793 10.4899 121.406 10.2664 122.031C10.2259 122.138 10.1907 122.247 10.1502 122.353C9.81937 123.245 9.50433 124.143 9.18753 125.04C8.97985 125.63 8.77217 126.218 8.56977 126.811C8.30577 127.591 8.05233 128.376 7.79889 129.16C7.57537 129.849 7.35185 130.539 7.13889 131.23C6.90481 131.987 6.68129 132.746 6.45777 133.504C6.25185 134.208 6.04769 134.912 5.85057 135.606C5.62353 136.415 5.40705 137.227 5.19233 138.038C5.09201 138.422 4.98113 138.802 4.88257 139.185L175.567 174.716L114.835 18.9528Z" fill="#3D3935"/>
<path d="M209.856 13.4326C188.346 8.64299 166.119 8.00501 144.37 11.5529C144.076 11.6004 143.784 11.6603 143.49 11.7078C142.126 11.9348 140.765 12.1724 139.408 12.4293C138.801 12.5455 138.197 12.6705 137.592 12.7919C136.571 12.9961 135.553 13.2085 134.538 13.4291C134.16 13.51 133.78 13.5804 133.403 13.6649C132.996 13.7582 132.593 13.8638 132.187 13.9588C131.456 14.1289 130.726 14.3049 129.997 14.4868C129.306 14.6628 128.614 14.8283 127.926 15.0148C127.003 15.2554 126.081 15.5041 125.161 15.761C124.621 15.9106 124.08 16.0585 123.54 16.2134C122.468 16.5214 121.4 16.8452 120.333 17.1743C119.934 17.2975 119.534 17.4155 119.137 17.5404C117.775 17.971 116.421 18.4181 115.073 18.8815L114.832 18.9608L175.569 174.721L228.017 18.8921C222.093 16.6666 216.025 14.8426 209.856 13.4326Z" fill="#00F3B3"/>
<path d="M368.903 130.259C361.053 94.5506 340.942 62.135 314.596 36.7875C297.926 20.7468 279.22 7.94806 258.067 0.00341797L205.619 155.827H372.275C371.883 147.224 370.755 138.67 368.903 130.259Z" fill="#00F3B3"/>
</g>
<defs>
<clipPath id="clip0_1220_12302">
<rect width="372.56" height="352" fill="white" transform="translate(-0.280273)"/>
</clipPath>
</defs>
</svg>
