<svg xmlns="http://www.w3.org/2000/svg" viewBox="0 0 591.87 539.64"><g id="b49b2b02-8eee-4acf-a88f-972da71a49c9" data-name="Main"><path d="M310.22,69Z" fill="#202020"/><path d="M102.05,164.63v0s0,.1,0,.17l0,.23,0-.35C102.07,164.61,102.06,164.66,102.05,164.63Z" fill="#202020"/><path d="M101.9,202.54a1.85,1.85,0,0,0,0,.23S101.92,202.8,101.9,202.54Z" fill="#202020"/><path d="M178.85,123.87c.29-.15.45-.24.56-.31Z" fill="#202020"/><path d="M372.15,101.65l-.15-.08.36.2Z" fill="#202020"/><path d="M371.45,101.32c-.73-.41.22.08.55.25-.8-.47-1.62-.9-2.47-1.33,0,0,.39.23.83.47S371.28,101.21,371.45,101.32Z" fill="#202020"/><path d="M484.44,160.92l-.34-.16Z" fill="#202020"/><path d="M174.64,123.93l.5-.28Z" fill="#202020"/><path d="M466.74,151.51l-.22,0C466.7,151.53,466.75,151.54,466.74,151.51Z" fill="#202020"/><path d="M102.12,165.05l0,.28C102.13,165.24,102.13,165.15,102.12,165.05Z" fill="#202020"/><path d="M101.86,237.83a.36.36,0,0,0,0,.19v.1Z" fill="#202020"/><path d="M100.87,415.72a.41.41,0,0,0,0-.1l-.05-.71C100.86,415.28,100.87,415.54,100.87,415.72Z" fill="#202020"/><path d="M101.59,286.24a.57.57,0,0,0,0,.16c0-.82,0-3,0-5.8l-.07-.17Z" fill="#202020"/><path d="M99.82,339.18,100,334c.07,16.56-.08,24.29,0,38.47l0-.79c0,2.07.31,3.23-.11,26h0c0,.79,0,.78,0,2.36l.09-3.94c0,2.36.11,4.43.12,7.57a5.76,5.76,0,0,1-.07,1l0,7.72-.09,2.36a67.38,67.38,0,0,1,.14,7.6c.15-2.38.09,3.13.16,2.35,0,.33,0,1-.07,1.63,0,3.75.06,10.82.13,12.57,0,0,.31-14.69.46-18.64,0,5.29,0,1.39.07.35l0-.35c0-3.17.13-3.17.15-4.75l0,.09v.21c0,.15,0,.06,0-.11,0,0,0-.11,0-1v.16c0-1.32,0-3.6,0-4.6l.08,0c-.15-2.34.22-15.77.22-18.92s0-7.1,0-11.05c0-6.3.11-3.15.17-6.31,0-3.95-.08.8-.09-.79l.11-4.73c0,2.75.05,1.26.08.76,0-4.09.15-10.54,0-11.8.07-5.52.13-5.53.14-7.9,0,.4,0,1,0,1.48,0,.25,0,.47,0,.63a1.67,1.67,0,0,1,0,.27c.07-2.21,0-1.06,0-.15-.07-3.38.27-17.5.11-18.21h0c-.13-.78-.25.47-.32-1.88l.06-1.57-.05-2.37c0-.39,0-.63,0-.79s0-.2,0-.21,0,.2,0,.2c-.05-3.86,0-9.24,0-13.9l-.34,4.94c.08-3.94.24-11,.13-11.83l.12-2.36c.21-7.9-.1-5.52,0-8.67l.12-4v3.94c.08-3.92.12-5.5.18-8.67v0c0,.22,0,.36,0,.39v-.55c-.06-.48-.11-2.54-.1-5.32,0-3.95-.08-7,.06-13.34l-.13-1.57.07-4.74h.1c0,4.64,0,13.37,0,19.33l.05.11c0-3.54,0-7.56,0-9.89,0-1.14.13-4.06.2-1.94l-.1-2.19c0-11.8,0-11.87.1-24.19l0,1.07c0-2.44-.06-4.87,0-5.55,0-7.4.08-15.06.21-19.86l-.12-1a45.5,45.5,0,0,0,0-4.66l-.06-3.34c0-2.13,0-3.44,0-5.87h0c0-.15,0-.31,0-.46a.1.1,0,0,0,0,0c.05-4.83-.11,0,0-5.48.09-1.78-.15-2-.12-4.66l.17-2.71c.09-4.88-.08-5.72-.08-12.79.06-3.4.21-5,.34-2.79-.16-3.09-.1-1.41-.18-5.51.07-.63.08-.19.14.71,0-1.82,0-2.38,0-2.83,0-.23,0-.44,0-.74s0-.71,0-1.35a.32.32,0,0,1-.1-.12.2.2,0,0,1,0-.1l0-.06.2-.14a7.31,7.31,0,0,1,.84-.52l-1,.46c2.54-1.41,5.34-2.92,8.36-4.45l-.08.12,3.17-1.71.23,0,4.54-2.42-.63.31c1.06-.57,4.56-2.45,6.58-3.47l-.05.08c5.72-2.86,10.3-5.47,16.92-9l-.83.54c2.3-1.11.55-.45,3.26-1.83l.19,0a44.13,44.13,0,0,1,4.73-2.4l-.83.28,3.09-1.59c3.41-1.75,2.16-.94,1.7-.61l2.25-1.32.51-.12c1.62-1,1.69-.87,4.61-2.49.26-.09-.47.33.54-.18l4.79-2.72-2.9,1.61.27-.35c3-1.73,4.15-2.16,6.31-3.36l-1.48.84c3.54-1.91,3.77-1.94,5.8-3-.64.3-1.62.76-.19,0,1.06-.57.61-.25,1.62-.76a44.8,44.8,0,0,1,5.05-2.8.64.64,0,0,1-.21.16c.58-.33.88-.52,1.92-1l-.54.44,1.92-1.16c1.33-.66,3.21-1.76,3.08-1.59l-.73.42,10-5.24.19,0c.92-.65,5.47-2.82,5.06-2.81,1.93-.91,7.39-4,6.38-3.21,6.58-3.45,10-5.5,18.08-9.62,2.93-1.34,10.7-5.5,15.84-8.18l26.65-14.27c6.28-3,15.33-8.18,22-11.55l1.77-1c.87-.42,1.81-.9,2.82-1.42l2.75-1.44,5.15,2.71c1.91,1,3.85,2.06,5.73,3.1L310.22,69a4.63,4.63,0,0,1-.8-.52c1.74,1,5.34,2.81,5,2.78l-.45-.22c-.32,0,5.38,2.78,7.3,3.92l-1-.69,3.33,1.78-.9-.45c14.65,7.42,21,11.27,34.77,18.24-1.87-.83,2.73,1.35,2.83,1.58,3.34,2,6.39,3.34,9.23,4.78,0,0,.05,0,.21.08l4.92,2.62c-3-1.38,3.63,1.73.85.45,12.77,6.93,29.61,15.66,44.45,23.59l-.62-.39c3.76,2,8.49,4.43,11.31,6s6.32,3.19,7.44,3.77c3.17,1.58,5.94,3.25,4.6,2.53,3.37,1.75,6.61,3.26,11.23,5.79.75.5,3.95,2.14,7,3.69l4.05,2.1a13.67,13.67,0,0,1,1.81,1l.06,0c5.9,3.27,11.63,6,18,9.55l-.35-.16,7.58,3.62.25,6,.64-4.21L493,164l-9.71-5.64-30.74-16.14L428.14,129,368.49,97.57l-4.33-2.12c-11.59-6.43-26.76-14.11-39.29-21l-.32,0c-3.56-1.87-3.28-1.81-4.15-2.3L296.65,59.65,258.32,79.92,222.41,98.77c-2.91,1.44-11.63,6.09-13.93,7.2-9.61,5.23-19.86,10.64-29.56,15.73l.36-.21-4.56,2.43c-.19.09-.22.09-.08,0-5.1,2.81-13.27,7-19.59,10.27l.36-.21L99.93,163.31c0,10,0,20,0,30,0,9.86,0,19.78-.06,29.88-.21,19.17.07,41.48-.1,63.48C99.67,290.74,99.76,335.25,99.82,339.18Z" fill="#202020"/><path d="M100,404.69v-.17S100,404.78,100,404.69Z" fill="#202020"/><path d="M101.43,312.76v.29l.08-1.1Z" fill="#202020"/><path d="M101.48,371.64c0-2.64,0-2.77,0-2.39C101.46,370.2,101.46,371,101.48,371.64Z" fill="#202020"/><path d="M100.09,426.3c0,1.39,0,.86.06.05,0-1.42,0-2.41,0-2.41C100.13,424.72,100.11,425.51,100.09,426.3Z" fill="#202020"/><path d="M100.81,420.63l0,.44C100.84,420.25,100.82,420.28,100.81,420.63Z" fill="#202020"/><polygon points="64.65 153.5 296.65 30.27 528.65 152.99 528.65 185.65 296.65 62.93 64.65 185.16 64.65 153.5"/><path d="M233.77,463.19Z" fill="#202020"/><path d="M491.29,463h0v0l-.05-.06,0,.05Z" fill="#202020"/><path d="M491.47,422.85v-.25S491.44,422.57,491.47,422.85Z" fill="#202020"/><path d="M396.31,463.24h0Z" fill="#202020"/><path d="M157.64,463.32h-.26Z" fill="#202020"/><path d="M158.48,463.28c.92,0-.25,0-.65,0,1,0,2,0,3,0l-.32,0h-.72Z" fill="#202020"/><path d="M101.59,382.67v.41C101.59,382.92,101.59,382.79,101.59,382.67Z" fill="#202020"/><path d="M400.39,465h0Z" fill="#202020"/><path d="M101.55,404.47l.06.23C101.58,404.49,101.57,404.44,101.55,404.47Z" fill="#202020"/><path d="M491.26,462.94h0Z" fill="#202020"/><path d="M491.5,384.47a.41.41,0,0,0,.05-.2v-.11Z" fill="#202020"/><path d="M492.43,191a.29.29,0,0,0,0,.1l.05.77C492.44,191.48,492.43,191.2,492.43,191Z" fill="#202020"/><path d="M491.75,331.82a.82.82,0,0,0,0-.18c0,.92,0,3.28,0,6.32l.07.18Z" fill="#202020"/><path d="M493.42,274.25l-.14,5.61c-.07-18,.07-26.42,0-41.84l0,.86c0-2.25-.29-3.51.1-28.31h0c0-.86,0-.85,0-2.57l-.09,4.29c0-2.57-.11-4.82-.12-8.24a6.57,6.57,0,0,1,.07-1.05l0-8.39.09-2.58c-.05-2.56-.25-1.39-.14-8.26-.13,2.59-.08-3.4-.15-2.56,0-.35,0-1.13.07-1.76,0-4.08-.06-11.77-.13-13.68,0,0-.28,16-.43,20.27,0-5.74,0-1.51-.06-.38l0,.38c0,3.45-.12,3.45-.14,5.17,0,0,0-.05,0-.1v-.22c0-.16,0-.07,0,.12,0,0,0,.11,0,1.05v-.18c0,1.44,0,3.92,0,5l-.07,0c.13,2.55-.21,17.15-.21,20.58s0,7.72,0,12c0,6.85-.1,3.43-.16,6.87-.05,4.29.08-.87.08.85l-.1,5.15c0-3-.05-1.37-.07-.82,0,4.45-.15,11.46,0,12.83-.09,6-.09,6-.13,8.59,0-.44,0-1.07,0-1.61,0-.27,0-.51,0-.69a2.13,2.13,0,0,1,0-.29c-.06,2.41,0,1.15,0,.17.06,3.67-.26,19-.1,19.8h0c.11.85.23-.52.29,2L492,284.1l.05,2.58c0,.42,0,.69,0,.86s0,.22,0,.22a1.52,1.52,0,0,1,0-.21c.05,4.19,0,10,0,15.12l.32-5.38c-.07,4.29-.22,12-.12,12.87l-.11,2.57c-.2,8.59.09,6,0,9.42l-.12,4.32v-4.29c-.07,4.26-.1,6-.17,9.43v0c0-.23,0-.38,0-.42v.6c.06.52.1,2.76.1,5.79,0,4.29.07,7.65-.05,14.51l.11,1.71-.07,5.15h-.09c0-5.05,0-14.54,0-21l0-.12c0,3.84,0,8.22,0,10.76,0,1.24-.11,4.41-.18,2.11l.09,2.37c0,12.83,0,12.92-.09,26.31l.05-1.16c0,2.65.05,5.3,0,6,0,8-.08,16.37-.2,21.59l.11,1.14c0,1.7-.17,4.25,0,5.07l.05,3.63c0,2.32.06,3.75,0,6.39h0c0,.16,0,.34,0,.5a0,0,0,0,0,0,0c-.05,5.25.1-.05,0,6-.08,1.92.14,2.13.11,5.06l-.16,2.94c-.09,5.31.07,6.22.07,13.92-.05,3.69-.19,5.48-.31,3,.14,3.36.09,1.53.16,6-.06.69-.07.21-.12-.77,0,2,0,2.58,0,3.07,0,.27,0,.48.05,1.24h0a.11.11,0,0,1,0,.09l-.06.05-.33,0a14.34,14.34,0,0,1-1.46.11l1.16,0c-3.17.06-6.62.09-10.3,0l.13-.06-3.91,0-.25-.08-5.59,0,.77,0c-1.32,0-5.63,0-8.09,0l.09,0c-7-.12-12.69,0-20.84.06l1.07-.09c-2.77-.08-.76.13-4.06.09l-.17-.1a56.93,56.93,0,0,1-5.77-.08l.94.13-3.78,0c-4.16,0-2.55-.17-1.94-.24l-2.83.11-.56-.12c-2.07.14-2.07,0-5.7.05-.29,0,.62-.07-.61-.09l-6,.17,3.61-.07-.44.17c-3.76.13-5.09,0-7.78,0l1.85,0c-4.38,0-4.61,0-7.08-.07.76,0,1.94.08.16.1-1.3,0-.7-.06-1.93-.08a54.84,54.84,0,0,1-6.29.12.79.79,0,0,1,.28,0c-.72,0-1.1.05-2.36,0l.74-.13-2.43.12c-1.63,0-4,.06-3.78,0l.92,0-12.3,0-.17-.1c-1.22.14-6.7-.06-6.3.12-2.31-.1-9.13.07-7.76-.13-8.08,0-12.45.17-22.27.08-3.5-.17-13.09-.12-19.39-.13l-32.88.18c-7.58-.23-18.9.08-27.05-.05l-2.23.09c-5.42-.14-13.7,0-21.3-.11l-3.27.06a4.76,4.76,0,0,1,1,.08c-2.17,0-6.56,0-6.25-.11h.55c.32-.12-6.58.06-9,0l1.33.13-4.11,0,1.1,0c-17.86.29-25.93-.12-42.7.14,2.22-.14-3.31.07-3.53-.08-4.23-.19-7.84,0-11.3.09,0,0,0,0-.25,0l-6.06,0c3.62-.19-4.36.16-1,0-7.6-.07-16.31-.07-25.34-.06H101.72c0-.46,0-.92,0-1.37l0,.8c0-4.64-.05-10.41,0-13.93s-.13-7.7-.14-9.07c-.08-3.86.09-7.37.08-5.71,0-4.13-.2-8-.12-13.74.08-1,0-4.88,0-8.57,0-1.84,0-3.63,0-5a16.45,16.45,0,0,1,.06-2.26l0-.07c.13-7.33-.09-14.25,0-22.15,0,0,0,.16,0,.42L101,366.59l-.61,4.58-.49,13.93.11,37.77L99.84,453v12.14l63.39-.06,5.24-.13c14.41.24,32.9,0,48.42.13l.33-.12c4.37,0,4.07.07,5.16.09,40.72,0,82.64-.18,119.28,0,3.53.07,14.27,0,17.05.11,11.9-.14,24.5-.14,36.42-.13l-.45,0,5.61,0c.24,0,.27,0,.09,0,6.33-.11,16.3,0,24.05,0H424l69.33-.07c0-10.83,0-21.66,0-32.56,0-10.59,0-21.25.06-32.09.19-20.86-.08-45.12.09-69.05C493.56,326.93,493.47,278.53,493.42,274.25Z" fill="#202020"/><path d="M493.26,203v.19C493.31,203.18,493.29,202.9,493.26,203Z" fill="#202020"/><path d="M491.9,303v-.32l-.07,1.19Z" fill="#202020"/><path d="M491.86,238.94c0,2.88,0,3,0,2.61C491.87,240.51,491.86,239.61,491.86,238.94Z" fill="#202020"/><path d="M493.17,179.49c0-1.51,0-.93-.06,0,0,1.54,0,2.61,0,2.61C493.13,181.22,493.15,180.36,493.17,179.49Z" fill="#202020"/><path d="M492.49,185.66l0-.47C492.46,186.08,492.47,186,492.49,185.66Z" fill="#202020"/><rect x="452.79" y="386.66" width="35.18" height="14.12" fill="#ccc"/><rect x="470.38" y="370.41" width="17.59" height="14.12" fill="#ccc"/><rect x="432.8" y="370.41" width="35.18" height="14.12" fill="#ccc"/><path d="M377.85,269.42Z" fill="#202020"/><path d="M249.43,269.59h-.12l-.26.06Z" fill="#202020"/><path d="M228.78,269.44h-.13S228.64,269.46,228.78,269.44Z" fill="#202020"/><path d="M297,269.37h0Z" fill="#202020"/><path d="M415.7,269.29h-.09l.22,0Z" fill="#202020"/><path d="M415.29,269.33c-.46,0,.12,0,.32,0-.5,0-1,0-1.51,0C414.1,269.31,415.06,269.3,415.29,269.33Z" fill="#202020"/><path d="M484.37,269.19h0Z" fill="#202020"/><path d="M295,267.57h0Z" fill="#202020"/><path d="M473.53,269.15l-.12.06C473.52,269.19,473.54,269.17,473.53,269.15Z" fill="#202020"/><path d="M249.05,269.65l-.15,0Z" fill="#202020"/><path d="M209.69,269.4l-.1,0h-.05Z" fill="#202020"/><path d="M113.49,268.48l.05,0,.39,0Z" fill="#202020"/><path d="M183.51,269.15l-.09,0c.45,0,1.63,0,3.14,0l.09-.07Z" fill="#202020"/><path d="M154.88,267.49l2.79.14c-8.95.07-13.13-.08-20.8,0l.42,0c-1.11,0-1.74.29-14.07-.11h0c-.43,0-.43,0-1.28,0l2.13.09c-1.28,0-2.39.1-4.09.11a1.45,1.45,0,0,1-.52-.06l-4.18,0-1.28-.09a21,21,0,0,1-4.11.13c1.29.14-1.69.09-1.27.16l-.88-.07c-2,0-5.85.05-6.8.12,0,0,8,.29,10.08.43-2.85,0-.75,0-.19.07l.19,0c1.72,0,1.72.12,2.57.15l0,0h-.11c-.08,0,0,0,.06,0s.06,0,.53,0h-.09c.71,0,1.95,0,2.48,0v.07c1.27-.14,8.54.21,10.24.21s3.84,0,6,0a28.24,28.24,0,0,1,3.42.16c2.13.05-.44-.08.42-.09l2.56.1c-1.49,0-.68.05-.41.08,2.21,0,5.7.15,6.38,0,3,.07,3,.13,4.27.14-.42,0-1.28-.05-1.28-.08,1.19.06.57,0,.08,0,1.82-.06,9.46.26,9.85.1v0c.42-.12-.26-.23,1-.3l.85.06,1.28-.05c.86,0,.44.07.44.08,2.08-.05,5,0,7.51,0l-2.67-.32c2.13.07,6,.22,6.4.12l1.28.11a38.79,38.79,0,0,0,4.68,0l2.15.11h-2.14c2.14.06,3,.1,4.69.18h.11a22.74,22.74,0,0,1,2.88-.09c2.13,0,3.8-.07,7.21.05l.85-.12,2.56.07v.1c-2.51,0-7.23,0-10.45,0l-.06.05c1.92,0,4.09,0,5.35,0,.62,0,2.19.12,1.05.19l1.18-.1c6.38,0,6.42,0,13.08.1l-.58-.05a24.49,24.49,0,0,1,3,0c4,0,8.14.08,10.74.2l.56-.12a12.63,12.63,0,0,0,2.53,0l1.8,0c1.15,0,1.86-.05,3.17,0h0l.25,0h0c2.61.05,0-.1,3,0,1,.08,1.06-.14,2.52-.12l1.46.16c2.64.1,3.09-.06,6.92-.07,1.84.06,2.73.2,1.51.32a26.23,26.23,0,0,1,3-.17c.34.06.1.08-.39.13,2,.07,1.22-.05,2.71-.05a6.42,6.42,0,0,1,1.41-.3l-.58,0c1.58-.06,3.3-.09,5.13,0l-.07.06,1.94,0,.13.07,2.78,0-.38,0c.65,0,2.79,0,4,0l-.05,0c3.46.13,6.31,0,10.36-.05l-.53.08c1.38.09.38-.12,2-.08l.08.1a13.4,13.4,0,0,1,2.87.08l-.46-.14,1.88,0c2.06.05,1.26.17,1,.24l1.41-.1.28.11c1-.13,1,0,2.83,0,.15,0-.31.07.3.09l3-.16-1.8.07.22-.17c1.87-.13,2.53,0,3.87,0l-.92.05c2.18,0,2.29,0,3.52.07-.38,0-1-.08-.08-.1a9.31,9.31,0,0,1,1,.08,13.41,13.41,0,0,1,3.13-.13.21.21,0,0,1-.14.05,8.27,8.27,0,0,1,1.18,0l-.38.12,1.22-.12a15.67,15.67,0,0,1,1.87,0l-.45,0,6.11,0,.09.1c.6-.14,3.33.05,3.13-.12,1.15.09,4.54-.07,3.86.13,4,0,6.19-.18,11.07-.08,1.74.17,6.51.11,9.64.13,6.13-.07,10.09-.13,16.35-.19,3.77.24,9.4-.08,13.45.05l1.11-.09c2.7.15,6.81,0,10.59.11.93,0,1.41-.05,1.63-.05a1.37,1.37,0,0,1-.51-.09,25.66,25.66,0,0,1,3.1.11h-.27c-.16.12,3.27-.05,4.48.05l-.66-.12,2,0-.54,0c8.88-.28,12.89.12,21.23-.14-1.11.14,1.65-.07,1.75.08a42.89,42.89,0,0,0,5.63-.09l.11,0,3,0c-1.8.19,2.17-.16.52,0,7.86.14,18.12,0,27.21.06l-.39-.05c2.3,0,5.17,0,6.92,0s3.84-.13,4.51-.13c1.92-.09,3.67.08,2.85.07,2,0,4-.2,6.82-.12,1,.16,7.77-.16,7.86,0h0c3.65.12,7.09-.09,11,0l-.21,0,8-.56-2.27-.6-6.93-.5-18.78.11-15-.19-36.47.06-2.61.14c-7.16-.24-16.35,0-24.08-.14l-.15.12a19.5,19.5,0,0,1-2.57-.09c-20.25,0-41.09.19-59.31,0-1.76-.08-7.1,0-8.48-.12-5.92.15-12.19.15-18.11.13h.22l-2.79,0c-.12,0-.13,0,0,0-3.15.1-8.11,0-12,0l.22,0c-22.49,0-43.36.2-65.67,0-10.37-.19-22.43.07-34.33-.09C181.08,267.34,157,267.43,154.88,267.49Z" fill="#202020"/><path d="M119.46,267.65h.09S119.41,267.61,119.46,267.65Z" fill="#202020"/><path d="M169.17,269H169l.6.07Z" fill="#202020"/><path d="M137.33,269.05c1.43,0,1.49,0,1.29,0C138.11,269,137.65,269,137.33,269.05Z" fill="#202020"/><path d="M107.77,267.74c-.76,0-.47,0,0,.06H109Z" fill="#202020"/><path d="M110.83,268.42l-.23,0C111,268.45,111,268.43,110.83,268.42Z" fill="#202020"/><line x1="100.94" y1="366.46" x2="492.36" y2="366.46" fill="#fff"/><path d="M215.46,365.59Z" fill="#202020"/><path d="M343.87,365.42H344l.26-.06Z" fill="#202020"/><path d="M364.53,365.57h.13S364.67,365.54,364.53,365.57Z" fill="#202020"/><path d="M296.28,365.64h0Z" fill="#202020"/><path d="M177.6,365.72h.09l-.22,0Z" fill="#202020"/><path d="M178,365.68c.45,0-.13,0-.33,0,.51,0,1,0,1.52,0C179.21,365.7,178.24,365.71,178,365.68Z" fill="#202020"/><path d="M108.94,365.82h0Z" fill="#202020"/><path d="M298.31,367.44h0Z" fill="#202020"/><path d="M119.78,365.86l.11-.06C119.79,365.82,119.77,365.84,119.78,365.86Z" fill="#202020"/><path d="M344.26,365.36l.15,0Z" fill="#202020"/><path d="M383.61,365.6s.05,0,.11,0h0Z" fill="#202020"/><path d="M479.81,366.53s0,0-.05,0l-.38,0Z" fill="#202020"/><path d="M409.79,365.86l.09,0c-.44,0-1.63,0-3.14,0l-.09.08Z" fill="#202020"/><path d="M438.42,367.52l-2.79-.14c9-.07,13.14.07,20.81,0l-.43,0c1.12,0,1.75-.29,14.08.1v0c.42,0,.42,0,1.28,0l-2.14-.09c1.28,0,2.4-.11,4.1-.12a1.72,1.72,0,0,1,.52.07l4.17,0,1.28.09a20.68,20.68,0,0,1,4.11-.14c-1.28-.13,1.7-.08,1.27-.15l.88.07c2,0,5.86-.06,6.8-.13,0,0-7.94-.28-10.08-.43,2.86,0,.76,0,.19-.06l-.19,0c-1.71,0-1.71-.11-2.57-.14l.05,0,.11,0c.08,0,0,0-.06,0s-.05,0-.52,0h.09c-.72,0-1.95,0-2.49,0v-.07c-1.27.13-8.53-.21-10.23-.21s-3.84,0-6,0a28.15,28.15,0,0,1-3.41-.16c-2.14-.05.43.08-.43.09l-2.55-.1c1.48,0,.68-.06.4-.08-2.21,0-5.7-.15-6.38,0-3-.07-3-.13-4.27-.14.43,0,1.28.05,1.29.08-1.2-.06-.57,0-.08,0-1.83.06-9.47-.26-9.85-.1v0c-.42.12.26.23-1,.29l-.85-.05-1.28.05c-.85,0-.43-.07-.43-.08-2.09.05-5,0-7.52,0l2.67.32c-2.12-.07-6-.22-6.39-.12l-1.28-.11a39.08,39.08,0,0,0-4.69,0l-2.14-.12h2.13c-2.13-.06-3-.1-4.69-.18h-.11a27.57,27.57,0,0,1-2.87.09c-2.14,0-3.81.07-7.22-.05l-.85.12-2.56-.08v-.09c2.51,0,7.23,0,10.45,0l.06,0c-1.91,0-4.08,0-5.35,0-.61,0-2.19-.11-1.05-.18l-1.18.09c-6.38,0-6.42,0-13.08-.09l.58.05a24.32,24.32,0,0,1-3,0c-4,0-8.14-.08-10.74-.2l-.57.11a13.18,13.18,0,0,0-2.52,0l-1.8.05c-1.16,0-1.87,0-3.18,0h0l-.24,0h0c-2.61-.05,0,.1-3,0-1-.08-1.07.14-2.52.11l-1.47-.16c-2.64-.09-3.09.07-6.92.07-1.83-.05-2.72-.19-1.5-.31a29.51,29.51,0,0,1-3,.16c-.35-.06-.11-.07.38-.12-2-.07-1.21.05-2.7.05a6.42,6.42,0,0,1-1.41.3l.57,0c-1.57.06-3.29.09-5.12,0l.07-.06-1.95,0-.12-.07-2.78,0,.38,0c-.65,0-2.8,0-4,0l0-.05c-3.46-.12-6.31,0-10.36.06l.54-.09c-1.38-.08-.38.13-2,.09l-.08-.1a14.12,14.12,0,0,1-2.87-.08l.47.13-1.88,0c-2.07-.05-1.27-.17-1-.24l-1.41.1-.27-.12c-1,.14-1,0-2.83.06-.15-.05.3-.07-.31-.09l-3,.16,1.79-.07-.22.17c-1.87.13-2.53,0-3.86,0l.92-.05c-2.18,0-2.3,0-3.53-.07.38,0,1,.08.09.1a9.51,9.51,0,0,1-1-.08,13,13,0,0,1-3.12.12.33.33,0,0,1,.14,0,8.27,8.27,0,0,1-1.18,0l.37-.13-1.21.13a18.79,18.79,0,0,1-1.88,0l.46,0-6.12,0-.08-.1c-.61.14-3.33-.05-3.13.12-1.15-.1-4.54.07-3.86-.13-4,0-6.19.18-11.08.08-1.74-.17-6.5-.11-9.64-.13-6.13.07-10.09.13-16.35.19-3.77-.24-9.39.08-13.45-.06l-1.11.1c-2.69-.15-6.81,0-10.59-.11-.92,0-1.41,0-1.62,0a1.4,1.4,0,0,1,.51.08,26.92,26.92,0,0,1-3.11-.1l.28,0c.16-.11-3.28.06-4.48,0l.66.12-2,0,.55,0c-8.88.28-12.9-.12-21.24.13,1.11-.13-1.64.08-1.75-.08a42.62,42.62,0,0,0-5.62.1l-.12,0h-3c1.8-.19-2.18.15-.52,0-7.86-.14-18.12,0-27.22-.06l.4.05c-2.31,0-5.18,0-6.93,0s-3.83.12-4.51.13c-1.92.09-3.66-.08-2.84-.07-2.05,0-4,.2-6.83.12-1-.16-7.77.16-7.85,0h0c-3.64-.13-7.08.09-11,0a1.15,1.15,0,0,1,.21,0l-8,.55,2.28.61,6.93.5,18.78-.11,15,.19,36.48-.06,2.6-.14c7.17.24,16.36,0,24.08.14l.16-.12a21,21,0,0,1,2.57.08c20.24,0,41.09-.18,59.31,0,1.75.08,7.1,0,8.48.11,5.91-.14,12.18-.14,18.11-.12h-.23l2.79,0c.12,0,.14,0,.05,0,3.14-.11,8.1,0,12,0H310c22.49,0,43.37-.2,65.67,0,10.37.19,22.44-.07,34.33.09C412.23,367.66,436.3,367.58,438.42,367.52Z" fill="#202020"/><path d="M473.85,367.36h-.09C473.76,367.41,473.9,367.39,473.85,367.36Z" fill="#202020"/><path d="M424.13,366h.16l-.59-.07Z" fill="#202020"/><path d="M456,366c-1.43,0-1.5,0-1.3,0C455.2,366,455.65,366,456,366Z" fill="#202020"/><path d="M485.54,367.27c.75,0,.46,0,0-.06h-1.3Z" fill="#202020"/><path d="M482.47,366.59l.24,0C482.26,366.56,482.28,366.58,482.47,366.59Z" fill="#202020"/><path d="M377.85,174.54c.17,0,.25,0,0,0Z" fill="#202020"/><path d="M249.43,174.72h-.12l-.26.06Z" fill="#202020"/><path d="M228.78,174.57h-.13S228.64,174.59,228.78,174.57Z" fill="#202020"/><path d="M297,174.5h0Z" fill="#202020"/><path d="M415.7,174.42h0Z" fill="#202020"/><path d="M415.29,174.46c-.46,0,.12,0,.32,0-.5,0-1,0-1.51,0C414.1,174.44,415.06,174.43,415.29,174.46Z" fill="#202020"/><path d="M484.37,174.32h0Z" fill="#202020"/><path d="M295,172.7h0Z" fill="#202020"/><path d="M473.53,174.28l-.12.06C473.52,174.31,473.54,174.3,473.53,174.28Z" fill="#202020"/><path d="M249.05,174.78l-.15,0Z" fill="#202020"/><path d="M209.69,174.53s-.05,0-.1,0h-.05Z" fill="#202020"/><path d="M113.49,173.61l.05,0,.39,0Z" fill="#202020"/><path d="M183.51,174.28l-.09,0c.45,0,1.63,0,3.14,0l.09-.07Z" fill="#202020"/><path d="M154.88,172.62l2.79.14c-8.95.07-13.13-.08-20.8,0l.42,0c-1.11,0-1.74.29-14.07-.11h0c-.43,0-.43,0-1.28,0l2.13.09c-1.28,0-2.39.1-4.09.11-.37,0-.49,0-.52-.07l-4.18,0-1.28-.09a21,21,0,0,1-4.11.13c1.29.14-1.69.08-1.27.15l-.88-.06c-2,0-5.85,0-6.8.12,0,0,8,.29,10.08.43-2.85,0-.75,0-.19.07l.19,0c1.72,0,1.72.12,2.57.14l0,0h-.11c-.08,0,0,0,.06,0s.06,0,.53,0h-.09c.71,0,1.95,0,2.48,0v.07c1.27-.14,8.54.21,10.24.21s3.84,0,6,0a29.49,29.49,0,0,1,3.42.17c2.13,0-.44-.08.42-.09l2.56.1c-1.49,0-.68,0-.41.08,2.21,0,5.7.14,6.38,0,3,.07,3,.13,4.27.13-.42,0-1.28,0-1.28-.07,1.19.06.57,0,.08,0,1.82-.07,9.46.26,9.85.1v0c.42-.12-.26-.23,1-.3l.85.06,1.28-.05c.86,0,.44.06.44.08,2.08-.06,5,0,7.51,0l-2.67-.31c2.13.07,6,.22,6.4.12l1.28.1a40.2,40.2,0,0,0,4.68,0l2.15.11h-2.14c2.14.06,3,.1,4.69.17h0a.67.67,0,0,1-.21,0h.3a22.74,22.74,0,0,1,2.88-.09c2.13,0,3.8-.07,7.21.05l.85-.12,2.56.07v.1c-2.51,0-7.23,0-10.45,0l-.06.05c1.92,0,4.09-.05,5.35,0,.62,0,2.19.12,1.05.18l1.18-.09c6.38,0,6.42,0,13.08.09l-.58,0a24.49,24.49,0,0,1,3,0c4,0,8.14.07,10.74.19l.56-.11a12.63,12.63,0,0,0,2.53,0l1.8-.05c1.15,0,1.86,0,3.17,0h.25c2.61,0,0-.1,3,0,1,.08,1.06-.14,2.52-.12l1.46.16c2.64.09,3.09-.07,6.92-.07,1.84.06,2.73.2,1.51.32a26.23,26.23,0,0,1,3-.17c.34.06.1.08-.39.13,2,.07,1.22-.05,2.71-.05a5.89,5.89,0,0,1,1.41-.3l-.58,0c1.58-.06,3.3-.09,5.13,0l-.07.06,1.94,0,.13.07,2.78,0-.38,0c.65,0,2.79,0,4,0l-.05,0c3.46.13,6.31,0,10.36,0l-.53.08c1.38.08.38-.13,2-.08l.08.1a13.4,13.4,0,0,1,2.87.08l-.46-.14,1.88,0c2.06.05,1.26.17,1,.24l1.41-.11.28.12c1-.13,1,0,2.83-.05.15.05-.31.07.3.09l3-.17-1.8.08.22-.17c1.87-.14,2.53,0,3.87,0l-.92.05c2.18,0,2.29,0,3.52.07-.38,0-1-.08-.08-.11.65,0,.35.07,1,.08a14.3,14.3,0,0,1,3.13-.12s0,0-.14.05a9.63,9.63,0,0,1,1.18,0l-.38.13,1.22-.12a15.67,15.67,0,0,1,1.87,0l-.45,0,6.11,0,.09.1c.6-.14,3.33.05,3.13-.12,1.15.09,4.54-.07,3.86.13,4,0,6.19-.18,11.07-.08,1.74.17,6.51.11,9.64.13,6.13-.07,10.09-.13,16.35-.19,3.77.24,9.4-.08,13.45.05l1.11-.09c2.7.15,6.81,0,10.59.11l1.63-.06a1.21,1.21,0,0,1-.51-.08,23.6,23.6,0,0,1,3.1.11h-.27c-.16.12,3.27-.05,4.48,0l-.66-.13,2,0-.54,0c8.88-.28,12.89.12,21.23-.14-1.11.14,1.65-.07,1.75.08a42.89,42.89,0,0,0,5.63-.09s0,0,.11,0l3,0c-1.8.19,2.17-.16.52,0,7.86.15,18.12,0,27.21.07l-.39-.05c2.3,0,5.17,0,6.92,0s3.84-.13,4.51-.14c1.92-.08,3.67.09,2.85.08,2,0,4-.2,6.82-.12,1,.16,7.77-.16,7.86,0l0,0c3.65.13,7.09-.09,11,0l-.21,0,8-.56-2.27-.61-6.93-.49-18.78.11-15-.2-36.47.07-2.61.14c-7.16-.24-16.35,0-24.08-.14l-.15.12a19.5,19.5,0,0,1-2.57-.09c-20.25,0-41.09.19-59.31,0-1.76-.08-7.1,0-8.48-.12-5.92.15-12.19.15-18.11.13h.22l-2.79,0c-.12,0-.13,0,0,0-3.15.1-8.11,0-12,0l.22,0c-22.49,0-43.36.2-65.67,0-10.37-.2-22.43.07-34.33-.09C181.08,172.47,157,172.56,154.88,172.62Z" fill="#202020"/><path d="M119.46,172.77h.09C119.54,172.72,119.41,172.74,119.46,172.77Z" fill="#202020"/><path d="M169.17,174.14H169l.6.07Z" fill="#202020"/><path d="M137.33,174.18c1.43,0,1.49,0,1.29,0C138.11,174.16,137.65,174.16,137.33,174.18Z" fill="#202020"/><path d="M107.77,172.87c-.76,0-.47,0,0,.06H109Z" fill="#202020"/><path d="M110.83,173.55l-.23,0C111,173.58,111,173.56,110.83,173.55Z" fill="#202020"/><rect x="104.38" y="370.43" width="35.16" height="14.11" transform="translate(243.92 754.97) rotate(-180)" fill="#ccc"/><rect x="104.38" y="386.67" width="17.58" height="14.11" transform="translate(226.34 787.45) rotate(180)" fill="#ccc"/><path d="M310.22,69Z" fill="#202020"/><path d="M102.05,164.63v0s0,.1,0,.17l0,.23,0-.35C102.07,164.61,102.06,164.66,102.05,164.63Z" fill="#202020"/><path d="M101.9,202.54a1.85,1.85,0,0,0,0,.23S101.92,202.8,101.9,202.54Z" fill="#202020"/><path d="M178.85,123.87c.29-.15.45-.24.56-.31Z" fill="#202020"/><path d="M372.15,101.65l-.15-.08.36.2Z" fill="#202020"/><path d="M371.45,101.32c-.73-.41.22.08.55.25-.8-.47-1.62-.9-2.47-1.33,0,0,.39.23.83.47S371.28,101.21,371.45,101.32Z" fill="#202020"/><path d="M484.44,160.92l-.34-.16Z" fill="#202020"/><path d="M174.64,123.93l.5-.28Z" fill="#202020"/><path d="M466.74,151.51l-.22,0C466.7,151.53,466.75,151.54,466.74,151.51Z" fill="#202020"/><path d="M102.12,165.05l0,.28C102.13,165.24,102.13,165.15,102.12,165.05Z" fill="#202020"/><path d="M101.86,237.83a.36.36,0,0,0,0,.19v.1Z" fill="#202020"/><path d="M100.87,415.72a.41.41,0,0,0,0-.1l-.05-.71C100.86,415.28,100.87,415.54,100.87,415.72Z" fill="#202020"/><path d="M101.59,286.24a.57.57,0,0,0,0,.16c0-.82,0-3,0-5.8l-.07-.17Z" fill="#202020"/><path d="M99.82,339.18,100,334c.07,16.56-.08,24.29,0,38.47l0-.79c0,2.07.31,3.23-.11,26h0c0,.79,0,.78,0,2.36l.09-3.94c0,2.36.11,4.43.12,7.57a5.76,5.76,0,0,1-.07,1l0,7.72-.09,2.36a67.38,67.38,0,0,1,.14,7.6c.15-2.38.09,3.13.16,2.35,0,.33,0,1-.07,1.63,0,3.75.06,10.82.13,12.57,0,0,.31-14.69.46-18.64,0,5.29,0,1.39.07.35l0-.35c0-3.17.13-3.17.15-4.75l0,.09v.21c0,.15,0,.06,0-.11,0,0,0-.11,0-1v.16c0-1.32,0-3.6,0-4.6l.08,0c-.15-2.34.22-15.77.22-18.92s0-7.1,0-11.05c0-6.3.11-3.15.17-6.31,0-3.95-.08.8-.09-.79l.11-4.73c0,2.75.05,1.26.08.76,0-4.09.15-10.54,0-11.8.07-5.52.13-5.53.14-7.9,0,.4,0,1,0,1.48,0,.25,0,.47,0,.63a1.67,1.67,0,0,1,0,.27c.07-2.21,0-1.06,0-.15-.07-3.38.27-17.5.11-18.21h0c-.13-.78-.25.47-.32-1.88l.06-1.57-.05-2.37c0-.39,0-.63,0-.79s0-.2,0-.21,0,.2,0,.2c-.05-3.86,0-9.24,0-13.9l-.34,4.94c.08-3.94.24-11,.13-11.83l.12-2.36c.21-7.9-.1-5.52,0-8.67l.12-4v3.94c.08-3.92.12-5.5.18-8.67v0c0,.22,0,.36,0,.39v-.55c-.06-.48-.11-2.54-.1-5.32,0-3.95-.08-7,.06-13.34l-.13-1.57.07-4.74h.1c0,4.64,0,13.37,0,19.33l.05.11c0-3.54,0-7.56,0-9.89,0-1.14.13-4.06.2-1.94l-.1-2.19c0-11.8,0-11.87.1-24.19l0,1.07c0-2.44-.06-4.87,0-5.55,0-7.4.08-15.06.21-19.86l-.12-1a45.5,45.5,0,0,0,0-4.66l-.06-3.34c0-2.13,0-3.44,0-5.87h0c0-.15,0-.31,0-.46a.1.1,0,0,0,0,0c.05-4.83-.11,0,0-5.48.09-1.78-.15-2-.12-4.66l.17-2.71c.09-4.88-.08-5.72-.08-12.79.06-3.4.21-5,.34-2.79-.16-3.09-.1-1.41-.18-5.51.07-.63.08-.19.14.71,0-1.82,0-2.38,0-2.83,0-.23,0-.44,0-.74s0-.71,0-1.35a.32.32,0,0,1-.1-.12.2.2,0,0,1,0-.1l0-.06.2-.14a7.31,7.31,0,0,1,.84-.52l-1,.46c2.54-1.41,5.34-2.92,8.36-4.45l-.08.12,3.17-1.71.23,0,4.54-2.42-.63.31c1.06-.57,4.56-2.45,6.58-3.47l-.05.08c5.72-2.86,10.3-5.47,16.92-9l-.83.54c2.3-1.11.55-.45,3.26-1.83l.19,0a44.13,44.13,0,0,1,4.73-2.4l-.83.28,3.09-1.59c3.41-1.75,2.16-.94,1.7-.61l2.25-1.32.51-.12c1.62-1,1.69-.87,4.61-2.49.26-.09-.47.33.54-.18l4.79-2.72-2.9,1.61.27-.35c3-1.73,4.15-2.16,6.31-3.36l-1.48.84c3.54-1.91,3.77-1.94,5.8-3-.64.3-1.62.76-.19,0,1.06-.57.61-.25,1.62-.76a44.8,44.8,0,0,1,5.05-2.8.64.64,0,0,1-.21.16c.58-.33.88-.52,1.92-1l-.54.44,1.92-1.16c1.33-.66,3.21-1.76,3.08-1.59l-.73.42,10-5.24.19,0c.92-.65,5.47-2.82,5.06-2.81,1.93-.91,7.39-4,6.38-3.21,6.58-3.45,10-5.5,18.08-9.62,2.93-1.34,10.7-5.5,15.84-8.18l26.65-14.27c6.28-3,15.33-8.18,22-11.55l1.77-1c.87-.42,1.81-.9,2.82-1.42l2.75-1.44,5.15,2.71c1.91,1,3.85,2.06,5.73,3.1L310.22,69a4.63,4.63,0,0,1-.8-.52c1.74,1,5.34,2.81,5,2.78l-.45-.22c-.32,0,5.38,2.78,7.3,3.92l-1-.69,3.33,1.78-.9-.45c14.65,7.42,21,11.27,34.77,18.24-1.87-.83,2.73,1.35,2.83,1.58,3.34,2,6.39,3.34,9.23,4.78,0,0,.05,0,.21.08l4.92,2.62c-3-1.38,3.63,1.73.85.45,12.77,6.93,29.61,15.66,44.45,23.59l-.62-.39c3.76,2,8.49,4.43,11.31,6s6.32,3.19,7.44,3.77c3.17,1.58,5.94,3.25,4.6,2.53,3.37,1.75,6.61,3.26,11.23,5.79.75.5,3.95,2.14,7,3.69l4.05,2.1a13.67,13.67,0,0,1,1.81,1l.06,0c5.9,3.27,11.63,6,18,9.55l-.35-.16,7.58,3.62.25,6,.64-4.21L493,164l-9.71-5.64-30.74-16.14L428.14,129,368.49,97.57l-4.33-2.12c-11.59-6.43-26.76-14.11-39.29-21l-.32,0c-3.56-1.87-3.28-1.81-4.15-2.3L296.65,59.65,258.32,79.92,222.41,98.77c-2.91,1.44-11.63,6.09-13.93,7.2-9.61,5.23-19.86,10.64-29.56,15.73l.36-.21-4.56,2.43c-.19.09-.22.09-.08,0-5.1,2.81-13.27,7-19.59,10.27l.36-.21L99.93,163.31c0,10,0,20,0,30,0,9.86,0,19.78-.06,29.88-.21,19.17.07,41.48-.1,63.48C99.67,290.74,99.76,335.25,99.82,339.18Z" fill="#202020"/><path d="M100,404.69v-.17S100,404.78,100,404.69Z" fill="#202020"/><path d="M101.43,312.76v.29l.08-1.1Z" fill="#202020"/><path d="M101.48,371.64c0-2.64,0-2.77,0-2.39C101.46,370.2,101.46,371,101.48,371.64Z" fill="#202020"/><path d="M100.09,426.3c0,1.39,0,.86.06.05,0-1.42,0-2.41,0-2.41C100.13,424.72,100.11,425.51,100.09,426.3Z" fill="#202020"/><path d="M100.81,420.63l0,.44C100.84,420.25,100.82,420.28,100.81,420.63Z" fill="#202020"/><polygon points="64.65 153.5 296.65 30.27 528.65 152.99 528.65 185.65 296.65 62.93 64.65 185.16 64.65 153.5"/><path d="M233.77,463.19Z" fill="#202020"/><path d="M491.29,463h0v0l-.05-.06,0,.05Z" fill="#202020"/><path d="M491.47,422.85v-.25S491.44,422.57,491.47,422.85Z" fill="#202020"/><path d="M396.31,463.24h0Z" fill="#202020"/><path d="M157.64,463.32h-.26Z" fill="#202020"/><path d="M158.48,463.28c.92,0-.25,0-.65,0,1,0,2,0,3,0l-.32,0h-.72Z" fill="#202020"/><path d="M101.59,382.67v.41C101.59,382.92,101.59,382.79,101.59,382.67Z" fill="#202020"/><path d="M400.39,465h0Z" fill="#202020"/><path d="M101.55,404.47l.06.23C101.58,404.49,101.57,404.44,101.55,404.47Z" fill="#202020"/><path d="M491.26,462.94h0Z" fill="#202020"/><path d="M491.5,384.47a.41.41,0,0,0,.05-.2v-.11Z" fill="#202020"/><path d="M492.43,191a.29.29,0,0,0,0,.1l.05.77C492.44,191.48,492.43,191.2,492.43,191Z" fill="#202020"/><path d="M491.75,331.82a.82.82,0,0,0,0-.18c0,.92,0,3.28,0,6.32l.07.18Z" fill="#202020"/><path d="M493.42,274.25l-.14,5.61c-.07-18,.07-26.42,0-41.84l0,.86c0-2.25-.29-3.51.1-28.31h0c0-.86,0-.85,0-2.57l-.09,4.29c0-2.57-.11-4.82-.12-8.24a6.57,6.57,0,0,1,.07-1.05l0-8.39.09-2.58c-.05-2.56-.25-1.39-.14-8.26-.13,2.59-.08-3.4-.15-2.56,0-.35,0-1.13.07-1.76,0-4.08-.06-11.77-.13-13.68,0,0-.28,16-.43,20.27,0-5.74,0-1.51-.06-.38l0,.38c0,3.45-.12,3.45-.14,5.17,0,0,0-.05,0-.1v-.22c0-.16,0-.07,0,.12,0,0,0,.11,0,1.05v-.18c0,1.44,0,3.92,0,5l-.07,0c.13,2.55-.21,17.15-.21,20.58s0,7.72,0,12c0,6.85-.1,3.43-.16,6.87-.05,4.29.08-.87.08.85l-.1,5.15c0-3-.05-1.37-.07-.82,0,4.45-.15,11.46,0,12.83-.09,6-.09,6-.13,8.59,0-.44,0-1.07,0-1.61,0-.27,0-.51,0-.69a2.13,2.13,0,0,1,0-.29c-.06,2.41,0,1.15,0,.17.06,3.67-.26,19-.1,19.8h0c.11.85.23-.52.29,2L492,284.1l.05,2.58c0,.42,0,.69,0,.86s0,.22,0,.22a1.52,1.52,0,0,1,0-.21c.05,4.19,0,10,0,15.12l.32-5.38c-.07,4.29-.22,12-.12,12.87l-.11,2.57c-.2,8.59.09,6,0,9.42l-.12,4.32v-4.29c-.07,4.26-.1,6-.17,9.43v0c0-.23,0-.38,0-.42v.6c.06.52.1,2.76.1,5.79,0,4.29.07,7.65-.05,14.51l.11,1.71-.07,5.15h-.09c0-5.05,0-14.54,0-21l0-.12c0,3.84,0,8.22,0,10.76,0,1.24-.11,4.41-.18,2.11l.09,2.37c0,12.83,0,12.92-.09,26.31l.05-1.16c0,2.65.05,5.3,0,6,0,8-.08,16.37-.2,21.59l.11,1.14c0,1.7-.17,4.25,0,5.07l.05,3.63c0,2.32.06,3.75,0,6.39h0c0,.16,0,.34,0,.5a0,0,0,0,0,0,0c-.05,5.25.1-.05,0,6-.08,1.92.14,2.13.11,5.06l-.16,2.94c-.09,5.31.07,6.22.07,13.92-.05,3.69-.19,5.48-.31,3,.14,3.36.09,1.53.16,6-.06.69-.07.21-.12-.77,0,2,0,2.58,0,3.07,0,.27,0,.48.05,1.24h0a.11.11,0,0,1,0,.09l-.06.05-.33,0a14.34,14.34,0,0,1-1.46.11l1.16,0c-3.17.06-6.62.09-10.3,0l.13-.06-3.91,0-.25-.08-5.59,0,.77,0c-1.32,0-5.63,0-8.09,0l.09,0c-7-.12-12.69,0-20.84.06l1.07-.09c-2.77-.08-.76.13-4.06.09l-.17-.1a56.93,56.93,0,0,1-5.77-.08l.94.13-3.78,0c-4.16,0-2.55-.17-1.94-.24l-2.83.11-.56-.12c-2.07.14-2.07,0-5.7.05-.29,0,.62-.07-.61-.09l-6,.17,3.61-.07-.44.17c-3.76.13-5.09,0-7.78,0l1.85,0c-4.38,0-4.61,0-7.08-.07.76,0,1.94.08.16.1-1.3,0-.7-.06-1.93-.08a54.84,54.84,0,0,1-6.29.12.79.79,0,0,1,.28,0c-.72,0-1.1.05-2.36,0l.74-.13-2.43.12c-1.63,0-4,.06-3.78,0l.92,0-12.3,0-.17-.1c-1.22.14-6.7-.06-6.3.12-2.31-.1-9.13.07-7.76-.13-8.08,0-12.45.17-22.27.08-3.5-.17-13.09-.12-19.39-.13l-32.88.18c-7.58-.23-18.9.08-27.05-.05l-2.23.09c-5.42-.14-13.7,0-21.3-.11l-3.27.06a4.76,4.76,0,0,1,1,.08c-2.17,0-6.56,0-6.25-.11h.55c.32-.12-6.58.06-9,0l1.33.13-4.11,0,1.1,0c-17.86.29-25.93-.12-42.7.14,2.22-.14-3.31.07-3.53-.08-4.23-.19-7.84,0-11.3.09,0,0,0,0-.25,0l-6.06,0c3.62-.19-4.36.16-1,0-7.6-.07-16.31-.07-25.34-.06H101.72c0-.46,0-.92,0-1.37l0,.8c0-4.64-.05-10.41,0-13.93s-.13-7.7-.14-9.07c-.08-3.86.09-7.37.08-5.71,0-4.13-.2-8-.12-13.74.08-1,0-4.88,0-8.57,0-1.84,0-3.63,0-5a16.45,16.45,0,0,1,.06-2.26l0-.07c.13-7.33-.09-14.25,0-22.15,0,0,0,.16,0,.42L101,366.59l-.61,4.58-.49,13.93.11,37.77L99.84,453v12.14l63.39-.06,5.24-.13c14.41.24,32.9,0,48.42.13l.33-.12c4.37,0,4.07.07,5.16.09,40.72,0,82.64-.18,119.28,0,3.53.07,14.27,0,17.05.11,11.9-.14,24.5-.14,36.42-.13l-.45,0,5.61,0c.24,0,.27,0,.09,0,6.33-.11,16.3,0,24.05,0H424l69.33-.07c0-10.83,0-21.66,0-32.56,0-10.59,0-21.25.06-32.09.19-20.86-.08-45.12.09-69.05C493.56,326.93,493.47,278.53,493.42,274.25Z" fill="#202020"/><path d="M493.26,203v.19C493.31,203.18,493.29,202.9,493.26,203Z" fill="#202020"/><path d="M491.9,303v-.32l-.07,1.19Z" fill="#202020"/><path d="M491.86,238.94c0,2.88,0,3,0,2.61C491.87,240.51,491.86,239.61,491.86,238.94Z" fill="#202020"/><path d="M493.17,179.49c0-1.51,0-.93-.06,0,0,1.54,0,2.61,0,2.61C493.13,181.22,493.15,180.36,493.17,179.49Z" fill="#202020"/><path d="M492.49,185.66l0-.47C492.46,186.08,492.47,186,492.49,185.66Z" fill="#202020"/><rect x="452.79" y="386.66" width="35.18" height="14.12" fill="#ccc"/><rect x="470.38" y="370.41" width="17.59" height="14.12" fill="#ccc"/><rect x="432.8" y="370.41" width="35.18" height="14.12" fill="#ccc"/><path d="M377.85,269.42Z" fill="#202020"/><path d="M249.43,269.59h-.12l-.26.06Z" fill="#202020"/><path d="M228.78,269.44h-.13S228.64,269.46,228.78,269.44Z" fill="#202020"/><path d="M297,269.37h0Z" fill="#202020"/><path d="M415.7,269.29h-.09l.22,0Z" fill="#202020"/><path d="M415.29,269.33c-.46,0,.12,0,.32,0-.5,0-1,0-1.51,0C414.1,269.31,415.06,269.3,415.29,269.33Z" fill="#202020"/><path d="M484.37,269.19h0Z" fill="#202020"/><path d="M295,267.57h0Z" fill="#202020"/><path d="M473.53,269.15l-.12.06C473.52,269.19,473.54,269.17,473.53,269.15Z" fill="#202020"/><path d="M249.05,269.65l-.15,0Z" fill="#202020"/><path d="M209.69,269.4l-.1,0h-.05Z" fill="#202020"/><path d="M113.49,268.48l.05,0,.39,0Z" fill="#202020"/><path d="M183.51,269.15l-.09,0c.45,0,1.63,0,3.14,0l.09-.07Z" fill="#202020"/><path d="M154.88,267.49l2.79.14c-8.95.07-13.13-.08-20.8,0l.42,0c-1.11,0-1.74.29-14.07-.11h0c-.43,0-.43,0-1.28,0l2.13.09c-1.28,0-2.39.1-4.09.11a1.45,1.45,0,0,1-.52-.06l-4.18,0-1.28-.09a21,21,0,0,1-4.11.13c1.29.14-1.69.09-1.27.16l-.88-.07c-2,0-5.85.05-6.8.12,0,0,8,.29,10.08.43-2.85,0-.75,0-.19.07l.19,0c1.72,0,1.72.12,2.57.15l0,0h-.11c-.08,0,0,0,.06,0s.06,0,.53,0h-.09c.71,0,1.95,0,2.48,0v.07c1.27-.14,8.54.21,10.24.21s3.84,0,6,0a28.24,28.24,0,0,1,3.42.16c2.13.05-.44-.08.42-.09l2.56.1c-1.49,0-.68.05-.41.08,2.21,0,5.7.15,6.38,0,3,.07,3,.13,4.27.14-.42,0-1.28-.05-1.28-.08,1.19.06.57,0,.08,0,1.82-.06,9.46.26,9.85.1v0c.42-.12-.26-.23,1-.3l.85.06,1.28-.05c.86,0,.44.07.44.08,2.08-.05,5,0,7.51,0l-2.67-.32c2.13.07,6,.22,6.4.12l1.28.11a38.79,38.79,0,0,0,4.68,0l2.15.11h-2.14c2.14.06,3,.1,4.69.18h.11a22.74,22.74,0,0,1,2.88-.09c2.13,0,3.8-.07,7.21.05l.85-.12,2.56.07v.1c-2.51,0-7.23,0-10.45,0l-.06.05c1.92,0,4.09,0,5.35,0,.62,0,2.19.12,1.05.19l1.18-.1c6.38,0,6.42,0,13.08.1l-.58-.05a24.49,24.49,0,0,1,3,0c4,0,8.14.08,10.74.2l.56-.12a12.63,12.63,0,0,0,2.53,0l1.8,0c1.15,0,1.86-.05,3.17,0h0l.25,0h0c2.61.05,0-.1,3,0,1,.08,1.06-.14,2.52-.12l1.46.16c2.64.1,3.09-.06,6.92-.07,1.84.06,2.73.2,1.51.32a26.23,26.23,0,0,1,3-.17c.34.06.1.08-.39.13,2,.07,1.22-.05,2.71-.05a6.42,6.42,0,0,1,1.41-.3l-.58,0c1.58-.06,3.3-.09,5.13,0l-.07.06,1.94,0,.13.07,2.78,0-.38,0c.65,0,2.79,0,4,0l-.05,0c3.46.13,6.31,0,10.36-.05l-.53.08c1.38.09.38-.12,2-.08l.08.1a13.4,13.4,0,0,1,2.87.08l-.46-.14,1.88,0c2.06.05,1.26.17,1,.24l1.41-.1.28.11c1-.13,1,0,2.83,0,.15,0-.31.07.3.09l3-.16-1.8.07.22-.17c1.87-.13,2.53,0,3.87,0l-.92.05c2.18,0,2.29,0,3.52.07-.38,0-1-.08-.08-.1a9.31,9.31,0,0,1,1,.08,13.41,13.41,0,0,1,3.13-.13.21.21,0,0,1-.14.05,8.27,8.27,0,0,1,1.18,0l-.38.12,1.22-.12a15.67,15.67,0,0,1,1.87,0l-.45,0,6.11,0,.09.1c.6-.14,3.33.05,3.13-.12,1.15.09,4.54-.07,3.86.13,4,0,6.19-.18,11.07-.08,1.74.17,6.51.11,9.64.13,6.13-.07,10.09-.13,16.35-.19,3.77.24,9.4-.08,13.45.05l1.11-.09c2.7.15,6.81,0,10.59.11.93,0,1.41-.05,1.63-.05a1.37,1.37,0,0,1-.51-.09,25.66,25.66,0,0,1,3.1.11h-.27c-.16.12,3.27-.05,4.48.05l-.66-.12,2,0-.54,0c8.88-.28,12.89.12,21.23-.14-1.11.14,1.65-.07,1.75.08a42.89,42.89,0,0,0,5.63-.09l.11,0,3,0c-1.8.19,2.17-.16.52,0,7.86.14,18.12,0,27.21.06l-.39-.05c2.3,0,5.17,0,6.92,0s3.84-.13,4.51-.13c1.92-.09,3.67.08,2.85.07,2,0,4-.2,6.82-.12,1,.16,7.77-.16,7.86,0h0c3.65.12,7.09-.09,11,0l-.21,0,8-.56-2.27-.6-6.93-.5-18.78.11-15-.19-36.47.06-2.61.14c-7.16-.24-16.35,0-24.08-.14l-.15.12a19.5,19.5,0,0,1-2.57-.09c-20.25,0-41.09.19-59.31,0-1.76-.08-7.1,0-8.48-.12-5.92.15-12.19.15-18.11.13h.22l-2.79,0c-.12,0-.13,0,0,0-3.15.1-8.11,0-12,0l.22,0c-22.49,0-43.36.2-65.67,0-10.37-.19-22.43.07-34.33-.09C181.08,267.34,157,267.43,154.88,267.49Z" fill="#202020"/><path d="M119.46,267.65h.09S119.41,267.61,119.46,267.65Z" fill="#202020"/><path d="M169.17,269H169l.6.07Z" fill="#202020"/><path d="M137.33,269.05c1.43,0,1.49,0,1.29,0C138.11,269,137.65,269,137.33,269.05Z" fill="#202020"/><path d="M107.77,267.74c-.76,0-.47,0,0,.06H109Z" fill="#202020"/><path d="M110.83,268.42l-.23,0C111,268.45,111,268.43,110.83,268.42Z" fill="#202020"/><line x1="100.94" y1="366.46" x2="492.36" y2="366.46" fill="#fff"/><path d="M215.46,365.59Z" fill="#202020"/><path d="M343.87,365.42H344l.26-.06Z" fill="#202020"/><path d="M364.53,365.57h.13S364.67,365.54,364.53,365.57Z" fill="#202020"/><path d="M296.28,365.64h0Z" fill="#202020"/><path d="M177.6,365.72h.09l-.22,0Z" fill="#202020"/><path d="M178,365.68c.45,0-.13,0-.33,0,.51,0,1,0,1.52,0C179.21,365.7,178.24,365.71,178,365.68Z" fill="#202020"/><path d="M108.94,365.82h0Z" fill="#202020"/><path d="M298.31,367.44h0Z" fill="#202020"/><path d="M119.78,365.86l.11-.06C119.79,365.82,119.77,365.84,119.78,365.86Z" fill="#202020"/><path d="M344.26,365.36l.15,0Z" fill="#202020"/><path d="M383.61,365.6s.05,0,.11,0h0Z" fill="#202020"/><path d="M479.81,366.53s0,0-.05,0l-.38,0Z" fill="#202020"/><path d="M409.79,365.86l.09,0c-.44,0-1.63,0-3.14,0l-.09.08Z" fill="#202020"/><path d="M438.42,367.52l-2.79-.14c9-.07,13.14.07,20.81,0l-.43,0c1.12,0,1.75-.29,14.08.1v0c.42,0,.42,0,1.28,0l-2.14-.09c1.28,0,2.4-.11,4.1-.12a1.72,1.72,0,0,1,.52.07l4.17,0,1.28.09a20.68,20.68,0,0,1,4.11-.14c-1.28-.13,1.7-.08,1.27-.15l.88.07c2,0,5.86-.06,6.8-.13,0,0-7.94-.28-10.08-.43,2.86,0,.76,0,.19-.06l-.19,0c-1.71,0-1.71-.11-2.57-.14l.05,0,.11,0c.08,0,0,0-.06,0s-.05,0-.52,0h.09c-.72,0-1.95,0-2.49,0v-.07c-1.27.13-8.53-.21-10.23-.21s-3.84,0-6,0a28.15,28.15,0,0,1-3.41-.16c-2.14-.05.43.08-.43.09l-2.55-.1c1.48,0,.68-.06.4-.08-2.21,0-5.7-.15-6.38,0-3-.07-3-.13-4.27-.14.43,0,1.28.05,1.29.08-1.2-.06-.57,0-.08,0-1.83.06-9.47-.26-9.85-.1v0c-.42.12.26.23-1,.29l-.85-.05-1.28.05c-.85,0-.43-.07-.43-.08-2.09.05-5,0-7.52,0l2.67.32c-2.12-.07-6-.22-6.39-.12l-1.28-.11a39.08,39.08,0,0,0-4.69,0l-2.14-.12h2.13c-2.13-.06-3-.1-4.69-.18h-.11a27.57,27.57,0,0,1-2.87.09c-2.14,0-3.81.07-7.22-.05l-.85.12-2.56-.08v-.09c2.51,0,7.23,0,10.45,0l.06,0c-1.91,0-4.08,0-5.35,0-.61,0-2.19-.11-1.05-.18l-1.18.09c-6.38,0-6.42,0-13.08-.09l.58.05a24.32,24.32,0,0,1-3,0c-4,0-8.14-.08-10.74-.2l-.57.11a13.18,13.18,0,0,0-2.52,0l-1.8.05c-1.16,0-1.87,0-3.18,0h0l-.24,0h0c-2.61-.05,0,.1-3,0-1-.08-1.07.14-2.52.11l-1.47-.16c-2.64-.09-3.09.07-6.92.07-1.83-.05-2.72-.19-1.5-.31a29.51,29.51,0,0,1-3,.16c-.35-.06-.11-.07.38-.12-2-.07-1.21.05-2.7.05a6.42,6.42,0,0,1-1.41.3l.57,0c-1.57.06-3.29.09-5.12,0l.07-.06-1.95,0-.12-.07-2.78,0,.38,0c-.65,0-2.8,0-4,0l0-.05c-3.46-.12-6.31,0-10.36.06l.54-.09c-1.38-.08-.38.13-2,.09l-.08-.1a14.12,14.12,0,0,1-2.87-.08l.47.13-1.88,0c-2.07-.05-1.27-.17-1-.24l-1.41.1-.27-.12c-1,.14-1,0-2.83.06-.15-.05.3-.07-.31-.09l-3,.16,1.79-.07-.22.17c-1.87.13-2.53,0-3.86,0l.92-.05c-2.18,0-2.3,0-3.53-.07.38,0,1,.08.09.1a9.51,9.51,0,0,1-1-.08,13,13,0,0,1-3.12.12.33.33,0,0,1,.14,0,8.27,8.27,0,0,1-1.18,0l.37-.13-1.21.13a18.79,18.79,0,0,1-1.88,0l.46,0-6.12,0-.08-.1c-.61.14-3.33-.05-3.13.12-1.15-.1-4.54.07-3.86-.13-4,0-6.19.18-11.08.08-1.74-.17-6.5-.11-9.64-.13-6.13.07-10.09.13-16.35.19-3.77-.24-9.39.08-13.45-.06l-1.11.1c-2.69-.15-6.81,0-10.59-.11-.92,0-1.41,0-1.62,0a1.4,1.4,0,0,1,.51.08,26.92,26.92,0,0,1-3.11-.1l.28,0c.16-.11-3.28.06-4.48,0l.66.12-2,0,.55,0c-8.88.28-12.9-.12-21.24.13,1.11-.13-1.64.08-1.75-.08a42.62,42.62,0,0,0-5.62.1l-.12,0h-3c1.8-.19-2.18.15-.52,0-7.86-.14-18.12,0-27.22-.06l.4.05c-2.31,0-5.18,0-6.93,0s-3.83.12-4.51.13c-1.92.09-3.66-.08-2.84-.07-2.05,0-4,.2-6.83.12-1-.16-7.77.16-7.85,0h0c-3.64-.13-7.08.09-11,0a1.15,1.15,0,0,1,.21,0l-8,.55,2.28.61,6.93.5,18.78-.11,15,.19,36.48-.06,2.6-.14c7.17.24,16.36,0,24.08.14l.16-.12a21,21,0,0,1,2.57.08c20.24,0,41.09-.18,59.31,0,1.75.08,7.1,0,8.48.11,5.91-.14,12.18-.14,18.11-.12h-.23l2.79,0c.12,0,.14,0,.05,0,3.14-.11,8.1,0,12,0H310c22.49,0,43.37-.2,65.67,0,10.37.19,22.44-.07,34.33.09C412.23,367.66,436.3,367.58,438.42,367.52Z" fill="#202020"/><path d="M473.85,367.36h-.09C473.76,367.41,473.9,367.39,473.85,367.36Z" fill="#202020"/><path d="M424.13,366h.16l-.59-.07Z" fill="#202020"/><path d="M456,366c-1.43,0-1.5,0-1.3,0C455.2,366,455.65,366,456,366Z" fill="#202020"/><path d="M485.54,367.27c.75,0,.46,0,0-.06h-1.3Z" fill="#202020"/><path d="M482.47,366.59l.24,0C482.26,366.56,482.28,366.58,482.47,366.59Z" fill="#202020"/><path d="M377.85,174.54c.17,0,.25,0,0,0Z" fill="#202020"/><path d="M249.43,174.72h-.12l-.26.06Z" fill="#202020"/><path d="M228.78,174.57h-.13S228.64,174.59,228.78,174.57Z" fill="#202020"/><path d="M297,174.5h0Z" fill="#202020"/><path d="M415.7,174.42h0Z" fill="#202020"/><path d="M415.29,174.46c-.46,0,.12,0,.32,0-.5,0-1,0-1.51,0C414.1,174.44,415.06,174.43,415.29,174.46Z" fill="#202020"/><path d="M484.37,174.32h0Z" fill="#202020"/><path d="M295,172.7h0Z" fill="#202020"/><path d="M473.53,174.28l-.12.06C473.52,174.31,473.54,174.3,473.53,174.28Z" fill="#202020"/><path d="M249.05,174.78l-.15,0Z" fill="#202020"/><path d="M209.69,174.53s-.05,0-.1,0h-.05Z" fill="#202020"/><path d="M113.49,173.61l.05,0,.39,0Z" fill="#202020"/><path d="M183.51,174.28l-.09,0c.45,0,1.63,0,3.14,0l.09-.07Z" fill="#202020"/><path d="M154.88,172.62l2.79.14c-8.95.07-13.13-.08-20.8,0l.42,0c-1.11,0-1.74.29-14.07-.11h0c-.43,0-.43,0-1.28,0l2.13.09c-1.28,0-2.39.1-4.09.11-.37,0-.49,0-.52-.07l-4.18,0-1.28-.09a21,21,0,0,1-4.11.13c1.29.14-1.69.08-1.27.15l-.88-.06c-2,0-5.85,0-6.8.12,0,0,8,.29,10.08.43-2.85,0-.75,0-.19.07l.19,0c1.72,0,1.72.12,2.57.14l0,0h-.11c-.08,0,0,0,.06,0s.06,0,.53,0h-.09c.71,0,1.95,0,2.48,0v.07c1.27-.14,8.54.21,10.24.21s3.84,0,6,0a29.49,29.49,0,0,1,3.42.17c2.13,0-.44-.08.42-.09l2.56.1c-1.49,0-.68,0-.41.08,2.21,0,5.7.14,6.38,0,3,.07,3,.13,4.27.13-.42,0-1.28,0-1.28-.07,1.19.06.57,0,.08,0,1.82-.07,9.46.26,9.85.1v0c.42-.12-.26-.23,1-.3l.85.06,1.28-.05c.86,0,.44.06.44.08,2.08-.06,5,0,7.51,0l-2.67-.31c2.13.07,6,.22,6.4.12l1.28.1a40.2,40.2,0,0,0,4.68,0l2.15.11h-2.14c2.14.06,3,.1,4.69.17h0a.67.67,0,0,1-.21,0h.3a22.74,22.74,0,0,1,2.88-.09c2.13,0,3.8-.07,7.21.05l.85-.12,2.56.07v.1c-2.51,0-7.23,0-10.45,0l-.06.05c1.92,0,4.09-.05,5.35,0,.62,0,2.19.12,1.05.18l1.18-.09c6.38,0,6.42,0,13.08.09l-.58,0a24.49,24.49,0,0,1,3,0c4,0,8.14.07,10.74.19l.56-.11a12.63,12.63,0,0,0,2.53,0l1.8-.05c1.15,0,1.86,0,3.17,0h.25c2.61,0,0-.1,3,0,1,.08,1.06-.14,2.52-.12l1.46.16c2.64.09,3.09-.07,6.92-.07,1.84.06,2.73.2,1.51.32a26.23,26.23,0,0,1,3-.17c.34.06.1.08-.39.13,2,.07,1.22-.05,2.71-.05a5.89,5.89,0,0,1,1.41-.3l-.58,0c1.58-.06,3.3-.09,5.13,0l-.07.06,1.94,0,.13.07,2.78,0-.38,0c.65,0,2.79,0,4,0l-.05,0c3.46.13,6.31,0,10.36,0l-.53.08c1.38.08.38-.13,2-.08l.08.1a13.4,13.4,0,0,1,2.87.08l-.46-.14,1.88,0c2.06.05,1.26.17,1,.24l1.41-.11.28.12c1-.13,1,0,2.83-.05.15.05-.31.07.3.09l3-.17-1.8.08.22-.17c1.87-.14,2.53,0,3.87,0l-.92.05c2.18,0,2.29,0,3.52.07-.38,0-1-.08-.08-.11.65,0,.35.07,1,.08a14.3,14.3,0,0,1,3.13-.12s0,0-.14.05a9.63,9.63,0,0,1,1.18,0l-.38.13,1.22-.12a15.67,15.67,0,0,1,1.87,0l-.45,0,6.11,0,.09.1c.6-.14,3.33.05,3.13-.12,1.15.09,4.54-.07,3.86.13,4,0,6.19-.18,11.07-.08,1.74.17,6.51.11,9.64.13,6.13-.07,10.09-.13,16.35-.19,3.77.24,9.4-.08,13.45.05l1.11-.09c2.7.15,6.81,0,10.59.11l1.63-.06a1.21,1.21,0,0,1-.51-.08,23.6,23.6,0,0,1,3.1.11h-.27c-.16.12,3.27-.05,4.48,0l-.66-.13,2,0-.54,0c8.88-.28,12.89.12,21.23-.14-1.11.14,1.65-.07,1.75.08a42.89,42.89,0,0,0,5.63-.09s0,0,.11,0l3,0c-1.8.19,2.17-.16.52,0,7.86.15,18.12,0,27.21.07l-.39-.05c2.3,0,5.17,0,6.92,0s3.84-.13,4.51-.14c1.92-.08,3.67.09,2.85.08,2,0,4-.2,6.82-.12,1,.16,7.77-.16,7.86,0l0,0c3.65.13,7.09-.09,11,0l-.21,0,8-.56-2.27-.61-6.93-.49-18.78.11-15-.2-36.47.07-2.61.14c-7.16-.24-16.35,0-24.08-.14l-.15.12a19.5,19.5,0,0,1-2.57-.09c-20.25,0-41.09.19-59.31,0-1.76-.08-7.1,0-8.48-.12-5.92.15-12.19.15-18.11.13h.22l-2.79,0c-.12,0-.13,0,0,0-3.15.1-8.11,0-12,0l.22,0c-22.49,0-43.36.2-65.67,0-10.37-.2-22.43.07-34.33-.09C181.08,172.47,157,172.56,154.88,172.62Z" fill="#202020"/><path d="M119.46,172.77h.09C119.54,172.72,119.41,172.74,119.46,172.77Z" fill="#202020"/><path d="M169.17,174.14H169l.6.07Z" fill="#202020"/><path d="M137.33,174.18c1.43,0,1.49,0,1.29,0C138.11,174.16,137.65,174.16,137.33,174.18Z" fill="#202020"/><path d="M107.77,172.87c-.76,0-.47,0,0,.06H109Z" fill="#202020"/><path d="M110.83,173.55l-.23,0C111,173.58,111,173.56,110.83,173.55Z" fill="#202020"/><rect x="104.38" y="370.43" width="35.16" height="14.11" transform="translate(243.92 754.97) rotate(-180)" fill="#ccc"/><rect x="104.38" y="386.67" width="17.58" height="14.11" transform="translate(226.34 787.45) rotate(180)" fill="#ccc"/><text transform="translate(93.79 160.17) rotate(-27.73)" font-size="14" fill="#fff" font-family="Helvetica-Bold, Helvetica" font-weight="700">T</text><text transform="translate(100.39 156.7) rotate(-27.73)" font-size="14" fill="#fff" font-family="Helvetica-Bold, Helvetica" font-weight="700">a</text><text transform="matrix(0.89, -0.47, 0.47, 0.89, 107.23, 153.1)" font-size="14" fill="#fff" font-family="Helvetica-Bold, Helvetica" font-weight="700">x</text><text transform="translate(114.05 149.52) rotate(-27.73)" font-size="14" fill="#fff" font-family="Helvetica-Bold, Helvetica" font-weight="700">-</text><text transform="translate(118.12 147.38) rotate(-27.73)" font-size="14" fill="#fff" font-family="Helvetica-Bold, Helvetica" font-weight="700">e</text><text transform="translate(124.97 143.78) rotate(-27.73)" font-size="14" fill="#fff" font-family="Helvetica-Bold, Helvetica" font-weight="700">f</text><text transform="translate(129.01 141.65) rotate(-27.73)" font-size="14" fill="#fff" font-family="Helvetica-Bold, Helvetica" font-weight="700">f</text><text transform="matrix(0.89, -0.47, 0.47, 0.89, 133.1, 139.5)" font-size="14" fill="#fff" font-family="Helvetica-Bold, Helvetica" font-weight="700">i</text><text transform="matrix(0.89, -0.47, 0.47, 0.89, 136.47, 137.73)" font-size="14" fill="#fff" font-family="Helvetica-Bold, Helvetica" font-weight="700">c</text><text transform="translate(143.29 134.14) rotate(-27.73)" font-size="14" fill="#fff" font-family="Helvetica-Bold, Helvetica" font-weight="700">i</text><text transform="translate(146.69 132.35) rotate(-27.73)" font-size="14" fill="#fff" font-family="Helvetica-Bold, Helvetica" font-weight="700">e</text><text transform="translate(153.51 128.77) rotate(-27.73)" font-size="14" fill="#fff" font-family="Helvetica-Bold, Helvetica" font-weight="700">n</text><text transform="translate(161.02 124.82) rotate(-27.73)" font-size="14" fill="#fff" font-family="Helvetica-Bold, Helvetica" font-weight="700">t</text><text transform="matrix(0.89, -0.47, 0.47, 0.89, 165.07, 122.69)" font-size="14" fill="#fff" font-family="Helvetica-Bold, Helvetica" font-weight="700"> </text><text transform="translate(168.46 120.91) rotate(-27.73)" font-size="14" fill="#fff" font-family="Helvetica-Bold, Helvetica" font-weight="700">f</text><text transform="translate(172.54 118.76) rotate(-27.73)" font-size="14" fill="#fff" font-family="Helvetica-Bold, Helvetica" font-weight="700">i</text><text transform="translate(175.93 116.98) rotate(-27.73)" font-size="14" fill="#fff" font-family="Helvetica-Bold, Helvetica" font-weight="700">n<tspan x="8.48" y="0">a</tspan></text><text transform="translate(190.26 109.44) rotate(-27.73)" font-size="14" fill="#fff" font-family="Helvetica-Bold, Helvetica" font-weight="700">n</text><text transform="translate(197.79 105.49) rotate(-27.73)" font-size="14" fill="#fff" font-family="Helvetica-Bold, Helvetica" font-weight="700">c</text><text transform="matrix(0.89, -0.47, 0.47, 0.89, 204.62, 101.89)" font-size="14" fill="#fff" font-family="Helvetica-Bold, Helvetica" font-weight="700">i</text><text transform="translate(207.98 100.13) rotate(-27.73)" font-size="14" fill="#fff" font-family="Helvetica-Bold, Helvetica" font-weight="700">a</text><text transform="translate(214.83 96.53) rotate(-27.73)" font-size="14" fill="#fff" font-family="Helvetica-Bold, Helvetica" font-weight="700">l</text><text transform="matrix(0.89, -0.47, 0.47, 0.89, 218.22, 94.75)" font-size="14" fill="#fff" font-family="Helvetica-Bold, Helvetica" font-weight="700"> </text><text transform="translate(221.57 92.98) rotate(-27.73)" font-size="14" fill="#fff" font-family="Helvetica-Bold, Helvetica" font-weight="700">s</text><text transform="matrix(0.89, -0.47, 0.47, 0.89, 228.44, 89.37)" font-size="14" fill="#fff" font-family="Helvetica-Bold, Helvetica" font-weight="700">t</text><text transform="translate(232.49 87.25) rotate(-27.73)" font-size="14" fill="#fff" font-family="Helvetica-Bold, Helvetica" font-weight="700">r</text><text transform="matrix(0.89, -0.47, 0.47, 0.89, 237.25, 84.74)" font-size="14" fill="#fff" font-family="Helvetica-Bold, Helvetica" font-weight="700">a</text><text transform="matrix(0.89, -0.47, 0.47, 0.89, 244.08, 81.15)" font-size="14" fill="#fff" font-family="Helvetica-Bold, Helvetica" font-weight="700">t</text><text transform="matrix(0.89, -0.47, 0.47, 0.89, 248.15, 79.01)" font-size="14" fill="#fff" font-family="Helvetica-Bold, Helvetica" font-weight="700">e</text><text transform="matrix(0.89, -0.47, 0.47, 0.89, 254.98, 75.42)" font-size="14" fill="#fff" font-family="Helvetica-Bold, Helvetica" font-weight="700">g</text><text transform="translate(262.5 71.47) rotate(-27.73)" font-size="14" fill="#fff" font-family="Helvetica-Bold, Helvetica" font-weight="700">i</text><text transform="matrix(0.89, -0.47, 0.47, 0.89, 265.86, 69.7)" font-size="14" fill="#fff" font-family="Helvetica-Bold, Helvetica" font-weight="700">e</text><text transform="matrix(0.89, -0.47, 0.47, 0.89, 272.71, 66.1)" font-size="14" fill="#fff" font-family="Helvetica-Bold, Helvetica" font-weight="700">s</text><path d="M128.43,463.48Z" fill="#202020"/><path d="M159.73,463.33h0l.06-.06Z" fill="#202020"/><path d="M164.76,463.46h0S164.8,463.44,164.76,463.46Z" fill="#202020"/><path d="M148.13,463.52h0Z" fill="#202020"/><path d="M119.21,463.59h0Z" fill="#202020"/><path d="M119.31,463.56c.11,0,0,0-.08,0a1.15,1.15,0,0,0,.37,0S119.36,463.58,119.31,463.56Z" fill="#202020"/><path d="M102.47,463.68h0Z" fill="#202020"/><path d="M148.62,465.11h0Z" fill="#202020"/><path d="M105.12,463.71l0,0S105.11,463.7,105.12,463.71Z" fill="#202020"/><path d="M159.82,463.27l0,0Z" fill="#202020"/><path d="M169.41,463.49l0,0h0Z" fill="#202020"/><path d="M192.86,464.31v0l-.1,0Z" fill="#202020"/><path d="M175.79,463.71h0a5,5,0,0,0-.77,0l0,.06Z" fill="#202020"/><path d="M182.77,465.18l-.68-.12c2.18-.06,3.2.06,5.07,0l-.1,0a10.21,10.21,0,0,1,3.43.09h0a1.13,1.13,0,0,1,.31,0l-.52-.08c.31,0,.58-.09,1-.1.09,0,.12,0,.12.06l1,0,.31.08c.31,0,.17-.21,1-.12-.32-.12.41-.07.31-.13l.21.06a16,16,0,0,0,1.66-.11s-1.94-.25-2.46-.38c.7,0,.18,0,0-.06l0,0a4.38,4.38,0,0,1-.63-.12l0,0h0s0,0,0,0,0,0-.13,0h-.58v-.07a18.47,18.47,0,0,1-2.49-.18c-.42-.08-.94,0-1.46,0-.83,0-.41-.1-.83-.15s.11.07-.1.08l-.63-.09c.37,0,.17-.05.1-.07a5.55,5.55,0,0,0-1.55,0c-.73-.06-.73-.11-1-.12a2.59,2.59,0,0,1,.31.07c-.29,0-.14,0,0,0-.44.05-2.3-.23-2.4-.09v0c-.1.1.06.2-.25.26l-.2,0-.32,0c-.2,0-.1-.06-.1-.07-.51,0-1.22,0-1.83,0l.65.28a6.38,6.38,0,0,0-1.56-.1l-.31-.1c-1-.18-.73.08-1.14,0l-.53-.11H177c-.52-.06-.72-.09-1.14-.16h0a1.53,1.53,0,0,1-.7.09,12.55,12.55,0,0,1-1.76-.05l-.2.1-.63-.06v-.08l2.55,0v0c-.46,0-1,0-1.3,0-.15,0-.53-.11-.25-.16l-.29.08c-1.56,0-1.57,0-3.19-.08l.14,0a1.77,1.77,0,0,1-.73,0,20.25,20.25,0,0,1-2.62-.17l-.14.1c-.2,0-.51-.16-.61,0l-.44,0a4,4,0,0,1-.77,0h0l-.06,0h0c-.64,0,0,.09-.73,0-.23-.07-.25.13-.61.11l-.36-.15a13.66,13.66,0,0,0-1.68.07c-.45,0-.67-.18-.37-.28a2,2,0,0,1-.73.14c-.08-.05,0-.06.1-.11-.48-.06-.3.05-.66.05-.11.1-.23.26-.34.26l.14,0a5.18,5.18,0,0,1-1.25,0v0l-.47,0,0-.07-.68,0,.09,0a7.91,7.91,0,0,1-1,0l0,0a18.2,18.2,0,0,0-2.53.05l.13-.07c-.34-.08-.09.11-.49.07l0-.09c-.35.12-.46,0-.7-.07l.11.12-.46,0c-.5,0-.3-.15-.23-.22l-.34.1-.07-.11c-.25.12-.25,0-.69.05,0,0,.07-.06-.08-.08l-.72.15.44-.07-.06.15c-.45.12-.61,0-.94,0l.22-.05a2.44,2.44,0,0,1-.85-.06c.09,0,.23.07,0,.09s-.09,0-.24-.07-.41.16-.76.11a.05.05,0,0,1,0,0,.47.47,0,0,1-.28,0l.09-.11-.3.11c-.19,0-.48.05-.46,0l.12,0-1.49,0,0-.09c-.15.12-.82-.05-.77.11-.28-.09-1.1.06-.94-.12-1,0-1.51.16-2.7.07a11.7,11.7,0,0,0-2.35-.11c-1.49.06-2.46.11-4,.16-.92-.2-2.29.07-3.28,0l-.27.08c-.66-.13-1.66,0-2.58-.1a2.61,2.61,0,0,1-.4.05.15.15,0,0,1,.13.07c-.26,0-.8,0-.76-.09h.07c0-.11-.8.05-1.09,0l.16.11-.5,0,.13,0c-2.16.24-3.14-.11-5.17.12.27-.13-.4.06-.43-.07a2.83,2.83,0,0,0-1.37.08l0,0h-.73c.43-.17-.53.14-.13,0-1.92-.12-4.42,0-6.63-.05l.09,0a15.21,15.21,0,0,1-1.68,0,4.11,4.11,0,0,0-1.1.11c-.47.08-.9-.07-.7-.06a9.93,9.93,0,0,1-1.66.11c-.24-.15-1.89.14-1.91,0v0c-.89-.12-1.73.08-2.69,0l0,0-1.94.49.55.54,1.69.43,4.58-.09,3.65.17,8.89-.06.63-.12c1.75.21,4,0,5.87.12l0-.1a1.37,1.37,0,0,1,.62.07c4.94,0,10-.16,14.46,0,.43.07,1.73,0,2.06.1,1.45-.12,3-.12,4.42-.11h-.06l.68,0s0,0,0,0a22.25,22.25,0,0,1,2.92,0h-.06c5.48,0,10.57-.18,16,0,2.52.17,5.46-.07,8.36.08C176.39,465.31,182.25,465.23,182.77,465.18Z" fill="#202020"/><path d="M191.4,465h0S191.42,465.07,191.4,465Z" fill="#202020"/><path d="M179.29,463.84h0l-.15-.06Z" fill="#202020"/><path d="M187.05,463.81c-.35,0-.37,0-.32,0Z" fill="#202020"/><path d="M194.25,465c.19,0,.12,0,0,0h-.32Z" fill="#202020"/><path d="M193.51,464.36l.05,0C193.46,464.34,193.46,464.35,193.51,464.36Z" fill="#202020"/><path d="M48,366.4l-15.2-.09c-1.51-8.08,3-17.24,9.1-18.4,1.7-.32,3.53-.13,5-1.29s2.19-3.07,3.11-4.85c6.38-12.35,23.91-12.06,27.07-5.66,3.51-6.27,10.3-8.66,15.62-5.51,1.88,1.12,3.61,2.85,5.64,3.26,5.49,1.1,6.75-2.66,11.75-5.93,6.89-4.5,17.9-2.46,21.22,6.9s10.59,15.29,10.59,31.57Z" fill="#00f3b3"/><path d="M61.65,365.74Z" fill="#202020"/><path d="M105.5,365.61h0l.09,0Z" fill="#202020"/><path d="M112.55,365.72h0S112.6,365.71,112.55,365.72Z" fill="#202020"/><path d="M89.25,365.78h0Z" fill="#202020"/><path d="M48.72,365.84h0Z" fill="#202020"/><path d="M48.86,365.81c.16,0,0,0-.11,0a3,3,0,0,0,.52,0A3.13,3.13,0,0,0,48.86,365.81Z" fill="#202020"/><path d="M25.28,365.92l.07,0Z" fill="#202020"/><path d="M89.94,367.13h0Z" fill="#202020"/><path d="M29,365.94l0,0S29,365.93,29,365.94Z" fill="#202020"/><path d="M105.63,365.57l.05,0Z" fill="#202020"/><path d="M119.07,365.75s0,0,0,0h0Z" fill="#202020"/><path d="M151.92,366.45l0,0-.13,0Z" fill="#202020"/><path d="M128,365.94h0c-.15,0-.56,0-1.07,0l0,0Z" fill="#202020"/><path d="M137.78,367.19l-.95-.11c3.06-.05,4.49.06,7.11,0l-.15,0a23,23,0,0,1,4.81.08h0a1.44,1.44,0,0,1,.43,0l-.72-.06c.43,0,.81-.08,1.39-.09.13,0,.17,0,.18.05l1.43,0,.43.07a3.56,3.56,0,0,1,1.41-.1c-.44-.1.58-.06.43-.11l.3,0c.69,0,2,0,2.32-.1,0,0-2.71-.21-3.44-.32,1,0,.26,0,.07-.05l-.07,0c-.58,0-.58-.09-.88-.11l0,0h0s0,0,0,0,0,0-.18,0h0c-.24,0-.67,0-.85,0v-.06c-.44.1-2.92-.15-3.5-.16s-1.31,0-2,0a4,4,0,0,1-1.16-.12c-.73,0,.14.06-.15.07l-.87-.08c.51,0,.23,0,.14-.06a12.79,12.79,0,0,0-2.18,0c-1,0-1-.09-1.46-.1a3,3,0,0,1,.44.06c-.41-.05-.2,0,0,0-.62.05-3.23-.19-3.36-.07v0c-.15.09.09.18-.35.23l-.29,0-.44,0c-.29,0-.14-.05-.14-.06-.72,0-1.71,0-2.57,0l.91.24a14.39,14.39,0,0,0-2.18-.09l-.44-.08c-1.46-.15-1,.07-1.6,0l-.73-.09h.73c-.73,0-1-.07-1.6-.13h0a3.25,3.25,0,0,1-1,.07c-.73,0-1.3.05-2.47,0l-.29.09-.87-.05v-.07l3.57,0,0,0c-.66,0-1.4,0-1.83,0-.21,0-.75-.09-.36-.13l-.4.07c-2.18,0-2.19,0-4.47-.07l.2,0a4.59,4.59,0,0,1-1,0c-1.36,0-2.78-.06-3.66-.15l-.2.08c-.28,0-.72-.13-.86,0l-.61,0a10,10,0,0,1-1.09,0h-.08c-.89,0,0,.07-1,0-.33-.06-.36.11-.86.09l-.5-.12c-.9-.07-1.06,0-2.36,0-.63,0-.93-.14-.52-.23a4.24,4.24,0,0,1-1,.12c-.11,0,0-.05.13-.09a5,5,0,0,0-.92,0,1.25,1.25,0,0,1-.48.23l.2,0a12.62,12.62,0,0,1-1.75,0l0,0-.66,0-.05-.06-.95,0,.13,0c-.22,0-1,0-1.37,0l0,0c-1.18-.09-2.16,0-3.54,0l.18-.06c-.47-.06-.13.1-.69.07l0-.08a2.16,2.16,0,0,1-1-.06l.16.1-.64,0c-.71,0-.43-.13-.33-.18l-.48.08-.09-.09c-.36.1-.36,0-1,0,0,0,.1,0-.11-.07l-1,.13.61-.06-.07.13a8.57,8.57,0,0,1-1.32,0l.31,0a5.57,5.57,0,0,1-1.2-.05c.13,0,.33.06,0,.08s-.12-.05-.33-.06a2.16,2.16,0,0,1-1.07.09l0,0a1.64,1.64,0,0,1-.4,0l.12-.09-.41.09c-.28,0-.68,0-.64,0l.15,0-2.09,0,0-.08c-.21.1-1.14,0-1.07.09-.4-.07-1.55.05-1.32-.1-1.37,0-2.12.13-3.78.06a31.38,31.38,0,0,0-3.3-.1c-2.09.06-3.44.1-5.58.14-1.29-.17-3.21.06-4.59,0l-.38.07c-.92-.12-2.33,0-3.62-.09l-.55,0c.06,0,.15,0,.17.07-.36,0-1.11,0-1.06-.09h.1c0-.09-1.12,0-1.53,0l.22.09h-.7l.19,0c-3,.21-4.4-.09-7.25.1.38-.1-.56.06-.6-.06a6.68,6.68,0,0,0-1.92.07l0,0h-1c.62-.14-.74.12-.17,0-2.69-.11-6.19,0-9.3-.05l.14,0c-.79,0-1.77,0-2.37,0a10.42,10.42,0,0,0-1.54.1c-.65.07-1.25-.06-1-.05a19.93,19.93,0,0,1-2.33.09c-.33-.12-2.65.12-2.68,0h0c-1.25-.09-2.42.07-3.77,0h.08l-2.73.41.77.46,2.37.37,6.41-.08,5.12.14,12.45-.05.89-.1c2.45.18,5.59,0,8.23.1l.05-.09a3.22,3.22,0,0,1,.88.07c6.91,0,14-.14,20.25,0,.6.06,2.42,0,2.89.09,2-.11,4.17-.11,6.19-.1H89l1,0s0,0,0,0c1.07-.08,2.77,0,4.08,0H94c7.68,0,14.8-.15,22.42,0,3.54.15,7.66-.05,11.72.07C128.84,367.3,137.06,367.23,137.78,367.19Z" fill="#202020"/><path d="M149.88,367.07h0S149.9,367.09,149.88,367.07Z" fill="#202020"/><path d="M132.91,366.05H133l-.2-.05Z" fill="#202020"/><path d="M143.78,366c-.49,0-.51,0-.44,0Z" fill="#202020"/><path d="M153.87,367c.26,0,.16,0,0,0h-.44Z" fill="#202020"/><path d="M152.83,366.49l.08,0C152.76,366.47,152.76,366.48,152.83,366.49Z" fill="#202020"/><path d="M58.5,355.73Z" fill="#202020"/><path d="M62.09,356.54h0l0,0Z" fill="#202020"/><path d="M61.93,357.41Z" fill="#202020"/><path d="M62.2,354.3v0Z" fill="#202020"/><polygon points="57.7 354.85 57.7 354.85 57.72 354.85 57.7 354.85" fill="#202020"/><path d="M57.72,354.87s0,0,0,0a0,0,0,0,0,0,0S57.7,354.87,57.72,354.87Z" fill="#202020"/><path d="M60.42,352.61h0Z" fill="#202020"/><path d="M62.92,355h0A0,0,0,0,1,62.92,355Z" fill="#202020"/><path d="M59.89,352.86v0A0,0,0,0,0,59.89,352.86Z" fill="#202020"/><path d="M62.11,356.56h0Z" fill="#202020"/><path d="M62.23,358.12v0h0Z" fill="#202020"/><path d="M66.61,356.92h0v0Z" fill="#202020"/><path d="M63.18,358.49H63v0Z" fill="#202020"/><path d="M65,358.81h-.19a4.76,4.76,0,0,0,1.07-.66v0c.06,0,0-.17.7-.49h0s0,0,.06-.05l-.13.05a1.28,1.28,0,0,1,.14-.21h0l.17-.18.09,0c0-.08-.07-.13.11-.24-.11,0,0-.1,0-.11h.06a1.21,1.21,0,0,0,.2-.36,3.43,3.43,0,0,1-.56.29c.12-.11,0,0,0,0v0c-.08.06-.12,0-.16,0h0s0,0,0,0,0,0,0,0h0a.32.32,0,0,1-.1.1l0,0c0,.11-.42.25-.5.3s-.15.14-.26.2-.11,0-.21,0,0,0,0,.05l-.14,0c.06-.05,0,0,0-.05s-.3.11-.29.19c-.15.06-.17,0-.23.06h.08c-.07,0,0,0,0,0s-.52.11-.5.2v0c0,.07.07.11,0,.18h0l-.06.05s0,0,0,0a1.07,1.07,0,0,1-.38.14l.2.12c-.12,0-.35,0-.35.06l-.09,0c-.25,0-.13.1-.23.09l-.13,0,.11,0a.85.85,0,0,1-.25,0h0s-.06.07-.14.08-.18.05-.33,0l-.05.07-.1-.07v0a1.16,1.16,0,0,0,.46,0v0a1.15,1.15,0,0,1-.24,0s-.08-.07,0-.1l-.06,0a.5.5,0,0,1-.41-.24v0s-.09,0-.07-.08a.52.52,0,0,1-.13-.41H62s.07-.11,0-.1l0-.07c0-.05-.05-.07,0-.13h0v0h0c0-.12-.06,0,0-.13s-.08,0-.07-.11l.09-.07c.05-.11,0-.14,0-.3a.11.11,0,0,1,.19,0c-.07-.09,0,0-.06-.15s0,0,.07,0,0-.06,0-.13-.14-.09-.14-.12l0,0a.31.31,0,0,1,.07-.24l0,0,0-.1,0,0,0-.13h0a.47.47,0,0,1,.1-.18l0,0c.15-.12.16-.29.28-.47l0,.05c.08,0,0-.05,0-.11l0,0c0-.11.08-.07.13-.09l-.07,0,.07-.07c.09-.07.12,0,.14.05v-.1l.06,0c0-.09.05,0,.08-.14s0,0,0,0l0-.18,0,.1-.07-.07c0-.11.08-.11.12-.15l-.63-.65,0,0v0l.65.65v0l-.65-.67c-.07.07-.1.05-.16.07s.07,0,0,.05,0,0-.07,0a.12.12,0,0,1-.09.16s0,0,0,0,0,0,0,.05l0-.07v.1s-.06.09-.09.05v0l-.27.19,0-.05c0,.09-.16.09-.1.16s-.17.17-.21.06c-.18.11-.21.27-.46.36s-.33.11-.47.17a3.6,3.6,0,0,1-.72.39c-.21-.09-.44.15-.64.07l0,.05c-.13-.08-.33,0-.49-.1H58.5a.2.2,0,0,1,0,0s-.13,0-.11-.09h0c0-.06-.14,0-.16-.09v.07l-.07,0h0c-.42-.06-.37-.34-.55-.5.08,0,0-.05,0-.05s0-.1,0-.17h0l.05-.1c.07.11,0-.12,0,0a7.84,7.84,0,0,1,1-1h0c.1-.07.2-.19.3-.22s.12-.17.15-.2.18-.07.14-.05.12-.22.27-.26.32-.3.37-.21h0c.2,0,.31-.22.53-.26v0c.09-.15.18-.31.28-.46l-.25-.26a3.86,3.86,0,0,0-.49-.09,8.45,8.45,0,0,0-1,.6,8.67,8.67,0,0,0-.79.43,8.18,8.18,0,0,0-.81.75,2.6,2.6,0,0,0-.71,1.11,1.72,1.72,0,0,0,0,.24,1.18,1.18,0,0,0,.23,1,3.58,3.58,0,0,0,.7.62l0-.05a.27.27,0,0,1,.15.13,4.55,4.55,0,0,0,3.67-.61c.11,0,.36-.22.46-.22a5.14,5.14,0,0,1,.8-.69h0l.11-.11,0,0a.68.68,0,0,1,.19-.19l-.73-.75c-.1.1-.22.2-.31.3v0a5.46,5.46,0,0,0-1,1.75,3.11,3.11,0,0,0,.1,2.22,1.59,1.59,0,0,0,.89.93,2.73,2.73,0,0,0,1.33.16,2.55,2.55,0,0,0,.89-.23A4.13,4.13,0,0,0,65,358.81Z" fill="#202020"/><path d="M66.7,357.49h0S66.71,357.5,66.7,357.49Z" fill="#202020"/><polygon points="63.91 358.37 63.92 358.36 63.88 358.34 63.91 358.37" fill="#202020"/><path d="M65.41,357.54c-.07,0-.06,0,0,0A.1.1,0,0,0,65.41,357.54Z" fill="#202020"/><path d="M67.14,357s0,0,0,0l-.05.06Z" fill="#202020"/><path d="M66.74,356.83v0S66.73,356.83,66.74,356.83Z" fill="#202020"/><path d="M84.59,354.32h0v0Z"/><path d="M108.69,357.15Z" fill="#202020"/><path d="M111.08,357h0l0,0Z" fill="#202020"/><path d="M111.4,356.67Z" fill="#202020"/><path d="M110.35,357.68h0Z" fill="#202020"/><polygon points="107.95 356.52 107.95 356.53 107.95 356.52 107.95 356.52" fill="#202020"/><path d="M108,356.52h0s0,0,0,0S108,356.53,108,356.52Z" fill="#202020"/><path d="M106.63,355.1h0Z" fill="#202020"/><path d="M110.69,358.64h0Z" fill="#202020"/><path d="M106.84,355.34l0,0Z" fill="#202020"/><path d="M111.06,357h0Z" fill="#202020"/><path d="M111.58,356.27h0Z" fill="#202020"/><path d="M112,353.76h0Z" fill="#202020"/><path d="M111.83,355.67h0a.15.15,0,0,0,0,.08h0Z" fill="#202020"/><path d="M112.74,354.83l-.07.1c-.06-.27,0-.41-.11-.62h0s-.16,0,0-.43h0s0,0,0,0l0,.08s-.08-.06-.1-.11l0,0,0-.12,0-.05s-.14,0-.11-.09c-.06.06,0,0-.09,0l0,0c0-.05-.08-.15-.12-.16a2,2,0,0,1-.15.34c0-.08,0,0,0,0h0c0,.05,0,.06,0,.09h0s0,0,0,0h0s0,.05,0,.06h0c.08,0,0,.26,0,.31s0,.1,0,.16-.05.06-.08.11.05,0,.05,0l0,.08s0,0,0,0-.06.16,0,.17-.06.08,0,.12,0,0,0,0,0,0,0,0-.11.26,0,.26h0c.06,0,.13,0,.17,0l0,0,0,0a0,0,0,0,1,0,0s0,.13,0,.19l.17-.07c0,.06-.11.16-.06.17l-.06,0c-.12.11,0,.08,0,.12l-.06.05v-.05l-.1.11h0a.08.08,0,0,1,0,.08c0,.05,0,.1-.06.17l.07,0,0,.06h-.06a1.18,1.18,0,0,0,0-.27h0c0,.05,0,.1,0,.13s-.08.05-.11,0l0,0a.48.48,0,0,1-.11.3h0s0,.07,0,.07a.32.32,0,0,1-.19.19l0,0s-.1,0,0,.05v.05s0,.05,0,.06h0s0,0,0,.07,0,.06,0,.08l-.09,0c-.08,0,0,.08,0,.16a.15.15,0,0,1-.17-.08c0,.08,0,.05,0,.11a.06.06,0,0,1-.05-.05c-.06,0,0,0,0,.07s.12.12.11.13h0c0,.05,0,.09-.07.1l0,0,0,0,0,0,0,.05h0s0,.06-.07.06v0c-.11,0-.1.11-.17.17v0c-.06,0,0,.07,0,.07l0-.05c0,.08,0,0-.07,0l0,.06h0c-.05,0-.07-.07-.08-.1v.06l0-.05c0,.07,0,0,0,.05s0,0,0-.05v.06l0,.09c0,.08-.05,0-.07.05v0s0,0-.08,0,0,0,0,.06,0,0,0,0,0,.1,0,.08v0s0,0,0,0v0s0,0,0,0v0h-.13v-.06c0,.08-.07,0-.06.07s-.09,0-.08-.07-.13.1-.22,0-.12-.09-.18-.12a1.25,1.25,0,0,1-.38,0c0-.16-.21-.07-.26-.18l0,0c0-.1-.15-.07-.17-.2s0,0,0,0a.1.1,0,0,1,0,.05s-.07-.05,0-.1h0c0-.05-.08,0-.07-.09l0,.07,0-.05h0c-.28,0-.19-.27-.44-.33.07,0-.06,0,0-.06s-.09-.06-.14-.08h0l0-.07c.12,0-.1,0,0,0-.07-.21-.31-.38-.45-.6v0c0-.06-.12-.1-.11-.16s-.13,0-.14-.05,0-.11,0-.09-.16,0-.19-.11-.21-.1-.14-.17h0c0-.13-.17-.11-.21-.24h0a2.32,2.32,0,0,0-.38.07l-.18.29-.06.33c.12.09.25.2.37.31l.18.37.69.77h.11c0,.25.34.34.46.57l.05,0s0,.07,0,.09a4.77,4.77,0,0,0,1.74.84c0,.05.25,0,.3.09a5.5,5.5,0,0,1,.65-.15h0l.1,0v0c.09-.09.27-.1.4-.15h0a3.62,3.62,0,0,0,1.41-1.68c.23-.3.16-.73.28-1.09A1.83,1.83,0,0,0,112.74,354.83Z" fill="#202020"/><path d="M112.46,353.8h0S112.47,353.79,112.46,353.8Z" fill="#202020"/><polygon points="111.92 355.3 111.92 355.3 111.88 355.31 111.92 355.3" fill="#202020"/><path d="M111.8,354.47s0,0,0,0S111.81,354.47,111.8,354.47Z" fill="#202020"/><path d="M112.31,353.48s0,0,0,0l0,0Z" fill="#202020"/><path d="M112,353.68h0Z" fill="#202020"/><path d="M120.61,346s0,0,0,0Z" fill="#202020"/><path d="M120.34,342.42h0v0Z" fill="#202020"/><path d="M121.3,341.93h0Z" fill="#202020"/><path d="M118.22,343.56h0Z" fill="#202020"/><path d="M119.08,347.19h0Z" fill="#202020"/><path d="M119.09,347.15s0,0,0,0a.08.08,0,0,0,.08,0S119.11,347.16,119.09,347.15Z" fill="#202020"/><path d="M115.53,347.4h0Z" fill="#202020"/><path d="M120.22,343.66h0Z" fill="#202020"/><path d="M116.07,347.58l0,0Z" fill="#202020"/><path d="M120.34,342.38h0Z" fill="#202020"/><path d="M122.05,341.26h0Z" fill="#202020"/><path d="M118.92,339.3v0l0,0Z" fill="#202020"/><path d="M122.46,340.46h0a.41.41,0,0,0,0,.08l0,0Z" fill="#202020"/><path d="M121.43,338.89l.16.12a3.76,3.76,0,0,0-1.32-.14l0,0c-.06,0-.12.16-.81-.06h0s0,0-.07,0l.12.05a.77.77,0,0,1-.23.06.05.05,0,0,1,0,0h-.22l-.07-.06c-.07,0,0,.14-.22.06.06.08-.1,0-.08.08l0-.05a1.37,1.37,0,0,0-.37,0s.4.23.51.31c-.15,0,0,0,0,0v0c.1,0,.09.07.14.09h0v0h0a.35.35,0,0,1,.15,0v0c.08-.07.49.13.59.13s.23,0,.35,0,.1.06.19.09,0,0,0-.05l.14.06c-.08,0,0,0,0,.05s.31.09.35,0,.15.09.22.1l-.07-.05c.06,0,0,0,0,0s.46.23.49.16v0c0-.06,0-.13.1-.14l0,0h.08s0,.05,0,.06a1.06,1.06,0,0,1,.36.17l-.05-.22c.09.09.23.26.28.23l0,.09c.13.22.17.05.22.13a.56.56,0,0,1,0,.12l-.08-.07a.35.35,0,0,1,.08.21h0a.08.08,0,0,1,.09.05v0a.16.16,0,0,1,0,.2l.06,0-.07.09-.05,0a.36.36,0,0,0,0-.29h0a.17.17,0,0,1,0,.11s-.07.05-.1,0l0,0c-.06.21-.08.24-.31.44h0c0,.06-.07.13-.11.11a1.19,1.19,0,0,1-.47.33l0,.06s-.15,0-.11.08l-.05.09c-.06,0-.06.08-.14.1h0c-.13.06,0,.05-.11.11s0,.1-.07.13l-.12,0c-.15,0-.11.13-.29.23s-.18,0-.16-.12c0,.12,0,.07-.09.15s0,0,0-.07,0,.06-.12.09,0,.17,0,.19h0a.36.36,0,0,1-.25.13v0l-.16.08,0,0-.25.1h0a1.27,1.27,0,0,1-.41.1l0,0L119,343l-.36,0c0,.1,0,.18,0,.23l-.07,0c-.1,0,.12,0,0,.09l-.09,0c.09.08-.06.05-.11.07h.11l-.06,0a.25.25,0,0,1-.17,0l.05,0h-.07c.07,0,0,0,0,0h0l0,0h0s0,0-.06,0h0l0,0h0s.06,0,.07,0h0l.06,0s.06,0,0,0h0a.32.32,0,0,1,0,.13h-.08c.12,0,0,.11.13.09-.08,0,.12.19-.11.19,0,0,0,.06,0,.1a3.59,3.59,0,0,1,1.23.34,1.34,1.34,0,0,0,.37.25l.29.17a3.23,3.23,0,0,1,.7.38c0,.15.07.14.09.18s0,0,0,0l0,0c-.09,0-.12.25-.32.35a.22.22,0,0,1,0,.09h0s-.1.14-.15.09v0s-.1.14-.18.15l.07,0-.08.07v0c-.24.43-.54.39-.84.73,0-.1,0,.08-.1,0s-.17.11-.24.18h0l-.15.06c0-.13-.07.13,0,0a7.54,7.54,0,0,1-1.4.33l0,0a.67.67,0,0,1-.37,0c-.09,0-.2.08-.24.08s-.19-.05-.15-.05-.22.11-.36,0-.43,0-.42-.09h0c-.17-.1-.38,0-.56-.18h0a4.13,4.13,0,0,1-.53.11l0,.37c.1.13.19.29.3.42a4.88,4.88,0,0,0,1.19.21,6,6,0,0,0,1,.14,5.77,5.77,0,0,0,2.24-.63l.12-.14c.47-.1.87-.57,1.28-.83l0-.06c.09-.1.11-.07.15-.08a6.22,6.22,0,0,0,.46-.56,1.53,1.53,0,0,0,.33-.9,1.21,1.21,0,0,0-.35-.84,2.56,2.56,0,0,0-.51-.42,7.32,7.32,0,0,1-.66-.45s0,0,0-.05a.77.77,0,0,1-.28,0h.23l.06,0c.15-.07.46-.22.67-.34a10,10,0,0,0,1.32-.95,2.35,2.35,0,0,0,.66-.7,1.58,1.58,0,0,0,.24-1.39,1.38,1.38,0,0,0-.21-.38,1.06,1.06,0,0,0-.29-.31,2.85,2.85,0,0,0-.53-.33A2.57,2.57,0,0,0,121.43,338.89Z" fill="#202020"/><path d="M119.27,338.85h0S119.27,338.83,119.27,338.85Z" fill="#202020"/><polygon points="121.93 339.99 121.93 339.99 121.94 340.03 121.93 339.99" fill="#202020"/><path d="M120.28,339.64h0Z" fill="#202020"/><path d="M118.64,338.86s0,0,0,0h.07Z" fill="#202020"/><path d="M118.77,339.26l0,0S118.78,339.27,118.77,339.26Z" fill="#202020"/><path d="M121.52,356.73s0,0,0,0Z" fill="#202020"/><path d="M125.42,354.26h0l0,0Z" fill="#202020"/><path d="M123.64,353.06a.29.29,0,0,1,0-.1S123.65,352.94,123.64,353.06Z" fill="#202020"/><path d="M125.49,356.25v0Z" fill="#202020"/><polygon points="120.8 358.93 120.8 358.93 120.78 358.93 120.8 358.93" fill="#202020"/><path d="M120.81,358.9s0,0,0,0a.1.1,0,0,0,.09,0S120.83,358.91,120.81,358.9Z" fill="#202020"/><path d="M116.86,356.3h0Z" fill="#202020"/><path d="M126.16,357l0,0S126.16,357,126.16,357Z" fill="#202020"/><path d="M117.4,357h0Z" fill="#202020"/><path d="M125.38,354.28h0Z" fill="#202020"/><path d="M125.71,352.92s0,0,0,0h0Z" fill="#202020"/><path d="M126.15,349.49h0Z" fill="#202020"/><path d="M127.52,353h0l-.2.05v0Z" fill="#202020"/><path d="M129.16,351.34a2.83,2.83,0,0,1,0,.3,2.57,2.57,0,0,0-1-1.72l0,0a6.7,6.7,0,0,1-1.08-.7h0s0,0-.1-.05l.15.12c-.11,0-.21,0-.35-.07a.05.05,0,0,1,0-.05l-.34-.1-.08-.08c-.11,0-.1.12-.35,0,.08.11-.14,0-.12.06s0,0,0,0v.77l0,0a2.12,2.12,0,0,0,.51-.21h-.6v-.36a1.17,1.17,0,0,1,.19.14c-.21-.09-.06,0,0,0l0,0c.12.06.11.1.17.13h0s0,0,0,0h0l.19.06v0c.12,0,.6.33.71.4s.27.12.39.23.08.12.16.22,0-.05.05,0a1.63,1.63,0,0,1,.11.17c-.08-.07-.06,0-.05,0s.2.34.29.34c.08.19.05.21.09.29s0-.09,0-.1,0,0,0,0,.09.64.15.64h0c.07,0,.13,0,.17.05l0,.06a.32.32,0,0,1,0,.09c0,.06,0,0,0,0a.81.81,0,0,1-.14.47,1,1,0,0,0,.24-.1c-.08.15-.3.32-.28.38l-.1,0c-.29.12-.12.18-.24.22l-.16,0,.12-.07a1,1,0,0,1-.32.06h0s-.07.09-.17.11a1,1,0,0,1-.52.07l0,.07-.2,0v-.05a2.88,2.88,0,0,0,.74-.13v0a2.1,2.1,0,0,1-.36.09s-.16-.05-.08-.09l-.08.06a1.46,1.46,0,0,1-.89-.12l0,0c-.1,0-.2,0-.21-.07a3.08,3.08,0,0,1-.79-.33l-.07.05c-.06,0-.15-.14-.21-.06h-.38l-.15,0a.51.51,0,0,0-.36.2h0a.65.65,0,0,0-.09.16h0a.6.6,0,0,0,.12.54l.08.07s0,0,.06,0l.21.1c.07.08.13,0,.24,0l.09.12c.18.12.25,0,.52.13s.16.17.05.2a.39.39,0,0,1,.24,0s0,0,0,.06.09,0,.18,0,.13-.12.16-.11l0,0a.59.59,0,0,1,.33.15l0,0,.11.06,0,0a.73.73,0,0,1,.13.1v0a.3.3,0,0,1,.13.16h0c0,.13.13.3.12.54l-.05,0c0,.08.08,0,0,.13h-.06c.06.1,0,.11-.08.15h.08l0,.1c-.07.11-.12,0-.15,0l0,.09H126c0,.08,0,0-.06.15s0,0,0,0a1.48,1.48,0,0,1,0,.19l0-.11.07.07c0,.14-.11.11-.14.19l0-.06c-.08.11-.11.08-.18.11s.07,0,0,0,0,0-.08,0,0,.14-.12.16,0,0,0,0,0,0-.06,0v-.07l0,.09c-.06,0-.11.08-.12,0l0,0a1.53,1.53,0,0,1-.37.08l0-.05c0,.08-.21,0-.19.09s-.3,0-.25-.07a1.81,1.81,0,0,1-.74-.09.74.74,0,0,0-.24-.17,7.43,7.43,0,0,1-.73-.44,4.86,4.86,0,0,0-1-.54c-.23-.06-.28.06-.42.05a.3.3,0,0,0-.34,0c0,.14.07.23,0,.27l.08.11s0,.08,0,.2a1.25,1.25,0,0,0,.23.65,3.22,3.22,0,0,1,.24.29s0-.06,0-.05.3.48.19.44l0,0s0,.11.09.25a.61.61,0,0,1,0,.11v0s0,0,0,0l.07,0v.08s0,0,0,0a.83.83,0,0,1-.17.64l-.41.51c0-.1-.06.1-.11,0s-.19.13-.29.2v0l-.18,0c.08-.13-.12.12,0,0a2.6,2.6,0,0,1-1.71-.51v0a1.11,1.11,0,0,1-.38-.32c-.07-.11-.26-.14-.3-.17s-.15-.24-.12-.19-.28-.15-.39-.35-.46-.41-.38-.49h0c-.12-.27-.39-.42-.55-.7h0c-.22-.1-.44-.19-.67-.27l-.12.37a5.45,5.45,0,0,1,.14.58l1,1.12a6.37,6.37,0,0,0,.84,1,4.26,4.26,0,0,0,1.49.79,2.73,2.73,0,0,0,1.82-.09,1.8,1.8,0,0,0,.2-.19,2.55,2.55,0,0,0,1.38-1.89l-.07,0a1,1,0,0,1,.06-.32l0-.1v-.07l0-.07-.15-.19s.12.05.2.09l.11.08,0,0h0l.08,0a2.31,2.31,0,0,0,.35.14,4.66,4.66,0,0,0,.77.21,4.25,4.25,0,0,0,1.7-.38h0l.24-.15s0,0,0,0a4,4,0,0,0,.83-.89v0a2.2,2.2,0,0,0,.21-1.71,1.69,1.69,0,0,0-.56-.8,3.18,3.18,0,0,0-.68-.39,12.22,12.22,0,0,0-1.28-.44l-.13-.05h0s0-.1-.08.12a.48.48,0,0,1-.12.16l-.07.06s0,0,0,0h0l0,0a.19.19,0,0,1,0,.13s0,.14,0,.21v.08h0a4.21,4.21,0,0,1,.55.16,4.7,4.7,0,0,0,1.38.35,5.37,5.37,0,0,0,1.67-.22,2,2,0,0,0,1.18-1A2.1,2.1,0,0,0,129.16,351.34Z" fill="#202020"/><path d="M126.76,349.19h0S126.76,349.17,126.76,349.19Z" fill="#202020"/><polygon points="128.26 352.48 128.26 352.47 128.21 352.49 128.26 352.48" fill="#202020"/><path d="M127.66,350.55c.07.07.08.07.08.05Z" fill="#202020"/><path d="M125.88,349.84c.06,0,0,0,0,0h0V349l.06,0-.06,0v.86Z" fill="#202020"/><path d="M126,349.4h0S126,349.41,126,349.4Z" fill="#202020"/><path d="M69.43,355.52h0v0Z" fill="#202020"/><path d="M69.7,355.53h0S69.7,355.51,69.7,355.53Z" fill="#202020"/><path d="M68.39,355.5h0Z" fill="#202020"/><polygon points="67.99 353.78 67.99 353.78 68 353.78 67.99 353.78" fill="#202020"/><path d="M68,353.8s0,0,0,0,0,0,0,0Z" fill="#202020"/><path d="M68.9,352.48h0Z" fill="#202020"/><path d="M68.25,356.5h0Z" fill="#202020"/><path d="M68.73,352.67l0,0Z" fill="#202020"/><path d="M69.43,355.49h0Z" fill="#202020"/><polygon points="70.06 355.33 70.07 355.35 70.07 355.35 70.06 355.33" fill="#202020"/><path d="M72.1,354.2h0l0,0Z" fill="#202020"/><path d="M70.65,355.1h0l-.07,0,0,0Z" fill="#202020"/><path d="M71.8,355.34h-.11c.14-.18.27-.2.36-.38v0s-.1-.14.29-.23h0s0,0,0,0l-.08,0a.43.43,0,0,1,0-.14l0,0,.07-.12h.07c0-.06-.1-.09,0-.18-.09,0,0-.08,0-.08l0,0a.41.41,0,0,0,0-.29s-.23.27-.33.26,0,0,0,0v0s-.08,0-.1,0h0v0s0,0,0,0h0l0,.05,0,0c0,.07-.22.08-.25.1s0,.08-.11.1-.07,0-.12,0,0,0,0,.05h-.09s0,0,0,0-.15,0-.11.11-.1,0-.12,0h.05c-.05,0,0,0,0,0s-.26.06-.21.12h0c0,.06.1.09.1.14h0v0s0,0,0,0-.09.07-.14.1l.17.1c-.07,0-.19,0-.16,0l-.06,0c-.15,0,0,.08-.08.08l-.08,0,0,0h-.14a.05.05,0,0,1,0,.08s0,.08-.15.07l0,.06h-.07l0,0a.84.84,0,0,0,.18-.15v0s-.06.07-.09.08-.07,0-.07-.07v.06a.74.74,0,0,1-.31.14h0s0,.06-.07,0a.31.31,0,0,1-.26,0l0,.06s-.09-.06,0,0l0,0s0,0-.06,0h0s0,.05,0,0,0,.08,0,.08l-.06-.08s0,.06-.08.07a.26.26,0,0,1,0-.17c0,.08,0,0,0,.1v-.08s0,0,0,0,0,.17,0,.18v0s0,0-.07,0v0h0v0h-.06a.14.14,0,0,1-.11,0v0c-.08-.08-.16,0-.26,0l0-.05s0,.07-.06.05v-.06c0,.07,0,0-.06-.06v.08l0,0s0-.1,0-.14l0,.06v-.07c0,.07,0,0-.06,0s0,0,0-.05l-.09.08,0,0,0,.09c0,.07,0,0-.09,0l0,0c-.06,0,0,0-.07,0s0,0,0,0,0,0,0,0,0,.09-.08.06v0s0,0,0,0l0-.07,0,.06s0,0,0,0h0l-.11-.05v-.05c0,.07,0-.05-.07.05,0-.06,0,0,0-.08s0,0,0,0,0,0,0,0,.05,0,0-.09A.59.59,0,0,1,68,355c.11-.1-.08-.21,0-.33l0,0a.16.16,0,0,0,0-.15s0,0,0-.08l0,0h0s0,0,.06,0h0c.06,0,0,0,0-.05h-.07v0h0c-.13-.17.11-.18,0-.38.06.06,0,0,0,0s0-.08,0-.13h0l0-.05c.07.09,0-.08,0,0,.14-.1.23-.33.39-.48h0s0-.11.11-.11,0-.12,0-.13.09,0,.08,0,0-.14,0-.17.05-.2.13-.13h0c.11,0,.07-.16.17-.19h0l-.11-.36-.29-.19-.31-.05-.26.42-.32.24a5.06,5.06,0,0,0-.54.82l0,.1c-.22.14-.18.46-.31.71l.07,0c0,.07-.05.06-.06.08a1.48,1.48,0,0,0,.06.51c0,.1,0,.22.08.35a2.45,2.45,0,0,0,.35.94c0,.07.12.15.19.22a.19.19,0,0,1,.08.07c.31.06.43.07.61.12h.07c.09,0,.21,0,.3.08h0a3.12,3.12,0,0,0,.4.05h.18a1.58,1.58,0,0,0,.31,0,2.84,2.84,0,0,0,1-.34c.31-.08.41-.31.76-.45C71.33,355.88,71.79,355.4,71.8,355.34Z" fill="#202020"/><path d="M72.38,354.62h0S72.39,354.63,72.38,354.62Z" fill="#202020"/><polygon points="70.96 354.95 70.96 354.95 70.92 354.93 70.96 354.95" fill="#202020"/><path d="M71.48,354.41s0,0,0,0S71.48,354.43,71.48,354.41Z" fill="#202020"/><path d="M72.56,354.22s0,0,0,0l0,.05Z" fill="#202020"/><path d="M72.17,354.15h0Z" fill="#202020"/><text transform="translate(233.77 155.71)" font-size="18" font-family="Helvetica-Bold, Helvetica" font-weight="700">Leave a legacy</text><text transform="translate(185.82 251.15)" font-size="18" font-family="Helvetica-Bold, Helvetica" font-weight="700">Distribution with direction</text><text transform="translate(190.3 348.81)" font-size="18" font-family="Helvetica-Bold, Helvetica" font-weight="700">Accumulation that aligns</text><text transform="translate(192.8 447.36)" font-size="18" font-family="Helvetica-Bold, Helvetica" font-weight="700">Foundational framework</text><text transform="translate(243.26 510.79)" font-size="14" font-family="Helvetica-Bold, Helvetica" font-weight="700" letter-spacing="-0.01em">Income sources</text><polyline points="76.09 450.9 76.09 488.25 517.73 488.25 517.73 441.64" fill="none" stroke="#000" stroke-miterlimit="10"/></g><g id="fcb37b92-5e07-4642-9662-964bd5ec4b64" data-name="Black"><path d="M302.37,105.89a6.35,6.35,0,0,0,6.42-6.41v-.86a.43.43,0,0,0-.43-.43h-.86a6.35,6.35,0,0,0-6.41,6.42v4.28" fill="none" stroke="#000" stroke-linecap="round" stroke-linejoin="round"/><path d="M293.56,95.17H293a.6.6,0,0,0-.6.6v.6a6,6,0,0,0,6,6H299a.6.6,0,0,0,.6-.61v-.6A6,6,0,0,0,293.56,95.17Z" fill="none" stroke="#000" stroke-linecap="round" stroke-linejoin="round"/><path d="M277.58,112.35s3,0,4.27-.67a16.37,16.37,0,0,0,2.93-2.35,4,4,0,0,1,4.53-.85l10.89,3.87s2,.75,1.76,2.26-2.85.92-2.85.92l-6.33-1.3" fill="none" stroke="#000" stroke-linecap="round" stroke-linejoin="round"/><path d="M304.13,113.77l7.08-2.47s2.18-.63,3,.59c0,0,1.8,1.75-1.89,3.43l-12.94,5.15s-1,.8-3.27-.25l-11.56-3.87-4,1.84" fill="none" stroke="#000" stroke-linecap="round" stroke-linejoin="round"/><path d="M283.51,388.59a20.16,20.16,0,0,1-2.58.67s-1.58,15.81,3.69,22.14c3.84,4.62,11.07,7.91,11.07,7.91h.83s7.22-3.29,11.07-7.91c5.27-6.33,3.69-22.14,3.69-22.14a29.14,29.14,0,0,1-7.38-2.63,72.71,72.71,0,0,1-7.38-4.22.66.66,0,0,0-.83,0s-1,.65-2.55,1.57c0,0-2.81,1.65-5,2.73" fill="none" stroke="#000" stroke-linecap="round" stroke-linejoin="round"/><polyline points="288.95 399.8 293.99 405.99 304.71 395.27" fill="none" stroke="#000" stroke-linecap="round" stroke-linejoin="round"/><path d="M284.37,316.71a16.17,16.17,0,0,1-2.93-3.94c-.41-.73-.75-1.49-1.14-2.23a13,13,0,0,1-1.1-2,12.47,12.47,0,0,1-.28-3.11,40.61,40.61,0,0,1-.19-5.05,25.33,25.33,0,0,1,1.56-6.16c.39-1.18.75-2.36,1.08-3.56a18.63,18.63,0,0,1,.88-3.13,1.76,1.76,0,0,1,2.12-1c2.27.7,1.4,4.27,1.12,5.41l-1.23,6.15c1.23.36,2.61,1.63,3.57,4.11l0,.09c.61,1.58.61,1.58,1.86,2.28,4.94,2.79,4.62,5.1,4.3,7.33a6.27,6.27,0,0,0,.06,2.95" fill="none" stroke="#000" stroke-linecap="round" stroke-linejoin="round"/><path d="M286.15,307.57a26.3,26.3,0,0,0-2.61-3.5,6.53,6.53,0,0,1-1.3-3c-.19-.82,0-2.38.89-2.76a2.47,2.47,0,0,1,.76-.17l.37,0" fill="none" stroke="#000" stroke-linecap="round" stroke-linejoin="round"/><path d="M298.12,314.84a6.27,6.27,0,0,0,.06-2.95c-.31-2.23-.64-4.54,4.31-7.33,1.24-.7,1.24-.7,1.85-2.28l0-.09c.95-2.48,2.34-3.75,3.56-4.11l-1.23-6.15c-.28-1.14-1.14-4.71,1.12-5.41a1.76,1.76,0,0,1,2.12,1,18.66,18.66,0,0,1,.89,3.13c.33,1.2.68,2.38,1.07,3.56a24.9,24.9,0,0,1,1.57,6.16,40.61,40.61,0,0,1-.19,5.05,12.48,12.48,0,0,1-.29,3.11,13.83,13.83,0,0,1-1.09,2c-.39.74-.73,1.5-1.14,2.23a16.43,16.43,0,0,1-2.93,3.94" fill="none" stroke="#000" stroke-linecap="round" stroke-linejoin="round"/><path d="M306.05,307.57a27.27,27.27,0,0,1,2.62-3.5,6.63,6.63,0,0,0,1.3-3c.19-.82,0-2.38-.9-2.76a2.34,2.34,0,0,0-.75-.17l-.38,0" fill="none" stroke="#000" stroke-linecap="round" stroke-linejoin="round"/><path d="M300,290a6,6,0,0,0-3.86,1.72h0a6,6,0,0,0-3.86-1.72,3.21,3.21,0,0,0-3.07,3.32c0,2,2,4.81,4.25,6.79.12.11.23.22.36.32a7.2,7.2,0,0,0,2.34,1.54h0a7.21,7.21,0,0,0,2.33-1.54,3.73,3.73,0,0,0,.36-.32c2.25-2,4.25-4.78,4.25-6.79A3.2,3.2,0,0,0,300,290Z" fill="none" stroke="#000" stroke-linecap="round" stroke-linejoin="round"/><polygon points="303.65 212.15 293.64 206.79 288.29 196.79 298.29 202.15 303.65 212.15" fill="none" stroke="#000" stroke-linecap="round" stroke-linejoin="round" stroke-width="0.96"/><polyline points="295.04 192.92 295.04 189.99 296.89 192.92 296.89 189.99" fill="none" stroke="#000" stroke-linecap="round" stroke-linejoin="round" stroke-width="0.96"/><line x1="295.97" y1="188.31" x2="295.97" y2="187.29" fill="none" stroke="#000" stroke-linecap="round" stroke-linejoin="round" stroke-width="0.96"/><line x1="295.97" y1="221.65" x2="295.97" y2="220.62" fill="none" stroke="#000" stroke-linecap="round" stroke-linejoin="round" stroke-width="0.96"/><line x1="312.12" y1="204.47" x2="313.15" y2="204.47" fill="none" stroke="#000" stroke-linecap="round" stroke-linejoin="round" stroke-width="0.96"/><line x1="278.79" y1="204.47" x2="279.81" y2="204.47" fill="none" stroke="#000" stroke-linecap="round" stroke-linejoin="round" stroke-width="0.96"/><circle cx="295.97" cy="204.47" r="1.57" fill="none" stroke="#000" stroke-linecap="round" stroke-linejoin="round" stroke-width="0.96"/><path d="M300.43,187.8a17,17,0,0,1,5.68,2.72,17.25,17.25,0,1,1-14.55-2.73" fill="none" stroke="#000" stroke-linecap="round" stroke-linejoin="round" stroke-width="0.96"/></g></svg>