<svg width="350" height="258" viewBox="0 0 350 258" fill="none" xmlns="http://www.w3.org/2000/svg">
<g clip-path="url(#clip0_1220_12313)">
<path d="M276.299 215.962L268.785 257.824H349.996C348.33 242.097 345.55 226.097 345.096 210.296C344.672 195.311 344.805 180.402 342.462 165.539C340.296 151.817 336.309 138.446 330.607 125.778C325.69 114.863 319.365 103.858 319.859 91.8958C320.048 87.3272 320.234 82.692 321.635 78.3403C322.628 75.2591 324.004 72.3052 324.852 69.182C325.853 66.0772 325.84 62.7341 324.813 59.6375C323.979 57.6205 322.547 55.9074 320.71 54.7285C318.873 53.5497 316.719 52.9617 314.538 53.0435C313.473 48.3943 307.489 45.7729 302.74 45.3249C297.99 44.8769 293.229 46.0108 288.46 45.9268C286.796 45.7966 285.124 45.8211 283.465 46.0003C282.634 46.0962 281.835 46.3786 281.128 46.8265C280.421 47.2743 279.824 47.876 279.382 48.5867C279.065 49.205 278.916 49.8952 278.948 50.5891C278.979 51.283 279.192 51.9565 279.564 52.543C279.953 53.1287 280.487 53.6043 281.113 53.924C281.739 54.2438 282.437 54.397 283.14 54.3688C278.561 59.8825 277.073 67.1053 276.346 74.3561L273.42 80.2094C272.613 81.8229 271.806 83.4374 271.059 85.0812C270.968 85.2352 270.932 85.4152 270.955 85.5924C271.038 85.9179 271.456 85.9995 271.791 86.0124C273.025 86.0534 274.261 86.0109 275.49 85.8852C275.296 88.7248 275.102 91.5637 274.907 94.4018C274.89 94.6351 274.875 94.8712 274.861 95.11C274.892 95.1298 274.924 95.1449 274.978 95.0574V94.8907V94.9466C275.138 94.809 275.102 95.1053 275.257 94.9466L275.285 95.0167C275.329 94.984 275.377 94.9723 275.334 94.8999C275.522 94.8777 275.712 94.8707 275.902 94.879C276.002 94.8183 275.839 94.8288 275.871 94.753C275.952 94.6083 276.03 94.7214 276.144 94.7238L276.091 94.6608L276.311 94.6224L276.303 94.6923L276.447 94.6527C276.47 94.5909 276.413 94.6177 276.359 94.6095C276.518 94.5769 276.569 94.333 276.768 94.4065L276.776 94.4835C276.77 94.4625 276.747 94.4695 276.736 94.4835C276.628 94.6515 276.872 94.5103 276.898 94.5593C276.909 94.4543 277.067 94.4741 277.081 94.3341C277.407 94.3936 277.527 94.088 277.763 94.1008C277.735 94.179 277.845 94.1183 277.864 94.1802C277.971 94.1907 277.896 94.0635 277.981 94.0507L278.092 94.1159C278.221 93.9013 278.271 94.1918 278.427 94.06C278.49 93.8908 278.737 94.0483 278.855 93.8465L278.891 93.9141C278.996 93.7975 279.124 93.8979 279.211 93.808C279.269 93.8664 279.2 93.857 279.243 93.9445C279.325 93.8348 279.28 94.1055 279.318 93.9935C279.509 94.0075 279.492 93.5653 279.647 93.5209C279.753 93.3436 280.014 93.5537 279.962 93.3705L279.877 93.3962L280.082 93.2795L280.117 93.3389C280.184 93.2549 280.429 93.2386 280.487 93.0893C280.487 93.0951 280.5 93.0975 280.511 93.1056C280.595 93.003 280.667 93.073 280.716 92.9272V92.9587C280.814 92.7253 281.2 92.5772 281.45 92.4173C281.506 92.5025 281.64 92.3904 281.739 92.3122C281.706 92.3344 281.726 92.3777 281.726 92.3929C281.818 92.205 282.1 92.3299 282.193 92.1245V92.1408C282.28 92.1571 282.384 91.9191 282.498 92.0556C282.603 91.8351 282.768 91.757 283.051 91.666V91.6974C284.171 91.6566 284.185 91.9495 283.895 92.2668C283.637 92.5191 283.345 92.7342 283.028 92.9061L282.541 93.1569C282.55 93.1697 282.525 93.2304 282.499 93.2234C282.077 93.7064 281.239 93.5642 280.803 93.9853C280.427 94.3377 279.963 94.5815 279.459 94.6912C279.158 94.795 278.978 95.0318 278.675 95.0913L278.568 95.047C278.532 95.1054 278.537 95.1251 278.465 95.1496C278.492 95.1064 278.437 95.103 278.407 95.0902L278.353 95.1765C278.283 95.075 278.236 95.4471 278.172 95.3293L278.109 95.257C277.372 95.4747 276.653 95.7476 275.957 96.0736C275.754 96.0456 275.593 95.9069 275.405 95.9407L275.442 96.0573C275.326 96.1308 275.385 95.9721 275.243 95.9733L275.334 96.09L275.093 96.1915L275.125 96.1518C275.04 96.1833 274.953 96.2428 274.976 96.3163C274.942 96.2556 274.948 96.1996 274.836 96.2299C274.845 96.259 274.846 96.2904 274.839 96.3201C274.831 96.3498 274.814 96.3765 274.791 96.3969C274.691 99.2167 274.908 102.081 276.515 104.33C278.05 106.23 280.162 107.578 282.531 108.172C285.647 109.124 288.935 109.382 292.162 108.927C293.454 111.932 294.612 114.852 295.629 117.963C296.572 120.56 297.151 123.274 297.35 126.03C297.512 130.23 296.156 134.32 294.817 138.303C289.257 154.842 283.696 171.381 278.134 187.92C259.152 187.652 240.294 187.879 221.344 186.768C217.194 186.525 212.944 185.184 208.796 185.025C204.627 184.773 200.46 185.552 196.663 187.292C195.844 187.616 195.143 188.183 194.655 188.917C194.426 189.29 194.347 189.736 194.434 190.165C194.52 190.595 194.766 190.975 195.122 191.231C195.633 191.438 196.198 191.476 196.733 191.339L203.882 190.289C204.342 190.799 203.332 191.641 202.769 192.039C196.727 196.273 190.519 200.585 183.39 202.48C179.672 203.467 175.746 203.783 172.237 205.358C171.745 205.578 171.199 205.913 171.157 206.45C171.101 207.176 171.967 207.579 172.674 207.76C178.785 209.333 185.03 210.324 191.328 210.721C191.854 211.224 192.385 210.899 193.064 210.637L213.597 202.704C233.811 206.465 256.27 211.035 276.481 214.796V214.816C278.259 215.101 280.05 215.295 281.847 215.399L282.295 215.425L282.529 215.438C282.611 215.446 282.676 215.438 282.813 215.461C283.138 215.505 283.482 215.547 283.836 215.586C284.547 215.661 285.305 215.716 286.053 215.729C287.362 215.758 288.669 215.634 289.949 215.357C291.394 214.876 292.688 214.025 293.704 212.89L294.054 212.624C294.175 212.417 294.314 212.221 294.47 212.04C294.354 212.23 294.538 212.04 294.636 211.959L294.86 211.57C295.051 211.528 295.36 210.535 295.503 210.545L295.673 210.454C297.973 207.284 300.113 203.234 302.333 199.642C302.932 198.815 303.399 198.375 303.958 197.484L303.852 197.431C304.194 196.787 304.018 197.343 304.443 196.71L304.176 196.879L304.876 195.631L304.785 195.845C305.034 195.411 305.287 194.911 305.219 194.879C305.319 194.84 305.304 194.97 305.63 194.412C305.486 194.313 305.95 193.496 306.369 192.723C306.379 192.751 306.563 192.464 306.469 192.684C307.223 190.915 308.111 190.184 308.814 188.453L308.822 188.481C309.638 187.259 309.781 186.657 310.65 185.283L310.542 185.295C310.966 184.593 311.352 183.87 311.7 183.128L311.679 183.229L311.951 182.715L311.959 182.742C312.049 182.52 312.336 182.061 312.515 181.613L312.525 181.64C312.714 181.357 312.871 181.052 312.991 180.733L313.225 180.45C313.575 179.582 314.338 178.412 314.595 177.659L314.59 177.67L314.619 177.596L314.595 177.659C315.364 176.189 316.16 174.562 316.96 173.067C318.528 169.875 319.087 169.138 320.662 166.089C322.333 162.558 322.85 160.93 324.427 158.05C324.427 158.05 327.478 152.211 324.53 160.045C324.081 160.768 323.701 161.53 323.394 162.324L323.565 162.165C323.27 162.712 323.006 163.275 322.775 163.852C322.707 164.179 323.077 163.472 322.844 164.109L322.015 165.819C322.001 165.725 322.307 165.127 322.164 165.258C322.147 165.375 321.734 166.235 321.87 166.163L321.771 166.147C321.661 166.369 321.54 166.586 321.408 166.796C321.362 166.942 321.346 167.062 321.515 166.751C321.273 167.4 320.983 168.031 320.648 168.637C320.368 169.203 320.372 168.987 320.228 169.117C320.152 169.291 320.065 169.568 320.098 169.584L320.245 169.372C320.156 169.536 320.114 169.589 320.098 169.584L320.054 169.647L319.992 169.913C319.306 170.995 319.011 172.143 318.398 173.05C318.514 172.793 318.779 172.35 318.709 172.304L318.311 173.12C318.462 172.778 318.555 172.487 318.439 172.59C317.893 173.756 317.471 174.785 316.78 176.171C316.652 176.177 316.288 177.065 315.963 177.496C316.013 177.439 316.034 177.428 316.038 177.443C316.154 177.236 316.217 177.166 315.996 177.632C315.996 177.621 315.981 177.632 315.976 177.632C315.946 177.703 315.922 177.777 315.906 177.852C315.678 178.189 315.685 178.124 315.769 177.946C315.624 178.219 315.476 178.521 315.545 178.256C315.324 178.656 315.156 179.083 315.045 179.526C314.606 180.343 314.433 180.655 313.867 181.759L313.926 181.611C313.69 181.907 313.481 182.223 313.301 182.555C313.358 183.185 312.484 184.072 311.873 185.399C312.06 185.293 311.659 185.921 311.766 185.908C310.998 187.091 310.622 188.157 309.783 189.484L309.813 189.409C309.458 189.915 309.17 190.464 308.955 191.043C308.992 190.809 308.588 191.463 308.666 191.186C308.448 191.712 308.183 192.217 307.873 192.695C307.654 192.872 307.229 193.806 306.835 194.321L306.53 195.11L306.6 194.807C306.389 195.195 306.289 195.235 306.344 195.06C306.241 195.232 306.149 195.41 306.068 195.594L306.074 195.437C305.772 195.889 305.811 196.182 306.022 195.795C305.635 196.86 305.608 196.308 305.225 197.246L305.216 197.467V197.578V197.467C304.72 198.465 304.848 197.717 304.366 198.733L304.283 198.723C304.149 198.983 304.002 199.226 304.127 199.189C303.572 200.087 302.857 201.102 302.385 201.782C302.068 202.352 302.571 201.604 302.46 201.905C302.244 202.373 301.959 202.806 301.614 203.189L301.77 203.08L301.077 204.137L301.117 203.954L300.663 204.672C300.58 204.905 300.764 204.594 300.927 204.375C300.543 205.15 300.105 205.896 299.616 206.608V206.477C299.628 206.496 299.703 206.379 299.732 206.307C300.111 205.466 299.316 206.842 299.243 206.848C299.185 207.121 298.689 207.77 298.609 208.131C297.604 209.407 297.152 210.618 296.345 211.594C296.481 211.294 296.072 211.901 296.036 211.835C295.671 212.253 295.866 212.222 295.547 212.613L295.18 212.905C295.021 213.198 294.795 213.451 294.521 213.641C294.249 213.813 294.002 214.021 293.787 214.259C293.093 214.908 292.307 215.45 291.454 215.867L291.39 215.812C290.79 216.085 290.159 216.284 289.511 216.404C289.319 216.366 289.665 216.328 289.621 216.238C288.965 216.449 289.757 216.042 289.329 216.225C288.411 216.48 287.475 216.667 286.529 216.784C285.522 216.901 284.696 216.496 284.505 216.667L285.011 216.733C284.556 216.696 284.104 216.65 283.654 216.59L283.629 216.518C283.491 216.509 283.307 216.486 283.099 216.453L282.771 216.395C282.667 216.373 282.561 216.358 282.454 216.35C282.023 216.296 281.588 216.272 281.153 216.281C281.133 216.284 281.112 216.284 281.091 216.281H281.153C281.161 216.281 281.113 216.265 281.077 216.249C280.582 216.196 280.085 216.172 279.587 216.178L279.663 216.156C278.539 216.155 277.416 216.09 276.299 215.962Z" fill="#CCCCCC"/>
<path d="M278.134 95.2547L278.197 95.3271C278.259 95.4437 278.308 95.0726 278.378 95.1741L278.431 95.0878C278.462 95.1006 278.517 95.1042 278.49 95.1473C278.562 95.1228 278.556 95.103 278.592 95.0446L278.7 95.0889C279.003 95.0294 279.183 94.7927 279.484 94.6889C279.987 94.5793 280.452 94.3352 280.828 93.9829C281.264 93.5618 282.102 93.7042 282.524 93.2212C282.55 93.2282 282.574 93.1675 282.566 93.1546L283.053 92.9039C283.37 92.7319 283.662 92.5168 283.919 92.2645C284.21 91.9472 284.196 91.6543 283.076 91.6952V91.6637C282.792 91.7547 282.628 91.8328 282.523 92.0533C282.406 91.9168 282.305 92.1548 282.217 92.1385V92.1221C282.127 92.3275 281.845 92.2026 281.751 92.3904C281.751 92.3753 281.731 92.3321 281.763 92.31C281.664 92.3881 281.53 92.5001 281.475 92.4149C281.224 92.5748 280.838 92.7264 280.74 92.9563V92.9248C280.691 93.0706 280.624 93.0007 280.536 93.1034C280.524 93.0952 280.513 93.0928 280.512 93.087C280.453 93.2363 280.208 93.2527 280.142 93.3367L280.107 93.2771L279.901 93.3938L279.987 93.3681C280.039 93.5513 279.778 93.3413 279.672 93.5187C279.516 93.563 279.534 94.0052 279.343 93.9912C279.305 94.1079 279.35 93.8325 279.268 93.9422C279.225 93.8547 279.294 93.864 279.235 93.8056C279.147 93.8955 279.021 93.7929 278.916 93.9119L278.879 93.8442C278.763 94.0461 278.514 93.8885 278.451 94.0577C278.296 94.1895 278.246 93.899 278.116 94.1137L278.005 94.0483C277.92 94.0658 277.996 94.1883 277.889 94.1778C277.87 94.1159 277.759 94.1778 277.787 94.0984C277.554 94.0821 277.431 94.3879 277.106 94.3319C277.092 94.4719 276.933 94.4485 276.923 94.557C276.897 94.508 276.652 94.6491 276.761 94.4811C276.771 94.4671 276.795 94.4601 276.8 94.4811L276.792 94.4042C276.594 94.3307 276.543 94.5745 276.384 94.6071C276.438 94.6153 276.495 94.5885 276.471 94.6503L276.328 94.69L276.336 94.62L276.115 94.6586L276.169 94.7215C276.053 94.7215 275.977 94.6049 275.896 94.7507C275.863 94.8265 276.027 94.8159 275.926 94.8766C275.737 94.8683 275.547 94.8754 275.358 94.8977C275.402 94.9758 275.358 94.9875 275.309 95.0143L275.281 94.9444C275.126 95.103 275.165 94.8067 275.003 94.9444V94.8883V95.0552C274.948 95.1427 274.915 95.1274 274.886 95.1076C274.859 95.5346 274.837 95.9652 274.822 96.391C274.845 96.3707 274.861 96.3439 274.869 96.3143C274.877 96.2846 274.876 96.2532 274.866 96.2241C274.983 96.195 274.972 96.2498 275.006 96.3104C274.984 96.2369 275.07 96.1774 275.155 96.1459L275.124 96.1857L275.364 96.0841L275.273 95.9675C275.416 95.9675 275.358 96.125 275.473 96.0515L275.435 95.9349C275.623 95.901 275.785 96.0399 275.987 96.0679C276.681 95.7434 277.399 95.4716 278.134 95.2547Z" fill="#202020"/>
<path d="M320.292 169.371L320.146 169.583C320.165 169.588 320.204 169.535 320.292 169.371Z" fill="#202020"/>
<path d="M281.192 216.28H281.13C281.15 216.283 281.171 216.283 281.192 216.28Z" fill="#202020"/>
<path d="M314.638 177.674L314.644 177.662L314.667 177.599L314.638 177.674Z" fill="#202020"/>
<path d="M324.475 158.054C322.898 160.933 322.375 162.562 320.711 166.092C319.136 169.142 318.577 169.878 317.009 173.07C316.208 174.566 315.413 176.192 314.644 177.662C314.386 178.416 313.627 179.586 313.273 180.454L313.04 180.736C312.919 181.056 312.763 181.36 312.573 181.644L312.564 181.616C312.384 182.064 312.097 182.524 312.007 182.745L311.999 182.719L311.727 183.233L311.748 183.132C311.4 183.873 311.014 184.596 310.591 185.298L310.698 185.286C309.829 186.661 309.689 187.263 308.87 188.484L308.862 188.456C308.162 190.188 307.272 190.919 306.517 192.688C306.612 192.467 306.427 192.754 306.418 192.726C305.999 193.5 305.535 194.316 305.678 194.416C305.353 194.969 305.368 194.839 305.267 194.882C305.335 194.917 305.082 195.414 304.834 195.848L304.925 195.635L304.224 196.883L304.492 196.714C304.067 197.346 304.242 196.791 303.9 197.435L304.006 197.487C303.447 198.379 302.981 198.818 302.381 199.646C300.164 203.238 298.021 207.287 295.722 210.457L295.551 210.548C295.408 210.539 295.1 211.532 294.909 211.574L294.685 211.962C294.587 212.045 294.402 212.234 294.519 212.044C294.362 212.225 294.223 212.42 294.103 212.627L293.752 212.893C292.737 214.029 291.442 214.879 289.997 215.361C288.718 215.637 287.41 215.762 286.102 215.733C285.356 215.72 284.598 215.664 283.885 215.589C283.535 215.551 283.185 215.509 282.862 215.465C282.724 215.445 282.66 215.449 282.577 215.441L282.344 215.428L281.896 215.403C280.098 215.299 278.307 215.104 276.529 214.819L276.321 215.973C277.449 216.103 278.584 216.168 279.72 216.167L279.644 216.189C280.142 216.183 280.639 216.206 281.134 216.259C281.17 216.275 281.218 216.287 281.21 216.292C281.644 216.283 282.079 216.306 282.511 216.36C282.617 216.369 282.723 216.384 282.828 216.406L283.156 216.463C283.363 216.497 283.548 216.519 283.685 216.529L283.711 216.601C284.16 216.66 284.613 216.707 285.068 216.743L284.561 216.678C284.753 216.509 285.579 216.911 286.586 216.795C287.531 216.678 288.467 216.491 289.386 216.236C289.814 216.053 289.022 216.46 289.677 216.249C289.722 216.338 289.375 216.377 289.568 216.414C290.216 216.294 290.847 216.096 291.447 215.823L291.51 215.878C292.364 215.461 293.15 214.919 293.843 214.27C294.059 214.031 294.306 213.823 294.577 213.651C294.852 213.461 295.077 213.209 295.236 212.915L295.604 212.624C295.923 212.233 295.728 212.263 296.093 211.845C296.129 211.912 296.537 211.304 296.402 211.604C297.208 210.629 297.661 209.418 298.665 208.141C298.746 207.777 299.242 207.127 299.3 206.858C299.372 206.852 300.168 205.477 299.789 206.318C299.756 206.389 299.681 206.507 299.672 206.487V206.619C300.161 205.906 300.599 205.16 300.983 204.386C300.82 204.604 300.634 204.913 300.72 204.682L301.174 203.965L301.134 204.148L301.827 203.091L301.671 203.199C302.015 202.816 302.3 202.384 302.516 201.916C302.627 201.615 302.124 202.363 302.442 201.792C302.908 201.112 303.628 200.097 304.184 199.2C304.059 199.24 304.206 198.997 304.34 198.733L304.423 198.744C304.905 197.728 304.773 198.476 305.272 197.478L305.281 197.256C305.664 196.323 305.692 196.87 306.078 195.805C305.867 196.192 305.829 195.9 306.131 195.448L306.125 195.604C306.205 195.42 306.297 195.242 306.4 195.07C306.345 195.245 306.446 195.205 306.657 194.818L306.587 195.12L306.891 194.332C307.286 193.817 307.708 192.882 307.93 192.705C308.239 192.227 308.505 191.722 308.723 191.197C308.645 191.473 309.049 190.824 309.011 191.053C309.226 190.474 309.515 189.925 309.87 189.42L309.84 189.495C310.683 188.168 311.059 187.102 311.823 185.919C311.716 185.931 312.117 185.304 311.929 185.41C312.538 184.084 313.414 183.193 313.357 182.566C313.537 182.233 313.747 181.917 313.982 181.622L313.924 181.77C314.49 180.665 314.663 180.349 315.101 179.537C315.212 179.094 315.381 178.667 315.602 178.266C315.533 178.531 315.681 178.229 315.826 177.956C315.742 178.135 315.735 178.2 315.962 177.863C315.979 177.787 316.003 177.714 316.032 177.642C316.038 177.642 316.05 177.629 316.052 177.642C316.274 177.176 316.214 177.247 316.094 177.453C316.094 177.438 316.07 177.453 316.019 177.507C316.346 177.075 316.71 176.188 316.836 176.182C317.528 174.796 317.949 173.768 318.495 172.6C318.612 172.497 318.518 172.789 318.368 173.131L318.766 172.314C318.836 172.358 318.569 172.803 318.454 173.061C319.068 172.153 319.363 171.005 320.049 169.924L320.111 169.658L320.154 169.595C320.121 169.583 320.209 169.306 320.285 169.128C320.428 168.998 320.425 169.213 320.705 168.647C321.04 168.041 321.33 167.411 321.572 166.762C321.402 167.072 321.419 166.952 321.464 166.806C321.596 166.596 321.717 166.38 321.827 166.158L321.926 166.174C321.791 166.245 322.204 165.39 322.22 165.269C322.364 165.138 322.058 165.735 322.072 165.83L322.9 164.12C323.134 163.483 322.764 164.19 322.832 163.863C323.063 163.286 323.326 162.723 323.622 162.176L323.451 162.334C323.757 161.541 324.137 160.778 324.586 160.056C327.526 152.215 324.475 158.054 324.475 158.054Z" fill="#202020"/>
<path d="M251.547 93.9552C244.928 83.5415 233.853 79.0358 222.124 80.353C218.598 80.7354 215.151 81.6525 211.901 83.0725C207.645 84.8514 203.858 87.59 200.835 91.0747C197.813 94.5594 195.638 98.6957 194.478 103.16C193.319 107.625 193.208 112.297 194.154 116.812C195.1 121.327 197.076 125.562 199.929 129.186C202.661 132.682 206.096 135.566 210.011 137.652C213.926 139.739 218.235 140.981 222.659 141.3C227.084 141.619 231.527 141.007 235.701 139.503C239.874 137.999 243.687 135.637 246.891 132.57C252.019 127.668 255.287 121.138 256.136 114.095C256.985 107.052 255.363 99.9329 251.547 93.9528V93.9552Z" fill="#00F3B3"/>
<path d="M117.641 118.854C134.907 120.813 152.45 122.694 169.689 124.921C171.682 107.493 173.383 90.2707 175.375 72.8396L122.969 66.5559C121.193 83.9898 119.417 101.422 117.641 118.854Z" fill="#00F3B3"/>
<path d="M205.455 0.176025L182.615 62.0771C182.615 62.0771 225.851 55.9125 246.872 52.549C237.285 39.879 215.04 12.846 205.455 0.176025Z" fill="#00F3B3"/>
<path d="M193.208 146.972C192.901 146.758 192.545 146.627 192.172 146.59C191.8 146.554 191.424 146.613 191.082 146.763C187.107 147.947 184.283 151.663 180.317 152.878C178.254 153.381 176.121 153.53 174.009 153.318C169.998 153.145 166.416 152.896 162.405 152.721C163.568 152.269 164.628 151.587 165.523 150.718C166.075 150.237 166.477 149.608 166.683 148.906C166.779 148.554 166.765 148.182 166.643 147.838C166.522 147.494 166.298 147.195 166.003 146.981C165.594 146.821 165.153 146.758 164.715 146.799C164.278 146.839 163.856 146.982 163.483 147.215L158.341 149.443C155.984 150.306 153.796 151.576 151.878 153.196C148.189 156.707 147.227 162.646 142.821 165.203C131.713 171.64 120.888 177.644 109.306 183.17C94.4541 169.547 80.5343 154.942 67.6413 139.451C65.1108 136.411 62.5255 133.132 61.9445 129.218C61.7021 126.753 61.9213 124.265 62.5908 121.88C63.5116 118.585 64.602 115.34 65.8575 112.157C68.6179 111.933 71.3342 111.329 73.9296 110.363C77.6256 108.986 81.198 106.715 83.0296 103.221C83.8994 101.471 84.405 99.5633 84.516 97.6126C84.4785 97.5829 84.4363 97.5595 84.3911 97.5437L84.3678 97.6604C84.2267 97.6604 84.3585 97.5565 84.2278 97.4818L84.2488 97.6359L83.9781 97.5962L84.0271 97.5775C83.9338 97.56 83.823 97.5658 83.8055 97.6405C83.8055 97.5705 83.8405 97.5238 83.7226 97.4947C83.6771 97.6627 83.4987 97.6324 83.326 97.6114C83.3353 97.5916 83.277 97.5588 83.326 97.5425C82.9095 97.6498 82.8301 97.2066 82.4195 97.3209L82.43 97.3023C82.1967 97.1086 82.031 97.238 81.7778 97.0268L81.7568 97.1133C81.6211 97.0253 81.4645 96.975 81.303 96.9674L81.3333 96.9464L81.2248 96.9126L81.2376 96.8951C81.184 96.9033 81.1 96.8332 80.9915 96.8484L81.0043 96.8309C80.9817 96.8046 80.9525 96.7849 80.9197 96.7736C80.8869 96.7623 80.8516 96.76 80.8176 96.7668L80.785 96.6699C80.5785 96.6886 80.3941 96.4552 80.2016 96.503H80.1818H80.1981C79.8841 96.3893 79.5829 96.2426 79.2998 96.0655C79.0632 95.9612 78.8441 95.8211 78.65 95.6502C78.4749 95.4678 78.2886 95.2963 78.0923 95.1368C77.432 94.7868 77.0353 94.7601 76.6526 94.2281C76.5454 94.1074 76.4753 93.9583 76.4508 93.7987C76.4578 93.6097 76.6841 93.4872 77.5008 93.6821C77.5289 93.7588 77.5757 93.8274 77.6367 93.8817C77.6978 93.9361 77.7713 93.9745 77.8508 93.9935L77.8695 93.9002C77.9348 94.0169 78.0562 94.0391 78.1588 94.0822C78.2568 94.0472 78.1471 93.9516 78.2906 93.9656L78.5823 94.1488C78.5403 94.1849 78.4458 94.1079 78.4318 94.1849C78.4715 94.1639 78.6185 94.2561 78.6511 94.1686L78.6009 94.2502C78.6546 94.2502 78.6418 94.3272 78.6908 94.3575C78.7281 94.3575 78.7666 94.3319 78.7211 94.2852C78.8378 94.3214 79.0338 94.3284 79.0711 94.4357C79.168 94.4964 79.0886 94.5524 79.077 94.6341C79.0973 94.6388 79.1186 94.6386 79.1388 94.6335C79.1591 94.6285 79.1779 94.6187 79.1937 94.6049L79.1738 94.5489C79.1995 94.5723 79.2018 94.5909 79.1937 94.6049L79.1994 94.6211L79.273 94.5944C79.4072 94.8149 79.7245 94.6935 79.8248 94.9058C79.7735 94.8942 79.7081 94.8172 79.6673 94.8872L79.8202 94.9525C79.7513 94.9374 79.6778 94.9525 79.672 95.0155C79.9088 95.0699 80.1425 95.1374 80.3719 95.2174C80.3299 95.3201 80.526 95.3177 80.5738 95.4343C80.5716 95.4272 80.5709 95.4196 80.5719 95.4121C80.5729 95.4047 80.5756 95.3975 80.5797 95.3912C80.5447 95.3644 80.5399 95.3399 80.6333 95.3609C80.6333 95.3667 80.6333 95.3714 80.6274 95.3761C80.6474 95.374 80.6667 95.3671 80.6835 95.3562C80.729 95.4273 80.7091 95.4438 80.6718 95.4368C80.722 95.4613 80.7814 95.4775 80.7091 95.5137C80.8258 95.614 80.9098 95.4752 80.9985 95.4811C81.1295 95.556 81.2684 95.6163 81.4127 95.6608H81.38C81.4266 95.7051 81.4057 95.8066 81.5247 95.8334C81.7498 95.5499 81.8128 95.9418 82.0975 95.9383C82.1091 95.8217 82.2142 95.9162 82.2352 95.8298C82.4277 96.0258 82.682 95.9034 82.9176 96.0632H82.9013C82.9456 96.1671 83.1451 96.1624 83.2279 96.1064C83.1661 96.1729 83.2875 96.2393 83.2198 96.2918C83.3062 96.2008 83.5243 96.3246 83.5243 96.3246C83.5395 96.4412 83.7425 96.3864 83.8335 96.4902L84.0108 96.3945L83.9373 96.4715C84.0166 96.4774 84.0143 96.5462 83.9746 96.5765C84.005 96.5998 84.0295 96.5765 84.0855 96.5765L84.0446 96.6419C84.131 96.6979 84.2126 96.5322 84.1333 96.5252C84.3724 96.3712 84.2231 96.6523 84.4296 96.5473L84.5125 96.4039L84.4856 96.4518C84.5126 96.4448 84.5412 96.4476 84.5662 96.4599C84.6233 94.7682 84.5265 93.0509 84.4203 91.3744C84.3472 90.217 84.2733 89.0589 84.1986 87.9C85.2105 87.9583 86.2256 87.8699 87.2122 87.6375C87.537 87.5807 87.8437 87.4476 88.107 87.249C88.2991 87.0581 88.4385 86.8205 88.5113 86.5596C88.5841 86.2986 88.5879 86.0232 88.5223 85.7604C88.3845 85.2367 88.1563 84.7412 87.848 84.2962L85.3875 80.2771C84.6629 79.1606 84.029 77.9878 83.4916 76.7701L83.4753 76.5099C83.3468 73.6031 83.0479 70.7064 82.5805 67.8345C81.1805 60.1684 76.7588 52.2257 69.4053 49.6427C65.8542 48.3974 62.1276 47.7252 58.3652 47.6513C55.9086 47.5762 53.4533 47.84 51.0688 48.4353C47.883 49.2952 44.9331 50.8647 42.4401 53.0266C39.947 55.1885 37.9755 57.8865 36.6733 60.9186C34.7821 65.4137 34.4473 70.4724 32.3251 74.8626C29.58 80.5419 24.2215 84.4094 19.2585 88.3084C14.2955 92.2074 9.2882 96.7795 7.79603 102.909C7.30775 105.002 7.20138 107.166 7.48215 109.297C7.83034 112.312 8.88875 115.202 10.5704 117.729C12.2521 120.256 14.5091 122.348 17.1561 123.833C19.8396 125.255 22.871 125.886 25.8988 125.655C28.9266 125.423 31.8267 124.338 34.263 122.526C24.5867 138.208 19.7963 156.389 16.8295 174.576C13.8627 192.764 12.2725 211.219 7.71898 229.075C5.26898 238.696 2.26599 248.154 -0.0136719 257.819H85.3653C83.9653 245.461 83.025 233.093 81.632 220.734C84.9623 215.861 87.96 210.768 90.6048 205.491L89.5863 204.826C89.5228 204.826 89.4614 204.803 89.4136 204.761C87.9739 204.131 86.8015 202.712 85.4342 202.04C84.2697 201.427 83.1724 200.694 82.1605 199.853C81.5106 199.344 80.8771 199.08 80.2775 198.57L80.1526 198.38C80.0374 198.352 79.9306 198.297 79.8412 198.219C79.9438 198.26 79.8563 198.163 79.8225 198.108L79.6148 198.026C79.6311 197.886 79.0571 197.862 79.1073 197.735L79.0956 197.618C77.74 196.346 75.8675 195.279 74.3485 193.991C74.1092 193.631 73.8428 193.29 73.5517 192.971L73.4793 193.067C73.1923 192.879 73.4793 192.942 73.232 192.686L73.2436 192.88L72.707 192.474L72.8085 192.521C72.6253 192.374 72.4048 192.232 72.357 192.288C72.3698 192.211 72.4457 192.206 72.2158 192.012C72.0992 192.142 71.7491 191.869 71.4202 191.624C71.44 191.613 71.3291 191.497 71.433 191.547C70.5988 191.144 70.4681 190.517 69.6585 190.126L69.6795 190.115C69.235 189.577 68.9013 189.532 68.3962 188.961L68.36 189.048C68.0914 188.771 67.7933 188.524 67.471 188.311L67.5258 188.32L67.3147 188.146L67.3357 188.135C67.2342 188.082 67.065 187.889 66.8597 187.785L66.8807 187.776C66.7817 187.647 66.6533 187.544 66.5062 187.475L66.428 187.308C66.0302 187.097 65.6312 186.564 65.2707 186.411L65.2368 186.392L65.266 186.406C64.6721 185.9 64.0176 185.356 63.4425 184.803C62.5254 183.972 61.6524 183.093 60.8268 182.17C59.7093 181.34 58.6719 180.408 57.7281 179.385C57.7281 179.385 55.6853 177.066 58.9788 179.269C59.1974 179.605 59.4825 179.892 59.8165 180.113L59.8025 179.981C59.9918 180.204 60.2104 180.401 60.4523 180.565C60.6192 180.608 60.3625 180.337 60.6402 180.502L61.2911 181.104C61.2281 181.118 61.0088 180.895 61.0205 181.005C61.087 181.014 61.4125 181.314 61.4335 181.208L61.3774 181.287C61.4813 181.343 61.4941 181.453 61.6038 181.552C61.6726 181.582 61.738 181.589 61.6272 181.468C61.9089 181.631 62.1635 181.837 62.382 182.078C62.599 182.276 62.4707 182.282 62.4835 182.392C62.5547 182.444 62.6842 182.503 62.7063 182.476L62.6433 182.368C62.7028 182.432 62.7157 182.463 62.7063 182.476L62.725 182.508L62.8591 182.546C63.2091 183.044 63.7925 183.212 64.0702 183.654C63.9617 183.577 63.8088 183.388 63.7505 183.445L64.0771 183.719C63.9348 183.617 63.7971 183.559 63.8076 183.647C64.2801 184.023 64.734 184.291 65.2847 184.759C65.2334 184.861 65.623 185.094 65.7513 185.322C65.7373 185.286 65.7385 185.27 65.7513 185.267C65.6743 185.186 65.6568 185.143 65.8505 185.286C65.8423 185.286 65.8504 185.297 65.8435 185.303C65.8767 185.322 65.9131 185.335 65.9508 185.342C66.0617 185.501 66.0243 185.499 65.9508 185.445C66.057 185.542 66.1841 185.637 66.0465 185.602C66.3055 185.889 66.4397 185.792 66.6217 185.911C66.9049 186.182 67.2024 186.438 67.513 186.677L67.4465 186.642C67.5538 186.759 67.5305 186.875 67.7743 187.064C68.1885 186.966 68.3822 187.591 68.9643 187.957C68.9748 187.816 69.1977 188.081 69.2385 187.994C69.6643 188.503 70.194 188.685 70.691 189.226L70.6559 189.21C70.8315 189.444 71.0709 189.622 71.3455 189.723C71.2148 189.723 71.4621 189.972 71.3233 189.941C71.5088 189.951 71.972 190.408 71.972 190.408C72 190.565 72.4282 190.794 72.6078 191.047L72.9928 191.192L72.8283 191.174C72.9939 191.291 72.9812 191.373 72.8925 191.351C72.9543 191.422 73.0091 191.428 73.1258 191.506L73.0289 191.521C73.2028 191.708 73.4 191.638 73.2343 191.521C73.764 191.694 73.4012 191.796 73.8596 191.974L73.9973 191.949C74.4523 192.208 74.0241 192.213 74.4955 192.458L74.4605 192.527C74.5772 192.599 74.6774 192.684 74.6938 192.587C75.0613 192.914 75.4591 193.339 75.7263 193.622C75.9771 193.794 75.6784 193.496 75.8301 193.541C76.1521 193.657 76.1522 193.82 76.354 194.029L76.3377 193.919L76.7787 194.309H76.6748L76.9793 194.56C77.096 194.588 76.9641 194.49 76.8801 194.393C77.201 194.672 77.6117 194.715 77.8637 195.093L77.7773 195.12C77.7948 195.106 77.7446 195.065 77.7096 195.05C77.3013 194.882 77.9126 195.301 77.8951 195.357C78.048 195.357 78.3023 195.65 78.51 195.646C79.0082 196.235 79.6265 196.394 80.0267 196.813C79.8727 196.773 80.1433 196.965 80.0967 197.007C80.2693 197.199 80.302 197.045 80.4746 197.196L80.5785 197.403C81.0965 197.598 80.7908 197.729 81.2423 197.979C81.5923 198.066 81.8035 198.516 82.2865 198.695L82.255 198.766C82.605 198.935 82.6773 199.17 82.955 199.312C82.976 199.423 82.8698 199.302 82.822 199.387C83.1148 199.516 82.6622 199.472 82.8827 199.523C83.1907 199.854 83.788 199.764 84.1217 200.025C84.5638 200.184 84.712 200.657 84.8847 200.55L84.7014 200.405L85.2241 200.748L85.1985 200.814C85.5141 201.045 85.8495 201.248 86.2007 201.42C86.1948 201.42 86.21 201.441 86.217 201.461C86.5168 201.593 86.5355 201.718 86.8365 201.785H86.7922C87.5191 202.122 88.2138 202.523 88.8677 202.986C88.8327 203.085 89.2351 203.294 89.5256 203.453C89.505 203.437 89.4806 203.427 89.4548 203.424C89.4291 203.422 89.4032 203.426 89.3798 203.437C89.8278 203.577 90.116 204.053 90.585 204.191H90.5628C90.7311 204.31 90.9063 204.418 91.0878 204.515C91.1053 204.477 91.1251 204.44 91.1426 204.399C95.8466 207.501 100.243 210.799 105.6 212.565C108.253 213.439 111.122 214.148 113.811 213.395C116.5 212.641 118.594 210.528 120.539 208.504L155.163 172.465C157.821 169.211 161.504 166.956 165.611 166.07C172.138 164.048 179.511 163.474 185.123 159.578C188.717 157.073 191.534 153.608 193.25 149.578C193.619 148.725 193.882 147.611 193.208 146.972Z" fill="#75787B"/>
<path d="M79.1794 94.5547L79.1992 94.6108C79.2074 94.5968 79.2051 94.578 79.1794 94.5547Z" fill="#202020"/>
<path d="M78.0944 95.144C78.2907 95.3034 78.4769 95.4749 78.652 95.6574C78.8461 95.8283 79.0653 95.9683 79.3019 96.0726C79.585 96.2498 79.8862 96.3964 80.2002 96.5101C80.3939 96.4623 80.5782 96.6957 80.7836 96.6771L80.8162 96.7739C80.8502 96.7671 80.8854 96.7695 80.9182 96.7807C80.951 96.792 80.9802 96.8117 81.0029 96.838L80.9901 96.8555C81.0986 96.8403 81.1826 96.9104 81.2362 96.9022L81.2234 96.9197L81.3319 96.9535L81.3015 96.9746C81.463 96.9821 81.6197 97.0324 81.7554 97.1204L81.7764 97.034C82.0296 97.2451 82.1987 97.1157 82.4285 97.3094L82.4181 97.328C82.8287 97.2114 82.908 97.657 83.3245 97.5496C83.272 97.566 83.3304 97.5987 83.3245 97.6186C83.4972 97.6337 83.6746 97.664 83.7212 97.5018C83.8379 97.5333 83.804 97.5776 83.804 97.6476C83.8215 97.573 83.9324 97.5672 84.0257 97.5847L83.9767 97.6033L84.2474 97.6431L84.2264 97.489C84.357 97.5636 84.2264 97.6699 84.3664 97.6676L84.3897 97.5509C84.4349 97.5668 84.4771 97.59 84.5146 97.6197C84.5449 97.2409 84.5663 96.8598 84.5787 96.4764C84.5537 96.4642 84.5252 96.4612 84.4982 96.4681L84.525 96.4203L84.4422 96.5638C84.2357 96.6688 84.3851 96.3876 84.1459 96.5416C84.2252 96.5416 84.1459 96.7132 84.0572 96.6584L84.0981 96.593C84.0421 96.593 84.0175 96.621 83.9872 96.593C84.0269 96.5627 84.0292 96.4939 83.9499 96.4881L84.0234 96.411L83.8461 96.5067C83.7551 96.4029 83.552 96.46 83.5369 96.341C83.5369 96.341 83.3187 96.2173 83.2324 96.3083C83.3001 96.2558 83.1787 96.1918 83.2406 96.1229C83.1577 96.1789 82.9582 96.1835 82.9139 96.0796H82.9303C82.6969 95.9198 82.4402 96.0423 82.2477 95.8463C82.2267 95.9327 82.1217 95.8382 82.1101 95.9549C81.8254 95.9549 81.76 95.5664 81.5372 95.8499C81.4205 95.8231 81.4392 95.7215 81.3925 95.6772H81.4252C81.281 95.6327 81.1421 95.5725 81.0111 95.4976C80.9224 95.4917 80.8384 95.6305 80.7217 95.5302C80.7941 95.494 80.7345 95.4776 80.6844 95.4531C80.7217 95.4601 80.7415 95.4438 80.696 95.3727C80.6792 95.3837 80.6601 95.3904 80.6401 95.3925C80.6401 95.3925 80.6401 95.3832 80.6459 95.3774C80.5526 95.3564 80.5572 95.3774 80.5922 95.4077C80.5881 95.414 80.5855 95.4212 80.5845 95.4286C80.5835 95.4361 80.5841 95.4437 80.5864 95.4509C80.5385 95.3342 80.3426 95.3342 80.3846 95.2338C80.1551 95.1537 79.9214 95.0864 79.6845 95.032C79.6904 94.9702 79.7639 94.9539 79.8327 94.9691L79.6799 94.9037C79.7231 94.8337 79.7861 94.9107 79.8374 94.9224C79.7371 94.71 79.4197 94.8314 79.2856 94.6109L79.2121 94.6377L79.2062 94.6213C79.1905 94.6351 79.1717 94.645 79.1514 94.6501C79.1311 94.6551 79.1099 94.6552 79.0895 94.6505C79.1012 94.5712 79.1805 94.5129 79.0837 94.4522C79.0463 94.3449 78.8504 94.3355 78.7337 94.3017C78.7792 94.3484 78.7407 94.3694 78.7034 94.3741C78.6544 94.3437 78.6672 94.2667 78.6136 94.2667L78.6637 94.1851C78.631 94.2726 78.484 94.185 78.4444 94.2013C78.4584 94.1243 78.5529 94.2013 78.5949 94.1651L78.3032 93.982C78.1597 93.9727 78.2694 94.0683 78.1714 94.0986C78.0687 94.0555 77.9474 94.0391 77.8821 93.9166L77.8634 94.01C77.7839 93.991 77.7103 93.9526 77.6493 93.8982C77.5882 93.8439 77.5415 93.7753 77.5134 93.6986C76.6967 93.5003 76.4715 93.6227 76.4634 93.8152C76.4879 93.9748 76.5579 94.1238 76.6652 94.2445C77.0373 94.7718 77.4341 94.7893 78.0944 95.144Z" fill="#202020"/>
<path d="M62.7156 182.481C62.7249 182.468 62.7156 182.436 62.6526 182.373L62.7156 182.481Z" fill="#202020"/>
<path d="M65.2804 186.415L65.2512 186.401L65.2804 186.415Z" fill="#202020"/>
<path d="M90.5649 204.193H90.5871C90.1204 204.056 89.8299 203.58 89.3819 203.44C89.4053 203.429 89.4312 203.424 89.4569 203.427C89.4827 203.43 89.5071 203.439 89.5277 203.455C89.2372 203.297 88.8347 203.089 88.8697 202.988C88.2158 202.526 87.5211 202.124 86.7942 201.788H86.8386C86.5376 201.72 86.5189 201.595 86.2191 201.464C86.2121 201.444 86.1969 201.425 86.2028 201.423C85.8516 201.25 85.5162 201.047 85.2006 200.816L85.2262 200.751L84.7036 200.408L84.8867 200.552C84.714 200.66 84.5659 200.186 84.1237 200.027C83.79 199.766 83.1904 199.857 82.8848 199.526C82.6643 199.474 83.1181 199.519 82.8241 199.389C82.8719 199.304 82.978 199.425 82.957 199.314C82.6805 199.172 82.6071 198.938 82.2571 198.768L82.2885 198.697C81.8055 198.519 81.5886 198.068 81.2444 197.981C80.7929 197.731 81.0986 197.601 80.5806 197.406L80.4767 197.198C80.3041 197.048 80.2714 197.198 80.0988 197.009C80.1489 196.967 79.8747 196.776 80.0287 196.816C79.6332 196.392 79.0149 196.232 78.512 195.649C78.3044 195.649 78.0454 195.361 77.8972 195.359C77.9147 195.303 77.3034 194.885 77.7117 195.053C77.7467 195.068 77.7969 195.109 77.7794 195.123L77.8658 195.096C77.6138 194.72 77.2031 194.677 76.8822 194.396C76.9662 194.493 77.1015 194.591 76.9814 194.563L76.6769 194.312H76.7807L76.3397 193.921L76.3561 194.032C76.1543 193.823 76.1542 193.658 75.8322 193.543C75.6805 193.499 75.9792 193.796 75.7284 193.625C75.4612 193.341 75.0634 192.916 74.6959 192.59C74.6761 192.687 74.5792 192.601 74.4625 192.529L74.4976 192.46C74.0309 192.215 74.4544 192.211 73.9994 191.952L73.8618 191.976C73.4033 191.799 73.7661 191.696 73.2364 191.523C73.4021 191.64 73.2049 191.714 73.0311 191.523L73.1279 191.508C73.0112 191.43 72.9552 191.424 72.8945 191.353C72.9832 191.375 72.9961 191.298 72.8304 191.177L72.9949 191.195L72.6099 191.05C72.4303 190.797 72.002 190.568 71.974 190.411C71.974 190.411 71.5074 189.959 71.3254 189.944C71.4689 189.974 71.2169 189.722 71.3476 189.726C71.073 189.625 70.8336 189.446 70.6581 189.212L70.6931 189.229C70.1961 188.687 69.6664 188.505 69.2406 187.997C69.2044 188.083 68.9769 187.818 68.9664 187.959C68.383 187.593 68.1906 186.969 67.7764 187.067C67.5326 186.877 67.5559 186.763 67.4486 186.644L67.5151 186.68C67.2045 186.44 66.9069 186.184 66.6237 185.913C66.4417 185.796 66.3076 185.892 66.0486 185.605C66.1839 185.64 66.0591 185.544 65.9529 185.447C66.0276 185.501 66.0696 185.503 65.9529 185.345C65.9152 185.338 65.8789 185.324 65.8456 185.305C65.8456 185.299 65.8456 185.292 65.8526 185.289C65.6589 185.145 65.6764 185.188 65.7534 185.269C65.7417 185.269 65.7406 185.289 65.7534 185.325C65.6239 185.092 65.2342 184.858 65.2867 184.761C64.7361 184.295 64.2822 184.025 63.8097 183.65C63.7992 183.561 63.9369 183.619 64.0793 183.722L63.7526 183.448C63.8109 183.391 63.9638 183.58 64.0723 183.657C63.7899 183.214 63.2112 183.047 62.8612 182.548L62.7271 182.511L62.7084 182.478C62.6863 182.505 62.5567 182.447 62.4856 182.394C62.4727 182.285 62.6022 182.278 62.3841 182.081C62.1656 181.839 61.9109 181.633 61.6292 181.47C61.74 181.587 61.6748 181.587 61.6059 181.554C61.4963 181.455 61.4892 181.346 61.3796 181.29L61.4356 181.21C61.4146 181.316 61.0856 181.016 61.0226 181.007C61.0109 180.897 61.2303 181.124 61.2933 181.106L60.6423 180.504C60.3646 180.34 60.6213 180.611 60.4544 180.567C60.2125 180.403 59.9939 180.207 59.8046 179.984L59.8185 180.116C59.4845 179.894 59.1995 179.607 58.9809 179.271C55.6874 177.065 57.7302 179.388 57.7302 179.388C58.674 180.411 59.7114 181.343 60.8289 182.173C61.6545 183.095 62.5276 183.974 63.4446 184.806C64.0197 185.359 64.6742 185.902 65.2681 186.409C65.6286 186.562 66.0276 187.095 66.4254 187.306L66.5036 187.473C66.6507 187.542 66.7792 187.645 66.8781 187.774L66.8571 187.783C67.0624 187.89 67.2316 188.083 67.3331 188.133L67.3121 188.144L67.5232 188.317L67.4684 188.309C67.7907 188.522 68.0888 188.768 68.3574 189.045L68.3936 188.959C68.9046 189.533 69.2382 189.575 69.6769 190.113L69.6559 190.123C70.4655 190.514 70.5962 191.142 71.4304 191.544C71.3265 191.494 71.4374 191.611 71.4176 191.621C71.7501 191.866 72.0977 192.139 72.2132 192.01C72.4466 192.204 72.3673 192.208 72.3544 192.285C72.4023 192.226 72.6227 192.368 72.8059 192.519L72.7044 192.472L73.241 192.878L73.2294 192.684C73.4814 192.94 73.1897 192.877 73.4767 193.065L73.5491 192.969C73.8402 193.288 74.1066 193.629 74.3459 193.989C75.8626 195.272 77.7374 196.344 79.0931 197.616L79.1047 197.733C79.0545 197.86 79.6285 197.884 79.6122 198.024L79.8199 198.106C79.8538 198.161 79.9366 198.257 79.8386 198.217C79.928 198.294 80.0348 198.35 80.15 198.378L80.2749 198.568C80.8746 199.08 81.508 199.344 82.1579 199.851C83.1699 200.692 84.2671 201.425 85.4316 202.037C86.7989 202.709 87.9714 204.129 89.4111 204.759C89.4589 204.801 89.5202 204.824 89.5837 204.824L90.6023 205.488C90.7621 205.162 90.9254 204.84 91.0818 204.511C90.9033 204.415 90.7307 204.309 90.5649 204.193Z" fill="#202020"/>
<path d="M217.168 24.4299C217.317 24.7138 217.486 24.9867 217.674 25.2465C217.551 24.9484 217.381 24.6725 217.168 24.4299Z" fill="white"/>
<path d="M217.165 24.4219L217.173 24.4323L217.165 24.4219Z" fill="white"/>
<path d="M221.109 38.8045C220.863 37.5639 220.293 36.4104 219.456 35.4619C218.608 34.5404 217.541 33.8493 216.353 33.453C215.46 33.148 214.534 32.9521 213.594 32.8696C213.085 32.7576 212.569 32.6859 212.049 32.655C212.305 32.7017 212.212 32.7448 212.013 32.7285C210.635 32.6387 211.904 32.7716 210.536 32.7203C209.155 32.7249 207.786 32.4656 206.503 31.9562C205.861 31.6641 205.293 31.2324 204.839 30.6927C204.576 30.3789 204.391 30.0081 204.297 29.6099C204.103 29.0716 204.089 28.4854 204.254 27.9381L204.264 27.9999C204.337 27.7036 204.448 27.4178 204.593 27.1494C204.706 26.9377 204.833 26.734 204.973 26.5393L205.09 26.3842L205.198 26.2674C205.259 26.1869 205.369 26.0994 205.451 26.0131C205.86 25.6619 206.303 25.3536 206.775 25.0926C207.21 24.8465 207.581 24.6761 207.765 24.5851L207.658 24.6178C208.004 24.4262 208.386 24.307 208.78 24.2678C208.674 24.1779 209.233 23.9435 209.449 23.8945V23.9213C209.608 23.8793 209.867 23.8047 210.138 23.7534C210.273 23.7309 210.409 23.718 210.545 23.7148C210.694 23.7111 210.844 23.7178 210.992 23.7347L210.963 23.7941C211.526 23.827 212.079 23.9589 212.596 24.1837C213.485 24.63 214.296 25.218 214.996 25.9245C215.097 26.1248 215.186 26.3304 215.264 26.5404C215.289 26.5606 215.312 26.5821 215.334 26.6047C215.732 26.5345 216.122 26.4294 216.501 26.2908C217.061 26.0714 217.63 25.6678 217.249 24.7648L217.317 24.7497C217.24 24.6517 217.161 24.5548 217.076 24.465C216.811 24.1022 216.609 24.0135 216.675 23.9902C216.818 24.1349 216.948 24.2923 217.08 24.4486C216.8 24.0986 217.03 24.3109 217.17 24.4194L216.846 24.0053C216.766 23.9586 216.874 24.0695 216.91 24.1313C216.726 23.9703 216.454 23.7673 216.253 23.555C215.913 23.2446 216.305 23.4512 215.891 23.1047C214.794 22.1961 213.506 21.5479 212.122 21.2088C211.776 21.1257 211.426 21.0629 211.073 21.021C211.049 20.9288 211.016 20.8395 210.972 20.7549C211.036 20.7071 211.013 20.657 211.027 20.6138C211.001 20.6406 210.951 20.6394 210.951 20.6219C210.943 20.5053 210.902 20.622 210.856 20.5053C210.779 20.2399 210.764 19.9606 210.812 19.6887C210.696 19.635 210.767 19.5405 210.696 19.4845H210.721C210.674 19.4191 210.712 19.0062 210.664 18.9292L210.651 18.942C210.578 18.879 210.691 18.8731 210.718 18.8124C210.683 18.8228 210.646 18.8236 210.611 18.8145C210.576 18.8055 210.545 18.787 210.52 18.7611H210.545C210.521 18.7285 210.41 18.6632 210.387 18.6072L210.449 18.6002C210.376 18.5605 210.391 18.466 210.379 18.4321C210.395 18.3481 210.487 18.2105 210.389 18.1148L210.558 18.0214L210.539 18.0133C209.661 18.0741 208.789 18.2044 207.932 18.403L207.869 18.4099L207.882 18.4368C207.855 18.4742 207.929 18.48 207.866 18.4858V18.4391C207.852 18.4753 207.816 18.4567 207.779 18.4485C207.776 18.4657 207.766 18.4811 207.752 18.4917C207.777 18.4917 207.777 18.4834 207.79 18.4764C207.814 18.4916 207.877 18.508 207.851 18.5348C207.851 18.5698 207.75 18.5499 207.749 18.5919C207.711 18.8049 207.705 19.0222 207.729 19.2371C207.723 19.2406 207.717 19.2425 207.71 19.2425C207.704 19.2425 207.697 19.2406 207.692 19.2371C207.728 19.2989 207.725 19.3538 207.762 19.4121C207.734 19.4298 207.704 19.4427 207.673 19.4506C207.723 19.4331 207.774 19.7668 207.762 19.7738L207.878 19.7622C207.889 19.8263 207.752 19.7983 207.787 19.8532C207.951 19.8532 207.787 19.9535 207.872 19.9617C207.86 19.9617 207.858 19.9932 207.808 19.9979C207.896 19.9979 207.833 20.0246 207.857 20.0397C207.882 20.0549 207.883 20.0317 207.907 20.0224L207.944 20.0597C207.918 20.0807 207.868 20.0911 207.856 20.0748C207.829 20.327 207.84 20.5819 207.889 20.8309C207.952 20.8075 207.903 20.7771 208.005 20.7491C208.067 20.7724 207.991 20.7981 208.054 20.8028C207.903 20.8355 208.027 20.8763 207.876 20.9194H207.963L207.912 20.9428C208.022 21.0665 207.961 20.9672 207.956 21.0909C207.98 21.1586 208.105 21.175 208.066 21.2205C208.076 21.212 208.088 21.2063 208.102 21.2038C208.115 21.2014 208.128 21.2022 208.141 21.2064C208.066 21.2204 208.203 21.2472 208.127 21.2671C208.135 21.2776 208.14 21.3068 208.171 21.3149C208.036 21.3534 207.9 21.3944 207.767 21.4317C207.699 21.4317 207.767 21.4037 207.843 21.3663C207.109 21.6198 206.398 21.938 205.72 22.3171C205.614 22.3626 205.501 22.3891 205.386 22.3953C204.787 22.7762 204.212 23.1923 203.662 23.6413C203.43 23.8391 203.212 24.0533 203.011 24.2819C202.831 24.4848 202.665 24.6991 202.513 24.9234C202.257 25.2921 202.11 25.5674 202.097 25.5814L202.169 25.6876C201.77 26.488 201.919 25.8533 201.618 26.6467C201.59 26.9408 201.524 27.2301 201.423 27.5076C201.33 27.7849 201.285 28.0762 201.291 28.3686C201.273 28.3581 201.243 28.8003 201.2 28.7735C201.282 28.91 201.217 29.2402 201.274 29.5213C201.31 29.6228 201.291 29.4431 201.31 29.3638C201.339 29.5799 201.38 29.7942 201.434 30.0055C201.459 30.261 201.434 30.3368 201.354 30.0638C201.506 30.8198 201.811 31.5367 202.251 32.1697C202.882 33.0656 203.707 33.8071 204.665 34.3385C205.561 34.8415 206.533 35.1959 207.542 35.3884C208.158 35.5126 208.782 35.5949 209.409 35.6346C209.236 35.5553 208.792 35.553 208.635 35.4259C208.875 35.4508 209.116 35.4632 209.356 35.4632C209.487 35.6335 210.16 35.5658 210.418 35.7362L210.527 35.6556L210.699 35.7198C211.475 35.7198 211.552 35.7116 211.618 35.7198C211.685 35.728 211.735 35.7431 212.373 35.8014C212.859 35.787 213.345 35.8152 213.826 35.8854C213.771 35.8738 213.625 35.798 213.81 35.805C213.827 35.8831 214.291 35.8376 214.359 35.9356C214.533 35.9601 215.059 36.1177 214.907 35.9672C214.988 36.0395 215.432 36.2144 215.148 36.1666C215.279 36.222 215.414 36.2693 215.551 36.3078L215.372 36.2086C215.883 36.3847 216.082 36.5889 216.409 36.6753C216.365 36.629 216.319 36.585 216.27 36.5434C216.537 36.6892 216.745 36.8328 216.768 36.9845C216.687 36.9296 216.594 36.8852 216.51 36.8351C216.82 37.0531 217.114 37.2937 217.389 37.555L217.3 37.4487C217.766 37.8789 218.109 38.4254 218.293 39.032C218.489 39.6651 218.596 40.3223 218.61 40.9849L218.716 40.7516C218.716 40.9045 218.733 41.0608 218.733 41.2183C218.747 41.1623 218.5 40.964 218.53 40.9267C218.492 41.3683 218.395 41.8026 218.241 42.2181C217.989 42.8683 217.613 43.4629 217.132 43.9681C216.635 44.488 216.053 44.9196 215.411 45.2444C215.007 45.4563 214.578 45.6178 214.135 45.7252C213.766 45.7859 214.038 45.6201 214.037 45.6084C213.613 45.7496 213.871 45.7391 213.497 45.8161C213.392 45.8161 213.507 45.7543 213.561 45.7275C213.4 45.7683 213.244 45.7613 213.238 45.8021C213.447 45.8021 213.377 45.9106 213.477 45.9596C213.311 45.9806 213.147 46.0133 212.981 46.0214L212.996 45.9562C212.761 46.0869 212.495 46.1503 212.226 46.1393C211.343 46.1235 210.467 45.9755 209.627 45.7006C209.756 45.6866 209.887 45.6965 210.012 45.7298C209.882 45.7016 209.755 45.6569 209.636 45.5967C209.815 45.7262 209.278 45.5244 209.424 45.6026C208.76 45.436 208.122 45.1806 207.527 44.8431C207.127 45.1025 206.711 45.3365 206.281 45.5432C205.668 45.8512 205.009 46.1113 204.96 46.1755C204.826 46.0728 204.697 45.9624 204.575 45.8453C204.73 46.0305 204.915 46.1882 205.123 46.3119L205.207 46.2641C205.653 46.5453 205.272 46.3808 205.705 46.6678C205.686 46.746 205.28 46.4928 204.939 46.2432C205.238 46.4765 205.523 46.7378 205.695 46.7541C205.978 46.9735 205.609 46.8101 205.961 47.0656C206.288 47.2091 206.606 47.3699 206.916 47.5474L206.904 47.5557C207.537 47.8703 208.197 48.1279 208.876 48.3256H208.787C209.213 48.4742 209.647 48.5977 210.088 48.6954C209.947 48.6522 209.834 48.5788 210.137 48.6266C210.707 48.7818 211.117 48.7806 211.546 48.8599C211.663 48.8506 211.78 48.8331 211.89 48.8167C211.909 48.9249 211.943 49.0302 211.989 49.1295C211.923 49.168 211.943 49.2123 211.927 49.2461C211.953 49.2251 212.004 49.2275 212.002 49.2461C212.002 49.3523 212.05 49.2462 212.089 49.3547C212.148 49.5889 212.145 49.8346 212.08 50.0674C212.188 50.1176 212.117 50.1992 212.187 50.2517H212.162C212.205 50.3112 212.142 50.6764 212.187 50.7476L212.201 50.7359C212.271 50.7943 212.158 50.7954 212.127 50.8526C212.162 50.8433 212.198 50.8433 212.232 50.8523C212.266 50.8613 212.298 50.8791 212.323 50.904H212.298C212.321 50.9343 212.427 50.9972 212.448 51.0474H212.385C212.456 51.0836 212.438 51.1711 212.448 51.2026C212.431 51.2785 212.331 51.4056 212.431 51.5001L212.26 51.59L212.28 51.597C212.28 51.597 212.821 51.5515 213.417 51.4803C213.914 51.4342 214.406 51.3482 214.889 51.2236L214.952 51.2177L214.94 51.1968C214.968 51.1676 214.894 51.1653 214.956 51.1595V51.1945C214.97 51.1665 215.007 51.1804 215.043 51.1851C215.048 51.171 215.058 51.1595 215.072 51.1525C215.047 51.1525 215.046 51.1595 215.033 51.1653C215.009 51.1537 214.948 51.142 214.975 51.1222C214.975 51.0953 215.075 51.1081 215.079 51.0766C215.127 50.9055 215.144 50.7276 215.131 50.5505C215.157 50.5435 215.156 50.5505 215.169 50.5505C215.136 50.498 215.141 50.4489 215.108 50.4023C215.137 50.3876 215.167 50.3774 215.199 50.3719C215.148 50.3859 215.117 50.1013 215.13 50.0955H215.014C215.007 50.0418 215.142 50.0686 215.109 50.0207C214.947 50.0149 215.119 49.9357 215.032 49.9252C215.045 49.9252 215.047 49.8994 215.098 49.8971C215.01 49.8971 215.075 49.8726 215.052 49.8598C215.029 49.847 215.026 49.8656 215 49.8726L214.966 49.8389C214.993 49.8225 215.044 49.8143 215.054 49.8295C215.098 49.6143 215.103 49.3932 215.072 49.1761C215.006 49.1936 215.054 49.2216 214.955 49.2426C214.894 49.2204 214.972 49.2007 214.91 49.1949C215.063 49.1715 214.942 49.1318 215.096 49.0992H215.009L215.06 49.0816C214.96 48.965 215.014 49.0582 215.026 48.9509C215.008 48.8902 214.884 48.8716 214.926 48.8343C214.914 48.8412 214.902 48.8456 214.888 48.8472C214.875 48.8488 214.862 48.8476 214.849 48.8437C214.926 48.8343 214.791 48.8051 214.868 48.7911C214.857 48.7771 214.868 48.7259 214.759 48.7515C214.811 48.7387 214.828 48.692 214.876 48.7153C214.876 48.699 214.892 48.6838 214.868 48.6745L214.841 48.6967C214.821 48.6465 214.899 48.6114 214.802 48.5858L214.763 48.608C214.753 48.5788 214.743 48.5531 214.845 48.5321L214.881 48.5613C214.879 48.5368 214.872 48.5131 214.858 48.4926C214.845 48.4721 214.826 48.4556 214.805 48.4446V48.4599L214.791 48.4482C215.877 48.1453 216.904 47.6566 217.824 47.0038C218.851 46.2679 219.705 45.3162 220.325 44.2155C220.757 43.4408 221.05 42.596 221.189 41.7199V41.8064C221.351 40.8097 221.324 39.7912 221.109 38.8045Z" fill="white"/>
<path d="M207.841 18.3656C207.774 18.3913 207.772 18.4205 207.764 18.4485C207.827 18.4193 207.852 18.3936 207.841 18.3656Z" fill="white"/>
<path d="M214.941 51.2552C215.007 51.2342 215.011 51.212 215.02 51.1898C214.956 51.2132 214.932 51.233 214.941 51.2552Z" fill="white"/>
<path d="M206.725 122.428C206.467 122.724 206.25 123.053 206.08 123.406C206.323 123.1 206.539 122.772 206.725 122.428Z" fill="white"/>
<path d="M206.729 122.422V122.415L206.721 122.428L206.729 122.422Z" fill="white"/>
<path d="M238.858 107.446C238.929 107.465 239.003 107.457 239.069 107.425C239.034 107.414 238.998 107.41 238.961 107.414C238.925 107.417 238.89 107.429 238.858 107.446Z" fill="white"/>
<path d="M247.599 112.674C247.574 112.602 247.51 112.511 247.532 112.422H247.542C247.574 112.209 247.425 112.115 247.458 111.919L247.479 111.938C247.502 111.867 247.445 111.74 247.465 111.616C247.458 111.651 247.421 111.686 247.406 111.616C247.425 111.474 247.381 111.383 247.406 111.276L247.342 111.185C247.298 110.701 247.005 108.801 246.941 108.317L246.951 108.334L246.751 106.836L246.634 106.009L246.485 105.068C246.493 104.811 246.482 104.554 246.452 104.299C246.446 104.44 246.406 104.415 246.397 104.321C246.326 103.638 246.359 104.299 246.262 103.647C246.223 103.461 246.188 103.094 246.125 102.696C245.578 102.929 244.875 103.234 244.259 103.465C244.128 103.516 244.014 103.554 243.909 103.591C243.944 103.525 243.982 103.461 244.025 103.4C243.964 103.459 243.911 103.527 243.869 103.601C243.731 103.645 243.606 103.683 243.484 103.718C243.411 103.743 243.337 103.764 243.261 103.781L243.129 103.812C242.961 103.951 242.695 103.973 242.518 104.082L242.532 104.058C242.336 104.152 241.123 104.452 240.881 104.557H240.917C240.717 104.673 240.72 104.579 240.542 104.608C240.591 104.684 240.425 104.79 240.351 104.819V104.8C240.25 104.847 240.03 104.999 239.858 105.069L239.85 105.022C239.685 105.112 239.51 105.184 239.329 105.237C238.993 105.296 238.668 105.406 238.365 105.563L238.096 105.532L238.071 105.559C238.129 105.843 238.21 106.122 238.311 106.394C238.471 106.82 238.704 107.259 238.957 107.34L238.97 107.386L239.04 107.348C239.135 107.332 239.157 107.264 239.168 107.311L239.052 107.357C239.144 107.332 239.093 107.381 239.07 107.421C239.106 107.408 239.143 107.401 239.18 107.4C239.192 107.376 239.16 107.387 239.143 107.383C239.184 107.348 239.236 107.281 239.303 107.277C239.397 107.243 239.338 107.346 239.447 107.308C240.031 107.119 240.644 106.976 241.267 106.766C241.288 106.781 241.267 106.786 241.255 106.8C241.439 106.721 241.606 106.674 241.778 106.601C241.815 106.603 241.849 106.618 241.875 106.644C241.861 106.634 241.964 106.592 242.108 106.543C242.086 106.577 242.068 106.615 242.044 106.647L242.036 106.633C241.414 107.575 241.308 108.197 240.734 109.054L240.764 108.943C240.546 109.238 240.253 109.894 239.891 110.441C239.997 110.286 240.124 110.173 239.944 110.522C239.532 111.155 239.328 111.629 239.004 112.079L238.817 112.58L238.717 112.759L238.653 112.884L238.517 112.735L236.417 109.828L233.071 105.185L233.141 105.262L225.248 94.2106C224.704 96.4482 224.178 98.6123 223.696 100.593L223.201 102.686L222.903 104.013C222.669 104.617 222.476 105.481 222.293 106.125C222.409 105.775 222.438 105.909 222.365 106.19C221.864 108.173 222.385 106.337 221.92 108.347C221.67 109.508 220.977 112.289 220.273 115.033C219.923 116.404 219.565 117.768 219.266 118.916L219.057 119.706L219.007 119.853C218.977 119.94 218.952 120.004 218.934 120.044C218.942 120.241 218.917 120.438 218.86 120.627C218.807 120.547 218.74 120.477 218.662 120.421L218.677 120.395C218.586 120.294 218.502 120.186 218.425 120.073L217.205 118.413C216.014 116.796 214.808 115.16 214.376 114.618L214.475 114.778C214.23 114.507 214.011 114.212 213.823 113.899C213.786 113.839 213.785 113.823 213.721 113.725L213.539 113.441C213.404 113.232 213.231 112.974 212.978 112.624C213.007 112.772 212.733 112.493 212.414 112.128C212.096 111.763 211.724 111.312 211.521 111.049L211.542 111.028L210.958 110.304L210.781 110.088C210.765 110.053 210.752 110.081 210.738 110.106L210.696 110.176L210.612 110.319L210.262 110.909C209.788 111.713 209.291 112.554 208.862 113.242L208.849 113.126C208.681 113.428 208.459 113.804 208.244 114.165L207.81 114.886C207.513 115.366 207.233 115.82 207.078 116.074C206.084 117.525 205.169 119.028 204.336 120.577L203.579 121.516L203.515 121.682C203.719 122.126 204.005 122.528 204.357 122.866C204.492 123.011 204.658 123.122 204.842 123.192C205.026 123.262 205.225 123.289 205.421 123.27C205.617 123.251 205.807 123.187 205.974 123.083C206.142 122.979 206.283 122.838 206.387 122.67L206.432 122.737L206.646 122.331C206.947 121.864 207.005 121.602 207.048 121.67L206.666 122.326C206.957 121.852 206.797 122.209 206.73 122.414C206.847 122.215 206.964 122.023 207.08 121.873C207.111 121.764 207.015 121.928 206.964 121.99C207.097 121.653 207.26 121.329 207.453 121.022C207.747 120.529 207.569 121.047 207.919 120.475C208.841 118.968 209.786 117.495 210.73 116.02L210.887 115.776L210.902 115.76L210.93 115.731L210.977 115.682C210.99 115.649 211.005 115.69 211.018 115.706C211.031 115.723 211.046 115.744 211.061 115.761C211.055 115.775 211.045 115.786 211.033 115.794H211.048H211.055C211.055 115.794 211.049 115.783 211.104 115.855L211.571 116.461L212.483 117.635C212.563 117.761 212.623 117.898 212.658 118.043C212.633 117.96 213.466 119.045 214.311 120.161L216.456 123.028L216.609 123.017C217.834 124.65 216.905 123.658 218.079 125.172C218.522 125.614 218.917 126.101 219.258 126.626C219.605 127.144 219.981 127.642 220.384 128.117L220.392 128.13C220.408 128.117 220.625 127.296 220.636 127.463C220.714 126.917 220.831 126.377 220.986 125.848C221.02 125.595 220.929 125.952 220.869 126.054L221.168 124.707C221.315 124.25 221.391 124.188 221.258 124.766L223.348 116.651C224.015 114.061 224.675 111.453 224.888 110.489C224.776 110.84 224.642 111.183 224.487 111.517C224.549 110.994 224.695 110.777 224.682 110.537C224.901 110.385 224.999 109.434 225.265 109.094L225.205 108.925L225.321 108.691C225.458 107.849 225.655 107.017 225.912 106.203C226.181 105.057 226.182 104.481 226.389 103.858C226.364 103.952 226.243 104.189 226.292 103.887C226.389 103.858 226.427 103.084 226.549 102.962L226.619 102.651C226.62 102.634 226.62 102.617 226.619 102.6C226.617 102.579 226.608 102.558 226.593 102.543C226.577 102.527 226.557 102.518 226.536 102.516C226.599 102.516 226.644 102.431 226.671 102.536C226.682 102.507 226.701 102.5 226.687 102.447C226.675 102.447 226.663 102.45 226.651 102.454C226.675 102.289 226.74 102.409 226.703 102.113C226.691 102.099 226.678 102.085 226.663 102.074C226.675 102.01 226.686 101.943 226.705 101.951C226.736 102.033 226.759 102.118 226.774 102.204C226.767 102.21 226.761 102.216 226.756 102.223V102.269V102.249C226.808 102.314 226.829 102.326 226.899 102.324L226.875 102.285C226.9 102.269 226.953 102.297 227.041 102.37L227.111 102.433L227.151 102.472L227.161 102.481L227.2 102.531L227.287 102.648L228.007 103.592C228.98 104.867 229.951 106.132 230.287 106.478L230.107 106.066L230.644 106.692C230.589 106.611 230.177 106.54 230.15 106.458L233.826 111.592L236.112 114.808C237.206 116.356 238.065 117.584 238.467 118.177C239.121 119.189 238.584 118.601 238.575 118.606C238.778 118.879 238.902 119.036 238.983 119.132C239.13 118.762 239.306 118.404 239.51 118.062C239.672 117.803 239.496 118.232 239.408 118.42C239.598 118.11 239.769 117.787 239.918 117.455C239.586 117.986 239.685 117.572 239.535 117.689L240.249 116.427V116.569C240.526 115.841 240.859 115.135 241.243 114.458L241.852 113.394L242.402 112.411L243.496 110.46C243.452 110.67 243.375 110.872 243.269 111.058C243.373 110.859 243.49 110.667 243.619 110.483C243.386 110.753 243.871 109.926 243.71 110.15C244.02 109.412 244.384 108.698 244.799 108.015C244.829 108.158 244.876 108.298 244.941 108.43L244.992 108.342L245.06 108.488C245.06 108.47 244.856 108.437 244.873 108.42C244.917 108.744 245.155 110.423 245.148 110.727C245.128 110.851 245.054 110.76 245.045 110.759C245.085 110.903 245.116 110.815 245.125 110.941C245.118 110.976 245.076 110.941 245.066 110.921C245.08 110.974 245.066 111.028 245.093 111.028C245.107 110.958 245.185 110.978 245.23 110.944L245.242 111.105H245.194C245.194 111.141 245.334 111.182 245.327 111.338C245.337 111.608 245.385 111.895 245.405 112.163C245.376 112.163 245.354 112.108 245.331 112.054C245.341 112.095 245.341 112.138 245.331 112.18C245.374 112.108 245.377 112.288 245.393 112.234C245.53 112.418 245.454 112.684 245.552 112.848C245.657 112.848 247.381 113.015 247.504 113.001C247.51 113.042 247.51 113.084 247.504 113.126C247.531 113.109 247.533 113.002 247.51 112.947H247.442C247.405 112.821 247.479 112.913 247.46 112.787C247.514 112.775 247.538 112.889 247.554 112.99C247.554 112.898 247.58 112.802 247.516 112.771C247.532 112.69 247.587 112.781 247.599 112.674Z" fill="white"/>
<path d="M128.934 91.5052C128.868 91.5083 128.804 91.5313 128.751 91.5713C128.699 91.6113 128.659 91.6663 128.639 91.7291C128.845 91.679 128.941 91.6102 128.934 91.5052Z" fill="#FDFFFE"/>
<path d="M136.95 92.7278C136.95 92.7278 130.558 91.3896 129.109 91.7081L128.924 91.673L128.933 91.7793C128.823 91.8889 129.032 91.9763 128.847 91.9413L128.893 91.7769C128.821 91.8935 128.735 91.792 128.636 91.729C128.612 91.7836 128.571 91.8289 128.519 91.8575C128.588 91.8925 128.599 91.8504 128.643 91.8375C128.7 91.9134 128.862 92.0312 128.759 92.0989C128.723 92.2225 128.455 92.0639 128.409 92.2074C128.102 92.9347 127.883 93.696 127.756 94.4753C127.675 94.4823 127.681 94.4615 127.65 94.4335C127.696 94.682 127.637 94.8884 127.689 95.1159C127.597 95.1524 127.498 95.1706 127.399 95.1696C127.56 95.1568 127.399 96.3829 127.353 96.3969L127.689 96.4599C127.66 96.6932 127.293 96.4727 127.345 96.6932C127.812 96.8472 127.245 97.0432 127.488 97.1599C127.45 97.1529 127.42 97.2555 127.272 97.2275C127.526 97.2975 127.316 97.3442 127.373 97.4212C127.442 97.455 127.453 97.4142 127.534 97.4072L127.603 97.5729C127.512 97.6207 127.357 97.6138 127.338 97.545C127.026 98.4189 126.822 99.3279 126.73 100.252C126.935 100.225 126.821 100.073 127.136 100.067C127.293 100.205 127.052 100.226 127.226 100.301C126.76 100.277 127.082 100.534 126.604 100.553L126.86 100.623L126.692 100.656C126.89 101.193 126.809 100.788 126.683 101.222C126.683 101.395 126.834 101.529 126.891 101.636L126.875 101.78C126.72 103.234 126.561 104.69 126.398 106.146L127.29 106.262L129.507 106.545L135.457 107.301C135.47 106.918 135.483 106.601 135.497 106.423L135.527 106.451C135.664 105.251 135.709 104.042 135.664 102.835C135.89 102.725 135.869 102.525 135.948 102.388C135.85 102.457 135.707 102.408 135.724 102.346C135.813 101.906 135.585 102.296 135.562 101.835C135.587 100.832 135.8 99.8422 136.191 98.9181C135.921 98.6288 136.197 98.3545 136.038 98.085L136.107 98.12C136.029 97.8447 136.523 96.4202 136.457 96.1029L136.408 96.1368C136.256 95.8474 136.585 95.9315 136.719 95.7401C136.606 95.7392 136.495 95.7036 136.401 95.6384C136.308 95.5733 136.237 95.4814 136.197 95.3748L136.271 95.3889C136.233 95.2513 135.977 94.9153 135.962 94.6948L136.148 94.7308C135.973 94.5232 136.105 94.2001 136.103 94.0695C136.22 93.7883 136.614 93.3833 136.423 92.9563L136.994 92.7802L136.95 92.7278Z" fill="#FDFFFE"/>
<path d="M144.272 79.2212C144.053 79.3215 144.01 79.5327 143.953 79.731C144.048 79.6839 144.128 79.6113 144.185 79.5213C144.241 79.4312 144.271 79.3273 144.272 79.2212Z" fill="#FDFFFE"/>
<path d="M152.315 80.2714C152.315 80.2714 145.933 78.7033 144.434 79.611L144.248 79.5725V79.786C144.132 80.0275 144.332 80.1687 144.147 80.1361L144.209 79.793C144.126 80.0403 144.045 79.8525 143.951 79.744C143.928 79.8461 143.883 79.942 143.819 80.0251C143.886 80.0835 143.901 79.9972 143.946 79.9622C143.988 80.0788 144.094 80.2445 144.071 80.3869C143.847 80.3309 143.692 80.2947 143.63 80.2853C143.658 80.1617 143.685 80.0391 143.732 80.0065C143.615 80.0216 143.52 80.2597 143.567 80.3997L143.826 80.4604C143.838 80.507 143.836 80.556 143.82 80.6015C143.788 80.6051 143.759 80.62 143.737 80.6435C143.692 80.654 143.645 80.675 143.634 80.8033C143.417 80.7881 143.411 80.5117 143.425 80.2702C143.369 80.4802 143.181 80.6704 143.403 80.7929C143.286 80.9807 143.144 80.731 143.016 80.9597C143.054 81.1417 143.23 81.3995 143.074 81.5792L143.036 81.5699C142.743 82.0179 143.253 82.355 142.969 82.7622L142.904 82.7038C142.757 82.8415 142.879 83.1705 142.705 83.433C142.76 83.3595 142.925 83.3164 142.927 83.4855C142.743 83.7877 142.846 84.028 142.644 84.2392L142.82 84.497C142.741 84.9275 142.638 85.8608 142.535 86.9085C142.489 86.926 142.445 86.9388 142.407 86.9505C142.459 87.7869 142.409 88.6265 142.257 89.4506L142.295 89.4589L142.258 89.8602C142.221 89.9226 142.208 89.9965 142.222 90.0678C142.229 90.0678 142.231 90.076 142.238 90.0795C142.196 90.5287 142.159 90.8961 142.131 91.1516C142.12 91.1516 142.113 91.1586 142.102 91.1516C142.113 91.1516 142.119 91.161 142.13 91.1657L142.123 91.224L142.096 91.175C142.052 91.693 141.971 92.3732 141.882 93.1187C141.601 94.5288 141.407 95.9548 141.299 97.3887C141.405 97.3432 141.432 97.2463 141.474 97.1553C141.46 97.3723 141.451 97.5799 141.445 97.7748C141.422 97.8399 141.382 97.8978 141.329 97.9423C141.277 97.9868 141.213 98.0163 141.145 98.028L141.398 98.1248L141.226 98.2228C141.244 98.3477 141.259 98.4446 141.272 98.5239C141.182 98.7362 141.156 98.9753 141.084 99.1666C141.099 99.1419 141.12 99.122 141.145 99.1089C141.171 99.0959 141.199 99.0904 141.228 99.0931C141.209 99.162 141.189 99.2506 141.167 99.3731C141.149 99.9039 141.481 100.19 141.315 100.472C141.315 100.453 141.355 100.427 141.397 100.411C141.203 102.295 140.848 104.158 140.335 105.98C140.569 106.51 140.249 107.081 140.372 107.585L140.306 107.527C140.307 107.657 140.297 107.786 140.276 107.914L141.467 108.066L148.913 109.012L149.626 109.103C149.645 108.789 149.663 108.52 149.678 108.346L149.706 108.396C149.781 107.014 150.05 104.536 150.137 102.603C150.16 102.435 150.174 102.266 150.177 102.096C150.169 102.1 150.161 102.105 150.154 102.11C150.154 101.922 150.162 101.744 150.162 101.572C150.218 101.53 150.282 101.502 150.35 101.49L150.162 101.412V101.357L150.279 101.299C150.257 101.12 150.24 100.998 150.228 100.911C150.349 100.641 150.435 100.357 150.484 100.065C150.472 100.086 150.455 100.105 150.435 100.119C150.415 100.132 150.392 100.142 150.368 100.146C150.369 99.9869 150.344 99.8291 150.293 99.6789C150.293 99.5622 150.273 99.5412 150.245 99.5272C150.215 99.4652 150.2 99.3969 150.201 99.328C150.202 99.259 150.22 99.1915 150.252 99.1306C150.252 99.1527 150.194 99.1854 150.135 99.1924C150.135 99.1399 150.135 99.0815 150.135 99.0115C150.135 98.9415 150.135 98.8331 150.135 98.7234C150.142 98.7234 150.144 98.7234 150.151 98.7176C150.151 98.6557 150.162 98.5331 150.151 98.4305C150.158 98.3068 150.169 98.1726 150.182 98.0303C150.219 98.0128 150.254 98.0233 150.288 98.1026C150.316 97.979 150.379 97.8694 150.324 97.7644L150.214 97.9125C150.23 97.5088 150.47 97.3117 150.295 97.0258C150.313 96.8928 150.33 96.7587 150.35 96.6211C150.388 96.6065 150.427 96.5958 150.467 96.5895L150.524 96.8625C150.594 96.5142 150.58 96.154 150.482 95.8124L150.455 95.9362V95.9292C150.598 94.9316 150.793 93.9421 151.038 92.9647C150.789 92.4234 151.092 91.8179 150.954 91.2999L151.021 91.3581C150.965 90.8121 151.589 87.829 151.549 87.1979L151.496 87.2761C151.366 86.7149 151.694 86.8269 151.846 86.4127C151.496 86.4302 151.352 85.946 151.345 85.7663L151.42 85.7816C151.304 85.3368 151.219 84.8846 151.166 84.4282L151.351 84.4666C151.31 84.3545 151.287 84.2363 151.283 84.1167C151.295 84.1482 151.306 84.1809 151.317 84.2136C151.335 84.1307 151.325 83.9989 151.418 83.9347C151.331 83.9814 151.301 83.9487 151.283 83.8974C151.297 83.5941 151.356 83.2883 151.362 83.1296C151.669 82.3967 151.813 81.6057 151.783 80.8115L152.378 80.3518L152.315 80.2714Z" fill="#FDFFFE"/>
<path d="M143.436 80.1033C143.436 80.1523 143.428 80.2083 143.425 80.2643C143.441 80.2123 143.445 80.1571 143.436 80.1033Z" fill="#FDFFFE"/>
<path d="M157.386 88.9048C157.172 88.9678 157.132 89.1182 157.08 89.2547C157.29 89.1719 157.39 89.0646 157.386 88.9048Z" fill="#FDFFFE"/>
<path d="M164.544 93.9807L164.618 93.9946C164.495 93.6725 164.401 93.3399 164.337 93.0007L164.524 93.038C164.356 92.7475 164.503 92.2622 164.507 92.0697C164.64 91.6462 165.053 91.0197 164.881 90.4072L165.464 90.1003L165.417 90.0385C165.417 90.0385 159.031 88.6046 157.555 89.1949L157.37 89.1588V89.3129C157.253 89.4832 157.461 89.5951 157.275 89.5589L157.33 89.3129C157.252 89.4879 157.169 89.3479 157.072 89.2639C157.049 89.3405 157.005 89.4095 156.946 89.4634C157.014 89.5077 157.028 89.4458 157.072 89.4237C157.126 89.5298 157.285 89.6897 157.182 89.7982C157.141 89.9825 156.877 89.7702 156.832 89.986C156.487 91.0912 156.233 92.2227 156.072 93.3693C155.991 93.3868 155.998 93.3554 155.967 93.3169C156.002 93.6785 155.934 93.9853 155.977 94.3155C155.889 94.3748 155.787 94.4106 155.682 94.4193C155.844 94.3866 155.624 96.2032 155.58 96.2265L155.916 96.2918C155.876 96.6418 155.516 96.3432 155.559 96.6722C156.026 96.8588 155.442 97.196 155.676 97.3395C155.637 97.3314 155.603 97.4865 155.454 97.4562C155.708 97.5367 155.495 97.6241 155.549 97.7315C155.616 97.7758 155.629 97.7152 155.711 97.6988L155.774 97.9321C155.679 98.0103 155.523 98.0127 155.507 97.9123C155.152 99.2331 154.907 100.581 154.774 101.942C154.98 101.886 154.873 101.672 155.192 101.637C155.343 101.828 155.099 101.871 155.272 101.975C154.805 101.981 155.115 102.325 154.633 102.397L154.887 102.479L154.717 102.542C154.893 103.315 154.828 102.727 154.682 103.375C154.69 103.548 154.741 103.717 154.831 103.866C154.664 105.806 154.46 107.743 154.22 109.676L155.145 109.792L161.033 110.54L163.298 110.829C163.312 110.601 163.323 110.41 163.335 110.28L163.364 110.318C163.555 108.547 163.655 106.767 163.664 104.986C163.897 104.806 163.886 104.519 163.971 104.307C163.869 104.415 163.727 104.356 163.748 104.264C163.856 103.609 163.61 104.201 163.607 103.525C163.675 102.05 163.932 100.589 164.371 99.1794C164.112 98.7757 164.402 98.3498 164.254 97.9683L164.322 98.0139C164.257 97.6149 164.819 95.4787 164.766 95.019L164.715 95.0727C164.575 94.6597 164.903 94.7553 165.046 94.4624C164.921 94.4503 164.803 94.3962 164.711 94.3088C164.62 94.2214 164.561 94.1058 164.544 93.9807Z" fill="#FDFFFE"/>
</g>
<defs>
<clipPath id="clip0_1220_12313">
<rect width="350" height="257.648" fill="white" transform="translate(0 0.176025)"/>
</clipPath>
</defs>
</svg>
