<svg width="373" height="380" viewBox="0 0 373 380" fill="none" xmlns="http://www.w3.org/2000/svg">
<g clip-path="url(#clip0_29_4338)">
<path d="M339.882 348.112C338.938 347.63 337.89 347.384 336.83 347.395L335.685 347.419C335.311 347.441 334.937 347.474 334.567 347.512L334.507 347.44C334.063 346.927 333.62 346.397 333.204 345.859C328.821 340.224 326.212 333.412 325.711 326.29C325.711 326.232 325.711 326.175 325.703 326.117C325.66 325.412 325.647 324.702 325.654 323.991C325.829 317.155 327.839 310.492 331.475 304.7C331.692 304.351 331.918 304.005 332.137 303.665C334.256 304.05 336.441 303.842 338.449 303.062C338.701 302.946 338.945 302.814 339.18 302.668C341.208 301.389 342.336 298.463 341 296.487C340.759 296.153 340.44 295.883 340.071 295.7C339.703 295.516 339.295 295.426 338.883 295.436H60.3356C56.3253 295.436 52.3542 296.226 48.6491 297.761C44.944 299.296 41.5774 301.545 38.7417 304.381C35.9059 307.218 33.6564 310.585 32.1217 314.29C30.587 317.996 29.7971 321.967 29.7971 325.978C29.7975 334.078 33.0151 341.847 38.7421 347.574C44.4691 353.302 52.2364 356.52 60.3356 356.521H337.77C338.761 356.511 339.721 356.173 340.499 355.56C341.277 354.947 341.831 354.093 342.072 353.132C342.313 352.171 342.229 351.157 341.833 350.249C341.437 349.34 340.751 348.589 339.882 348.112V348.112Z" fill="black"/>
<path d="M46.0761 254.087L55.4471 261.894L57.5253 263.625L91.3481 291.805C92.4364 292.708 93.8051 293.204 95.2191 293.207H282.151C287.944 293.246 293.665 291.929 298.858 289.362C304.051 286.796 308.571 283.05 312.059 278.424C319.32 268.622 320.553 257.215 321.198 243.609C321.737 231.398 318.04 219.376 310.733 209.578C303.462 200.001 293.012 196.644 279.644 196.865H279.231L277.226 196.877L255.902 196.995H255.737L253.638 197.007L93.8312 197.903C93.6538 197.903 93.4765 197.916 93.3006 197.933C91.8664 198.081 90.5282 198.723 89.5153 199.749L57.3036 233.114L54.878 235.627L45.5972 245.236C45.0195 245.834 44.5715 246.545 44.2809 247.325C43.9903 248.104 43.8636 248.935 43.9085 249.766C43.9534 250.596 44.1691 251.409 44.5421 252.152C44.915 252.896 45.4372 253.555 46.0761 254.087V254.087Z" fill="black"/>
<path d="M190.645 76.6055C190.469 76.5789 190.295 76.5552 190.119 76.5256C190.292 76.5635 190.468 76.5902 190.645 76.6055Z" fill="black"/>
<path d="M221.22 63.7509C220.652 63.6607 220.083 63.5765 219.511 63.5056C202.083 76.7404 192.845 76.8321 190.645 76.6059C192.259 76.8562 193.881 77.0272 195.51 77.1188C207.882 77.9829 220.091 73.9007 229.456 65.7688C227.916 65.2676 226.352 64.8256 224.791 64.4531C223.619 64.1752 222.426 63.9431 221.22 63.7509Z" fill="black"/>
<path d="M223.263 71.6664L223.015 71.7403C223.04 71.7655 223.108 71.7566 223.263 71.6664Z" fill="black"/>
<path d="M193.484 65.7253C193.455 65.7075 193.401 65.7327 193.301 65.8495L193.484 65.7253Z" fill="black"/>
<path d="M200.094 60.8797V60.8885L200.076 60.9418L200.094 60.8797Z" fill="black"/>
<path d="M235.636 16.5217C234.959 16.569 234.285 16.637 233.611 16.7109C233.5 16.8875 233.401 17.0718 233.316 17.2623C232.952 17.1381 232.565 18.065 232.272 18.2247V18.1818C231.943 18.9771 230.995 19.2964 230.663 20.0488C230.645 20.0055 230.64 19.9579 230.649 19.912C230.658 19.866 230.68 19.8236 230.713 19.7902C230.37 20.2514 229.916 20.8944 229.731 20.7909C228.771 21.7994 227.928 22.9138 227.219 24.1126V24.0298C227.061 24.5531 226.821 24.5398 226.54 25.0365C226.5 25.0365 226.463 25.0631 226.459 25.0513C226.27 25.6071 225.447 26.2738 225.229 26.6685L225.107 26.5991L224.422 27.4401L224.709 27.1534C224.904 27.5067 223.994 27.6161 223.674 28.3744C223.16 28.9007 223.3 30.0183 222.662 30.4765C222.56 30.8683 222.653 30.0463 222.402 30.5474C222.241 30.4321 222.473 30.274 222.263 30.2769C221.985 30.7441 221.539 30.8121 221.209 31.399L221.076 31.3191C220.73 32.1544 219.868 32.4234 219.701 33.0339C219.224 33.7907 218.962 33.1906 218.599 34.0894L218.207 34.2284C217.926 34.5078 218.219 34.6082 217.858 34.8773C217.775 34.7723 217.415 35.2321 217.49 34.9557C216.692 35.5825 216.414 36.6852 215.307 37.4613C215.32 37.8427 214.781 38.2492 214.791 38.5345C214.683 38.4902 213.928 39.5323 214.219 38.811C214.244 38.7503 214.32 38.6631 214.348 38.7001L214.289 38.536C213.589 38.9219 213.542 39.6772 213.035 40.2168C213.214 40.0808 213.39 39.8472 213.346 40.069L212.89 40.5819V40.3913L212.181 41.1304L212.391 41.123C212.009 41.4556 211.692 41.4186 211.504 41.9966C211.437 42.2716 211.971 41.7675 211.671 42.2051C211.02 42.7509 210.399 43.3317 209.811 43.945C209.999 43.9952 209.848 44.1681 209.727 44.3751L209.59 44.2982C209.182 45.1334 209.118 44.3396 208.679 45.1438L208.746 45.401C208.468 46.2215 208.221 45.5371 207.973 46.4979C208.178 46.2023 208.342 46.5822 208.013 46.8793L207.968 46.6989C207.838 46.9059 207.835 47.0094 207.71 47.1158C207.739 46.9517 207.59 46.9192 207.386 47.2134V46.9103L207.175 47.6066C206.731 47.9126 206.362 48.6798 206.065 48.7153C206.065 48.7153 205.281 49.5225 205.299 49.8654C205.328 49.6008 204.898 50.0487 204.879 49.8062C204.744 50.3005 204.45 50.7362 204.041 51.045L204.066 50.983C203.139 51.8699 202.904 52.8337 202.031 53.5936C202.202 53.663 201.753 54.074 202.031 54.0991C201.472 55.159 200.341 55.5049 200.634 56.2736C200.338 56.7171 200.112 56.6728 199.914 56.865L199.963 56.7408C199.586 57.3078 199.18 57.8554 198.748 58.3817C198.574 58.7172 198.795 58.9626 198.33 59.446C198.356 59.1947 198.21 59.4268 198.059 59.6249C198.139 59.4859 198.132 59.4165 197.864 59.6249C197.862 59.6936 197.847 59.7612 197.82 59.8245C197.81 59.8245 197.796 59.8244 197.789 59.8111C197.573 60.1703 197.641 60.1378 197.78 59.9945C197.79 60.0151 197.82 60.0181 197.885 59.9945C197.49 60.2369 197.164 60.9597 196.954 60.8651C196.238 61.8999 195.872 62.7396 195.328 63.628C195.165 63.6532 195.23 63.3959 195.375 63.1268L194.967 63.7448C194.839 63.6398 195.145 63.3471 195.254 63.1446C194.515 63.6901 194.383 64.7603 193.569 65.4403L193.545 65.6887L193.492 65.7256C193.548 65.764 193.492 66.0065 193.412 66.1425C193.21 66.1736 193.152 65.9356 192.854 66.351C192.472 66.7696 192.174 67.258 191.977 67.7893C192.165 67.572 192.175 67.6947 192.144 67.8233C191.996 68.0332 191.794 68.0672 191.727 68.2668L191.556 68.1722C191.763 68.1988 191.322 68.8285 191.331 68.9512C191.129 68.9837 191.464 68.558 191.414 68.4412L190.527 69.6992C190.325 70.227 190.735 69.7273 190.719 70.0392C190.506 70.4975 190.222 70.9196 189.878 71.2898L190.121 71.2484C189.839 71.8845 189.413 72.4463 188.876 72.8893C187.494 76.0454 187.694 76.6086 188.217 76.3869C188.745 76.0523 189.219 75.6385 189.621 75.1599C191.46 73.2234 191.848 71.825 193.601 69.2025C195.309 67.0206 196.03 66.6422 197.635 64.2607C198.486 63.189 199.311 61.9812 200.09 60.8932C200.265 60.225 201.163 59.5007 201.45 58.7719L201.746 58.6329C201.835 58.3671 201.998 58.1319 202.216 57.9544L202.239 57.9943C202.405 57.6969 202.586 57.4087 202.783 57.131L202.807 57.1695L203.08 56.7866V56.8886C203.396 56.3035 203.789 55.7644 204.251 55.2862L204.078 55.2152C205.051 54.312 205.057 53.7044 205.979 52.9253L206.003 52.9653C206.561 51.4959 207.735 51.3244 208.351 49.8403C208.274 50.025 208.475 49.8403 208.499 49.8743C208.905 49.283 209.361 48.6828 209.09 48.4507C209.42 48.0516 209.442 48.1935 209.59 48.226C209.469 48.1314 209.704 47.7426 209.952 47.4233L209.881 47.6051L210.574 46.6768L210.205 46.6679C210.658 46.2451 210.579 46.7714 210.896 46.2717L210.706 46.1239C211.277 45.6355 211.89 45.1991 212.539 44.8201C214.791 42.2509 216.677 39.0372 219.057 36.8804L219.286 36.8907C219.527 37.0148 219.555 35.9683 219.82 36.0348L219.967 35.6741C220.071 35.6253 220.251 35.4908 220.177 35.6741C220.321 35.5276 220.423 35.3454 220.473 35.1463L220.835 34.9734C221.809 34.0288 222.313 32.9452 223.284 31.9104C224.908 30.3314 226.352 28.5774 227.59 26.6804C228.991 24.4511 231.78 22.8635 233.192 20.5589C233.277 20.5175 233.362 20.2928 233.34 20.275L234.976 18.4642C234.976 18.4642 235.35 18.0444 235.863 17.4442C235.787 17.1308 235.716 16.8263 235.636 16.5217Z" fill="black"/>
<path d="M208.679 45.1443L208.647 45.0157L208.679 45.1443Z" fill="black"/>
<path d="M181.475 43.6563C180.588 41.0324 179.134 38.0256 176.389 37.6693C175.892 37.5898 175.383 37.6372 174.909 37.8073C174.435 37.9774 174.012 38.2645 173.68 38.642C173.361 39.0687 173.158 39.5701 173.088 40.098C172.981 41.3905 173.158 42.6908 173.607 43.9075C176.203 52.8732 178.984 60.464 181.948 68.9049C182.486 70.4379 183.028 71.9974 183.574 73.6013L187.001 75.8912C186.854 72.0581 186.582 68.3727 186.157 64.7584C185.343 57.5792 183.774 50.506 181.475 43.6563Z" fill="black"/>
<path d="M259.674 90.525C253.845 78.4772 242.277 69.9447 229.487 65.779L229.454 65.7687C220.09 73.9006 207.881 77.9828 195.509 77.1187C193.881 77.0271 192.259 76.8561 190.643 76.6058C190.466 76.5905 190.29 76.5638 190.117 76.526C190.293 76.5555 190.467 76.5792 190.643 76.6058C192.844 76.832 202.082 76.7403 219.51 63.5055L219.341 63.4833C221.869 61.3332 224.206 58.9685 226.327 56.4157C235.092 45.6658 239.031 30.9202 235.859 17.4369C235.352 18.0371 234.972 18.4569 234.972 18.4569L233.336 20.2678C233.361 20.2855 233.277 20.5102 233.188 20.5516C231.776 22.8562 228.987 24.4439 227.586 26.6731C226.348 28.5701 224.904 30.3242 223.28 31.9032C222.303 32.938 221.802 34.0215 220.831 34.9661L220.469 35.1391C220.419 35.3381 220.317 35.5203 220.173 35.6668C220.247 35.4879 220.067 35.6225 219.964 35.6668L219.816 36.0275C219.551 35.961 219.52 37.0076 219.282 36.8834L219.053 36.8731C216.673 39.0299 214.787 42.2436 212.535 44.8128C211.886 45.1918 211.273 45.6282 210.702 46.1167L210.893 46.2645C210.575 46.7641 210.655 46.2379 210.201 46.6607L210.57 46.6695L209.877 47.5979L209.948 47.416C209.7 47.7353 209.465 48.1242 209.586 48.2188C209.438 48.1862 209.416 48.0443 209.086 48.4434C209.354 48.6755 208.899 49.2816 208.495 49.867C208.472 49.8271 208.271 50.0148 208.347 49.833C207.731 51.3113 206.557 51.4887 205.999 52.9581L205.975 52.9182C205.053 53.6972 205.047 54.3047 204.074 55.2079L204.247 55.2789C203.786 55.7571 203.392 56.2963 203.077 56.8813V56.7794L202.803 57.1622L202.78 57.1238C202.583 57.4014 202.401 57.6896 202.236 57.9871L202.212 57.9472C201.995 58.1247 201.832 58.3598 201.742 58.6257L201.446 58.7646C201.16 59.4934 200.264 60.2178 200.086 60.8859V60.8771L200.061 60.9392L200.079 60.8859C199.3 61.9739 198.475 63.1817 197.624 64.2534C196.019 66.6349 195.298 67.0134 193.59 69.1953C191.837 71.8177 191.449 73.2161 189.61 75.1526C189.208 75.6312 188.734 76.0451 188.206 76.3796C187.677 76.6013 187.483 76.0381 188.865 72.882C189.401 72.439 189.828 71.8773 190.109 71.2412L189.867 71.2826C190.211 70.9123 190.495 70.4903 190.708 70.0319C190.724 69.72 190.313 70.2197 190.516 69.692L191.403 68.434C191.453 68.5507 191.117 68.9764 191.32 68.9439C191.311 68.8212 191.752 68.1915 191.545 68.1649L191.716 68.2595C191.783 68.0644 191.985 68.0303 192.133 67.816C192.164 67.6874 192.154 67.5648 191.966 67.7821C192.163 67.2507 192.46 66.7623 192.842 66.3437C193.138 65.9283 193.199 66.1663 193.401 66.1353C193.475 65.9993 193.537 65.7569 193.481 65.7184L193.298 65.8426C193.398 65.7258 193.445 65.6948 193.481 65.7184L193.534 65.6814L193.558 65.433C194.372 64.753 194.502 63.6828 195.243 63.1373C195.133 63.3399 194.827 63.6326 194.956 63.7375L195.364 63.1197C195.216 63.3887 195.154 63.6459 195.317 63.6208C195.868 62.7338 196.235 61.8882 196.943 60.8579C197.152 60.9525 197.479 60.2296 197.874 59.9872C197.809 60.0138 197.779 60.0108 197.769 59.9872C197.637 60.135 197.562 60.1631 197.778 59.8039C197.785 59.8186 197.798 59.8128 197.809 59.8172C197.836 59.754 197.851 59.6863 197.853 59.6176C198.121 59.4107 198.128 59.4801 198.048 59.6176C198.196 59.4195 198.344 59.1874 198.319 59.4387C198.784 58.9553 198.563 58.71 198.737 58.3744C199.169 57.8482 199.575 57.3005 199.952 56.7336L199.903 56.8577C200.101 56.6611 200.323 56.7098 200.623 56.2664C200.327 55.4977 201.461 55.1517 202.02 54.0918C201.748 54.0667 202.197 53.6558 202.02 53.5863C202.893 52.8265 203.128 51.8612 204.055 50.9757L204.03 51.0378C204.439 50.7289 204.733 50.2932 204.868 49.799C204.887 50.0414 205.311 49.5936 205.288 49.8582C205.27 49.5152 206.053 48.7081 206.053 48.7081C206.349 48.6726 206.713 47.9054 207.164 47.5994L207.375 46.9031V47.2062C207.579 46.9105 207.728 46.9444 207.699 47.1085C207.824 47.0021 207.827 46.8986 207.957 46.6917L208.002 46.872C208.331 46.5764 208.167 46.198 207.962 46.4907C208.21 45.5298 208.457 46.2142 208.735 45.3938L208.668 45.1366L208.636 45.0064L208.668 45.1366C209.112 44.3324 209.171 45.1262 209.579 44.291L209.716 44.3678C209.837 44.1609 209.988 43.988 209.8 43.9377C210.384 43.3228 211.001 42.7399 211.648 42.1919C211.944 41.7484 211.414 42.2584 211.481 41.9834C211.67 41.4069 211.988 41.4424 212.368 41.1098L212.158 41.1172L212.867 40.378V40.5688L213.323 40.0558C213.367 39.8385 213.191 40.0721 213.012 40.2036C213.519 39.6641 213.567 38.9086 214.266 38.5228L214.325 38.6869C214.297 38.6529 214.221 38.7372 214.196 38.7978C213.901 39.5192 214.66 38.477 214.768 38.5214C214.758 38.2361 215.297 37.8295 215.284 37.4481C216.391 36.6721 216.669 35.5693 217.467 34.9425C217.396 35.2189 217.752 34.7592 217.835 34.8642C218.196 34.5951 217.903 34.4946 218.184 34.2152L218.576 34.0762C218.945 33.1774 219.201 33.7806 219.678 33.0208C219.845 32.4102 220.713 32.1411 221.053 31.3059L221.186 31.3858C221.516 30.7945 221.962 30.7309 222.24 30.2638C222.45 30.2638 222.218 30.4116 222.379 30.5343C222.63 30.0332 222.537 30.8551 222.639 30.4634C223.277 30.0051 223.137 28.8876 223.651 28.3613C223.978 27.603 224.889 27.4935 224.686 27.1402L224.399 27.427L225.084 26.5858L225.206 26.6553C225.424 26.2606 226.241 25.5939 226.436 25.0381C226.436 25.0499 226.477 25.0292 226.517 25.0233C226.798 24.5266 227.038 24.54 227.196 24.0167V24.0994C227.905 22.9006 228.748 21.7863 229.709 20.7778C229.893 20.8813 230.347 20.2383 230.69 19.777C230.657 19.8105 230.635 19.8529 230.626 19.8988C230.617 19.9448 230.622 19.9924 230.64 20.0357C230.972 19.2833 231.92 18.964 232.249 18.1687V18.2115C232.545 18.0519 232.929 17.125 233.293 17.2492C233.378 17.0587 233.477 16.8744 233.588 16.6978C221.357 18.0154 209.956 23.5157 201.311 32.2694C192.666 41.023 187.308 52.4931 186.142 64.7413C186.567 68.3556 186.836 72.0409 186.986 75.8741L183.559 73.5842C183.009 71.9803 182.466 70.4207 181.933 68.8878C173.231 62.7501 161.031 61.9311 150.488 64.4352C135.889 67.9032 122.139 77.0005 115.606 90.5074C110.172 101.742 110.122 114.899 112.339 127.179C115.711 145.843 124.016 163.396 134.915 178.918C140.915 187.471 149.105 196.173 159.559 196.249C162.586 196.144 165.588 195.664 168.496 194.818C174.941 193.23 180.996 189.613 187.635 189.613C194.275 189.613 200.326 193.23 206.773 194.818C209.681 195.664 212.683 196.144 215.71 196.249C226.158 196.173 234.354 187.471 240.354 178.918C251.246 163.396 259.558 145.837 262.93 127.179C265.157 114.915 265.107 101.76 259.674 90.525ZM223.017 71.7408L223.266 71.6669C223.106 71.7571 223.038 71.766 223.017 71.7408Z" fill="#00F3B3"/>
<path d="M116.149 299.02L115.895 299.075C115.914 299.101 115.984 299.095 116.149 299.02Z" fill="white"/>
<path d="M112.474 351.752C112.492 351.761 112.511 351.768 112.53 351.773C112.493 351.754 112.48 351.751 112.474 351.752Z" fill="white"/>
<path d="M106.81 303.231L106.82 303.22L106.856 303.158L106.81 303.231Z" fill="white"/>
<path d="M120.599 356.093C120.183 355.837 119.727 355.654 119.249 355.555C119.293 355.527 119.343 355.51 119.395 355.508C119.447 355.505 119.498 355.516 119.545 355.54C118.906 355.309 118.03 354.98 118.074 354.776C117.673 354.606 117.283 354.414 116.903 354.201C116.504 353.982 116.082 353.782 115.694 353.556C115.05 353.163 114.371 352.829 113.666 352.557L113.758 352.55C113.145 352.39 113.111 352.133 112.499 351.839C112.485 351.796 112.456 351.757 112.469 351.753C111.769 351.342 111.112 350.863 110.508 350.322L110.573 350.196L109.597 349.348L109.934 349.695C109.547 349.859 109.367 348.873 108.558 348.365C107.967 347.725 106.771 347.562 106.303 346.73C105.878 346.503 106.779 346.846 106.245 346.434C106.393 346.295 106.541 346.591 106.554 346.363C106.082 345.92 106.085 345.401 105.504 344.849L105.611 344.734C105.25 344.408 104.968 344.003 104.788 343.551C104.64 343.183 104.421 342.847 104.145 342.562C103.525 341.692 104.195 341.729 103.417 340.901V340.423C103.252 339.987 103.046 340.23 102.918 339.717C103.049 339.69 102.735 339.081 102.977 339.306C102.808 338.722 102.574 338.16 102.281 337.628C101.963 336.999 101.767 336.316 101.701 335.615C101.341 335.371 101.324 334.567 101.07 334.373C101.163 334.306 100.714 332.852 101.156 333.648C101.193 333.716 101.221 333.845 101.177 333.847L101.35 333.913C101.406 333.008 100.891 332.386 100.758 331.521C100.758 331.782 100.832 332.113 100.687 331.91C100.639 331.644 100.605 331.376 100.585 331.106L100.733 331.254L100.662 330.052L100.525 330.234C100.525 329.642 100.773 329.413 100.517 328.769C100.37 328.473 100.34 329.342 100.253 328.722C100.29 328.322 100.308 327.835 100.362 327.305C100.417 326.776 100.476 326.239 100.5 325.74C100.325 325.83 100.319 325.558 100.308 325.279L100.464 325.254C100.316 324.177 100.826 324.882 100.721 323.823L100.823 323.923L100.519 323.619C100.325 322.635 100.897 323.145 100.614 322.041C100.587 322.461 100.253 322.189 100.383 321.683L100.514 321.831C100.487 321.639 100.495 321.443 100.54 321.253C100.587 321.435 100.736 321.376 100.789 320.958L100.921 321.265L100.798 320.436C101.047 319.859 101.094 318.87 101.363 318.677C101.55 318.165 101.655 317.626 101.676 317.082C101.731 317.377 102.007 316.702 102.102 316.949C102.064 316.352 102.226 315.761 102.562 315.266L102.551 315.343C102.982 314.128 103.511 312.949 104.133 311.819C103.947 311.787 104.378 311.219 104.093 311.259C104.21 310.946 104.364 310.649 104.551 310.372C104.734 310.119 104.934 309.902 105.099 309.698C105.434 309.291 105.652 308.948 105.503 308.534C105.856 308.001 106.094 308.027 106.317 307.786L106.257 307.934C106.689 307.254 107.184 306.616 107.735 306.027C107.973 305.649 107.763 305.362 108.385 304.845C108.299 305.12 108.509 304.87 108.718 304.655C108.6 304.803 108.594 304.882 108.928 304.664C108.945 304.587 108.976 304.513 109.019 304.447C109.028 304.447 109.046 304.447 109.049 304.462C109.364 304.073 109.275 304.105 109.101 304.259C109.101 304.236 109.064 304.233 108.988 304.259C109.451 303.993 110.035 303.266 110.225 303.383C110.493 303.124 110.731 302.871 110.964 302.629L111.638 301.956C112.05 301.505 112.495 301.085 112.969 300.7C113.151 300.713 112.969 300.964 112.701 301.208L113.399 300.664C113.488 300.812 113.04 301.035 112.837 301.217C113.336 300.991 113.787 300.672 114.167 300.278C114.609 299.883 115.112 299.564 115.657 299.334L115.805 299.087L115.881 299.071C115.842 299.011 116.04 298.799 116.192 298.692C116.417 298.735 116.34 298.988 116.875 298.692C117.178 298.596 117.461 298.446 117.71 298.249L118.605 297.668C118.284 297.789 118.35 297.668 118.457 297.563C118.735 297.43 118.953 297.487 119.143 297.332L119.248 297.499C119.058 297.368 119.905 297.008 119.987 296.9C120.202 296.971 119.589 297.186 119.561 297.314L121.262 296.628C121.834 296.286 121.086 296.488 121.329 296.231C121.874 295.957 122.452 295.754 123.049 295.629L122.798 295.527C122.898 295.486 122.981 295.459 123.076 295.424H118.319L117.925 295.623C117.109 295.968 116.435 296.24 115.855 296.522C115.276 296.804 114.734 297.001 114.23 297.28C113.726 297.56 113.21 297.817 112.644 298.167C112.097 298.546 111.461 298.963 110.752 299.554C110.028 300.094 109.337 300.676 108.682 301.298L107.705 302.235L106.81 303.204C106.531 303.645 106.21 304.058 105.852 304.438C105.461 304.835 105.125 305.283 104.853 305.769L104.511 305.976C104.377 306.307 104.172 306.605 103.91 306.849L103.887 306.808C103.669 307.262 103.323 307.705 103.23 307.94L103.205 307.899L102.89 308.415V308.295C102.518 309.062 102.104 309.807 101.65 310.527L101.84 310.555C101.46 311.091 101.159 311.679 100.946 312.301C100.732 312.878 100.476 313.437 100.179 313.976L100.146 313.94C100.008 314.759 99.7525 315.553 99.3882 316.298C99.0073 317.056 98.7993 317.889 98.7792 318.737C98.7792 318.487 98.6624 318.819 98.6314 318.791C98.4836 319.688 98.3521 320.649 98.6905 320.712C98.5634 321.354 98.488 321.219 98.3402 321.283C98.488 321.304 98.488 321.874 98.4333 322.383L98.4038 322.143C98.3683 322.63 98.3003 323.114 98.2929 323.602L98.6019 323.344C98.4703 324.103 98.2353 323.509 98.259 324.254L98.5013 324.262C98.3698 325.319 98.0091 325.935 97.8347 326.987C97.8491 329.209 98.1431 331.419 98.7098 333.567C99.2626 335.715 99.9262 337.768 100.516 339.718L100.414 339.955C100.186 340.141 101.242 340.817 101.079 341.058L101.388 341.432C101.401 341.572 101.475 341.848 101.322 341.662C101.412 341.907 101.564 342.123 101.765 342.289L101.846 342.777C102.024 343.158 102.222 343.53 102.437 343.891C102.665 344.234 102.907 344.557 103.148 344.883C103.617 345.547 104.161 346.162 104.678 346.907C104.992 347.475 105.365 348.008 105.791 348.498C106.281 349.096 106.813 349.659 107.383 350.181C108.455 351.176 109.608 352.078 110.831 352.879C111.557 353.324 112.259 353.805 112.936 354.321C113.658 354.81 114.36 355.376 115.109 355.874C115.424 356.081 115.74 356.29 116.061 356.492H121.626C121.502 356.467 121.38 356.433 121.261 356.392C121.035 356.304 120.814 356.205 120.599 356.093V356.093Z" fill="white"/>
<path d="M274.86 305.387C275.272 305.463 275.692 305.487 276.11 305.46L274.86 305.387Z" fill="white"/>
<path d="M244.545 345.526L244.841 345.51C244.742 345.51 244.644 345.515 244.545 345.526Z" fill="white"/>
<path d="M227.498 303.035H227.565L227.89 303.017L227.498 303.035Z" fill="white"/>
<path d="M331.481 304.699C331.699 304.35 331.925 304.004 332.143 303.664C334.263 304.049 336.447 303.841 338.455 303.061C336.319 303.001 334.6 302.973 334.6 302.973C318.601 302.591 310.342 303.094 291.292 303.23C274.552 303.143 270.11 302.807 252.759 302.943C244.482 302.916 235.652 302.993 227.561 303.033C223.718 303.295 216.938 303.033 212.394 303.256L210.634 303.109C209.067 303.182 207.234 303.234 205.656 303.154L205.755 303.11C203.416 303.222 200.778 303.156 199.616 303.212L199.714 303.169L196.872 303.188L197.361 303.126C193.281 303.246 189.084 303.254 185.374 303.199L185.681 303.378C177.762 303.178 174.864 303.549 167.717 303.311L167.814 303.268C158.779 303.741 153.53 302.946 144.217 303.395C145.378 303.339 143.72 303.302 143.813 303.259C139.527 303.311 134.945 303.338 134.877 303.69C131.751 303.69 132.331 303.579 131.921 303.443C131.921 303.483 131.773 303.515 131.456 303.543C131.329 303.542 131.202 303.556 131.078 303.585L130.732 303.69L130.057 303.894C129.563 304.031 129.01 304.25 128.42 304.446C127.847 304.689 127.229 304.908 126.662 305.193C127.004 305.004 127.355 304.834 127.714 304.679C125.461 305.595 123.366 306.86 121.506 308.427C121.949 308.21 122.365 307.984 122.805 307.786C122.191 308.291 121.533 308.742 120.839 309.133C120.63 309.233 120.409 309.301 119.169 310.67L119.378 310.799C117.81 312.46 116.465 314.318 115.375 316.326C114.285 318.33 113.535 320.502 113.158 322.752C112.405 328.287 113.686 333.908 116.764 338.569C118.356 340.913 120.461 342.861 122.921 344.266C124.124 344.968 125.394 345.548 126.713 345.996C128.012 346.452 129.347 346.798 130.704 347.031C132.047 347.272 133.405 347.418 134.769 347.465C136.121 347.508 137.394 347.465 138.703 347.465L146.434 347.446C151.536 347.446 156.522 347.492 161.319 347.594L162.165 347.776C162.53 348.042 167.467 347.384 168.195 347.628L170.43 347.507C171.057 347.554 172.38 347.604 171.267 347.663C173.336 347.674 173.383 347.631 174.872 347.551L177.089 347.715C185.236 347.844 192.165 347.526 200.738 347.59C211.034 347.927 230.427 347.618 241.598 347.442C257.303 347.046 275.56 348.101 291.638 347.649C291.9 347.666 292.37 347.649 292.772 347.635C293.02 347.633 293.267 347.611 293.511 347.57L308.225 347.609C308.225 347.609 323.464 347.629 334.505 347.436C334.062 346.923 333.619 346.394 333.203 345.856C330.949 345.748 328.349 345.634 325.369 345.514L325.733 345.456C317.682 345.309 312.612 345.285 307.059 345.576C306.183 345.22 300.445 345.539 298.562 345.428L298.739 345.399C293.826 345.674 288.625 345.171 283.889 345.416C284.337 345.302 284.801 345.258 285.263 345.285C282.456 345.411 279.643 345.384 276.838 345.202C268.6 345.255 257.1 345.161 251.819 345.498L252.181 345.442C249.172 345.665 248.286 345.474 244.922 345.589C244.794 345.58 244.666 345.563 244.539 345.536C241.261 345.758 234.975 345.572 232.325 345.665L232.155 345.527L225.628 345.56L228.066 345.589C227.218 345.968 223.132 345.351 218.398 345.597C213.964 345.55 209.407 346.383 204.809 346.199C202.614 346.376 206.744 345.903 203.464 346.051C203.359 345.854 204.997 345.928 204.154 345.77C200.932 345.863 198.876 345.569 194.903 345.702L194.742 345.554C189.558 345.835 184.97 345.351 181.517 345.619C176.174 345.746 177.942 345.162 172.374 345.464L170.213 345.255C167.833 345.223 168.506 345.511 165.867 345.411C166.03 345.279 162.533 345.306 164.08 345.181C158.109 344.976 151.948 345.477 144.087 345.125C142.373 345.381 138.415 345.229 137.14 345.421C137.035 345.359 135.03 345.397 133.74 345.241C133.305 345.212 132.874 345.147 132.45 345.045C132.357 345.001 132.694 345.031 133.758 345.063C134.078 345.061 134.397 345.092 134.711 345.155L135.215 345.031C133.238 344.846 131.273 344.55 129.329 344.144C129.117 344.095 128.904 344.042 128.691 343.987C128.802 343.898 128.92 343.801 129.044 343.691L129.084 343.742C129.263 343.507 129.412 343.251 129.528 342.98C129.61 342.739 129.624 342.48 129.569 342.231C129.928 342.289 129.797 341.718 129.961 341.607L129.983 341.632C129.866 341.149 130.497 340.9 130.397 340.439C130.417 340.463 130.512 340.503 130.485 340.587C130.533 340.291 130.568 339.885 130.781 339.926C130.929 339.236 131.317 338.324 131.103 337.803L131.15 337.848C130.994 337.543 131.195 337.518 131.15 337.214C131.18 337.205 131.199 337.189 131.21 337.194C131.062 336.872 131.357 336.399 131.322 336.16L131.459 336.176L131.554 335.63L131.474 335.812C131.121 335.664 131.807 335.454 131.622 335.01C131.734 334.646 130.979 334.123 131.227 333.778C131.08 333.568 131.485 333.985 131.397 333.692C131.592 333.716 131.496 333.84 131.665 333.794C131.619 333.513 131.94 333.388 131.866 333.038L132.021 333.046C131.805 332.575 132.317 332.251 132.092 331.927C132.018 331.465 132.58 331.677 132.336 331.176L132.563 331.015C132.621 330.816 132.327 330.845 132.453 330.632C132.581 330.659 132.59 330.36 132.698 330.502C132.943 330.009 132.472 329.45 132.859 328.802C132.614 328.644 132.785 328.315 132.6 328.198C132.713 328.184 132.655 327.525 132.875 327.911C132.895 327.943 132.887 328.001 132.844 327.997L132.992 328.047C133.304 327.671 132.844 327.345 132.895 326.968C132.844 327.08 132.858 327.229 132.747 327.127L132.767 326.777L132.895 326.851L132.97 326.326L132.812 326.399C132.893 326.143 133.162 326.048 132.939 325.762C132.813 325.631 132.726 326.007 132.677 325.736C132.826 325.316 132.917 324.878 132.951 324.434C132.776 324.483 132.776 324.365 132.733 324.246L132.881 324.224C132.642 323.772 133.209 324.036 133.014 323.583L132.796 323.515C132.469 323.12 133.102 323.268 132.661 322.836C132.697 323.016 132.327 322.947 132.382 322.719L132.529 322.764C132.493 322.642 132.426 322.607 132.447 322.523C132.535 322.589 132.667 322.543 132.621 322.363L132.821 322.469L132.509 322.15C132.639 321.869 132.392 321.469 132.589 321.337C132.589 321.337 132.626 320.746 132.383 320.651C132.538 320.747 132.556 320.425 132.732 320.495C132.556 320.364 132.379 319.948 132.51 319.755L132.535 319.785C132.599 319.112 132.111 318.723 132.222 318.11C132.051 318.168 132.095 317.847 131.884 317.962C131.575 317.414 132.107 316.79 131.378 316.726C131.279 316.469 131.467 316.375 131.47 316.23L131.52 316.284C131.394 315.959 131.299 315.623 131.239 315.279C131.128 315.111 130.812 315.162 130.796 314.818C130.952 314.89 130.89 314.763 130.855 314.641C130.898 314.713 130.951 314.726 130.988 314.541C130.946 314.529 130.909 314.506 130.878 314.475C130.889 314.475 130.895 314.462 130.91 314.462C130.805 314.269 130.777 314.314 130.787 314.416C130.766 314.416 130.744 314.431 130.717 314.471C130.818 314.213 130.534 313.879 130.743 313.798C130.506 313.297 130.229 312.816 129.915 312.36C130.003 312.266 130.142 312.351 130.237 312.482L130.07 312.141C130.228 312.091 130.233 312.314 130.304 312.413C130.406 311.903 129.739 311.629 129.794 311.053L129.634 310.997L129.643 310.96C129.579 310.985 129.451 310.906 129.403 310.841C129.514 310.722 129.717 310.729 129.621 310.488C129.687 310.241 129.352 309.963 129.168 309.749C129.202 309.897 129.111 309.879 129.038 309.841C128.984 309.724 129.087 309.6 128.991 309.532L129.165 309.446C129.018 309.563 128.849 309.209 128.757 309.196C128.861 309.072 128.951 309.334 129.063 309.322L128.731 308.612C128.487 308.416 128.583 308.733 128.373 308.68C128.242 308.47 128.026 308.309 128.021 308.005L127.9 308.152C127.66 307.928 127.517 307.62 127.5 307.292C128.055 307.044 128.859 306.671 130.386 306.056C129.43 306.374 129.174 306.37 129.46 306.194C129.723 306.049 129.996 305.924 130.278 305.821C130.479 305.758 130.711 305.691 130.969 305.622L131.34 305.526C131.43 305.499 131.428 305.526 131.635 305.526C131.584 305.537 131.516 305.549 131.477 305.563L131.412 305.599C131.358 305.649 131.297 305.69 131.23 305.721C131.31 305.688 131.393 305.669 131.479 305.662L131.903 305.647L132.609 305.619C133.035 305.604 133.4 305.595 133.886 305.611C133.017 305.691 133.427 305.827 135.573 305.802L134.133 305.988L138.192 305.715C141.326 305.873 146.29 305.673 147.576 305.883C147.576 305.883 154.312 305.985 155.853 305.756C154.5 305.904 158.218 305.953 157.156 306.12C160.139 305.911 163.132 305.87 166.12 305.999L165.73 306.018C173.364 306.194 178.784 305.778 185.634 305.991C185.322 305.812 188.939 305.91 188.046 305.681C195.132 305.456 200.967 306.146 203.526 305.44C206.75 305.401 207.347 305.605 209.012 305.642L208.245 305.679C214.285 305.622 216.039 305.614 220.527 305.63C222.721 305.404 224.925 305.298 227.131 305.313C225.833 305.444 227.474 305.419 228.974 305.419C228.015 305.44 227.719 305.487 229.689 305.576C229.967 305.534 230.396 305.511 230.796 305.49C230.814 305.5 230.892 305.508 230.851 305.521C233.364 305.475 232.92 305.435 231.759 305.418C231.816 305.397 231.719 305.372 231.359 305.335C233.959 305.503 238.602 305.325 238.923 305.548C246.461 305.496 251.843 305.265 258.113 305.178C258.818 305.293 257.351 305.395 255.532 305.44L259.979 305.398C258.676 305.535 257.365 305.577 256.055 305.526C261.351 305.795 266.974 305.26 273.183 305.505L274.47 305.373L274.84 305.395C275.598 305.266 276.366 305.204 277.135 305.209C278.013 305.357 277.073 305.542 280.149 305.533C282.579 305.672 287.056 305.464 290.24 305.385C288.524 305.362 289.077 305.282 289.816 305.237C291.353 305.237 292.238 305.385 293.425 305.316L293.541 305.463C293.753 305.316 297.638 305.302 298.157 305.23C299.033 305.378 295.772 305.354 295.388 305.462L304.634 305.435C307.922 305.288 304.042 305.251 305.609 305.081C308.512 305.042 311.345 304.906 314.679 305.023L313.625 304.851C319.08 304.717 322.345 304.736 326.018 304.912C328.024 304.829 329.832 304.769 331.481 304.699ZM127.95 313.461C128.135 314.107 128.352 314.744 128.602 315.368C128.956 315.593 128.809 316.191 129.109 316.493L128.997 316.666C129.052 316.71 129.094 316.769 129.118 316.836C129.141 316.903 129.146 316.975 129.13 317.044H129.087C129.235 317.202 129.22 317.424 129.297 317.502H129.253L129.322 317.721L129.254 317.695C129.43 317.973 129.517 318.297 129.504 318.626L129.677 318.57C129.587 319.232 129.992 319.402 129.854 320.008H129.81C130.401 320.661 129.631 321.191 130.171 321.88C130.104 321.792 130.083 321.928 130.039 321.925C130.128 322.264 130.197 322.628 130.547 322.602C130.573 322.855 130.46 322.818 130.327 322.861C130.475 322.848 130.556 323.062 130.577 323.26L130.512 323.173L130.596 323.736L130.88 323.606C130.813 323.914 130.53 323.705 130.617 323.989L130.858 323.973C130.833 324.394 130.481 324.656 130.324 325.059C130.322 325.911 130.38 326.762 130.497 327.606C130.582 328.431 130.51 329.263 130.283 330.06L130.098 330.114C129.838 330.114 130.441 330.573 130.191 330.61L130.292 330.801C130.239 330.847 130.175 330.949 130.126 330.851C130.097 331.017 130.139 331.024 130.206 331.147L130.021 331.306C129.81 331.939 130.092 332.541 129.891 333.212C129.644 333.701 129.51 334.24 129.496 334.788C129.442 335.394 129.399 336.016 129.389 336.479C129.403 336.813 129.349 337.146 129.23 337.458C129.089 337.778 128.928 338.089 128.749 338.389C128.365 338.958 128.127 339.613 128.055 340.296C128.007 340.324 128.048 340.454 128.078 340.463L127.634 341.564L127.553 341.787C127.504 341.928 127.439 342.126 127.35 342.343C127.212 342.702 127.096 343.069 127.004 343.443C125.912 343.065 124.863 342.569 123.877 341.965L124.682 342.466C124.948 342.623 125.207 342.747 125.393 342.853C125.769 343.059 125.883 343.149 125.367 342.94C124.207 342.377 123.116 341.683 122.115 340.871L122.822 341.26C121.308 340.125 120.004 338.736 118.967 337.154L119.287 337.885L118.761 337.072L118.359 336.316C118.095 335.848 117.932 335.382 117.715 334.937C117.348 334.012 116.914 333.076 116.384 331.574C115.851 330.216 116.959 334.214 116.05 331.346C115.53 329.138 115.359 326.862 115.542 324.601C115.733 322.104 116.379 319.663 117.446 317.397C117.274 317.565 117.32 317.356 117.475 316.954C117.667 316.564 117.931 315.956 118.281 315.384L118.494 315.332C118.891 314.588 119.365 313.887 119.91 313.242C120.111 312.989 120.346 312.765 120.607 312.575C120.86 312.383 121.101 312.175 121.329 311.953C121.51 311.79 121.732 311.578 122.014 311.291C122.297 311.004 122.671 310.67 123.142 310.256C123.048 310.374 122.957 310.496 122.873 310.624C123.132 310.249 123.426 309.904 123.708 309.535C124.318 309 124.977 308.524 125.677 308.115C125.801 308.407 125.96 308.683 126.152 308.936C126.518 309.432 126.856 309.948 127.164 310.482C127.329 310.97 127.44 311.475 127.497 311.987C127.579 312.498 127.734 312.994 127.956 313.461H127.95Z" fill="white"/>
<path d="M293.592 305.495L293.559 305.451C293.539 305.464 293.54 305.479 293.592 305.495Z" fill="white"/>
<path d="M129.689 310.83L129.656 310.956C129.688 310.939 129.701 310.904 129.689 310.83Z" fill="white"/>
<path d="M128.61 315.373L128.585 315.353L128.61 315.373Z" fill="white"/>
<path d="M133.031 323.58L133.141 323.614L133.031 323.58Z" fill="white"/>
<path d="M264.029 324.043L264.262 324.116C264.258 324.083 264.205 324.055 264.029 324.043Z" fill="white"/>
<path d="M323.192 324.21C323.21 324.21 323.232 324.201 323.248 324.195C323.208 324.199 323.196 324.205 323.192 324.21Z" fill="white"/>
<path d="M273.106 326.5H273.093C273.074 326.508 273.05 326.511 273.032 326.518L273.106 326.5Z" fill="white"/>
<path d="M293.016 323.496L293.104 323.389L293.016 323.496Z" fill="white"/>
<path d="M310.172 326.204L310.585 326.371C312.109 326.504 313.403 326.19 315.006 326.261C317.549 326.474 320.107 326.431 322.641 326.132C323.662 326.022 324.69 326.018 325.711 326.122C325.669 325.416 325.655 324.707 325.663 323.996C325.287 324.017 324.915 324.08 324.554 324.184L324.622 324.126C324.059 324.348 323.895 324.157 323.265 324.274C323.231 324.247 323.187 324.232 323.194 324.221C322.437 324.321 321.674 324.362 320.911 324.342L320.879 324.204L319.66 324.232L320.115 324.263C319.956 324.642 319.193 324.024 318.308 324.263C317.48 324.213 316.627 325.045 315.767 324.855C315.357 325.031 316.129 324.568 315.516 324.707C315.496 324.509 315.802 324.583 315.646 324.426C315.044 324.518 314.66 324.22 313.916 324.352L313.887 324.197C312.917 324.475 312.06 323.988 311.415 324.255C310.416 324.379 310.747 323.796 309.707 324.093L309.303 323.885C308.86 323.849 308.983 324.139 308.49 324.033C308.52 323.903 307.867 323.926 308.156 323.804C306.91 323.85 305.663 323.827 304.42 323.736C304.099 323.99 303.36 323.835 303.12 324.031C303.081 323.92 301.642 324.009 302.469 323.771C302.541 323.75 302.667 323.755 302.658 323.799L302.758 323.651C301.92 323.356 301.233 323.799 300.404 323.756C300.649 323.807 300.977 323.795 300.757 323.904L299.987 323.881L300.148 323.753L299 323.677L299.156 323.833C298.595 323.75 298.398 323.483 297.764 323.705C297.468 323.827 298.295 323.917 297.702 323.966C296.951 323.855 295.825 323.69 294.865 323.64C294.956 323.818 294.697 323.81 294.431 323.845L294.401 323.697C293.383 323.909 294.029 323.357 293.018 323.524L292.839 323.739C291.927 324.034 292.348 323.418 291.334 323.83C291.735 323.805 291.522 324.17 291.03 324.102L291.155 323.954C290.977 324 290.793 324.02 290.609 324.015C290.771 323.935 290.696 323.799 290.294 323.823L290.564 323.638L289.804 323.909C289.213 323.747 288.291 323.944 288.052 323.734C288.052 323.734 286.792 323.628 286.502 323.855C286.757 323.715 286.059 323.657 286.262 323.492C285.727 323.697 285.143 323.737 284.585 323.607L284.658 323.588C283.231 323.408 282.217 323.82 280.937 323.603C280.997 323.782 280.32 323.682 280.494 323.912C279.164 324.132 278.08 323.439 277.6 324.144C276.997 324.179 276.886 323.975 276.576 323.938L276.724 323.901C275.594 323.956 275.266 323.96 274.428 323.943C274.01 324.009 273.942 324.337 273.192 324.256C273.435 324.126 273.129 324.15 272.848 324.148C273.027 324.129 273.083 324.08 272.715 323.991C272.652 324.033 272.582 324.062 272.508 324.077C272.508 324.067 272.49 324.059 272.498 324.045C272.029 324.089 272.11 324.13 272.328 324.15C272.317 324.169 272.335 324.194 272.402 324.231C271.917 324.061 271.048 324.238 270.989 324.014C269.581 324.061 268.573 324.288 267.401 324.371C267.27 324.256 267.549 324.156 267.885 324.111L267.054 324.151C267.061 323.985 267.531 324.056 267.793 324.025C266.804 323.753 265.752 324.286 264.592 324.036L264.351 324.166L264.283 324.144C264.283 324.213 264.024 324.308 263.852 324.328C263.688 324.181 263.866 323.996 263.291 324.003C262.658 323.949 262.021 323.999 261.405 324.151C261.724 324.176 261.621 324.256 261.483 324.306C261.187 324.306 261.031 324.158 260.809 324.226L260.781 324.031C260.893 324.215 260.03 324.226 259.924 324.306C259.761 324.158 260.367 324.184 260.443 324.074L258.715 324.096C258.098 324.244 258.826 324.281 258.53 324.451C257.97 324.547 257.4 324.564 256.836 324.501L257.033 324.676C256.264 324.813 255.474 324.79 254.715 324.606C247.116 325.99 253.11 326.528 253.11 326.528C256.098 326.92 257.643 326.422 261.202 326.299C264.331 326.397 265.161 326.735 268.403 326.608C269.951 326.64 271.601 326.569 273.113 326.534C273.831 326.274 275.099 326.534 275.949 326.32L276.277 326.467C276.579 326.376 276.898 326.361 277.207 326.425L277.189 326.467C277.633 326.357 278.119 326.426 278.336 326.37L278.318 326.414L278.849 326.397L278.757 326.457C279.499 326.35 280.251 326.328 280.998 326.392L280.942 326.213C282.42 326.419 282.964 326.048 284.299 326.29L284.281 326.333C285.97 325.866 286.941 326.664 288.69 326.221C288.473 326.277 288.783 326.314 288.765 326.358C289.568 326.309 290.424 326.284 290.437 325.932C291.028 325.94 290.913 326.045 290.988 326.181C290.988 326.033 291.492 325.963 291.949 325.956L291.739 326.015L293.046 325.966L292.79 325.671C293.483 325.756 292.965 326.027 293.63 325.959L293.621 325.717C294.451 325.851 295.27 326.052 296.069 326.317C299.925 326.432 304.071 325.83 307.657 326.266L307.815 326.45C307.883 326.714 308.807 326.059 308.943 326.302L309.359 326.182C309.476 326.231 309.724 326.283 309.516 326.342C309.742 326.347 309.967 326.3 310.172 326.204V326.204Z" fill="white"/>
<path d="M90.6336 210.443L90.6233 210.722C90.6543 210.71 90.6661 210.636 90.6336 210.443Z" fill="white"/>
<path d="M95.7043 278.66C95.7043 278.683 95.7043 278.708 95.7043 278.728C95.7132 278.681 95.7132 278.666 95.7043 278.66Z" fill="white"/>
<path d="M93.3266 221.453V221.44L93.2764 221.385L93.3266 221.453Z" fill="white"/>
<path d="M98.1471 269.735C98.0777 269.193 98.3363 270.241 98.36 269.451C98.5595 269.462 98.4072 269.834 98.6038 269.666C98.7992 268.932 98.9054 268.178 98.9202 267.419L99.068 267.382C99.0089 267.055 98.9793 266.743 98.9541 266.438C98.929 266.134 98.935 265.847 98.9084 265.562C98.8817 265.277 98.8714 265.012 98.8329 264.762C98.7884 264.53 98.6996 264.308 98.5714 264.109C98.4777 263.885 98.4151 263.65 98.3851 263.41C98.3636 263.274 98.3567 263.137 98.3644 263C98.3645 262.601 98.2116 262.217 97.9372 261.927L97.8914 261.358C97.6608 260.811 97.4879 261.09 97.2603 260.487C97.3933 260.457 96.9499 259.729 97.244 259.995C96.6824 258.624 95.4334 257.692 94.6884 256.003C94.245 255.823 93.8696 254.989 93.5548 254.855C93.6035 254.756 92.6177 253.338 93.3449 254.054C93.4069 254.116 93.4823 254.244 93.4409 254.259L93.6316 254.278C93.336 253.285 92.5452 252.828 92.1639 251.943C92.2289 252.222 92.4314 252.55 92.2156 252.374L91.852 251.563L92.0456 251.675C91.8805 251.278 91.7398 250.87 91.6244 250.456L91.5386 250.674C91.3716 250.051 91.6288 249.779 91.2194 249.167C91.0228 248.884 91.1573 249.783 90.9504 249.153L90.943 248.458L90.9341 248.077L90.9785 247.678L91.0539 246.866C91.1115 246.594 91.1632 246.328 91.2016 246.072C91.0228 246.145 91.0361 245.864 91.0686 245.567H91.2283C91.2549 244.993 91.3598 244.908 91.4707 244.828C91.5815 244.748 91.6805 244.68 91.7884 244.12L91.8594 244.248L91.6495 243.861C91.6628 243.317 91.7973 243.208 91.9244 243.088C92.0516 242.968 92.1595 242.832 92.1979 242.201C92.0501 242.644 91.784 242.266 92.1048 241.757L92.1742 241.954C92.226 241.741 92.3029 241.534 92.4033 241.339C92.39 241.549 92.5511 241.525 92.7374 241.085L92.7655 241.454C92.8113 241.145 92.8645 240.834 92.931 240.52C93.3951 239.969 93.775 238.876 94.1031 238.72C94.4747 238.187 94.754 237.596 94.9294 236.971C94.9027 237.321 95.3728 236.575 95.3964 236.875C95.548 236.165 95.8505 235.496 96.2833 234.913L96.2582 235.005C96.6884 234.278 97.0147 233.494 97.2277 232.676C97.343 232.298 97.4525 231.927 97.5456 231.529C97.6387 231.132 97.7954 230.756 97.9151 230.328C97.7274 230.369 97.9786 229.472 97.714 229.662C97.7214 229.436 97.7525 229.219 97.7702 229.007C97.7879 228.796 97.7939 228.585 97.8145 228.382C97.8721 228.01 97.9091 227.635 97.9254 227.259C97.94 226.954 97.9196 226.649 97.8648 226.35C97.8057 226.114 97.6621 225.907 97.4613 225.77C97.3896 225.313 97.3544 224.851 97.3563 224.388L97.4421 224.564C97.1337 223.6 96.7709 222.654 96.3557 221.731C96.0497 221.278 95.7438 221.328 95.3639 220.457C95.6241 220.669 95.4201 220.336 95.253 220.021C95.3772 220.213 95.4541 220.253 95.3092 219.796C95.2326 219.745 95.1642 219.682 95.1067 219.61C95.1067 219.603 95.1067 219.582 95.1274 219.584C94.7963 219.091 94.8126 219.202 94.9323 219.449C94.9072 219.449 94.8969 219.479 94.9072 219.57C94.7594 218.949 94.0499 218.105 94.2066 217.928C93.2739 216.45 92.4506 215.508 91.7397 214.269C91.7707 214.076 92.0131 214.327 92.2378 214.671C92.0782 214.376 91.9023 214.09 91.753 213.793C91.9008 213.733 92.09 214.266 92.2614 214.532C91.9658 213.367 90.943 212.436 90.8129 211.047C90.7427 210.971 90.6766 210.892 90.6148 210.81V210.726C90.5483 210.748 90.3902 210.472 90.3193 210.282C90.4272 210.065 90.6252 210.234 90.5277 209.58C90.5311 209.239 90.4974 208.897 90.4272 208.563C90.3457 208.183 90.2865 207.798 90.2498 207.412C90.2202 207.786 90.1419 207.666 90.0931 207.502C90.0931 207.16 90.2409 206.975 90.2099 206.711L90.4079 206.695C90.2069 206.813 90.2882 205.808 90.2512 205.66C90.4301 205.494 90.2793 206.196 90.399 206.293C90.4622 205.624 90.5773 204.961 90.7434 204.31C90.804 203.578 90.5217 204.387 90.4582 204.014C90.5395 203.7 90.5868 203.376 90.6755 203.052C90.7722 202.712 90.9144 202.386 91.0982 202.084C91.011 202.129 90.9261 202.178 90.8439 202.232C90.9925 201.729 91.2004 201.246 91.4633 200.792C91.6735 200.423 91.9398 200.089 92.2526 199.801C92.5605 199.165 92.906 198.547 93.2872 197.951C92.1625 198.058 91.0903 198.479 90.1921 199.164C89.7545 199.859 89.3914 200.598 89.1087 201.368C88.4683 203.209 88.1293 205.141 88.1051 207.089C87.9931 208.719 88.1171 210.356 88.4732 211.95C88.8532 213.53 89.4823 215.039 90.337 216.422C91.2652 218.195 92.4299 219.881 93.3049 221.448C93.9217 222.36 94.4395 223.336 94.8496 224.358L94.8318 224.756C95.0081 225.056 95.1124 225.392 95.1363 225.739L95.092 225.729C95.2247 226.125 95.3178 226.533 95.3698 226.947L95.3255 226.932L95.3846 227.503L95.3166 227.406C95.3803 227.817 95.4021 228.232 95.3816 228.647C95.3441 229.046 95.2734 229.442 95.1703 229.829L95.3565 229.803C95.2442 230.2 95.0979 230.535 95.0269 230.838C94.956 231.141 94.8791 231.42 94.7889 231.692C94.7125 231.971 94.6212 232.246 94.5155 232.515C94.3705 232.832 94.2031 233.138 94.0144 233.43L93.9834 233.392C93.54 235.426 92.2097 236.081 91.5505 238.204C91.6348 237.939 91.413 238.261 91.3864 238.221C90.943 239.131 90.4641 240.118 90.7819 240.291C90.4523 240.961 90.4168 240.791 90.2512 240.82C90.3222 240.851 90.3015 241.02 90.2335 241.246C90.1596 241.519 90.0688 241.787 89.9616 242.049L90.0118 241.775L89.7162 242.566L89.4679 243.385L89.8492 243.162C89.493 243.987 89.4235 243.262 89.2476 244.118L89.4827 244.171C89.4064 244.449 89.3126 244.721 89.2018 244.986L89.0422 245.35L88.9121 245.713C88.6837 246.232 88.5276 246.779 88.448 247.339C88.4133 248.697 88.6541 250.047 89.156 251.308C89.6359 252.524 90.2476 253.683 90.9799 254.765C92.3808 256.663 93.6642 258.645 94.8229 260.7L94.7682 260.956C94.5849 261.155 95.6876 261.77 95.5502 262.033L95.8709 262.415C95.8871 262.562 95.967 262.837 95.8073 262.647C95.9162 262.885 96.057 263.107 96.2256 263.308L96.2449 263.804C96.3927 264.212 96.4503 264.607 96.5848 264.987C96.7193 265.367 96.7563 265.745 96.8597 266.127C97.0226 266.943 97.0377 267.781 96.9041 268.603L96.3616 270.492C96.1428 271.207 95.893 271.994 95.6226 272.798C95.0712 274.406 94.48 276.105 94.1164 277.389C93.673 279.222 92.9576 281.103 92.5053 283.155C91.9779 285.179 91.9688 287.303 92.4787 289.331C92.4885 289.492 92.5456 289.646 92.6428 289.774C92.7315 290.377 92.9221 290.957 93.0699 291.548C93.2296 292.035 93.3951 292.521 93.5829 292.997C94.112 293.146 94.659 293.222 95.2087 293.223H96.103C95.902 292.88 95.6819 292.549 95.4437 292.231C95.7142 291.919 94.9678 290.862 95.0003 290.417L95.0387 290.447C94.4564 289.476 94.8037 288.262 94.4697 287.275C94.5169 287.306 94.5558 287.349 94.5833 287.399C94.6108 287.449 94.6261 287.504 94.6279 287.561C94.5244 286.822 94.4342 285.787 94.6618 285.74C94.6584 285.258 94.6831 284.776 94.7358 284.297C94.783 283.793 94.8407 283.277 94.9308 282.781L95.0343 282.052L95.1511 281.375C95.2064 281.003 95.241 280.628 95.2545 280.253L95.2871 280.347C95.2693 279.638 95.4954 279.495 95.6226 278.742C95.661 278.711 95.692 278.665 95.6994 278.677C95.9046 277.769 96.1936 276.881 96.5626 276.026L96.7105 276.04L97.2455 274.619L97.0075 275.138C96.7267 274.814 97.6638 274.161 97.8175 273.012C98.2284 272.007 97.754 270.737 98.1471 269.735Z" fill="white"/>
<path d="M57.7635 255.219C58.0192 254.645 57.5699 254.203 57.5935 253.645C57.5492 253.812 57.5684 254.032 57.4605 253.889V253.37L57.5921 253.473L57.6408 252.7L57.493 252.811C57.5625 252.431 57.8256 252.291 57.5876 251.872C57.4561 251.683 57.3866 252.236 57.3245 251.838C57.4482 251.206 57.5384 250.568 57.595 249.927C57.4191 249.99 57.4221 249.817 57.3836 249.64L57.5314 249.616C57.3053 248.936 57.8655 249.359 57.6793 248.685L57.7872 248.743L57.462 248.568C57.1472 247.961 57.7768 248.236 57.3482 247.56C57.3792 247.829 57.0112 247.69 57.0718 247.358L57.2196 247.44C57.1841 247.257 57.122 247.196 57.153 247.075C57.2329 247.183 57.3688 247.13 57.3437 246.861L57.53 247.04L57.255 246.533C57.4147 246.139 57.2137 245.517 57.4221 245.35C57.4221 245.35 57.524 244.506 57.2935 244.315C57.4413 244.485 57.4901 244.02 57.6586 244.153C57.5556 243.986 57.4916 243.798 57.4714 243.604C57.4511 243.409 57.4752 243.212 57.5418 243.028L57.5596 243.078C57.7487 242.123 57.3437 241.437 57.5684 240.581C57.3895 240.617 57.493 240.164 57.2639 240.272C57.0452 239.376 57.7709 238.662 57.0703 238.322C57.0451 237.916 57.2506 237.848 57.2935 237.64L57.3275 237.737C57.294 237.223 57.294 236.708 57.3275 236.194C57.2684 235.91 56.9388 235.854 57.0422 235.353C57.1649 235.52 57.1501 235.313 57.159 235.125C57.1737 235.246 57.221 235.285 57.3186 235.042C57.2812 235 57.2543 234.949 57.2403 234.894C57.2506 234.894 57.2595 234.884 57.2728 234.894C57.2418 234.578 57.1974 234.631 57.1737 234.776C57.1531 234.769 57.1279 234.776 57.0895 234.823C57.2728 234.504 57.1205 233.913 57.3452 233.883C57.3441 233.626 57.3278 233.37 57.2964 233.115L54.8709 235.628C54.8323 236.133 54.8536 236.641 54.9345 237.141L54.7867 237.36C54.8731 237.561 54.8826 237.786 54.8133 237.993L54.7704 237.979C54.8151 238.237 54.8413 238.498 54.8487 238.76L54.8059 238.747L54.8133 239.107L54.7542 239.044C54.8477 239.546 54.8617 240.06 54.7955 240.566L54.9759 240.531C54.7615 241.532 55.1237 241.904 54.8768 242.807L54.8339 242.794C55.2892 243.943 54.5088 244.605 54.9551 245.788C54.899 245.64 54.8621 245.85 54.8192 245.839C54.8709 246.382 54.899 246.963 55.2508 246.969C55.2508 247.365 55.1414 247.293 55.0069 247.344C55.1547 247.344 55.2301 247.684 55.2464 247.993L55.1842 247.845L55.2508 248.732L55.5464 248.554C55.4696 249.024 55.1917 248.679 55.2715 249.127L55.5124 249.117C55.3859 249.693 55.197 250.253 54.9492 250.789C54.9742 252.123 55.0729 253.456 55.2449 254.78C55.4298 256.058 55.4665 257.353 55.3543 258.64L55.1783 258.756C54.9138 258.82 55.6129 259.404 55.3735 259.512L55.5213 259.787C55.4784 259.87 55.4385 260.04 55.3735 259.902C55.3719 260.062 55.424 260.218 55.5213 260.346L55.3735 260.641C55.3571 261.059 55.3893 261.478 55.4696 261.889L57.5477 263.62C57.6221 263.329 57.6221 263.024 57.5477 262.733L57.6955 262.702C57.3674 262.072 57.8152 261.462 57.5181 261.048C57.3482 260.385 57.9438 260.569 57.5994 259.89L57.7887 259.606C57.8034 259.311 57.5196 259.408 57.5994 259.071C57.731 259.085 57.6763 258.649 57.8123 258.835C57.9764 258.075 57.4457 257.328 57.7428 256.322C57.4768 256.119 57.6039 255.615 57.4058 255.464C57.5137 255.432 57.3748 254.468 57.6423 255.021C57.6645 255.068 57.6645 255.152 57.6216 255.149L57.7635 255.219Z" fill="white"/>
<path d="M255.866 201.96L255.792 202.255C255.825 202.254 255.855 202.178 255.866 201.96Z" fill="white"/>
<path d="M255.899 278.044L255.916 278.115C255.91 278.065 255.905 278.048 255.899 278.044Z" fill="white"/>
<path d="M253.354 213.628V213.611L253.336 213.533L253.354 213.628Z" fill="white"/>
<path d="M255.903 197.004H255.821C255.823 197.113 255.851 197.221 255.903 197.317V197.004Z" fill="white"/>
<path d="M256.338 239.234L256.446 239.348L256.338 239.234Z" fill="white"/>
<path d="M255.942 197.756L255.896 197.765C255.904 197.768 255.913 197.769 255.921 197.767C255.929 197.766 255.936 197.762 255.942 197.756V197.756Z" fill="white"/>
<path d="M253.305 207.55C253.264 209.539 253.326 211.664 253.354 213.611C253.606 214.534 253.343 216.165 253.556 217.259L253.408 217.682C253.498 218.074 253.512 218.481 253.448 218.879L253.405 218.854C253.515 219.417 253.444 220.051 253.498 220.332L253.456 220.309L253.47 220.993L253.41 220.875C253.515 221.832 253.535 222.797 253.47 223.757L253.651 223.685C253.444 225.589 253.813 226.287 253.569 228.004L253.527 227.981C253.992 230.154 253.197 231.415 253.642 233.656C253.586 233.376 253.549 233.775 253.506 233.752C253.555 234.787 253.58 235.885 253.932 235.901C253.932 236.654 253.821 236.513 253.685 236.611C253.833 236.611 253.903 237.26 253.914 237.847L253.853 237.576L253.906 239.258L254.202 238.929C254.118 239.816 253.847 239.155 253.917 240.008L254.159 239.997C254.029 241.059 253.831 242.111 253.568 243.148C253.469 248.112 254.1 253.441 253.694 258.059L253.513 258.263C253.249 258.353 253.912 259.536 253.661 259.712L253.785 260.248C253.738 260.396 253.689 260.718 253.629 260.451C253.613 260.744 253.654 261.038 253.747 261.317L253.584 261.851C253.467 263.811 253.793 265.475 253.744 267.536C253.56 270.811 253.637 274.096 253.974 277.359C254.402 281.13 253.397 285.532 253.895 289.394C253.876 289.546 253.905 289.701 253.977 289.837V293.203H256.033C256.024 293.157 256.017 293.113 256.007 293.067C256.36 292.851 256.023 291.476 256.132 291.023L256.162 291.064C255.874 289.881 256.36 288.631 256.101 287.496C256.149 287.535 256.186 287.585 256.21 287.643C256.233 287.7 256.242 287.762 256.236 287.824C256.183 286.996 256.088 285.864 256.298 285.798C256.336 283.789 256.218 281.78 255.945 279.789L256.004 279.875C255.891 279.301 255.837 278.717 255.841 278.132C255.868 278.088 255.881 278.03 255.893 278.04C255.782 277.066 255.73 276.086 255.738 275.105L255.875 275.063L255.829 273.495L255.806 274.086C255.424 273.885 256.032 272.904 255.779 271.762C255.819 270.697 254.977 269.609 255.154 268.501C254.974 267.975 255.449 268.964 255.302 268.176C255.498 268.149 255.429 268.543 255.584 268.339C255.485 267.566 255.776 267.069 255.637 266.121L255.785 266.081C255.489 264.838 255.976 263.731 255.702 262.903C255.569 261.62 256.155 262.04 255.85 260.703L256.056 260.183C256.087 259.611 255.798 259.775 255.896 259.14C256.027 259.178 255.996 258.337 256.122 258.708C256.322 257.271 255.826 255.794 256.16 253.902C255.903 253.493 256.051 252.541 255.865 252.235C255.976 252.183 255.877 250.326 256.121 251.395C256.141 251.487 256.138 251.649 256.094 251.637L256.242 251.766C256.322 250.756 256.282 249.739 256.122 248.738C256.072 249.055 256.087 249.478 255.982 249.195L256.001 248.203L256.128 248.409L256.2 246.931L256.042 247.135C256.122 246.412 256.39 246.157 256.165 245.341C256.039 244.973 255.954 246.027 255.903 245.264C256.008 244.298 256.169 242.849 256.217 241.616C256.039 241.732 256.045 241.399 256.01 241.057L256.158 241.019C255.943 239.709 256.496 240.539 256.326 239.245L256.112 239.016C255.806 237.844 256.431 238.385 256.014 237.082C256.039 237.597 255.674 237.325 255.741 236.691L255.889 236.85C255.842 236.62 255.821 236.385 255.826 236.15C255.906 236.358 256.042 236.26 256.017 235.744L256.203 236.09L255.931 235.115C256.091 234.362 255.894 233.168 256.104 232.859C256.168 232.193 256.126 231.522 255.98 230.869C256.128 231.194 256.178 230.302 256.345 230.557C256.137 229.858 256.097 229.12 256.228 228.402L256.248 228.497C256.429 226.662 256.017 225.358 256.236 223.713C256.057 223.787 256.158 222.918 255.928 223.132C255.708 221.428 256.407 220.028 255.704 219.41C255.706 218.963 255.776 218.518 255.912 218.093L255.949 218.277C255.899 216.826 255.894 216.404 255.917 215.321C255.85 214.783 255.522 214.696 255.608 213.732C255.736 214.045 255.716 213.65 255.717 213.288C255.736 213.519 255.784 213.584 255.875 213.117C255.833 213.033 255.804 212.943 255.791 212.851C255.801 212.851 255.809 212.827 255.823 212.837C255.781 212.234 255.739 212.339 255.72 212.619C255.699 212.604 255.674 212.627 255.637 212.715C255.81 212.091 255.637 210.972 255.862 210.898C255.823 209.087 255.599 207.794 255.526 206.283C255.643 206.114 255.742 206.468 255.782 206.905L255.75 205.835C255.915 205.847 255.84 206.45 255.871 206.779C256.149 205.51 255.625 204.154 255.884 202.664L255.755 202.352L255.779 202.263C255.71 202.263 255.618 201.932 255.597 201.711C255.745 201.501 255.93 201.728 255.927 200.989C255.988 200.178 255.947 199.363 255.803 198.563C255.775 198.974 255.696 198.841 255.655 198.662C255.655 198.293 255.803 198.083 255.741 197.796L255.889 197.771C255.797 197.731 255.761 197.327 255.729 197.013L253.63 197.024C253.645 197.426 253.658 197.843 253.665 198.291C253.546 202.311 253.204 203.376 253.305 207.55Z" fill="white"/>
<path d="M279.661 204.679L279.589 204.975C279.621 204.965 279.651 204.892 279.661 204.679Z" fill="white"/>
<path d="M280.233 278.493L280.25 278.562C280.243 278.514 280.239 278.497 280.233 278.493Z" fill="white"/>
<path d="M277.213 216.013V215.996L277.195 215.921L277.213 216.013Z" fill="white"/>
<path d="M280.363 240.839L280.47 240.95L280.363 240.839Z" fill="white"/>
<path d="M277.13 210.116C277.1 212.048 277.174 214.108 277.213 215.997C277.471 216.894 277.213 218.476 277.437 219.537L277.29 219.948C277.382 220.328 277.398 220.723 277.336 221.109L277.293 221.087C277.406 221.632 277.34 222.247 277.396 222.519L277.352 222.495L277.372 223.159L277.31 223.045C277.421 223.973 277.448 224.909 277.39 225.842L277.569 225.77C277.374 227.619 277.748 228.293 277.516 229.962L277.471 229.94C277.952 232.045 277.165 233.273 277.619 235.445C277.562 235.174 277.528 235.562 277.483 235.539C277.541 236.54 277.573 237.609 277.927 237.622C277.927 238.351 277.82 238.214 277.684 238.313C277.839 238.313 277.908 238.941 277.921 239.51L277.86 239.248L277.924 240.874L278.219 240.552C278.142 241.418 277.866 240.774 277.943 241.603L278.184 241.59C278.061 242.622 277.871 243.645 277.615 244.651C277.553 249.468 278.224 254.634 277.854 259.119L277.675 259.319C277.411 259.407 278.085 260.549 277.842 260.723L277.97 261.242C277.925 261.39 277.878 261.699 277.822 261.44C277.81 261.725 277.853 262.01 277.947 262.28L277.789 262.799C277.689 264.701 278.027 266.314 277.996 268.314C277.84 271.494 277.945 274.681 278.311 277.843C278.771 281.497 277.807 285.78 278.341 289.521C278.323 289.672 278.354 289.824 278.428 289.956L278.465 293.208H280.524C280.512 293.164 280.505 293.118 280.493 293.072C280.844 292.86 280.493 291.53 280.601 291.088L280.63 291.128C280.335 289.99 280.805 288.763 280.536 287.666C280.584 287.703 280.621 287.751 280.646 287.807C280.67 287.863 280.68 287.923 280.674 287.984C280.612 287.181 280.51 286.083 280.716 286.019C280.736 284.069 280.6 282.12 280.309 280.192L280.369 280.275C280.132 279.578 280.318 279.367 280.191 278.585C280.218 278.542 280.23 278.486 280.241 278.495C280.121 277.551 280.061 276.6 280.061 275.649L280.199 275.608L280.138 274.087L280.119 274.656C279.737 274.465 280.335 273.5 280.073 272.401C280.104 271.367 279.253 270.318 279.421 269.244C279.235 268.734 279.717 269.687 279.569 268.927C279.765 268.898 279.698 269.282 279.853 269.075C279.746 268.326 280.034 267.841 279.887 266.917L280.034 266.877C279.739 265.672 280.204 264.595 279.925 263.793C279.777 262.55 280.369 262.952 280.051 261.659L280.252 261.152C280.278 260.597 279.992 260.759 280.083 260.141C280.215 260.178 280.178 259.362 280.306 259.721C280.494 258.325 279.983 256.897 280.306 255.058C280.048 254.662 280.188 253.737 279.993 253.443C280.104 253.392 279.993 251.592 280.243 252.625C280.264 252.714 280.262 252.872 280.218 252.862L280.366 252.984C280.638 251.935 280.188 251.085 280.218 250.049C280.17 250.356 280.188 250.764 280.082 250.492L280.092 249.531L280.222 249.729L280.283 248.295L280.128 248.495C280.202 247.793 280.466 247.543 280.235 246.755C280.107 246.397 280.03 247.42 279.972 246.681C280.07 245.742 280.221 244.337 280.268 243.133C280.091 243.247 280.095 242.925 280.057 242.594L280.204 242.554C279.981 241.285 280.538 242.087 280.352 240.827L280.136 240.607C279.823 239.472 280.451 239.992 280.026 238.731C280.055 239.229 279.687 238.968 279.751 238.353L279.899 238.5C279.85 238.277 279.827 238.049 279.831 237.82C279.912 238.021 280.048 237.925 280.02 237.426L280.207 237.76L279.93 236.815C280.077 236.083 279.879 234.927 280.086 234.626C280.146 233.979 280.099 233.327 279.949 232.695C280.097 233.01 280.144 232.144 280.312 232.391C280.1 231.715 280.054 230.998 280.181 230.3L280.201 230.392C280.371 228.611 279.952 227.348 280.159 225.752C279.981 225.824 280.076 224.98 279.848 225.19C279.616 223.537 280.308 222.176 279.6 221.58C279.6 221.146 279.668 220.715 279.801 220.302L279.838 220.48C279.779 219.072 279.771 218.662 279.788 217.617C279.718 217.094 279.39 217.012 279.47 216.077C279.6 216.372 279.576 215.997 279.576 215.647C279.597 215.87 279.644 215.942 279.733 215.479C279.691 215.398 279.662 215.311 279.647 215.221C279.658 215.221 279.665 215.199 279.68 215.209C279.634 214.618 279.594 214.726 279.575 214.998C279.556 214.983 279.53 215.006 279.493 215.091C279.662 214.485 279.485 213.4 279.708 213.327C279.659 211.569 279.427 210.313 279.346 208.851C279.461 208.687 279.563 209.028 279.606 209.454L279.567 208.419C279.733 208.428 279.661 209.011 279.692 209.334C279.965 208.1 279.433 206.787 279.684 205.343L279.554 205.047L279.576 204.96C279.507 204.96 279.414 204.639 279.392 204.425C279.539 204.221 279.724 204.441 279.718 203.724C279.774 202.937 279.729 202.145 279.582 201.369C279.556 201.77 279.476 201.64 279.426 201.469C279.426 201.109 279.573 200.904 279.508 200.627L279.703 200.593C279.519 200.734 279.51 199.656 279.431 199.523C279.579 199.319 279.553 200.08 279.661 200.169L279.646 198.014C279.498 197.245 279.461 198.151 279.291 197.785C279.276 197.48 279.242 197.177 279.219 196.867L277.214 196.878C277.296 198.085 277.395 199.417 277.437 201.117C277.341 205.033 277.007 206.067 277.13 210.116Z" fill="white"/>
<path d="M206.559 113.138C206.39 112.47 206.112 111.835 205.734 111.259C205.841 111.54 205.938 111.837 206.077 112.146L206.559 113.138Z" fill="black"/>
<path d="M205.727 111.246L205.72 111.237L205.733 111.259L205.727 111.246Z" fill="black"/>
<path d="M209.878 142.674C209.799 141.383 209.557 140.107 209.156 138.877C208.745 137.555 208.141 136.301 207.363 135.155C205.845 132.968 203.796 131.204 201.408 130.027C199.615 129.129 197.72 128.451 195.765 128.006C194.727 127.625 193.66 127.325 192.575 127.11C193.098 127.28 192.893 127.345 192.478 127.258C189.601 126.667 192.235 127.316 189.374 126.815C188.122 126.612 186.882 126.339 185.661 125.999C184.05 125.579 182.513 124.918 181.101 124.037C179.835 123.236 178.763 122.163 177.964 120.896C177.501 120.16 177.217 119.326 177.135 118.46C176.883 117.27 177.021 116.031 177.528 114.927V115.057C177.77 114.455 178.085 113.886 178.467 113.363C178.766 112.947 179.093 112.552 179.444 112.18L179.74 111.884L180.003 111.658C180.15 111.51 180.411 111.362 180.61 111.195C181.568 110.575 182.587 110.053 183.651 109.639C184.638 109.247 185.467 108.996 185.881 108.858L185.646 108.894C186.431 108.593 187.27 108.455 188.11 108.489C187.913 108.269 189.156 107.939 189.625 107.897L189.612 107.954C189.96 107.909 190.528 107.823 191.11 107.806C191.401 107.798 191.692 107.81 191.981 107.841C192.296 107.878 192.609 107.935 192.917 108.013L192.837 108.13C193.461 108.225 194.069 108.404 194.644 108.662C195.163 108.883 195.667 109.138 196.154 109.423C196.988 109.96 197.763 110.583 198.468 111.281C199.263 112.069 200.01 112.904 200.703 113.782L200.922 114.467L201.092 115.156C201.135 115.207 201.183 115.258 201.22 115.312C201.22 115.312 201.534 115.299 202.011 115.255C202.602 115.207 203.188 115.117 203.766 114.987C204.395 114.872 204.977 114.575 205.44 114.134C205.683 113.839 205.842 113.485 205.902 113.108C205.962 112.731 205.92 112.345 205.78 111.989L205.928 111.977C205.794 111.75 205.658 111.524 205.505 111.308C205.052 110.468 204.645 110.223 204.796 110.192C205.056 110.538 205.285 110.907 205.516 111.274C205.028 110.453 205.449 110.969 205.715 111.24C205.502 110.898 205.315 110.552 205.154 110.275C205.006 110.152 205.193 110.422 205.253 110.558C204.91 110.165 204.395 109.66 204.033 109.154C203.408 108.403 204.172 108.951 203.401 108.101C201.353 105.87 198.826 104.132 196.01 103.019C195.302 102.742 194.578 102.508 193.842 102.318C193.819 102.117 193.774 101.918 193.706 101.727C193.854 101.646 193.82 101.534 193.861 101.448C193.799 101.495 193.694 101.479 193.7 101.448C193.718 101.189 193.598 101.432 193.534 101.168C193.45 100.589 193.5 99.9982 193.682 99.4418C193.463 99.294 193.628 99.118 193.49 98.9776L193.542 98.991C193.459 98.8431 193.662 97.9812 193.583 97.8083L193.552 97.832C193.416 97.6842 193.656 97.7004 193.73 97.5792C193.654 97.5904 193.576 97.5809 193.505 97.5518C193.434 97.5226 193.372 97.4749 193.326 97.4136H193.381C193.339 97.3382 193.125 97.1667 193.085 97.0411H193.22C193.072 96.9376 193.135 96.7454 193.121 96.6671C193.177 96.4956 193.416 96.231 193.233 96.0019L193.614 95.8541L193.577 95.8319C191.711 95.7056 189.837 95.7284 187.974 95.8999H187.841L187.857 95.9605C187.792 96.0314 187.947 96.0655 187.813 96.0611L187.829 95.962C187.791 96.0344 187.72 95.9842 187.644 95.962C187.631 95.9975 187.606 96.0273 187.573 96.0463C187.625 96.0596 187.63 96.0344 187.659 96.0241C187.706 96.0625 187.832 96.1172 187.77 96.1718C187.758 96.2458 187.553 96.1719 187.539 96.2621C187.398 96.7001 187.321 97.1562 187.31 97.6162C187.256 97.628 187.257 97.6162 187.232 97.6014C187.29 97.7403 187.269 97.863 187.329 97.9886C187.267 98.0179 187.2 98.0364 187.131 98.0434C187.242 98.0227 187.253 98.7396 187.225 98.7514L187.465 98.7603C187.465 98.8963 187.189 98.8003 187.25 98.9259C187.591 98.9747 187.214 99.1343 187.397 99.1786C187.369 99.1786 187.359 99.2393 187.25 99.2348C187.434 99.2541 187.293 99.2984 187.34 99.3369C187.392 99.3517 187.396 99.3265 187.452 99.3161L187.517 99.4064C187.458 99.4404 187.349 99.4492 187.328 99.4064C187.199 99.9301 187.149 100.47 187.18 101.009C187.328 100.976 187.226 100.899 187.446 100.87C187.57 100.936 187.403 100.967 187.533 100.997C187.205 101.022 187.454 101.145 187.123 101.194L187.307 101.211L187.193 101.245C187.387 101.541 187.288 101.312 187.245 101.571C187.273 101.718 187.532 101.791 187.436 101.873C187.461 101.86 187.489 101.853 187.518 101.853C187.546 101.853 187.575 101.86 187.6 101.873C187.436 101.873 187.717 101.977 187.553 101.996C187.566 102.021 187.566 102.082 187.631 102.109C187.335 102.153 187.04 102.199 186.744 102.256C186.596 102.228 186.759 102.199 186.923 102.141C185.303 102.462 183.715 102.927 182.177 103.529C181.942 103.596 181.696 103.618 181.453 103.596C181.076 103.806 180.687 103.994 180.288 104.159C179.309 104.612 178.364 105.135 177.459 105.723C177.199 105.888 176.937 106.064 176.674 106.27C176.411 106.475 176.161 106.642 175.902 106.883C175.644 107.124 175.382 107.342 175.197 107.534C175.013 107.726 174.826 107.909 174.67 108.09C174.024 108.795 173.635 109.331 173.604 109.358L173.725 109.6C173.172 110.371 173.05 110.461 172.932 110.53C172.813 110.6 172.695 110.647 172.287 111.462C172.142 112.072 171.921 112.662 171.628 113.218C171.352 113.774 171.173 114.374 171.1 114.992C171.044 115.131 170.997 115.273 170.961 115.419C170.904 115.639 170.84 115.862 170.791 115.816C170.924 116.13 170.694 116.797 170.732 117.416C170.778 117.638 170.791 117.255 170.853 117.094C170.852 117.557 170.877 118.021 170.927 118.482C170.908 119.027 170.824 119.178 170.744 118.581C170.844 120.217 171.28 121.815 172.025 123.276C172.538 124.291 173.169 125.241 173.906 126.107C174.677 127.005 175.54 127.821 176.48 128.54C177.4 129.245 178.383 129.864 179.416 130.389C180.328 130.847 181.27 131.243 182.236 131.572C183.498 132.011 184.787 132.365 186.097 132.63C185.757 132.413 184.82 132.278 184.527 131.967C185.024 132.089 185.526 132.185 186.033 132.253C186.262 132.649 187.697 132.697 188.193 133.14L188.442 133.001L188.79 133.186C190.423 133.406 190.587 133.415 190.725 133.449C190.862 133.483 190.955 133.53 192.291 133.839C193.318 133.951 194.334 134.152 195.326 134.438C195.214 134.395 194.928 134.194 195.313 134.261C195.327 134.432 196.321 134.472 196.433 134.695C196.794 134.797 197.852 135.287 197.578 134.923C197.726 135.097 198.613 135.593 198.022 135.412C198.283 135.567 198.553 135.705 198.832 135.825L198.482 135.565C199.506 136.083 199.868 136.57 200.529 136.848C200.45 136.737 200.366 136.631 200.276 136.53C200.796 136.914 201.191 137.269 201.197 137.603C201.042 137.455 200.86 137.344 200.699 137.213C201.016 137.498 201.316 137.803 201.597 138.125L201.965 138.531C202.079 138.679 202.2 138.827 202.339 138.984L202.184 138.734C203.038 139.775 203.599 141.024 203.81 142.354C204.039 143.745 204.074 145.161 203.915 146.561L204.211 146.097C204.175 146.421 204.156 146.754 204.109 147.082C204.157 146.968 203.686 146.479 203.766 146.408C203.559 147.327 203.229 148.214 202.784 149.045C202.067 150.345 201.101 151.491 199.942 152.418C198.745 153.369 197.396 154.11 195.951 154.609C195.039 154.938 194.09 155.154 193.125 155.252C192.33 155.274 192.951 155.002 192.952 154.974C192.021 155.15 192.565 155.202 191.755 155.256C191.533 155.227 191.795 155.129 191.916 155.088C191.566 155.129 191.237 155.067 191.212 155.152C191.656 155.203 191.475 155.421 191.671 155.554C191.316 155.554 190.961 155.571 190.609 155.54L190.66 155.407C190.127 155.614 189.548 155.671 188.986 155.57C187.13 155.28 185.327 154.716 183.637 153.895C183.696 153.84 184.067 153.961 184.44 154.066C184.174 153.971 183.921 153.84 183.689 153.679C184.026 154.004 182.95 153.422 183.246 153.63C181.896 153.088 180.626 152.365 179.471 151.481C178.553 151.915 177.608 152.291 176.643 152.606C175.264 153.078 173.801 153.435 173.678 153.555C173.425 153.3 173.186 153.03 172.963 152.748C173.234 153.186 173.578 153.574 173.979 153.896L174.17 153.82C175.029 154.542 174.272 154.095 175.101 154.815C175.041 154.974 174.259 154.322 173.614 153.698C174.173 154.278 174.693 154.908 175.057 154.993C175.589 155.539 174.86 155.088 175.527 155.732C176.174 156.128 176.798 156.559 177.398 157.023L177.372 157.038C178.614 157.883 179.929 158.617 181.3 159.23L181.114 159.196C181.969 159.632 182.848 160.017 183.747 160.351C183.461 160.219 183.247 160.024 183.869 160.222C185.028 160.711 185.888 160.828 186.771 161.128C187.013 161.141 187.257 161.14 187.502 161.137C187.51 161.371 187.552 161.602 187.625 161.824C187.477 161.888 187.502 161.987 187.457 162.058C187.522 162.021 187.625 162.04 187.618 162.071C187.588 162.296 187.72 162.092 187.766 162.324C187.822 162.835 187.745 163.352 187.541 163.824C187.752 163.962 187.579 164.111 187.711 164.243L187.661 164.227C187.736 164.364 187.498 165.114 187.57 165.276L187.603 165.257C187.733 165.405 187.494 165.371 187.415 165.476C187.49 165.467 187.566 165.478 187.635 165.507C187.705 165.536 187.766 165.582 187.813 165.641H187.76C187.798 165.712 188.005 165.875 188.034 165.987L187.9 165.978C188.048 166.076 187.975 166.253 187.989 166.323C187.93 166.478 187.693 166.717 187.865 166.944L187.482 167.091L187.519 167.112C187.519 167.112 188.673 167.171 189.95 167.188C191.009 167.233 192.069 167.194 193.122 167.072H193.257L193.239 167.026C193.305 166.972 193.15 166.945 193.285 166.951L193.267 167.025C193.307 166.97 193.378 167.01 193.453 167.025C193.468 166.997 193.493 166.975 193.523 166.963C193.472 166.951 193.468 166.97 193.438 166.978C193.391 166.948 193.265 166.907 193.327 166.871C193.341 166.815 193.545 166.871 193.56 166.806C193.709 166.459 193.798 166.089 193.823 165.712C193.879 165.705 193.876 165.712 193.9 165.727C193.848 165.609 193.873 165.507 193.817 165.399C193.882 165.377 193.949 165.364 194.018 165.36C193.904 165.375 193.923 164.769 193.953 164.759L193.712 164.74C193.712 164.624 193.99 164.719 193.935 164.609C193.595 164.55 193.979 164.432 193.799 164.386C193.826 164.386 193.839 164.336 193.947 164.345C193.762 164.32 193.907 164.289 193.861 164.253C193.815 164.218 193.805 164.253 193.749 164.265L193.688 164.185C193.749 164.159 193.858 164.157 193.877 164.185C194.03 163.744 194.105 163.28 194.101 162.813C193.953 162.834 194.05 162.906 193.829 162.92C193.709 162.856 193.876 162.839 193.749 162.806C194.077 162.806 193.833 162.683 194.167 162.658L193.982 162.632L194.098 162.609C193.919 162.346 194.007 162.547 194.062 162.324C194.041 162.192 193.787 162.117 193.886 162.049C193.86 162.061 193.832 162.067 193.804 162.067C193.776 162.067 193.748 162.061 193.722 162.049C193.886 162.049 193.61 161.953 193.775 161.946C193.758 161.912 193.784 161.805 193.56 161.829C193.672 161.817 193.722 161.724 193.815 161.786C193.824 161.755 193.858 161.725 193.815 161.699L193.75 161.737C193.724 161.626 193.898 161.576 193.701 161.493L193.611 161.53C193.601 161.464 193.586 161.408 193.808 161.394L193.873 161.465C193.877 161.417 193.87 161.368 193.851 161.323C193.831 161.278 193.802 161.238 193.764 161.208C196.123 160.873 198.408 160.138 200.52 159.032C202.896 157.779 204.969 156.022 206.595 153.883C207.728 152.376 208.587 150.681 209.134 148.876L209.1 149.057C209.762 146.998 210.026 144.831 209.878 142.674V142.674ZM193.756 161.195L193.741 161.181H193.759L193.756 161.195Z" fill="black"/>
<path d="M187.843 95.7891C187.695 95.8246 187.683 95.8852 187.66 95.9369C187.799 95.8911 187.859 95.8512 187.843 95.7891Z" fill="black"/>
<path d="M193.285 167.109C193.433 167.083 193.447 167.037 193.472 166.994C193.331 167.026 193.271 167.062 193.285 167.109Z" fill="black"/>
</g>
<defs>
<clipPath id="clip0_29_4338">
<rect width="312.406" height="340" fill="white" transform="translate(29.7971 16.5217)"/>
</clipPath>
</defs>
</svg>
