<?xml version="1.0" encoding="utf-8"?>
<!-- Generator: Adobe Illustrator 25.4.1, SVG Export Plug-In . SVG Version: 6.00 Build 0)  -->
<svg version="1.0" id="Layer_1" xmlns="http://www.w3.org/2000/svg" xmlns:xlink="http://www.w3.org/1999/xlink" x="0px" y="0px"
	 viewBox="0 0 350 350" style="enable-background:new 0 0 350 350;" xml:space="preserve">
<style type="text/css">
	.st0{fill:#20F5BD;}
	.st1{fill:#E6E6E6;}
	.st2{fill:#97999B;}
	.st3{fill:#202020;}
	.st4{fill:#CCCCCC;}
	.st5{fill:#53565A;}
	.st6{fill:#00F3B3;}
	.st7{fill:#75787B;}
	.st8{fill:#FFFFFF;}
	.st9{fill:#FDFFFE;}
</style>
<g>
	<path class="st4" d="M159.2,196.7h-47.8l0,0l-46.9,19.7c3.3,8.5,9,16.2,16.3,21.6c11,8.1,25.4,11.2,38.8,8.6c1.3-0.6,2.7-1,4.1-1.3
		c0.7-0.1,1.4-0.2,2.1-0.3c1.5-0.5,3-1.1,4.4-1.7c10.6-4.8,19.6-13.7,24.4-24.3C157.8,211.7,159.5,204.3,159.2,196.7z"/>
	<path class="st2" d="M61.3,203.9C61.3,203.9,61.3,204,61.3,203.9c0.1,0.6,0.1,1.1,0.2,1.6c0,0,0,0.1,0,0.1c0.1,0.5,0.2,1,0.2,1.5
		c0,0,0,0.1,0,0.1c0.1,0.5,0.2,1,0.3,1.4c0,0.1,0,0.1,0,0.2c0.1,0.5,0.2,0.9,0.3,1.4c0,0.1,0,0.1,0,0.2c0.1,0.5,0.2,0.9,0.4,1.4
		c0,0.1,0,0.1,0.1,0.2c0.1,0.5,0.3,0.9,0.4,1.4c0,0.1,0,0.1,0.1,0.2c0.1,0.5,0.3,0.9,0.5,1.4c0,0.1,0,0.1,0.1,0.2
		c0.2,0.4,0.3,0.9,0.5,1.3c0,0,0,0,0,0.1l0,0l46.9-19.7L61.3,203.9z"/>
	<path class="st5" d="M62.4,186.5c0,0.1,0,0.1,0,0.2c-0.1,0.3-0.2,0.6-0.2,1c0,0.1-0.1,0.3-0.1,0.4c-0.1,0.3-0.1,0.7-0.2,1
		c0,0.1-0.1,0.3-0.1,0.4c-0.1,0.4-0.1,0.7-0.2,1.1c0,0.1,0,0.2,0,0.3c-0.1,0.5-0.1,0.9-0.2,1.4c0,0.3-0.1,0.6-0.1,1c0,0,0,0,0,0
		c0,0.3-0.1,0.6-0.1,0.9c0,0,0,0.1,0,0.1c0,0.3,0,0.6-0.1,0.9c0,0,0,0.1,0,0.1c-0.1,1-0.1,1.9-0.1,2.9c0,0,0,0,0,0
		c0,0.3,0,0.6,0,0.9c0,0,0,0,0,0c0,0.5,0,1,0.1,1.5c0,0.2,0,0.4,0,0.5c0,0.6,0.1,1.1,0.1,1.7c0,0,0,0,0,0c0,0.3,0.1,0.6,0.1,0.8
		c0,0,0,0,0,0l50.1-7.2L62.4,186.5z"/>
	<path class="st1" d="M93.9,152.1C93.9,152.1,93.9,152.1,93.9,152.1c-0.9,0.3-1.8,0.7-2.7,1c-0.1,0-0.1,0-0.2,0.1
		c-0.4,0.2-0.7,0.3-1.1,0.5c-0.1,0-0.2,0.1-0.3,0.2c-0.3,0.1-0.6,0.3-0.9,0.4c-0.1,0.1-0.3,0.1-0.4,0.2c-0.3,0.1-0.6,0.3-0.8,0.4
		c-0.1,0.1-0.3,0.1-0.4,0.2c-0.3,0.1-0.6,0.3-0.8,0.4c-0.1,0.1-0.3,0.1-0.4,0.2c-0.3,0.2-0.6,0.3-0.9,0.5c-0.1,0.1-0.2,0.1-0.3,0.2
		c-0.4,0.2-0.8,0.5-1.2,0.7c0,0,0,0-0.1,0c-0.3,0.2-0.6,0.4-0.9,0.6c-0.1,0.1-0.2,0.2-0.3,0.2c-0.2,0.2-0.5,0.3-0.7,0.5
		c-0.1,0.1-0.2,0.2-0.3,0.2c-0.3,0.2-0.6,0.5-0.9,0.7c-0.1,0-0.1,0.1-0.2,0.1c-0.3,0.2-0.5,0.4-0.8,0.6c-0.1,0.1-0.2,0.2-0.3,0.3
		c-0.2,0.2-0.4,0.4-0.6,0.5c-0.1,0.1-0.2,0.2-0.3,0.3c-0.3,0.3-0.6,0.5-0.9,0.8c-0.1,0.1-0.1,0.1-0.2,0.2c-0.2,0.2-0.5,0.4-0.7,0.6
		c-0.1,0.1-0.2,0.2-0.3,0.3c-0.2,0.2-0.4,0.4-0.6,0.6c-0.1,0.1-0.2,0.2-0.3,0.3c-0.3,0.3-0.5,0.6-0.8,0.8c-0.1,0.1-0.1,0.2-0.2,0.2
		c-0.2,0.2-0.4,0.4-0.6,0.7c-0.1,0.1-0.2,0.2-0.3,0.3c-0.2,0.2-0.4,0.4-0.6,0.7c-0.1,0.1-0.1,0.2-0.2,0.3c-0.2,0.3-0.5,0.6-0.7,0.9
		c-0.1,0.1-0.1,0.2-0.2,0.3c-0.2,0.2-0.4,0.5-0.5,0.7c-0.1,0.1-0.2,0.2-0.3,0.3c-0.2,0.2-0.4,0.5-0.5,0.7c-0.1,0.1-0.1,0.2-0.2,0.3
		c-0.2,0.3-0.4,0.6-0.7,1c-0.1,0.1-0.1,0.2-0.2,0.3c-0.2,0.2-0.3,0.5-0.5,0.7c-0.1,0.1-0.2,0.2-0.2,0.4c-0.2,0.3-0.3,0.5-0.5,0.8
		c-0.1,0.1-0.1,0.2-0.2,0.3c-0.2,0.3-0.4,0.7-0.6,1c-0.1,0.1-0.1,0.3-0.2,0.4c-0.1,0.2-0.2,0.5-0.4,0.7c-0.1,0.1-0.1,0.3-0.2,0.4
		c-0.1,0.3-0.3,0.5-0.4,0.8c-0.1,0.1-0.1,0.3-0.2,0.4c-0.1,0.3-0.3,0.6-0.4,0.9c-0.1,0.2-0.1,0.3-0.2,0.5c-0.1,0.2-0.2,0.4-0.3,0.6
		c-0.1,0.2-0.1,0.3-0.2,0.5c-0.1,0.2-0.2,0.5-0.3,0.7c-0.1,0.3-0.2,0.5-0.3,0.8c-0.1,0.2-0.1,0.4-0.2,0.5c0,0,0,0.1,0,0.1
		c-0.1,0.3-0.2,0.5-0.3,0.8c-0.1,0.2-0.1,0.3-0.2,0.5c-0.1,0.2-0.1,0.4-0.2,0.7c-0.1,0.2-0.1,0.4-0.2,0.6c-0.1,0.2-0.1,0.4-0.2,0.7
		c-0.1,0.2-0.1,0.4-0.2,0.6c-0.1,0.2-0.1,0.5-0.2,0.7c0,0.1-0.1,0.2-0.1,0.3l48.9,10.2L93.9,152.1z"/>
	<g>
		<path class="st6" d="M121.2,150.5c-1.1-0.2-2.2-0.5-3.3-0.6c-5.4,0-9-0.1-9-0.1c-1.6,0.1-3.2,0.1-4.9-0.1
			c-0.5,0.1-1.1,0.1-1.6,0.2c-0.1,0-0.2,0-0.3,0c-0.4,0.1-0.8,0.1-1.2,0.2c-0.2,0-0.3,0.1-0.5,0.1c-0.3,0.1-0.6,0.1-0.9,0.2
			c-0.1,0-0.2,0-0.3,0.1c-0.1,0-0.2,0.1-0.3,0.1c-0.2,0-0.4,0.1-0.6,0.2c-0.2,0-0.4,0.1-0.6,0.1c-0.3,0.1-0.5,0.1-0.8,0.2
			c-0.2,0-0.3,0.1-0.5,0.1c-0.3,0.1-0.6,0.2-0.9,0.3c-0.1,0-0.2,0.1-0.3,0.1c-0.4,0.1-0.8,0.3-1.2,0.4c0,0,0,0-0.1,0l17.4,44.7l0,0
			l15-44.7C124.7,151.4,123,150.9,121.2,150.5z"/>
		<path class="st6" d="M166.8,184c-2.3-10.2-8-19.5-15.6-26.8c-2.8-2.7-5.9-5.1-9.1-7.1c-2.8,0-5.5-0.1-8.2-0.1L120,191.3h47.8
			C167.7,188.9,167.3,186.4,166.8,184z"/>
	</g>
	<path class="st1" d="M282.8,72.3c-1.9-10.4-4.5-20.9-8.8-30.5c-0.2-0.4-0.4-0.8-0.6-1.2c-1.7-3.6-3.6-7-5.9-10.2
		c-2.5-3.5-5.4-6.8-9.2-8.7c-1.7-0.9-3.6-1.4-5.5-1.5c-0.6,0-1.2,0-1.8,0c-1.8,0.1-3.5,0.6-5,1.6c-3.9,2.5-6.3,7.8-6.4,12.4
		c0,4.7,1.5,9.2,3,13.6c4.4,12.3,9.8,24.2,13.8,36.6c4.1,12.4,6.8,25.4,6,38.4c-8.3-19.6-23.7-35.9-42.3-46.2
		c-1.4-0.8-2.8-1.5-4.2-2.2c0,0,0,0,0,0c-8.4-7.8-19.3-13.3-30-11.6c-10.3,1.6-19.9,6.3-28.2,12.7c-8,6.1-14.6,13.8-20.4,22
		c-0.2,0.3-0.4,0.6-0.6,0.9c-0.1,0.2-0.3,0.4-0.4,0.6c-3.4,5-6.4,9.9-8.3,15.6c-0.1,0.4-0.3,0.9-0.4,1.3c0,0,0,0,0,0.1
		c-2.8,0-5.5,0.1-8.3,0.3c-0.5,0-0.9,0.1-1.4,0.1c-4.2,0.3-8.4,0.8-12.5,1.4c-6.6,1-13.8,2.9-17.4,8.6c-1.4,2.2-2.1,4.9-2.3,7.5
		c0,0.1,0,0.2,0,0.3c0,0.5,0,1.1,0,1.6c0.1,2.1,0.5,4.2,1.5,6c1.6,2.6,4.3,4.4,7.1,5.6c3,1.3,6.3,2.1,9.6,2.4
		c1.6,0.2,3.2,0.2,4.9,0.1c0,0,3.5,0,9,0.1c4.4,0,10,0.1,16,0.1c2.7,0,5.4,0.1,8.2,0.1c8.3,0.1,16.7,0.2,23,0.4
		c3.9,0.1,7.8,0.2,11.7,0.8c8.9,1.5,16.3,7,21.8,14.2c2.3,2.9,4.3,6.1,5.7,9.5c2.8,6.8,3.1,14.4,3.3,21.9c0.5,20.5,0.2,41-0.8,61.4
		c-0.2,4.6-0.9,10-6,11.5c-2.6,0.8-5.3,0.2-7.5-1.2c-9-6-16.5-14.2-25.9-19.6c-4-2.3-8.3-4.3-12.8-4.2c-6.1,0-13.1,0-19.3,0
		c-3.2,0-6.4,0-9.6,0.4c-0.7,0.1-1.4,0.2-2.1,0.3c-1.4,0.3-2.8,0.7-4.1,1.3c-1,0.5-1.9,1-2.7,1.8c-1.1,1-1.9,2.3-2.5,3.7
		c-1.2,2.7-1.4,5.8-0.9,8.7c0.2,0.8,0.4,1.7,0.7,2.5c1,2.6,2.6,5,4.8,6.8c6.4,5,15.1,5.2,22.5,8.6c0.2,0.1,0.4,0.2,0.5,0.3
		c0.1,0,0.2,0.1,0.3,0.1c9.2,4.7,16.6,12.3,23.6,19.9c7,7.7,13.7,15.6,22.2,21.6c8.4,6,14.5,9,23.9,8.6l74.3,0.7
		c1.6,0,2.9-1.3,2.9-2.9V137C289.2,115.2,286.9,93.8,282.8,72.3z M169.3,118.1c-0.4-0.1-0.9-0.1-1.3-0.2c0.2-0.5,0.5-0.9,0.8-1.4
		c2.2-3.7,5-7,8.4-9.7c3.6-2.9,8.1-5.2,12.7-5.3c4.7-0.1,8.5,2.7,11.5,6.5c6,7.4,10.3,16.1,14.1,24.8
		C202.1,124,185.2,120.6,169.3,118.1z"/>
	<g>
		<path d="M118.3,122.1l-0.1,0.1C118.2,122.2,118.3,122.2,118.3,122.1z"/>
		<path d="M88.9,136.5C88.9,136.5,88.9,136.5,88.9,136.5C88.9,136.5,88.9,136.5,88.9,136.5z"/>
		<polygon points="114.3,126 114.3,126 114.4,125.9 		"/>
		<polygon points="107,135.3 107,135.3 107,135.4 		"/>
		<path d="M114.1,129.1c0.2-0.3,0.4-0.3,0.5-0.4c0,0,0,0.1,0,0.1c0.4-0.6,0.5-0.7,0.8-1.1c0.1-0.2,0-0.4,0.3-0.7
			c0,0.2,0.1,0,0.2-0.1c0,0.1,0,0.1,0.1,0c0,0,0-0.1,0-0.1c0,0,0,0,0,0c0.1-0.3,0.1-0.2,0-0.1c0,0,0,0-0.1,0
			c0.3-0.2,0.4-0.7,0.6-0.6c0.2-0.4,0.3-0.7,0.5-1.1c0.1-0.3,0.2-0.6,0.4-1c0.1,0,0.1,0.1,0,0.3l0.2-0.5c0.1,0.1-0.1,0.3-0.1,0.4
			c0.2-0.2,0.3-0.5,0.4-0.8c0.1-0.3,0.2-0.6,0.4-0.9l0-0.2l0,0c0,0,0-0.2,0-0.3c0.1-0.1,0.2,0.1,0.3-0.2c0.1-0.1,0.2-0.3,0.2-0.5
			c0-0.2,0.1-0.4,0.1-0.6c-0.1,0.2-0.1,0.1-0.1,0c0-0.2,0.2-0.2,0.2-0.4l0.1,0c-0.1,0,0-0.5,0-0.5c0.1-0.1,0,0.3,0.1,0.3
			c0.2-0.7,0.1-0.3,0.3-1c0-0.4-0.1,0-0.2-0.2c0.1-0.3,0-0.7,0.2-1l-0.1,0.1c0-0.6,0.1-1,0.3-1.4c0-0.1,0-0.2,0-0.4
			c-0.5,0-0.9,0.1-1.4,0.1c0,0.1,0,0.2-0.1,0.3c-0.1,0.3-0.1,0.7-0.1,1c-0.1,0.7-0.1,1.4-0.4,2.4c-0.6,1.7-1,2-1.8,3.7
			c-0.2,0.4-0.4,0.8-0.6,1.2c-0.2,0.4-0.5,0.8-0.7,1.1c-0.1,0.5-0.7,0.9-0.8,1.4l-0.2,0.1c-0.1,0.2-0.2,0.3-0.3,0.4l0,0
			c-0.1,0.2-0.3,0.4-0.4,0.5l0,0l-0.2,0.2l0-0.1c-0.2,0.4-0.5,0.7-0.8,1l0.1,0.1c-0.7,0.5-0.8,0.9-1.4,1.3l0,0
			c-0.3,0.5-0.6,0.6-0.9,0.8c-0.3,0.2-0.7,0.4-1,0.8c0.1-0.1-0.1,0-0.1-0.1c-0.4,0.3-0.8,0.6-0.6,0.8c-0.3,0.2-0.3,0.1-0.4,0
			c0.1,0.1-0.2,0.3-0.4,0.4l0.1-0.1l-0.6,0.4l0.2,0.1c-0.4,0.1-0.2-0.2-0.5,0.1l0.1,0.1c-0.5,0.2-0.9,0.1-1.5,0.2
			c-0.5,0.2-1,0.4-1.6,0.6c-0.5,0.2-1.1,0.4-1.6,0.6c-0.5,0.2-1.1,0.3-1.6,0.4c-0.5,0.1-1.1,0.1-1.6,0.1l-0.1-0.1
			c-0.1-0.2-0.5,0.3-0.6,0.1l-0.2,0.1c-0.1,0-0.2-0.1-0.1-0.1c-0.2,0-0.2,0-0.4,0.1l-0.2-0.1c-0.4,0-0.8,0-1.2,0c-0.4,0-0.8,0-1.3,0
			c-0.3-0.1-0.6-0.1-1-0.2c-0.4-0.1-0.8-0.1-1.2-0.2c-0.4,0-0.8-0.1-1.2-0.2c-0.4-0.1-0.7-0.1-1-0.1c-0.4-0.1-0.8-0.2-1.3-0.3
			c-0.4-0.2-0.8-0.4-1.2-0.6c-0.4-0.2-0.8-0.5-1.2-0.7c0,0,0,0,0,0c0,0.1,0,0.2,0,0.3c0,0.5,0,1.1,0,1.6c0.1,0,0.2,0.1,0.3,0.1
			c0.2,0.1,0.5,0.2,0.8,0.3c0.5,0.2,1,0.3,1.3,0.3l-0.1,0c0.4,0,0.4,0.1,0.8,0.1c0,0,0,0,0,0c0.2,0,0.5,0.1,0.7,0.1
			c0.3,0.1,0.5,0.1,0.7,0.1l0,0.1L91,137l-0.3-0.1c0.1-0.2,0.5,0.3,1.1,0.2c0.5,0.1,1.1-0.4,1.6-0.2c0.3-0.1-0.2,0.2,0.1,0.1
			c0,0.1-0.2,0.1-0.1,0.2c0.4,0,0.6,0.2,1,0.1l0,0.1c0.6-0.2,1.1,0.2,1.5,0c0.6-0.1,0.4,0.3,1,0.1l0.3,0.1c0.3,0,0.2-0.2,0.5-0.1
			c0,0.1,0.4,0.1,0.2,0.1c0.3,0,0.7-0.1,1.1-0.1c0.4-0.1,0.8-0.1,1.2-0.1c0.2-0.2,0.6-0.2,0.7-0.4c0,0.1,0.9-0.2,0.4,0.1
			c0,0-0.1,0-0.1,0l0,0.1c0.6,0.1,0.9-0.3,1.4-0.4c-0.2,0-0.3,0.1-0.2,0l0.5-0.1l-0.1,0.1c0.2,0,0.5-0.1,0.7-0.2l-0.1-0.1
			c0.3-0.1,0.5,0.1,0.8-0.2c0.1-0.1-0.4,0,0-0.2c0.2,0,0.5-0.1,0.8-0.2c0.3-0.1,0.6-0.2,0.9-0.3c-0.1-0.1,0-0.1,0.2-0.2l0.1,0.1
			c0.5-0.4,0.3,0.1,0.8-0.3l0-0.2c0.4-0.5,0.4,0,0.8-0.5c-0.2,0.1-0.2-0.1,0.1-0.3l0,0.1c0.1-0.1,0.2-0.2,0.3-0.2
			c-0.1,0.1,0,0.2,0.2,0l-0.1,0.2l0.3-0.4c0.4-0.1,0.8-0.5,1-0.5c0,0,0.7-0.4,0.7-0.6c-0.1,0.2,0.3-0.1,0.3,0.1
			c0.1-0.2,0.5-0.6,0.8-0.7l0,0c0.7-0.5,1-1.1,1.7-1.6c-0.1-0.1,0.2-0.3,0-0.3c0.1-0.2,0.3-0.3,0.4-0.4c0.1-0.1,0.3-0.2,0.4-0.3
			C114,129.5,114.1,129.3,114.1,129.1z"/>
		<path d="M132.3,114.1l0.1,0.1C132.4,114.1,132.4,114.1,132.3,114.1z"/>
		<path d="M137.2,115.9C137.2,115.9,137.2,115.9,137.2,115.9C137.1,115.9,137.1,115.9,137.2,115.9L137.2,115.9z"/>
		<polygon points="148.1,114.4 148.1,114.4 148.1,114.3 		"/>
		<path d="M168.8,116.5c-0.1,0-0.3,0-0.4,0c0,0,0-0.1,0.1-0.1c-0.4,0-0.8,0-0.8-0.1c-0.8-0.1-2-0.2-2.5-0.1l0,0
			c-0.3,0.1-0.4,0-0.7,0c0,0,0,0,0,0c-0.3,0.1-1-0.1-1.2,0l0-0.1l-0.7,0l0.2,0c-0.1,0.3-0.5-0.2-1-0.1c-0.4-0.1-1,0.5-1.4,0.3
			c-0.2,0.1,0.2-0.2-0.1-0.1c0-0.1,0.2-0.1,0.1-0.2c-0.3,0-0.5-0.2-0.9-0.1l0-0.1c-0.5,0.1-1-0.2-1.3-0.1c-0.5,0-0.3-0.3-0.9-0.2
			l-0.2-0.2c-0.2,0-0.2,0.2-0.4,0.1c0-0.1-0.3-0.1-0.2-0.2c-0.6-0.2-1.2,0.1-2-0.2c-0.2,0.2-0.6,0-0.7,0.1c0-0.1-0.8-0.1-0.3-0.2
			c0,0,0.1,0,0.1,0l0.1-0.1c-0.4-0.2-0.8,0-1.3,0c0.1,0,0.3,0,0.2,0.1l-0.4,0l0.1-0.1l-0.6-0.1l0.1,0.1c-0.3-0.1-0.4-0.3-0.8-0.1
			c-0.2,0.1,0.3,0.2,0,0.2c-0.4-0.1-1-0.3-1.5-0.3c0,0.1-0.1,0.1-0.2,0.1l0-0.1c-0.6,0.1-0.2-0.2-0.7-0.2l-0.1,0.1
			c-0.5,0.2-0.3-0.2-0.8,0c0.2,0,0.1,0.2-0.2,0.2l0.1-0.1c-0.1,0-0.2,0.1-0.3,0c0.1,0,0.1-0.1-0.2-0.1l0.2-0.1l-0.4,0.2
			c-0.3-0.1-0.8,0-0.9-0.2c0,0-0.7-0.1-0.8,0c0.1-0.1-0.2-0.1-0.1-0.3c-0.2,0.1-0.7,0.2-0.9,0l0,0c-0.5-0.1-0.9,0-1.3,0
			c0,0,0.1-0.1,0.1-0.1l0,0c0.1-0.4,0.1-0.6-0.1-0.8c0.2,0,0-0.3,0.1-0.4l0,0c-0.2-0.2,0.1-0.5,0-0.7c0,0,0.1,0,0.1,0.1
			c0-0.2-0.1-0.4,0-0.4c-0.1-0.4,0-0.9-0.3-1.1l0,0c-0.2-0.1,0-0.2-0.1-0.3c0,0,0,0,0,0c-0.2-0.1-0.1-0.4-0.2-0.5l0.1,0l-0.1-0.3
			l0,0.1c-0.3,0,0.1-0.2-0.1-0.4c0-0.2-0.6-0.3-0.5-0.5c-0.1-0.1,0.2,0.1,0.1-0.1c0.1,0,0.1,0.1,0.2,0c-0.1-0.1,0.1-0.3,0-0.4l0.1,0
			c-0.2-0.2,0-0.5-0.2-0.6c-0.1-0.2,0.3-0.2,0-0.4l0.1-0.1c0-0.1-0.2,0-0.1-0.2c0.1,0,0-0.2,0.1-0.1c0.1-0.3-0.3-0.5-0.2-0.9
			c-0.2,0-0.1-0.2-0.3-0.3c0.1,0-0.1-0.4,0.1-0.2c0,0,0,0,0,0l0.1,0c0.1-0.3-0.2-0.3-0.2-0.5c0,0.1,0,0.1-0.1,0.1l0-0.2l0.1,0l0-0.3
			l-0.1,0.1c0-0.1,0.2-0.2,0-0.4c-0.1,0-0.1,0.2-0.2,0c0-0.2,0-0.5,0-0.7c-0.1,0.1-0.1,0-0.2-0.1l0.1,0c-0.2-0.2,0.2-0.2,0-0.4
			l-0.2,0c-0.3-0.1,0.2-0.2-0.2-0.3c0,0.1-0.2,0.1-0.2,0l0.1,0c0-0.1-0.1-0.1-0.1-0.1c0.1,0,0.1,0,0.1-0.1l0.1,0l-0.2-0.1
			c0-0.2-0.2-0.3-0.1-0.4c0,0-0.1-0.3-0.2-0.3c0.1,0,0.1-0.2,0.2-0.2c-0.1,0-0.3-0.2-0.2-0.3l0,0c0-0.4-0.4-0.5-0.4-0.8
			c-0.1,0.1-0.1-0.1-0.2,0c-0.3-0.2,0-0.7-0.5-0.6c-0.1-0.1,0-0.2,0-0.3l0,0c-0.2-0.2-0.2-0.3-0.3-0.5c-0.1-0.1-0.3,0-0.3-0.2
			c0.1,0,0.1,0,0-0.1c0,0,0.1,0,0.1-0.1c0,0-0.1,0-0.1,0c0,0,0,0,0,0c-0.1-0.1-0.1-0.1-0.1,0c0,0,0,0,0,0c0-0.2-0.2-0.3,0-0.4
			c-0.2-0.3-0.4-0.4-0.7-0.6c0.1-0.1,0.1,0,0.2,0l-0.1-0.2c0.1-0.1,0.1,0.1,0.2,0.1c0-0.2-0.2-0.3-0.3-0.4c-0.2,0.3-0.4,0.6-0.6,0.9
			c-0.1,0.2-0.3,0.4-0.4,0.6c0.2,0.3,0.4,0.6,0.5,0.8c0.2,0.1,0.2,0.4,0.4,0.5l-0.1,0.1c0.1,0,0.1,0.1,0.1,0.2l0,0
			c0.1,0.1,0.1,0.2,0.2,0.2l0,0l0.1,0.1h0c0.2,0.1,0.2,0.3,0.3,0.4l0.1-0.1c0,0.4,0.3,0.4,0.3,0.7l0,0c0.5,0.2,0,0.7,0.5,0.9
			c-0.1,0-0.1,0-0.1,0.1c0.1,0.2,0.2,0.3,0.4,0.2c0,0.1,0,0.1-0.1,0.2c0.1,0,0.2,0.1,0.2,0.2l-0.1,0l0.1,0.3l0.2-0.1
			c0,0.2-0.2,0.1-0.1,0.3l0.2-0.1c0,0.2-0.1,0.4-0.2,0.7c0.1,0.4,0.3,0.8,0.5,1.3c0.2,0.4,0.3,0.9,0.3,1.3l-0.1,0.1
			c-0.2,0.1,0.3,0.2,0.2,0.2l0.1,0.1c0,0,0,0.1-0.1,0.1c0,0.1,0,0.1,0.1,0.1l-0.1,0.1c0,0.4,0.3,0.6,0.3,1c-0.1,0.2,0,0.6,0.1,0.9
			c0.1,0.3,0.2,0.6,0.3,0.9c0.2,0.3,0.1,0.7,0,1.1c-0.1,0.4-0.1,0.7,0,1.1c0,0,0,0.1,0.1,0.1l0,0.6c0,0,0,0.2,0,0.4
			c0,0.2,0,0.4,0.1,0.6c-0.6,0-1.1-0.3-1.3,0.1c-0.3,0-0.4-0.1-0.6-0.2l0.1,0c-0.6,0-0.8,0-1.2,0c-0.2,0-0.3,0.3-0.7,0.2
			c0.1-0.1,0-0.1-0.2-0.1c0.1,0,0.1,0-0.1-0.1c0,0-0.1,0-0.1,0.1c0,0,0,0,0,0c-0.3,0-0.2,0.1-0.1,0.1c0,0,0,0,0,0.1
			c-0.3-0.1-0.7,0-0.8-0.2c-0.8,0-1.3,0.1-2,0.2c-0.1-0.1,0.1-0.1,0.3-0.2l-0.5,0c0-0.1,0.3-0.1,0.4-0.1c-0.5-0.2-1.1,0.2-1.7,0
			l-0.1,0.1l0,0c0,0-0.1,0.1-0.2,0.1c-0.1-0.1,0-0.2-0.3-0.2c-0.2-0.1-0.7,0-1,0.1c0.2,0,0.1,0.1,0,0.1c-0.2,0-0.2-0.1-0.4-0.1
			l0-0.1c0.1,0.1-0.4,0.1-0.5,0.2c-0.1-0.1,0.2-0.1,0.3-0.2c-0.6,0-0.3,0-0.9,0c-0.3,0.1,0.1,0.1-0.1,0.2c-0.3,0-0.6,0.1-0.9,0
			l0.1,0.1c-0.1,0-0.2,0-0.3,0c-0.1,0.4-0.3,0.9-0.4,1.3c0.9,0,1.7-0.2,3-0.2c1.7,0.1,2.1,0.3,3.9,0.3c0.8,0,1.7,0,2.6,0
			c0.4-0.2,1.1,0,1.5-0.1l0.2,0.1c0.2,0,0.3-0.1,0.5,0l0,0c0.2-0.1,0.5,0,0.6,0l0,0l0.3,0l-0.1,0c0.4-0.1,0.8,0,1.2,0l0-0.1
			c0.8,0.2,1.1-0.1,1.8,0.1l0,0c0.9-0.3,1.4,0.3,2.4,0c-0.1,0,0,0.1,0,0.1c0.4,0,0.9,0,0.9-0.2c0.3,0,0.3,0.1,0.3,0.2
			c0-0.1,0.3-0.1,0.5-0.1l-0.1,0l0.7,0l-0.1-0.2c0.4,0.1,0.1,0.2,0.4,0.2l0-0.2c0.5,0.1,0.8,0.3,1.3,0.5c2.1,0.2,4.3,0,6.3,0.4
			l0.1,0.1c0,0.2,0.6-0.2,0.6,0l0.2-0.1c0.1,0,0.2,0.1,0.1,0.1c0.2,0,0.2,0,0.4,0l0.2,0.1c0.8,0.2,1.5,0,2.4,0.1
			c1,0.3,3,0.3,4.1,0.3c1.6-0.1,3.4,0.8,5,0.7c0,0,0.2,0,0.2,0l0.1,0c-0.4-0.1-0.9-0.1-1.3-0.2C168.3,117.4,168.5,117,168.8,116.5z"
			/>
		<path d="M137,99.7L137,99.7C137,99.7,137,99.7,137,99.7L137,99.7z"/>
		<polygon points="140.9,103.2 140.9,103.2 140.9,103.1 		"/>
		<path d="M222.5,79.1l0.1,0.2C222.6,79.3,222.5,79.2,222.5,79.1z"/>
		<path d="M247,118.3C247,118.4,247,118.4,247,118.3C247,118.4,247,118.3,247,118.3z"/>
		<path d="M225.5,85.8L225.5,85.8C225.5,85.7,225.5,85.7,225.5,85.8L225.5,85.8z"/>
		<path d="M251.8,129.2c-0.2-0.6-0.3-1-0.5-1.4c-0.2-0.4-0.4-0.7-0.6-1.1c0.2-0.2-0.4-0.9-0.4-1.2l0,0c-0.5-0.6-0.4-1.4-0.9-2
			c0,0,0.1,0,0.2,0.1c-0.2-0.5-0.6-1.1-0.5-1.2c-0.5-1.1-1.1-2.7-1.7-3.3l0.1,0c-0.3-0.3-0.3-0.5-0.5-0.9c0,0,0-0.1,0-0.1
			c-0.3-0.4-0.6-1.3-0.8-1.6l0.1-0.1l-0.4-0.9l0.1,0.3c-0.3,0-0.2-0.7-0.6-1.3c-0.3-0.6-1.1-0.9-1.3-1.6c-0.3-0.2,0.3,0.2,0-0.2
			c0.1-0.1,0.2,0.2,0.2,0c-0.3-0.4-0.2-0.8-0.6-1.2l0.1-0.1c-0.5-0.6-0.5-1.3-0.9-1.7c-0.4-0.6,0-0.6-0.5-1.2l0-0.3
			c-0.1-0.3-0.3-0.1-0.4-0.5c0.1,0-0.2-0.5,0-0.3c-0.3-0.8-1-1.5-1.4-2.6c-0.3-0.1-0.5-0.7-0.7-0.8c0.1-0.1-0.6-1-0.1-0.5
			c0,0,0.1,0.1,0.1,0.1l0.1,0c-0.2-0.7-0.7-1-1-1.6c0.1,0.2,0.2,0.4,0.1,0.3l-0.3-0.5l0.1,0.1l-0.4-0.8l0,0.2
			c-0.2-0.4-0.1-0.6-0.5-1c-0.2-0.1,0.1,0.4-0.2,0.1c-0.2-0.5-0.6-1.4-1-2c-0.1,0.1-0.2-0.1-0.3-0.2l0.1-0.1c-0.5-0.6,0-0.4-0.5-1
			l-0.2,0c-0.6-0.5,0-0.4-0.7-1c0.2,0.3-0.1,0.3-0.3-0.1l0.1,0c-0.1-0.2-0.2-0.2-0.3-0.3c0.1,0.1,0.2,0,0-0.3l0.2,0.1l-0.5-0.4
			c-0.2-0.4-0.7-1-0.7-1.2c0,0-0.5-0.9-0.7-1c0.2,0.1-0.1-0.4,0.1-0.3c-0.2-0.2-0.7-0.7-0.8-1l0,0c-0.5-1-1.2-1.5-1.7-2.4
			c-0.1,0.1-0.3-0.4-0.4-0.2c-0.7-0.8-0.8-1.7-1.5-1.8c-0.3-0.4-0.2-0.5-0.4-0.7l0.1,0.1c-0.6-0.7-0.7-0.9-1.1-1.4
			c-0.2-0.2-0.4-0.1-0.8-0.6c0.2,0.1,0-0.1-0.1-0.3c0.1,0.1,0.1,0.1,0-0.1c0,0-0.1-0.1-0.1-0.1c0,0,0,0,0,0
			c-0.2-0.3-0.2-0.2-0.1-0.1c0,0,0,0,0,0.1c-0.1-0.4-0.6-0.8-0.6-1c-0.7-0.9-1.3-1.4-1.9-2.1c0-0.1,0.2,0,0.4,0.2l-0.4-0.5
			c0.1-0.1,0.3,0.3,0.4,0.4c-0.3-0.7-1.1-1.1-1.6-2l-0.2-0.1l0-0.1c0,0-0.2-0.1-0.3-0.2c0-0.2,0.2-0.1-0.1-0.5
			c-0.1-0.3-0.7-0.8-1-1.1c0.1,0.2,0.1,0.2,0,0.1c-0.1-0.2-0.2-0.3-0.3-0.4l0.1-0.1c0,0.1-0.5-0.4-0.6-0.4c0-0.2,0.3,0.2,0.4,0.2
			c-0.2-0.3-0.3-0.4-0.4-0.5c-1.4-0.8-2.8-1.5-4.2-2.2c0,0,0,0,0,0c0.5,0.7,1,1.2,1.5,1.7c0.6,0.7,1.4,1.4,2.3,2.4
			c0.8,0.9,1.2,1.6,1.6,2.2c0.4,0.6,0.9,1.3,1.7,2.2c0.7,1,1.5,2,2.3,2.9c0.5,0.3,0.9,1.2,1.4,1.7l0.1,0.3c0.2,0.2,0.4,0.3,0.4,0.6
			l0,0c0.3,0.2,0.4,0.6,0.6,0.7l0,0l0.3,0.3l-0.1,0c0.4,0.4,0.8,0.9,1,1.4l0.1-0.1c0.5,1,1,1.2,1.4,2.2l0,0c1,0.9,1,1.9,2,2.8
			c-0.1-0.1,0,0.1,0,0.1c0.4,0.5,0.8,1,1,0.9c0.2,0.4,0.1,0.4,0.1,0.5c0.1-0.1,0.3,0.3,0.5,0.5l-0.1-0.1l0.6,0.8l0.1-0.3
			c0.2,0.5-0.1,0.2,0.2,0.7l0.1-0.1c0.4,0.7,0.4,1.2,0.7,1.8c0.8,1.3,1.6,2.6,2.4,3.9c0.8,1.3,1.6,2.6,2.1,3.9l0,0.2
			c-0.1,0.1,0.6,0.5,0.5,0.7l0.2,0.2c0,0.1,0.1,0.3,0,0.2c0.1,0.3,0.2,0.3,0.3,0.4l0.1,0.3c0.5,1.1,1.2,1.9,1.7,3
			c0.2,0.7,0.7,1.7,1.2,2.6c0.5,1,1.1,1.9,1.5,2.6c0.3,0.5,0.6,1,0.8,1.6c0.2,0.6,0.4,1.2,0.6,1.7c0.4,1.2,0.8,2.4,1.4,3.4
			c0,0.1,0.1,0.2,0.2,0.2l0.8,2c0,0,0.3,0.6,0.6,1.4c0.3,0.8,0.7,1.7,1.1,2.5C251.9,132.7,252.5,133.2,251.8,129.2L251.8,129.2z"/>
		<polygon points="236,97.4 236,97.4 236.1,97.4 		"/>
		<path d="M249.5,25.2l-0.1,0.1C249.4,25.3,249.4,25.3,249.5,25.2z"/>
		<path d="M246.3,29.8L246.3,29.8C246.3,29.8,246.3,29.8,246.3,29.8L246.3,29.8z"/>
		<path d="M273.5,40.5c-0.2,0.1-0.4,0.2-0.6,0.4l0-0.1c-0.3,0.3-0.6,0.5-0.8,0.7c-0.2,0.2-0.4,0.4-0.5,0.7c-0.2-0.1-0.5,0.4-0.8,0.5
			l0,0c-0.1,0.1-0.2,0.2-0.3,0.3c-0.1,0.1-0.2,0.1-0.3,0.2c-0.2,0.1-0.5,0.2-0.6,0.4c0,0,0-0.1,0.1-0.2c-0.3,0.2-0.7,0.5-0.8,0.4
			c-0.2,0.1-0.4,0.2-0.6,0.3c-0.2,0.1-0.4,0.2-0.6,0.3c-0.4,0.2-0.8,0.4-1,0.6l0,0c-0.2,0.2-0.4,0.1-0.7,0.3c0,0,0,0,0,0
			c-0.3,0.2-1,0.3-1.2,0.4l0-0.1l-0.7,0.1l0.3,0c0,0.3-0.5-0.1-1,0.1c-0.5,0-0.9,0.6-1.4,0.5c-0.2,0.1,0.2-0.2-0.1-0.1
			c0-0.1,0.2-0.1,0.1-0.2c-0.3,0.1-0.5-0.2-1-0.1l0-0.1c-0.3,0.1-0.5,0-0.8-0.1c-0.2-0.1-0.4-0.1-0.6-0.1c-0.6,0-0.3-0.4-0.9-0.3
			l-0.2-0.2c-0.2-0.1-0.2,0.1-0.5,0c0-0.1-0.3-0.2-0.1-0.2c-0.3-0.2-0.6-0.2-0.9-0.3c-0.3-0.1-0.7-0.2-1-0.5
			c-0.2,0.1-0.5-0.2-0.7-0.2c0-0.1-0.7-0.4-0.2-0.3c0,0,0.1,0,0.1,0.1l0.1-0.1c-0.3-0.4-0.8-0.4-1.1-0.6c0.1,0.1,0.2,0.2,0.1,0.2
			c-0.1-0.1-0.2-0.2-0.3-0.3l0.1,0l-0.5-0.4l0,0.1c-0.2-0.2-0.2-0.4-0.5-0.6c-0.2,0,0.1,0.3-0.1,0.1c-0.1-0.2-0.3-0.4-0.5-0.6
			c-0.2-0.2-0.3-0.5-0.5-0.7c-0.1,0.1-0.2,0-0.3-0.1l0.1-0.1c-0.5-0.3,0-0.3-0.4-0.7l0.1,0l-0.3,0c-0.5-0.3,0-0.3-0.5-0.6
			c0.1,0.2-0.1,0.2-0.3,0l0.1,0c-0.1-0.1-0.2-0.1-0.2-0.2c0.1,0,0.1,0,0-0.2l0.2,0.1l-0.4-0.3c-0.1-0.3-0.4-0.7-0.4-0.9
			c0,0-0.3-0.6-0.4-0.7c0.1,0.1,0-0.3,0.2-0.2c-0.2-0.1-0.5-0.6-0.4-0.8l0,0c-0.1-0.8-0.6-1.2-0.5-1.9c-0.1,0.1-0.1-0.3-0.2-0.2
			c-0.1-0.2-0.1-0.3-0.1-0.5c0-0.2,0-0.3,0-0.5c0-0.3,0-0.5-0.3-0.6c0-0.3,0.1-0.4,0.1-0.6l0,0.1c-0.1-0.6,0-0.8,0-1.3
			c0-0.2-0.3-0.3-0.1-0.7c0.1,0.1,0.1,0,0.1-0.2c0,0.1,0,0.1,0.1-0.1c0,0,0-0.1,0-0.1c0,0,0,0,0,0c0-0.3,0-0.2-0.1-0.1
			c0,0,0,0-0.1,0c0.1-0.3,0.1-0.7,0.3-0.7c0-0.2,0.1-0.4,0.1-0.5c0-0.2,0.1-0.3,0.1-0.5c0-0.3,0.1-0.6,0.2-1c0.1,0,0.1,0.1,0.1,0.3
			l0.1-0.4c0.1,0,0,0.3-0.1,0.4c0.2-0.2,0.2-0.5,0.3-0.8c0.1-0.3,0.2-0.6,0.4-0.9l0-0.2l0,0c0,0,0-0.2,0-0.3c0.1,0,0.2,0.1,0.3-0.2
			c0.1-0.1,0.2-0.3,0.2-0.4c0.1-0.2,0.1-0.4,0.2-0.5c-0.1,0.1-0.1,0.1-0.1,0c0.1-0.1,0.2-0.2,0.2-0.3l0.1,0.1
			c-0.1,0,0.1-0.4,0.1-0.5c0.1,0-0.1,0.3,0,0.3c0.4-0.5,0.2-0.3,0.6-0.8c0.1-0.3-0.1,0-0.1-0.2c0.2-0.2,0.3-0.5,0.6-0.8l-0.2,0
			c0.3-0.5,0.6-0.7,1-0.9c0.2-0.3,0.4-0.5,0.6-0.8c-0.6,0-1.2,0-1.8,0c-0.2,0.2-0.5,0.5-0.7,0.7c-0.2,0.3-0.5,0.6-0.7,1
			c-0.1,0.2-0.2,0.4-0.4,0.6c-0.1,0.2-0.3,0.4-0.4,0.7c-0.3,0.4-0.5,0.7-0.7,1c-0.2,0.3-0.4,0.5-0.5,0.8c-0.2,0.3-0.3,0.5-0.5,0.9
			c-0.1,0.3-0.3,0.7-0.4,1.2c-0.1,0.5-0.3,0.9-0.4,1.4c0,0.2-0.1,0.5-0.1,0.7c0,0.2-0.1,0.5-0.1,0.7c0.1,0.2,0,0.5,0,0.9
			c0,0.3-0.1,0.6,0,0.9l-0.1,0.2c0.1,0.2,0.1,0.4,0,0.6l0,0c0.1,0.3,0.1,0.6,0.1,0.7l0,0l0,0.3l0-0.1c0.1,0.5,0.2,0.9,0.2,1.4
			l0.1-0.1c0,0.5,0.1,0.8,0.2,1c0.1,0.3,0.2,0.6,0.3,1l0,0c0.3,0.4,0.4,0.8,0.5,1.2c0.1,0.4,0.3,0.8,0.6,1.2c-0.1-0.1,0,0.1-0.1,0.1
			c0.3,0.4,0.6,0.8,0.8,0.7c0.2,0.3,0.1,0.3,0,0.4c0.1-0.1,0.3,0.2,0.5,0.4l-0.1-0.1c0.2,0.2,0.3,0.4,0.5,0.6l0.1-0.2
			c0.2,0.4-0.1,0.2,0.2,0.5l0.1-0.1c0.3,0.5,0.4,0.9,0.7,1.4c0.8,0.9,1.8,1.6,2.9,2.2c1.1,0.6,2.1,1.1,3.1,1.6l0,0.2
			c0,0.2,0.7-0.1,0.7,0.1l0.3,0c0.1,0.1,0.2,0.1,0.1,0.1c0.2,0.1,0.2,0,0.4,0l0.2,0.2c0.2,0.1,0.4,0.1,0.7,0.2c0.2,0,0.4,0,0.7,0
			c0.4,0,0.9,0,1.4,0.1c0.3,0.1,0.7,0.1,1.1,0.1c0.4,0,0.8,0,1.3-0.1c0.9-0.1,1.7-0.4,2.3-0.6c0.4-0.2,0.8-0.3,1.3-0.5
			c0.4-0.2,0.9-0.3,1.4-0.4c0.5-0.2,0.9-0.3,1.4-0.6c0.2-0.1,0.4-0.2,0.6-0.4c0.2-0.1,0.4-0.3,0.5-0.5c0.1,0,0.2-0.1,0.1-0.2
			c0.2-0.2,0.4-0.3,0.7-0.5c0.2-0.2,0.4-0.3,0.7-0.5c0,0,0.1-0.1,0.3-0.2c0.2-0.1,0.4-0.3,0.6-0.6c0.2-0.2,0.4-0.4,0.6-0.7
			C273.8,41.3,273.7,40.9,273.5,40.5z"/>
		<path d="M143.6,269.7l0.1-0.2C143.6,269.6,143.6,269.6,143.6,269.7z"/>
		<path d="M118.1,256.1C118.1,256.1,118.1,256.1,118.1,256.1C118.1,256.1,118.1,256.1,118.1,256.1z"/>
		<path d="M145.9,263.1C145.9,263.1,145.9,263.1,145.9,263.1C145.9,263.2,146,263.2,145.9,263.1L145.9,263.1z"/>
		<path d="M145.6,261l0.1-0.3c-0.1-0.2-0.2-0.5-0.2-0.7l0,0c-0.1-0.3-0.2-0.7-0.3-0.9l0,0c0-0.1-0.1-0.3-0.1-0.4l0.1,0.1
			c-0.2-0.6-0.5-1.1-0.6-1.7l-0.1,0.1c-0.3-1.1-0.8-1.4-1.2-2.4l0,0c-0.1-0.1-0.2-0.2-0.3-0.4c-0.1-0.1-0.2-0.2-0.3-0.3
			c-0.2-0.2-0.3-0.4-0.5-0.7c-0.1-0.2-0.3-0.4-0.5-0.6c-0.2-0.2-0.4-0.4-0.7-0.6c0.2,0.1,0-0.1,0-0.1c-0.5-0.4-1.1-0.8-1.2-0.6
			c-0.4-0.3-0.3-0.3-0.3-0.4c-0.1,0.1-0.4-0.1-0.7-0.3l0.2,0.1c-0.3-0.2-0.6-0.3-0.9-0.5l0.1,0.3c-0.4-0.3,0-0.3-0.5-0.5l-0.1,0.2
			c-0.3-0.2-0.6-0.3-0.8-0.5c-0.2-0.2-0.5-0.4-0.8-0.6c-0.4-0.1-0.7-0.3-1.1-0.3c-0.4-0.1-0.8-0.2-1.1-0.2c-0.8-0.1-1.5-0.2-2.3-0.2
			c-1.5,0-3,0.1-4.4,0.3l-0.1-0.1c-0.1-0.2-0.7,0.5-0.8,0.3l-0.3,0.2c-0.1,0-0.3,0-0.1-0.1c-0.3,0.1-0.3,0.1-0.5,0.2l-0.3,0
			c-0.3,0.1-0.6,0.2-0.8,0.3c-0.3,0.1-0.5,0.3-0.7,0.4c-0.5,0.3-1,0.6-1.5,0.9c-0.4,0.1-0.7,0.4-1.2,0.7c-0.4,0.3-0.8,0.6-1.2,1
			c-0.4,0.4-0.8,0.8-1.1,1.2c-0.3,0.4-0.6,0.8-0.9,1.1c-0.3,0.5-0.7,0.9-1,1.4c-0.4,0.5-0.8,0.9-1.1,1.4c-0.2,0.2-0.4,0.5-0.5,0.8
			c-0.2,0.3-0.3,0.5-0.5,0.8c-0.3,0.5-0.5,1.1-0.7,1.6c0.2,0.8,0.4,1.7,0.7,2.5c0.2-0.2,0.2-0.8,0.4-1l0,0c0-0.3,0.2-0.6,0.4-0.9
			c0.1-0.1,0.2-0.3,0.2-0.4c0.1-0.1,0.1-0.3,0.2-0.5c0,0,0.1,0.1,0,0.2c0.2-0.4,0.4-1,0.5-1c0.5-1,1.4-2.2,1.6-2.9l0,0.1
			c0.1-0.4,0.3-0.4,0.5-0.8c0,0,0.1,0,0.1,0c0.2-0.5,0.8-1,1-1.3l0.1,0c0.2-0.2,0.4-0.4,0.6-0.6l-0.3,0.2c0-0.1,0.1-0.2,0.3-0.3
			c0.2-0.1,0.5-0.3,0.7-0.5c0.2-0.2,0.4-0.5,0.6-0.8c0.2-0.3,0.4-0.5,0.7-0.7c0.2-0.3-0.1,0.3,0.2,0c0.1,0.1-0.1,0.2,0,0.2
			c0.2-0.2,0.3-0.2,0.5-0.3c0.2-0.1,0.4-0.1,0.6-0.3l0.1,0.1c0.2-0.3,0.6-0.4,0.9-0.5c0.3-0.1,0.5-0.2,0.7-0.3
			c0.6-0.3,0.6,0.1,1.2-0.3l0.3,0.1c0.3-0.1,0.2-0.2,0.5-0.3c0,0.1,0.4,0,0.3,0.1c0.4,0,0.8-0.1,1.2-0.2c0.4-0.1,0.9-0.2,1.4-0.1
			c0.2-0.2,0.7-0.1,0.9-0.2c0,0,0.3,0,0.5,0.1c0.2,0,0.3,0.1,0,0.1c-0.1,0-0.1,0-0.1,0l-0.1,0.1c0.3,0.1,0.6,0.1,0.8,0.1
			c0.3,0,0.5-0.1,0.8,0c-0.2-0.1-0.4-0.1-0.2-0.1l0.5,0.1l-0.1,0.1c0.3,0.1,0.5,0.1,0.8,0.2c0,0-0.1-0.1-0.1-0.1
			c0.4,0.1,0.5,0.4,0.9,0.3c0.2,0-0.3-0.2,0.1-0.2c0.3,0.1,0.6,0.2,0.9,0.4c0.2,0.1,0.3,0.1,0.5,0.2c0.2,0.1,0.3,0.2,0.5,0.2
			c0-0.1,0.2-0.1,0.3,0l0,0.1c0.7,0.1,0.1,0.3,0.8,0.5l-0.1,0l0.3-0.1c0.7,0.1,0.2,0.3,0.9,0.5c-0.2-0.1,0-0.3,0.3,0l-0.1,0
			c0.2,0.1,0.2,0.1,0.3,0.2c-0.1,0-0.1,0.1,0.1,0.2l-0.2,0c0.2,0,0.4,0.1,0.5,0.2c0.2,0.3,0.8,0.6,0.8,0.9c0,0,0.1,0.2,0.3,0.3
			c0.2,0.2,0.4,0.3,0.5,0.4c-0.2-0.1,0.1,0.3-0.1,0.3c0.2,0.1,0.7,0.6,0.8,0.9l0,0c0.4,0.9,1,1.4,1.2,2.3c0.1-0.1,0.2,0.4,0.3,0.2
			c0.5,0.8,0.2,1.7,0.8,1.9c0.1,0.4,0,0.5,0,0.7l0-0.1c0.2,0.8,0.2,1,0.3,1.6c0.1,0.3,0.3,0.3,0.3,0.9c-0.1-0.2-0.1,0-0.1,0.3
			c0-0.1-0.1-0.2-0.1,0.1c0,0,0,0.1,0.1,0.1c0,0,0,0,0,0c0,0.3,0.1,0.3,0.1,0.1c0,0,0,0,0.1-0.1c-0.1,0.4,0,1-0.2,1
			c0,1,0.1,1.8,0,2.6c-0.1,0.1-0.1-0.1-0.1-0.4l-0.1,0.6c-0.1,0,0-0.4,0-0.5c-0.3,0.7-0.1,1.5-0.4,2.3l0,0.2l0,0
			c0,0,0.1,0.2,0.1,0.3c-0.1,0.1-0.2-0.1-0.3,0.3c-0.2,0.3-0.2,0.9-0.3,1.4c0.1-0.2,0.1-0.1,0.1,0c-0.1,0.2-0.2,0.3-0.2,0.5l-0.1,0
			c0.1,0,0,0.6,0,0.7c-0.1,0.1,0-0.3,0-0.4c-0.2,0.8-0.1,0.4-0.4,1.2c0,0.5,0.1,0,0.2,0.2c-0.1,0.4-0.1,0.8-0.4,1.2l0.2-0.1
			c-0.2,0.7-0.3,1.2-0.6,1.6c-0.2,1.2-0.4,2-0.4,2.4c0.2,0.1,0.4,0.2,0.5,0.3c0.3-0.4,0.6-1.1,0.6-1.1c0.5-1,0.8-1.8,1.1-2.7
			c0.2-0.9,0.5-1.8,0.8-3.1c0.4-1.1,0.6-1.9,0.8-2.6c0.2-0.7,0.4-1.5,0.5-2.8c0.2-1.2,0.2-2.5,0.1-3.7
			C145.7,262.6,145.8,261.6,145.6,261z"/>
	</g>
</g>
</svg>
