<svg width="240" height="350" viewBox="0 0 240 350" fill="none" xmlns="http://www.w3.org/2000/svg">
<g clip-path="url(#clip0_1220_12012)">
<path d="M175.893 18.2487L176.066 18.13L175.893 18.2487Z" fill="#00F3B3"/>
<path d="M71.1948 47.1209L71.4605 47.0752C71.4226 47.0326 71.3436 47.028 71.1948 47.1209Z" fill="#00F3B3"/>
<path d="M94.0124 28.1814L93.9698 27.976L94.0124 28.1814Z" fill="#00F3B3"/>
<path d="M63.2392 35.8967L63.1097 35.9637C63.166 35.9622 63.2194 35.9485 63.2392 35.8967Z" fill="#00F3B3"/>
<path d="M58.9066 38.5142L58.8746 38.4944L58.9066 38.5142Z" fill="#00F3B3"/>
<path d="M64.1392 44.6356L64.3272 44.6676L64.1392 44.6356Z" fill="#00F3B3"/>
<path d="M52.5538 33.9835L52.3835 33.8527C52.3881 33.9135 52.4276 33.9637 52.5538 33.9835Z" fill="#00F3B3"/>
<path d="M45.9182 29.5431H45.9273C45.9425 29.5309 45.9608 29.5249 45.973 29.5127L45.9182 29.5431Z" fill="#00F3B3"/>
<path d="M41.2656 40.5728L41.4537 40.6412L41.2656 40.5728Z" fill="#00F3B3"/>
<path d="M15.7039 91.3531L15.6187 91.1765L15.7039 91.3531Z" fill="#00F3B3"/>
<path d="M22.603 135.427L22.5271 135.444C22.5399 135.45 22.5541 135.451 22.5678 135.448C22.5814 135.445 22.5937 135.438 22.603 135.427Z" fill="#00F3B3"/>
<path d="M24.1742 219.605L24.3639 219.837L24.1742 219.605Z" fill="#00F3B3"/>
<path d="M23.816 337.814L23.9192 337.991C24.2281 334.956 24.1388 331.893 23.6535 328.882C24.2774 328.451 23.6991 325.655 23.8964 324.735L23.948 324.822C23.4516 322.428 24.3184 319.884 23.8736 317.577C23.9618 317.662 24.0289 317.767 24.0697 317.883C24.1105 317.999 24.124 318.123 24.109 318.245C24.0209 316.571 23.8676 314.262 24.2304 314.136C24.112 310.117 24.247 304.506 23.6489 301.935L23.7506 302.109C23.5557 300.94 23.4623 299.757 23.4714 298.572C23.5199 298.482 23.5428 298.365 23.564 298.383C23.3702 296.404 23.2824 294.415 23.3012 292.427L23.5427 292.342L23.4667 289.158L23.4228 290.348C22.7549 289.939 23.825 287.938 23.3802 285.631C23.4515 283.47 21.9701 281.257 22.2828 279.011C21.9655 277.946 22.7959 279.95 22.5454 278.352C22.893 278.297 22.7685 279.098 23.0433 278.684C22.8687 277.115 23.3819 276.106 23.136 274.17L23.4061 274.09C22.8961 271.565 23.7325 269.319 23.2544 267.639C23.016 265.034 24.0467 265.886 23.5017 263.176L23.8614 262.118C23.913 260.957 23.406 261.289 23.5775 260.002C23.8083 260.078 23.7508 258.372 23.9739 259.125C24.317 256.208 23.4274 253.212 24.0134 249.369C23.558 248.538 23.8159 246.604 23.4743 245.985C23.6701 245.88 23.4835 242.112 23.9207 244.279C23.9571 244.466 23.9526 244.795 23.8751 244.773L24.1423 245.031C24.6311 242.839 23.8387 241.054 23.907 238.887C23.8235 239.531 23.8509 240.385 23.6657 239.814L23.69 237.802L23.9161 238.219L24.0284 235.22L23.7538 235.635C24.0925 234.453 24.1604 233.208 23.9526 231.995C23.7279 231.248 23.5867 233.388 23.4971 231.843C23.6747 229.88 23.9419 226.94 24.0087 224.435C23.7051 224.671 23.7051 223.997 23.6383 223.305L23.9085 223.223C23.5168 220.567 24.4975 222.246 24.1833 219.61L23.8038 219.153C23.2527 216.778 24.3578 217.868 23.6094 215.227C23.661 216.273 23.0144 215.723 23.1252 214.436L23.3878 214.76C23.3025 214.291 23.2628 213.814 23.2694 213.337C23.4212 213.76 23.6504 213.56 23.6003 212.513L23.9313 213.213L23.438 211.234C23.7097 209.713 23.3438 207.278 23.7082 206.655C23.8104 205.304 23.7272 203.945 23.4608 202.617C23.7158 203.276 23.8007 201.463 24.0982 201.976C23.7217 200.551 23.6401 199.064 23.8585 197.606L23.8933 197.796C24.1802 194.069 23.438 191.43 23.7871 188.086C23.4744 188.238 23.6353 186.474 23.2345 186.914C22.8171 183.458 24.0133 180.605 22.7655 179.365C22.7593 178.46 22.8732 177.559 23.1041 176.685L23.1723 177.059C23.0523 174.113 23.0357 173.255 23.0509 171.07C22.9234 169.977 22.3465 169.81 22.474 167.851C22.7063 168.483 22.6593 167.682 22.6547 166.95C22.6942 167.417 22.7791 167.559 22.9264 166.6C22.8517 166.428 22.8007 166.246 22.7746 166.06C22.7928 166.052 22.8065 166.014 22.8308 166.033C22.7427 164.815 22.6789 165.025 22.644 165.593C22.609 165.564 22.5635 165.613 22.5013 165.788C22.7897 164.517 22.4604 162.251 22.8535 162.096C22.7397 158.421 22.3176 155.796 22.146 152.739C22.3464 152.393 22.5302 153.107 22.6152 153.994L22.5272 151.826C22.8187 151.842 22.7033 153.07 22.7655 153.738C23.2209 151.151 22.2631 148.412 22.6775 145.384L22.4422 144.757L22.4802 144.576C22.3572 144.585 22.1886 143.906 22.146 143.459C22.3965 143.028 22.732 143.485 22.7062 141.985C22.7917 140.339 22.6951 138.689 22.4179 137.065C22.3799 137.902 22.2371 137.632 22.146 137.273C22.2312 136.69 22.2733 136.101 22.2721 135.511L22.5378 135.453C22.2858 135.351 22.2341 133.455 22.1127 133.204C22.3632 132.775 22.3374 134.365 22.5302 134.552C22.4801 131.544 22.5045 133.049 22.4559 130.042C22.1872 128.439 22.1324 130.336 21.8273 129.57C21.6472 128.103 21.605 126.622 21.7013 125.146L21.3978 125.662C21.1384 123.653 21.1624 121.617 21.4691 119.615C21.2475 117.929 21.0395 116.505 20.8437 115.299C20.654 114.128 20.4748 113.169 20.3063 112.393L20.4991 112.42C20.6082 112.429 20.7179 112.429 20.827 112.42C21.4115 112.379 22.5332 112.087 22.1279 110.442C21.9634 109.854 21.7209 109.291 21.4069 108.768L21.4265 108.668C21.0789 108.406 20.8574 108.342 20.5902 108.846C20.5766 108.216 20.2987 108.768 20.2228 108.563L20.2333 108.511C19.9965 108.986 19.8008 108.092 19.5731 108.511C19.5822 108.462 19.5944 108.29 19.6429 108.281C19.4911 108.354 19.2709 108.485 19.2755 108.12C18.9051 108.2 18.4011 108.012 18.1446 108.585L18.1644 108.485C18.0126 108.873 17.9883 108.537 17.832 108.73C17.8249 108.699 17.8203 108.668 17.8182 108.637C17.6573 109.021 17.3916 108.681 17.2671 108.841V108.599L16.9757 108.643L17.082 108.7C17.0183 109.366 16.8802 108.273 16.6525 108.7C16.4597 108.608 16.197 110.069 16.0073 109.736C15.898 110.04 16.1136 109.231 15.9572 109.465C15.9663 109.118 16.0345 109.25 16.0087 108.972C15.8569 109.124 15.7872 108.607 15.602 108.835V108.564C15.3515 109.05 15.1815 108.19 15.0099 108.655C14.764 108.87 14.8824 107.844 14.6152 108.365L14.5331 107.995C14.4299 107.931 14.4392 108.441 14.3299 108.258C14.3466 108.028 14.1887 108.068 14.2661 107.852C14.0156 107.481 13.7074 108.343 13.3826 107.72C13.2885 108.165 13.1229 107.891 13.0531 108.226C13.0531 108.03 12.7025 108.181 12.9165 107.77C12.9348 107.735 12.9651 107.742 12.959 107.818L12.994 107.554C12.8149 107.042 12.6205 107.815 12.4262 107.73C12.4824 107.821 12.5597 107.8 12.5005 107.981L12.32 107.939L12.3671 107.715L12.0984 107.573L12.1257 107.852C11.9981 107.7 11.9738 107.231 11.8038 107.619C11.7264 107.835 11.9146 107.998 11.7704 108.076C11.5929 107.841 11.3718 107.642 11.1193 107.491C11.1284 107.805 11.0676 107.796 11.0009 107.852V107.581C10.7443 107.948 10.9356 106.982 10.6836 107.277L10.7123 107.09L10.6258 107.653C10.389 108.182 10.5317 107.086 10.2615 107.805C10.3586 107.764 10.2828 108.404 10.1705 108.283L10.2115 108.022C10.1431 108.074 10.1174 108.184 10.0764 108.127C10.1204 107.987 10.1127 107.747 10.0156 107.788L10.093 107.462L9.89273 107.937C9.76522 107.651 9.53127 107.995 9.48876 107.624C9.48876 107.624 9.1959 107.43 9.11241 107.832C9.18224 107.584 9.02137 107.481 9.07905 107.188C8.99101 107.468 8.75254 107.692 8.67361 107.386L8.69195 107.353C8.36558 107.03 8.09536 107.753 7.80693 107.365C7.80693 107.68 7.655 107.503 7.67777 107.907C7.34685 108.292 7.13738 107.065 6.97343 108.304C6.82163 108.366 6.82163 108 6.74421 107.94L6.78071 107.875C6.6098 107.955 6.41751 107.978 6.23276 107.939C6.12802 108.056 6.09006 108.633 5.917 108.486C5.9838 108.258 5.9093 108.298 5.84251 108.296C5.88653 108.261 5.90336 108.178 5.82139 108.019C5.81173 108.073 5.79325 108.124 5.76672 108.172C5.76522 108.153 5.76522 108.134 5.76672 108.115C5.65135 108.191 5.66804 108.267 5.71965 108.298C5.71584 108.346 5.71936 108.395 5.73022 108.442C5.62699 108.138 5.40849 108.45 5.41001 108.054C5.07149 108.132 4.81646 108.531 4.53259 108.672C4.51975 108.591 4.52477 108.508 4.5476 108.429C4.57042 108.35 4.61037 108.277 4.66452 108.216L4.46421 108.281C4.47787 107.989 4.58561 108.118 4.64785 108.062C4.6328 108.027 4.61242 107.996 4.58725 107.968C4.82129 107.623 5.07887 107.296 5.35831 106.988C6.79891 105.945 7.53974 106.087 8.77237 104.705C9.45193 104.128 10.0915 103.505 10.6866 102.841C10.6942 102.232 11.5336 102.101 11.6459 101.494L11.9496 101.57C11.9891 101.362 12.077 101.167 12.2956 101.165L12.3367 101.229C12.3959 100.917 12.6828 100.824 12.7116 100.669L12.754 100.733L12.959 100.511L12.9909 100.628C13.1653 100.225 13.476 99.8971 13.8683 99.7015L13.6376 99.4839C14.5013 99.2039 14.307 98.5054 15.1556 98.3289L15.1982 98.3943C15.3773 97.1373 16.7162 97.8359 16.9408 96.5926C16.9135 96.7448 17.0926 96.6808 17.1306 96.7447C17.4144 96.3795 17.75 96.0265 17.3507 95.5502C17.6073 95.3402 17.6817 95.5228 17.8714 95.6749C17.6923 95.471 17.8365 95.1972 18.0232 95.0161L18.0019 95.1682L18.5013 94.6144L18.0565 94.3206C18.4497 94.1684 18.5408 94.73 18.7442 94.3891L18.4635 94.0695C18.928 93.7789 19.5898 94.0589 20.1909 93.9539C21.9624 92.665 23.031 90.3017 25.0485 89.5408L25.3248 89.725C25.6603 90.0537 25.299 88.8347 25.6391 89.1163L25.6785 88.7997C25.7833 88.8195 25.9488 88.7998 25.9276 88.952C26.1052 88.8226 26.0581 88.7617 26.0793 88.5517L26.4466 88.6187C27.2466 88.2261 27.4348 87.3222 28.1953 86.8154C29.4098 86.5507 30.6045 84.7976 31.2922 83.7841C32.0952 82.1696 34.77 82.3156 35.5427 80.5975C35.6277 80.6112 35.6397 80.4059 35.6033 80.3648L36.8254 79.3985C36.8254 79.3985 40.0617 76.7323 38.8686 75.7112C39.1773 75.2471 39.4616 74.7672 39.7202 74.2733L39.8205 74.325C39.9878 73.9064 40.059 73.4554 40.0288 73.0055C39.9985 72.5555 39.8677 72.1182 39.6459 71.7259C40.2744 71.6117 39.7234 70.8128 39.9298 70.5465L39.9798 70.5724C39.5077 69.883 40.4003 69.1709 39.9798 68.5074C40.0284 68.5333 40.2015 68.5499 40.2091 68.7006C40.1362 68.2197 40.0057 67.5623 40.3716 67.5319C40.2911 66.3845 40.4823 64.7928 39.9161 64.0441L40.0163 64.0958C39.6292 63.6728 39.9647 63.5541 39.7719 63.0839C39.8205 63.058 39.8447 63.0261 39.8644 63.0307C39.4834 62.5741 39.822 61.7006 39.6626 61.3293L39.9055 61.3095L39.8614 60.3965L39.8038 60.7343C39.1404 60.608 40.2319 60.0541 39.8038 59.3891C39.8964 58.7804 38.4375 58.1199 38.7715 57.4854C38.4679 57.181 39.2739 57.7608 39.0416 57.3013C39.3877 57.2922 39.2558 57.5174 39.5336 57.4048C39.3818 56.9482 39.8994 56.6743 39.6717 56.1188L39.9433 56.1006C39.4591 55.3732 40.3183 54.7462 39.8538 54.2593C39.6398 53.5136 40.663 53.7723 40.1453 52.9917L40.5143 52.6874C40.578 52.3572 40.0693 52.4439 40.2515 52.0787C40.4822 52.1045 40.4413 51.6222 40.6584 51.8352C41.0303 51.0089 40.1696 50.1415 40.7935 49.055C40.3487 48.8115 40.6234 48.2637 40.2895 48.0826C40.4853 48.0552 40.3366 46.9793 40.745 47.6033C40.7799 47.6565 40.7723 47.7554 40.6964 47.7432L40.9605 47.8209C41.4705 47.2031 40.6994 46.6826 40.7859 46.0663C40.6948 46.2474 40.716 46.4923 40.5354 46.3264L40.5795 45.7528L40.8011 45.8761L40.9438 45.0223L40.6645 45.1365C40.8163 44.721 41.2868 44.5795 40.8997 44.1032C40.6826 43.8856 40.5203 44.4943 40.4444 44.0515C40.708 43.3714 40.9042 42.667 41.0303 41.9485C40.7176 42.0109 40.7266 41.8176 40.6705 41.6198L40.9423 41.6C40.5765 40.8391 41.5403 41.3306 41.2458 40.5758L40.871 40.4373C40.3442 39.751 41.4386 40.0797 40.719 39.3158C40.76 39.6201 40.1119 39.4483 40.2424 39.083L40.5035 39.1789C40.4504 38.975 40.3426 38.9065 40.3988 38.7711C40.537 38.8943 40.7768 38.8411 40.7374 38.5413L41.0607 38.7467L40.5886 38.1745C40.874 37.7438 40.5324 37.0484 40.9028 36.8734C40.9028 36.8734 41.0972 35.9391 40.6964 35.72C40.9439 35.9117 41.047 35.3958 41.34 35.5465C41.2604 35.4729 41.1951 35.3852 41.1473 35.2878C41.1188 35.2327 41.0938 35.1757 41.0728 35.1174C41.0515 35.0611 41.0334 35.0823 41.0198 35.0595C40.9651 35.0108 40.9833 34.95 41.1335 34.9713L41.1684 34.988C41.3202 34.9667 41.2185 34.9013 41.1684 34.7613C41.1183 34.6213 41.1593 34.4858 41.34 34.6517C41.1639 34.3473 41.3627 34.4995 41.1684 34.1024C41.1761 34.0807 41.1887 34.061 41.2051 34.0449C41.2215 34.0288 41.2413 34.0165 41.2631 34.0092C41.2849 34.0019 41.3081 33.9997 41.3309 34.0026C41.3537 34.0056 41.3754 34.0137 41.3946 34.0263C41.4752 34.0747 41.551 34.1308 41.6209 34.1937C41.9883 34.3017 42.2796 34.3033 42.4724 33.6854C42.9278 33.6291 42.9946 33.9897 43.2314 34.0597L43.1221 34.1236C43.6877 34.0493 44.2597 34.035 44.8284 34.081C45.1411 33.9684 45.2049 33.3917 45.759 33.5454C45.5722 33.7706 45.8015 33.7326 46.0095 33.7387C45.8759 33.7706 45.8317 33.8543 46.102 34.0156C46.1387 33.9527 46.1911 33.9002 46.2539 33.8634C46.2615 33.8817 46.2639 33.9017 46.2613 33.9213C46.6105 33.8482 46.5514 33.7691 46.3905 33.7401C46.3996 33.7051 46.3904 33.6595 46.3388 33.588C46.6925 33.8924 47.3453 33.588 47.3787 33.9897C48.2818 33.8444 49.1763 33.6494 50.058 33.4054C50.1506 33.6108 49.9426 33.7858 49.6876 33.8619L50.3069 33.804C50.2932 34.0962 49.9471 33.9563 49.7558 34.0156C50.4784 34.5071 51.283 33.5835 52.1331 34.0385L52.3167 33.8117L52.3684 33.8512C52.3684 33.7295 52.5657 33.5682 52.6947 33.5317C52.8101 33.7889 52.6704 34.1175 53.0985 34.113C53.4295 34.3671 54.0595 34.0141 54.5043 33.8893C54.2674 33.8406 54.3526 33.7006 54.4527 33.6138C54.6653 33.6138 54.782 33.868 54.949 33.7661L54.9612 34.11C54.8853 33.7843 55.5274 33.7752 55.6094 33.6367C55.7248 33.8939 55.2739 33.8467 55.2147 34.0369L56.4989 34.0217C56.9619 33.7751 56.4246 33.696 56.6508 33.3993C57.0561 33.343 57.4553 33.1132 57.9122 33.3323L57.7742 33.028C58.0806 32.9285 58.4026 32.8857 58.7244 32.9017C58.5164 33.5545 59.1556 34.0445 59.3316 34.9454C59.154 35.8812 58.5574 36.1156 58.7715 37.0956C58.7532 37.5722 58.7944 38.0491 58.8943 38.5154C59.3497 38.7421 58.8853 39.1119 59.2633 39.3767L59.0007 39.468C59.1297 39.5593 59.2162 39.6659 59.0735 39.7495L58.9975 39.7419C59.1918 39.8789 59.0705 40.0234 59.1676 40.0919L59.0917 40.0843L59.1206 40.2456L59.0127 40.2152C59.1003 40.3014 59.1582 40.4135 59.1778 40.535C59.1975 40.6566 59.178 40.7812 59.1221 40.8909L59.4393 40.8817C59.075 41.3169 59.7247 41.498 59.2951 41.8875L59.2192 41.8799C60.0374 42.4095 58.6302 42.6667 59.4074 43.2114C59.3103 43.143 59.2435 43.2343 59.1676 43.2267C59.2511 43.4702 59.2921 43.7289 59.9115 43.7487C59.8978 43.9237 59.7142 43.8871 59.4743 43.9008C59.7461 43.9008 59.8537 44.0621 59.8674 44.2052L59.7641 44.1398L59.8462 44.5339L60.3608 44.4715C60.209 44.6754 59.7339 44.508 59.8538 44.7104L60.2773 44.718C60.1862 45.0041 59.5396 45.1562 59.2147 45.4271C59.0037 46.5806 60.0542 47.8543 59.2785 48.9119L58.9566 48.9515C58.4906 48.9606 59.6398 49.2665 59.2071 49.2969L59.4165 49.4278C59.333 49.4613 59.2404 49.5328 59.1387 49.4674C59.1175 49.583 59.1935 49.5876 59.3316 49.6743L59.0387 49.7915C58.8019 50.248 59.3513 50.6467 59.2253 51.1261C58.6181 51.6876 59.1341 52.7908 59.4332 53.4269C60.1072 54.3263 58.2188 55.3032 58.9975 56.2254C58.9307 56.2543 59.0765 56.3334 59.1297 56.335L59.0431 57.1582C59.0431 57.1582 58.7593 61.1589 62.7001 58.2235L62.8002 58.2462C62.8336 58.1899 62.8641 58.1352 62.8899 58.0834C63.623 58.0099 64.3322 57.7817 64.971 57.4139C67.8037 56.0884 68.5171 54.4222 71.2601 52.0178C73.8893 50.1917 74.9217 50.1461 77.4052 47.9365C78.6895 47.0113 79.9447 45.8761 81.1273 44.8778C81.4309 44.0652 82.7334 43.6376 83.1873 42.8021H83.6139C83.6794 42.6509 83.7763 42.5153 83.8979 42.4043C84.0196 42.2934 84.1633 42.2096 84.3197 42.1585L84.3501 42.23C84.5839 41.8009 85.056 41.5878 85.1714 41.3748L85.2032 41.4463L85.6131 41.0887L85.6055 41.2317C86.0818 40.6234 86.673 40.1151 87.3452 39.7358L87.1052 39.5213C88.52 38.8806 88.5626 38.0224 89.9 37.5232L89.9319 37.5962C90.7941 35.8827 92.4411 36.3865 93.3717 34.673C93.2563 34.8876 93.5462 34.7445 93.5781 34.8252C94.1732 34.253 94.8396 33.6838 94.4722 33.1817C94.9519 32.8256 94.9762 33.0401 95.1842 33.1817C95.0157 32.9671 95.3588 32.5624 95.7186 32.2687L95.6122 32.4817L96.6156 31.5945L96.0949 31.3465C96.7477 31.033 96.6187 31.7345 97.0817 31.2232L96.8161 30.8899C97.645 30.3604 98.4859 30.5233 99.4347 30.1946C102.673 27.9378 105.373 24.4971 108.739 22.8582L109.06 23.0104C109.4 23.3376 109.443 21.8447 109.819 22.0973L110.029 21.6682C110.181 21.6682 110.43 21.5784 110.332 21.7915C110.656 21.5662 110.618 21.4993 110.758 21.2148L111.269 21.1874C112.635 20.4265 113.35 19.1665 114.718 18.2595C116.64 17.5321 119.246 14.8448 120.748 13.2941C122.703 10.9126 126.6 10.2659 128.552 7.76107C128.67 7.75347 128.786 7.47805 128.751 7.43544L131.028 5.7767C132.714 4.54104 134.254 3.11488 135.615 1.52644C135.948 1.91764 136.319 2.27451 136.723 2.59167C139.128 4.7145 140.974 4.73123 144.341 6.34884C147.125 8.08819 147.595 9.03017 150.677 10.485C152.068 11.3189 153.642 12.0478 155.059 12.7676C155.94 12.7326 156.881 13.7795 157.842 13.8784L158.015 14.2741C158.183 14.2771 158.349 14.315 158.502 14.3852C158.655 14.4553 158.792 14.5563 158.905 14.6819L158.85 14.7382C159.346 14.7899 159.74 15.146 159.987 15.1704L159.932 15.2282L160.435 15.4717L160.298 15.5188C161.061 15.7268 161.777 16.0791 162.408 16.5567L162.51 16.2523C163.69 17.3175 164.505 17.0269 165.522 18.0784L165.467 18.1363C167.418 18.2748 167.63 20.0019 169.607 20.2043C169.361 20.1785 169.607 20.393 169.56 20.4508C170.337 20.7841 171.141 21.1813 171.456 20.6456C171.985 20.95 171.796 21.0595 171.749 21.3076C171.878 21.0687 172.397 21.23 172.822 21.4491L172.579 21.4339L173.819 22.0228L173.834 21.443C174.396 21.9284 173.69 22.0807 174.358 22.312L174.557 21.9361C175.392 22.5022 175.592 23.3527 176.287 24.103C179.723 26.2334 184.04 27.4174 186.955 29.913L186.944 30.2737C186.779 30.7165 188.186 30.1778 188.099 30.6252L188.585 30.6525C188.652 30.7865 188.834 30.9904 188.593 30.9752C188.8 31.1205 189.055 31.1819 189.306 31.1471L189.543 31.6128C190.824 32.5913 192.275 32.7663 193.69 33.6869C195.161 35.1919 198.738 36.5782 200.801 37.3695C203.823 38.2643 206.036 41.6395 209.171 42.4841C209.229 42.5906 209.532 42.5906 209.556 42.5435L212.037 44.0119C212.037 44.0119 212.805 44.4548 213.834 44.9813H213.904L214.227 44.9524C214.911 44.7956 215.62 44.7862 216.308 44.9247C216.995 45.0632 217.645 45.3465 218.215 45.7558C218.461 46.0079 218.621 46.332 218.671 46.6811C219.119 46.6111 219.278 46.2839 218.986 45.5686C218.396 44.4241 217.649 43.3684 216.766 42.4324L216.876 42.3791C215.981 41.5001 214.826 40.9363 213.584 40.7722C213.736 40.1406 212.486 40.0812 212.263 39.7236L212.318 39.6962C211.243 39.646 210.786 38.3754 209.766 38.2993C209.822 38.2735 209.918 38.1319 210.114 38.2278C209.487 37.9661 208.612 37.6359 208.747 37.292C207.293 36.5859 205.408 35.335 204.225 35.338L204.336 35.2847C203.63 35.3395 203.642 34.9621 202.97 34.8145C202.961 34.7551 202.932 34.7111 202.948 34.6974C202.199 34.7217 201.279 33.833 200.752 33.7234L200.84 33.4952L199.698 32.9199L200.09 33.1985C199.62 33.7006 199.45 32.3599 198.431 32.2854C197.716 31.7862 196.221 32.6339 195.594 31.908C195.067 31.9704 196.171 31.6509 195.493 31.5459C195.645 31.2324 195.862 31.5017 195.853 31.1791C195.222 31.0147 195.125 30.3619 194.335 30.1869L194.44 29.9343C193.314 29.8704 192.945 28.6864 192.125 28.7671C191.103 28.4506 191.905 27.7217 190.697 27.6517L190.505 27.1237C190.127 26.8437 189.995 27.3534 189.631 26.9441C189.771 26.7584 189.15 26.4647 189.522 26.4206C188.676 25.5334 187.199 25.7054 186.153 24.418C185.642 24.6463 185.091 24.033 184.714 24.2065C184.773 24.0148 183.372 23.4167 184.339 23.4731C184.423 23.4731 184.535 23.5491 184.491 23.6114L184.711 23.4304C184.19 22.5615 183.184 22.8902 182.463 22.3971C182.645 22.5995 182.955 22.7471 182.666 22.7943L181.979 22.3682L182.235 22.2541L181.248 21.5511L181.258 21.8737C180.814 21.4613 180.863 20.947 180.092 20.9607C179.723 21.0048 180.395 21.5602 179.811 21.3319C179.085 20.6299 178.309 19.981 177.49 19.3902C177.42 19.7097 177.186 19.5667 176.916 19.486L177.019 19.2335C175.905 19.0402 176.969 18.5213 175.9 18.2641L175.553 18.503C174.458 18.503 175.378 17.7588 174.094 17.8806C174.483 18.0449 173.976 18.5 173.582 18.1439L173.824 17.9795C173.548 17.8867 173.411 17.9354 173.271 17.7954C173.488 17.7558 173.535 17.5078 173.147 17.3389L173.552 17.1867L172.625 17.2171C172.227 16.6724 171.207 16.5034 171.167 16.0575C171.167 16.0575 170.105 15.2541 169.649 15.4595C170.003 15.3697 169.415 14.93 169.739 14.7748C169.432 14.8054 169.123 14.76 168.838 14.6427C168.553 14.5254 168.301 14.3398 168.104 14.1022H168.187C167.034 13.0993 165.759 13.2196 164.764 12.235C164.664 12.5393 164.13 12.0432 164.086 12.4799C162.682 12.1482 162.278 10.5276 161.233 11.3676C160.65 11.118 160.723 10.7467 160.474 10.5321L160.637 10.5474C159.897 10.2343 159.182 9.8654 158.498 9.44405C158.056 9.33601 157.715 9.80627 157.097 9.29953C157.431 9.22344 157.13 9.10319 156.874 8.96015C157.054 9.0195 157.147 8.97544 156.886 8.65588C156.801 8.68637 156.71 8.69522 156.622 8.6817C156.622 8.66496 156.622 8.64516 156.64 8.6269C156.172 8.45798 156.212 8.56148 156.395 8.70148C156.368 8.72583 156.363 8.77452 156.395 8.8643C156.092 8.35604 155.148 8.18716 155.286 7.81281C153.954 7.17063 152.836 7.0093 151.69 6.54212C151.668 6.29712 152.007 6.28042 152.356 6.38999L151.559 6.02776C151.711 5.77667 152.078 6.12673 152.341 6.20738C151.667 5.29434 150.246 5.57123 149.396 4.59732L149.063 4.67645L149.019 4.60651C148.963 4.71608 148.643 4.72674 148.467 4.67348C148.441 4.36913 148.763 4.1667 148.23 3.8867C147.936 3.4393 146.991 3.33126 146.379 3.14561C146.653 3.348 146.489 3.41803 146.319 3.42564C146.052 3.28564 146.024 2.9782 145.769 2.95994L145.91 2.64647C145.857 2.98582 145.054 2.56583 144.889 2.63431C144.865 2.32996 145.403 2.67081 145.563 2.53994L143.96 1.69539C143.272 1.60713 143.904 2.03624 143.488 2.15189C142.902 2.01929 142.355 1.75149 141.891 1.36975L141.923 1.73644C141.106 1.56248 140.376 1.10896 139.856 0.45368C139.161 0.301506 138.569 0.202538 138.055 0.131016C137.239 -0.0565439 136.39 -0.04608 135.579 0.16148C135.421 0.119269 135.258 0.0977969 135.094 0.0975793C133.834 0.175875 132.591 0.432023 131.403 0.858449V0.735198C130.268 1.19304 129.317 2.01639 128.701 3.07558C128.186 2.6784 127.659 3.79385 127.249 3.85168V3.78926C126.794 4.74492 125.472 4.64758 125.016 5.54237C125.016 5.4815 124.925 5.33238 125.083 5.19695C124.61 5.6626 123.978 6.3215 123.717 6.06129C122.527 7.09607 120.681 8.29979 120.235 9.37718L120.227 9.25383C120.01 9.91731 119.673 9.75449 119.284 10.3038C119.228 10.2871 119.177 10.2963 119.17 10.275C118.909 10.9658 117.757 11.436 117.457 11.8758L117.283 11.7039L116.329 12.5073L116.729 12.2654C117.007 12.8938 115.728 12.5074 115.274 13.4006C114.551 13.8495 114.753 15.5478 113.857 15.8232C113.715 16.3254 113.842 15.1948 113.492 15.7669C113.264 15.5037 113.59 15.4154 113.294 15.2937C112.907 15.7989 112.279 15.6254 111.819 16.2737L111.63 16.0773C111.145 17.0741 109.932 16.9311 109.697 17.7087C109.023 18.5076 108.666 17.4864 108.143 18.5547L107.594 18.5151C107.196 18.7449 107.608 19.0706 107.099 19.2364C106.984 19.034 106.483 19.4784 106.583 19.1239C105.46 19.5317 105.057 20.95 103.494 21.373C103.507 21.9285 102.745 22.1765 102.756 22.5904C102.604 22.4595 101.534 23.4883 101.95 22.633C101.986 22.5615 102.093 22.4809 102.132 22.5539L102.052 22.2799C101.067 22.4032 100.989 23.4486 100.264 23.9036C100.517 23.8199 100.767 23.5993 100.702 23.8793L100.054 24.3358V24.0574L99.043 24.6661L99.3467 24.7878C98.8047 25.0236 98.3569 24.7726 98.0821 25.4802C97.9835 25.8332 98.7409 25.4452 98.3129 25.8835C97.4023 26.2595 96.5205 26.702 95.6745 27.2074C95.9371 27.3991 95.7201 27.5513 95.544 27.7673L95.3543 27.5711C94.7577 28.5039 94.6893 27.3291 94.0518 28.195L94.1368 28.6059C93.7239 29.6011 93.3976 28.4658 93.0211 29.6786C93.3171 29.3925 93.5371 30.0362 93.065 30.2493L93.0074 29.9648C92.8207 30.1778 92.8131 30.3223 92.6325 30.3908C92.678 30.1778 92.4715 30.0348 92.177 30.3209L92.1967 29.8933L91.8735 30.7484C91.2283 30.8884 90.6909 31.7467 90.2719 31.6036C90.2719 31.6036 89.1409 32.2428 89.1515 32.7435C89.2047 32.3874 88.5838 32.7435 88.5656 32.3859C88.473 32.815 87.8325 33.6032 87.3361 33.6032L87.3739 33.5301C86.0305 34.1723 85.6526 35.3851 84.3881 35.8843C84.6264 36.0973 83.9735 36.382 84.3531 36.598C83.5197 37.7394 81.8984 37.4517 82.2658 38.7375C81.8104 39.1651 81.5069 38.9506 81.2184 39.0936L81.2942 38.9522C80.7299 39.4962 80.1252 39.9963 79.4849 40.448C79.2192 40.8041 79.5167 41.3047 78.823 41.6654C78.8807 41.3321 78.6575 41.5559 78.4298 41.7309C78.5543 41.5909 78.5481 41.4889 78.155 41.5954C78.1507 41.6836 78.1247 41.7694 78.0792 41.845C78.0655 41.8328 78.0457 41.8298 78.0366 41.8069C77.7056 42.1615 77.815 42.1675 78.0108 42.058C78.0229 42.093 78.0654 42.1174 78.1626 42.1265C77.5887 42.192 77.0773 42.9847 76.7965 42.7078C75.7096 43.6573 75.1403 44.607 74.2826 45.4591C74.0534 45.3785 74.1657 45.065 74.3934 44.7911L73.7649 45.3678C73.5934 45.132 74.0504 44.9371 74.2204 44.7317C73.132 44.9721 72.854 46.3767 71.6487 46.7541L71.5926 47.0873L71.5136 47.0995C71.591 47.1954 71.4803 47.4891 71.3619 47.6276C71.075 47.5272 71.0159 47.1543 70.5589 47.5241C70.0413 47.6124 69.5874 48.4265 69.1927 48.9043C69.4781 48.74 69.4796 48.9165 69.4219 49.0733C69.1942 49.2589 68.9057 49.1599 68.7919 49.3852L68.5611 49.1296C68.8496 49.3152 68.165 49.8736 68.1635 50.0517C67.8766 49.9512 68.3926 49.5951 68.3349 49.4019L66.9688 50.5159C66.6273 51.1048 67.2557 50.7045 67.1995 51.1245C66.8003 51.5156 66.5164 52.0376 65.8865 52.2598L66.2309 52.3785C65.7653 53.0486 65.0762 53.5299 64.2878 53.7358C63.922 54.2623 63.6245 54.7219 63.377 55.1343C63.3679 54.7478 63.3588 54.3354 62.9338 54.1056L63.034 54.1284C62.6469 53.9489 62.9825 53.9078 62.7867 53.713C62.8173 53.7034 62.8488 53.6973 62.8808 53.6948C62.4967 53.5 62.8336 53.156 62.6727 53.0023H62.9142L62.8671 52.6341L62.8124 52.7695C62.1475 52.7056 63.2375 52.5048 62.8124 52.2278C62.9035 51.9813 61.4462 51.6861 61.7756 51.4365C61.472 51.3056 62.2781 51.5583 62.0443 51.368C62.3904 51.368 62.2598 51.4593 62.5376 51.4198C62.3767 51.2341 62.8989 51.1321 62.6712 50.9038H62.9414C62.4556 50.5995 63.3118 50.3652 62.8458 50.1582C62.6302 49.8538 63.6533 49.9787 63.1326 49.653L63.5016 49.5404C63.5638 49.408 63.0553 49.4323 63.2375 49.2893C63.4667 49.3045 63.4257 49.1067 63.6428 49.1995C64.0117 48.8738 63.1479 48.5056 63.7688 48.0795C63.324 47.9715 63.5957 47.7569 63.2618 47.6763C63.4561 47.6687 63.3042 47.2304 63.7171 47.4922C63.752 47.515 63.7444 47.5514 63.6685 47.5469L63.9328 47.585C64.4413 47.3461 63.6686 47.1193 63.7521 46.8713C63.6625 46.9428 63.6837 47.0417 63.5031 46.9717L63.544 46.7419L63.7673 46.7952L63.9068 46.4543L63.6291 46.4939C63.7809 46.3296 64.2484 46.2824 63.8598 46.0815C63.6427 45.9887 63.4819 46.2337 63.4045 46.0511C63.6469 45.8094 63.8429 45.5252 63.9828 45.2125C63.6701 45.2323 63.6791 45.1547 63.6229 45.0726H63.8933C63.5259 44.7561 64.4913 44.9767 64.1968 44.6647L63.8203 44.6008C63.292 44.3132 64.3866 44.4685 63.6685 44.1443C63.711 44.2661 63.0705 44.1854 63.1919 44.0409L63.4515 44.085C63.3984 44.0013 63.2905 43.9708 63.3452 43.9191C63.4848 43.9708 63.7247 43.9541 63.6837 43.8323L64.0086 43.9222L63.5334 43.6817C63.8188 43.5128 63.4742 43.2252 63.837 43.1628C63.8658 43.1199 63.8833 43.0703 63.8877 43.0187C63.8922 42.9672 63.8835 42.9154 63.8624 42.8682C63.8412 42.8209 63.8085 42.7799 63.7671 42.7489C63.7258 42.7179 63.6773 42.698 63.6261 42.691C63.875 42.7747 63.9752 42.5678 64.2682 42.6348C63.9873 42.5298 63.7627 42.2346 64.0679 42.1265L64.1012 42.1493C64.4215 41.7293 63.6975 41.4052 64.0831 41.0308C63.7688 41.04 63.9448 40.8406 63.5425 40.8787C63.1554 40.4709 64.3774 40.1756 63.1402 39.9991C63.078 39.8165 63.4439 39.7921 63.5031 39.6947L63.5668 39.7404C63.4855 39.5192 63.4625 39.2807 63.5001 39.048C63.3832 38.9202 62.8064 38.8852 62.9521 38.663C63.1798 38.7422 63.1389 38.6493 63.1419 38.5641C63.1768 38.6189 63.2602 38.6387 63.4165 38.5322C63.3621 38.52 63.3105 38.4972 63.2648 38.4652C63.2834 38.4636 63.3022 38.4636 63.3209 38.4652C63.2435 38.3222 63.1691 38.3449 63.1387 38.4088C63.0899 38.4066 63.0411 38.4133 62.9946 38.4286C63.2982 38.2901 62.9854 38.0209 63.3785 38.0133C63.2996 37.5872 62.9005 37.2752 62.7563 36.9191C62.8388 36.9015 62.9245 36.9063 63.0046 36.9331C63.0846 36.9598 63.1561 37.0075 63.2116 37.0713L63.1449 36.8202C63.4363 36.8293 63.3088 36.9723 63.365 37.0454C63.8432 36.7608 62.9095 36.42 63.3513 36.0837L63.1235 36.0046L63.1615 35.9848C63.0412 35.978 62.9269 35.9296 62.8382 35.8478C63.0932 35.8052 63.4242 35.8661 63.4121 35.6956C63.661 35.5648 63.2997 35.3045 63.1677 35.1219C63.1221 35.2163 62.9824 35.1812 62.8943 35.1386C62.8943 35.0519 63.1433 35.0093 63.0355 34.9393H63.3785C63.0552 34.9652 63.0356 34.705 62.8975 34.67C63.1525 34.6274 63.1115 34.81 63.3027 34.8358C63.28 34.4889 63.2906 34.6624 63.2694 34.3154C63.0159 34.1237 62.9445 34.3412 62.6455 34.2438C62.5832 34.0795 62.3494 33.9136 62.5589 33.7325L62.2552 33.7843C62.0275 33.4708 62.0685 33.2882 62.3812 33.0904C62.0784 32.7902 61.744 32.5239 61.3839 32.2961C64.1027 30.5947 60.8298 29.8369 60.8298 29.8369C58.6287 29.1064 57.4598 29.9647 54.8124 30.1412C52.4944 29.9282 51.8934 29.3226 49.4797 29.5007C48.3129 29.465 47.145 29.4889 45.9806 29.5722C45.4371 30.0196 44.5066 29.5417 43.8675 29.9115L43.6292 29.6437C43.5319 29.7194 43.4149 29.7655 43.2922 29.7766C43.1695 29.7877 43.0462 29.7631 42.9369 29.706L42.9521 29.6315C42.6227 29.8217 42.2599 29.6939 42.0975 29.7837L42.1127 29.7076L41.9154 29.7198C41.8455 29.7198 41.8045 29.7274 41.6619 29.7304L41.7879 29.6254C40.8174 29.7394 39.8544 29.9096 38.9036 30.1352L39.1222 30.3924C38.7721 30.4457 38.4386 30.5781 38.1472 30.7798C37.8557 30.9815 37.614 31.2471 37.4402 31.5565C37.1366 32.0738 36.9604 32.5761 36.6067 33.3096L36.5385 33.2593C36.6404 33.7572 36.6947 34.2637 36.7009 34.7719C36.7009 34.8724 36.6918 35.0109 36.6827 35.0763C36.6736 35.1417 36.6615 35.2041 36.6479 35.268C36.6175 35.3943 36.5794 35.5191 36.5415 35.6439C36.4203 35.9055 36.3637 36.1925 36.3764 36.4807C36.3891 36.7688 36.4706 37.0497 36.6143 37.2996C36.5172 37.1367 36.4504 37.3665 36.3745 37.3528C36.4565 37.9508 36.4944 38.5884 37.1137 38.6067C37.0985 39.0404 36.9149 38.9583 36.6751 39.0115C36.9468 39.0115 37.0547 39.3919 37.0668 39.7313L36.9634 39.5791L37.0424 40.5531L37.5572 40.3689C37.4054 40.8832 36.9301 40.4921 37.0485 40.9882H37.4721C37.3795 41.7004 36.7297 42.1098 36.4094 42.7961C36.1877 45.663 37.2292 48.7627 36.4444 51.4227L36.1225 51.5354C35.6565 51.5811 36.8025 52.281 36.3699 52.3769L36.5795 52.6919C36.4945 52.7772 36.4019 52.9597 36.3002 52.8045C36.2775 53.0906 36.3533 53.0982 36.4915 53.3082L36.1985 53.6126C35.9571 54.7417 36.5021 55.7126 36.3731 56.9041C35.7658 58.3285 36.2683 61.0326 36.5628 62.5893C37.2292 64.7836 35.3377 67.2976 36.1073 69.5436C36.0405 69.6152 36.1863 69.8069 36.2394 69.8054L36.1453 71.8506C36.1144 73.0303 36.1901 74.2105 36.3716 75.3765C36.2107 75.3902 36.0466 75.4054 35.869 75.4267L35.8325 75.3248C35.0264 75.693 34.5848 76.0034 34.4755 76.7765C33.9958 76.361 33.9033 77.1843 33.6194 77.1614L33.6011 77.1097C33.5221 77.8158 32.5294 77.5054 32.4307 78.1613C32.414 78.1096 32.3093 77.9726 32.3897 77.8889C32.1651 78.1932 31.8782 78.6208 31.6202 78.3606C31.0221 79.0043 29.9912 79.6709 29.9502 80.4789L29.9124 80.3769C29.9276 80.8837 29.639 80.6904 29.4993 81.0754C29.4538 81.051 29.419 81.0495 29.4083 81.0313C29.3992 81.5532 28.6827 81.7388 28.578 82.0478L28.4064 81.8758L27.9207 82.3704L28.1499 82.241C28.5173 82.8056 27.482 82.2654 27.3909 82.9213C26.9811 83.1632 27.5745 84.5952 26.9931 84.6637C27.0204 85.0518 26.8171 84.1448 26.7109 84.5541C26.4756 84.2985 26.6911 84.2832 26.4436 84.131C26.2918 84.4795 25.7893 84.2269 25.6239 84.6804L25.4341 84.4857C25.3415 85.2191 24.4186 84.892 24.4505 85.4885C24.1682 86.0272 23.6399 85.1263 23.5397 85.913L23.1267 85.7852C22.8975 85.9054 23.2786 86.2417 22.9568 86.2919C22.8186 86.1062 22.5696 86.3832 22.5498 86.1093C21.8364 86.2493 21.9123 87.3374 20.88 87.4195C21.0318 87.8761 20.5446 87.9491 20.663 88.293C20.5188 88.1591 20.0057 88.818 20.0862 88.1895C20.0938 88.1362 20.1514 88.0936 20.1985 88.1545L20.0664 87.9172C19.3802 87.8457 19.5943 88.6902 19.1875 88.9382C19.3514 88.9154 19.4759 88.7754 19.5017 88.9961L19.148 89.2533L19.0705 89.0235L18.4922 89.3506L18.7412 89.5028C18.4073 89.6033 18.0156 89.3187 18.0004 89.8528C18.0201 90.1252 18.4725 89.938 18.2752 90.2241C17.7251 90.3675 17.1948 90.5786 16.6964 90.8525C16.9378 91.0549 16.8195 91.1417 16.7481 91.2893L16.5583 91.0945C16.3671 91.7565 16.0087 90.7811 15.7719 91.3821L15.942 91.7337C15.901 92.4794 15.3636 91.4902 15.4076 92.4215C15.5503 92.2373 15.8782 92.8034 15.5898 92.8978L15.4728 92.6528C15.3924 92.7959 15.4243 92.913 15.312 92.9389C15.2892 92.7715 15.0994 92.6178 14.9568 92.8004L14.8597 92.4519L14.8474 93.0987C14.4148 93.0987 14.2403 93.7074 13.9033 93.5217C13.9033 93.5217 13.2459 93.8504 13.3856 94.2643C13.3294 93.9797 12.9697 94.1654 12.8619 93.8686C12.9074 94.2034 12.6463 94.7376 12.2835 94.6509L12.2926 94.5975C11.4805 94.8912 11.5231 95.815 10.7307 96.0113C10.9599 96.2274 10.559 96.3475 10.893 96.591C10.5894 97.3839 9.32484 96.865 9.93053 97.985C9.71649 98.2589 9.43411 98.0276 9.25954 98.0946L9.27789 97.9926C9.01255 98.3387 8.70024 98.6459 8.35025 98.9056C8.25006 99.1536 8.59786 99.6148 8.18496 99.7867C8.13941 99.5235 8.03315 99.6695 7.91626 99.773C7.96939 99.6786 7.93751 99.595 7.67944 99.6209C7.69839 99.6824 7.70197 99.7477 7.69 99.8111C7.67634 99.7989 7.66123 99.7943 7.64757 99.773C7.49577 100.007 7.58227 100.032 7.69612 99.9754C7.72652 100.016 7.7706 100.045 7.82046 100.056C7.4197 100.012 7.2543 100.573 6.97195 100.295C6.55853 100.877 6.18665 101.487 5.85919 102.121C5.77733 102.063 5.72169 101.975 5.70409 101.876C5.68648 101.777 5.70848 101.674 5.76524 101.591L5.46152 101.957C5.27481 101.731 5.55714 101.652 5.62848 101.512C4.8968 101.521 5.0608 102.625 4.28205 102.73L4.32912 102.995H4.27446C4.3108 103.055 4.33238 103.124 4.33765 103.195C4.34292 103.266 4.33177 103.337 4.30485 103.402C4.06803 103.27 3.92682 102.953 3.6976 103.179C3.34238 103.16 3.22395 103.749 3.05848 104.073C3.22395 103.987 3.27103 104.133 3.27103 104.251C3.15262 104.364 2.91729 104.233 2.893 104.404L2.65767 104.154C2.91573 104.357 2.56358 104.696 2.60912 104.842C2.37382 104.71 2.65783 104.51 2.56372 104.34L1.85474 105.015C1.7591 105.438 2.11286 105.219 2.18421 105.557C1.99446 105.808 1.92306 106.186 1.5223 106.26L1.80471 106.412C1.73056 106.637 1.58815 106.832 1.39759 106.971C1.20703 107.111 0.977749 107.187 0.74198 107.188C0.618475 107.538 0.513073 107.893 0.42622 108.254C0.098327 109.623 0.342748 110.232 0.749578 110.463C0.57428 110.778 0.510128 111.143 0.567422 111.5C0.624716 111.856 0.800122 112.182 1.06534 112.426C1.74997 113.129 2.15065 112.256 3.0053 112.053C3.74306 112.236 3.91613 112.836 4.6964 112.626C5.07499 112.647 5.45467 112.608 5.82139 112.512C6.00962 112.055 6.29346 112.524 6.51054 112.145L6.57725 112.41C6.65315 112.28 6.73826 112.193 6.80202 112.338L6.79442 112.414C6.90676 112.219 7.01903 112.343 7.07368 112.245L7.06608 112.321L7.19357 112.294L7.16781 112.4C7.22597 112.316 7.31468 112.258 7.41501 112.238C7.51534 112.218 7.6194 112.238 7.7052 112.294V111.977C8.04372 112.346 8.19848 111.694 8.49905 112.13L8.49145 112.206C8.9256 111.388 9.09877 112.799 9.55418 112.025C9.49801 112.122 9.56936 112.189 9.56177 112.265C9.75608 112.183 9.96102 112.143 9.98835 111.522C10.128 111.536 10.0945 111.722 10.1021 111.962C10.1128 111.69 10.2372 111.582 10.3465 111.568L10.2919 111.672L10.6062 111.592L10.5667 111.077C10.7185 111.229 10.5833 111.703 10.7457 111.586L10.7609 111.16C10.984 111.253 11.0935 111.903 11.2999 112.225C12.2108 112.445 13.2369 111.399 14.0597 112.181L14.084 112.504C14.084 112.971 14.3466 111.822 14.3617 112.254L14.4694 112.046C14.4937 112.13 14.5485 112.222 14.4953 112.324C14.5864 112.347 14.5924 112.27 14.6638 112.131L14.7503 112.426C15.1025 112.665 15.4318 112.122 15.8129 112.247C16.247 112.855 17.1291 112.347 17.6346 112.05C17.9078 111.798 18.1811 111.909 18.4574 112.104C18.2342 113.708 18.1401 115.5 18.1401 115.5C17.5147 123.308 18.424 127.332 18.717 136.622C18.6137 144.789 18.0353 146.959 18.3267 155.422C18.3024 159.46 18.465 163.767 18.5591 167.713C19.0297 169.583 18.597 172.896 18.9962 175.108L18.7398 175.97C18.9089 176.77 18.9412 177.593 18.8354 178.404L18.7594 178.357C18.9628 179.497 18.8536 180.784 18.9553 181.35L18.8793 181.303L18.9203 182.69L18.8111 182.452C19.016 184.394 19.0702 186.349 18.9734 188.299L19.2877 188.147C18.9583 192.012 19.6217 193.421 19.224 196.91L19.1465 196.865C20.0057 201.265 18.6213 203.834 19.4395 208.373C19.3378 207.807 19.2786 208.617 19.2012 208.571C19.3044 210.664 19.3651 212.898 19.9845 212.927C19.9845 214.448 19.7977 214.17 19.5594 214.369C19.8311 214.358 19.9526 215.682 19.9769 216.872L19.8675 216.326L19.9815 219.736L20.49 219.064C20.3534 220.873 19.8676 219.52 20.0011 221.258L20.4262 221.234C20.2108 223.381 19.8763 225.515 19.4243 227.625C19.3028 237.693 20.4506 248.502 19.7599 257.873L19.4424 258.288C18.9764 258.471 20.1483 260.875 19.7187 261.227L19.9389 262.314C19.8569 262.619 19.7719 263.267 19.6626 262.725C19.6376 263.318 19.7089 263.911 19.8736 264.481L19.5898 265.565C19.3879 269.541 19.9678 272.916 19.8798 277.1C19.3181 282.121 19.9192 291.581 20.2683 297.035C21.0107 304.689 19.2056 313.609 20.0512 321.446C20.0166 321.758 20.0654 322.073 20.1924 322.359L20.1696 329.537C20.1696 329.537 20.1909 353.467 22.31 346.547C23.008 343.674 23.5112 340.756 23.816 337.814ZM3.75838 108.108C3.79785 108.127 3.80993 108.178 3.80841 108.237L3.75838 108.108Z" fill="#00F3B3"/>
<path d="M238.66 347.228C236.061 346.481 233.411 345.926 230.731 345.566L230.894 345.466C228.119 345.133 225.31 345.201 222.554 345.665C222.162 345.037 219.6 345.596 218.759 345.392L218.839 345.341C216.644 345.822 214.322 344.935 212.205 345.364C212.282 345.278 212.377 345.212 212.484 345.172C212.592 345.132 212.707 345.118 212.82 345.132C211.279 345.21 209.177 345.347 209.057 344.98C205.377 345.071 200.242 344.896 197.883 345.476L198.044 345.376C197.527 345.534 196.988 345.601 196.448 345.574C196.469 345.743 196.453 345.915 196.401 346.079C196.35 346.242 196.265 346.392 196.151 346.519C196.037 346.646 195.898 346.748 195.742 346.817C195.586 346.886 195.417 346.921 195.246 346.919H162.345C162.043 346.919 161.75 346.816 161.513 346.628C161.277 346.439 161.111 346.176 161.044 345.881L160.845 345.023C160.429 345.132 160.374 345.383 159.492 345.249C159.565 345.018 158.003 345.064 158.694 344.845C156.025 344.481 153.276 345.351 149.763 344.735C149.004 345.192 147.23 344.915 146.66 345.251C146.566 345.056 143.116 345.215 145.103 344.795C145.273 344.76 145.575 344.766 145.558 344.843L145.797 344.577C143.793 344.07 142.153 344.849 140.171 344.769C140.758 344.857 141.537 344.836 141.018 345.018L139.175 344.979L139.559 344.755L136.814 344.621L137.192 344.899C135.849 344.755 135.371 344.282 133.862 344.674C133.176 344.893 135.134 345.05 133.71 345.131C131.916 344.939 129.226 344.65 126.934 344.563C127.146 344.877 126.53 344.868 125.895 344.927L125.822 344.656C123.394 345.03 124.931 344.058 122.516 344.352L122.091 344.729C119.911 345.265 120.916 344.165 118.495 344.897C119.451 344.851 118.95 345.495 117.768 345.374L118.071 345.114C117.642 345.195 117.205 345.232 116.767 345.222C117.156 345.082 116.974 344.842 116.016 344.884L116.658 344.559L114.846 345.038C114.707 345.009 114.559 344.989 114.405 344.972C114.56 345.293 114.614 345.652 114.56 346.004C114.505 346.355 114.346 346.682 114.102 346.94H95.6867L91.2555 345.146C88.7006 345.158 86.6514 344.42 85.6707 345.484C84.841 345.484 84.0157 345.363 83.2206 345.125L83.5638 345.059C80.8663 345.158 80.0829 345.169 78.0791 345.137C77.0788 345.257 76.9209 345.835 75.1282 345.694C75.708 345.464 74.9762 345.505 74.3052 345.505C74.7333 345.469 74.8669 345.385 73.9865 345.23C73.8296 345.304 73.6631 345.355 73.4917 345.382C73.4841 345.364 73.4492 345.35 73.4675 345.326C72.3487 345.405 72.5428 345.478 73.062 345.51C73.0362 345.545 73.0803 345.589 73.2397 345.653C72.0799 345.348 70.0033 345.669 69.8622 345.274C66.4967 345.361 64.0935 345.765 61.2912 345.916C60.977 345.712 61.6313 345.533 62.4449 345.46L60.4579 345.531C60.4746 345.239 61.5995 345.365 62.2113 345.307C59.8462 344.831 57.3338 345.764 54.5619 345.335L53.9867 345.566L53.8212 345.526C53.8288 345.65 53.2064 345.814 52.795 345.854C52.4033 345.598 52.8238 345.266 51.45 345.281C49.943 345.184 48.4296 345.269 46.943 345.536C47.7096 345.578 47.4622 345.72 47.1328 345.81C46.4451 345.817 46.0504 345.561 45.5206 345.671L45.4689 345.403C45.3733 345.654 43.6383 345.686 43.4076 345.814C43.0159 345.558 44.4701 345.596 44.6447 345.405L40.5157 345.447C39.0463 345.704 40.7812 345.771 40.0784 346.073C38.7346 346.243 37.3771 346.275 36.0269 346.167L36.499 346.471C34.6586 346.717 32.7916 346.679 30.9628 346.357C29.4175 346.567 28.1119 346.765 27.0068 346.952H22.2433H27.0068C15.151 348.969 27.1342 349.745 27.1342 349.745C34.2796 350.428 37.9685 349.545 46.4755 349.319C53.9518 349.482 55.9342 350.079 63.6837 349.845C67.3801 349.898 71.324 349.768 74.9384 349.701C76.6538 349.244 79.6821 349.701 81.7117 349.317L82.4981 349.579C83.2285 349.417 83.9822 349.391 84.722 349.501L84.6764 349.577C85.7223 349.381 86.9003 349.5 87.4195 349.402L87.3755 349.478L88.6445 349.447L88.4259 349.554C90.204 349.364 91.9951 349.323 93.7801 349.433L93.6433 349.116C97.1788 349.475 98.4737 348.821 101.666 349.244L101.622 349.322C105.659 348.492 107.998 349.899 112.162 349.112C111.643 349.209 112.383 349.275 112.341 349.351C114.257 349.262 116.303 349.218 116.333 348.597C117.73 348.608 117.47 348.794 117.651 349.033C117.643 348.76 118.856 348.649 119.946 348.634L119.445 348.739L122.568 348.649L121.961 348.135C123.615 348.287 122.38 348.763 123.966 348.64L123.946 348.214C125.916 348.446 127.869 348.797 129.797 349.265C139.012 349.459 148.916 348.386 157.49 349.147L157.868 349.468C158.032 349.935 160.234 348.778 160.561 349.211L161.558 348.999C161.837 349.083 162.43 349.172 161.932 349.277C162.476 349.308 163.021 349.241 163.542 349.08L164.53 349.372C168.174 349.602 171.264 349.045 175.093 349.163C179.692 349.763 188.351 349.229 193.341 348.918C200.353 348.229 208.506 350.101 215.688 349.311C215.973 349.347 216.262 349.3 216.521 349.176L223.091 349.25C223.091 349.25 244.98 349.402 238.66 347.228Z" fill="#00F3B3"/>
<path d="M45.4402 345.331L45.4537 345.407C45.4592 345.395 45.4608 345.381 45.4584 345.367C45.456 345.354 45.4497 345.341 45.4402 345.331Z" fill="#00F3B3"/>
<path d="M122.521 344.357L122.733 344.169L122.521 344.357Z" fill="#00F3B3"/>
<path d="M213.833 44.9617H192.769C192.475 44.9617 192.192 45.0787 191.984 45.2872C191.776 45.4957 191.66 45.7784 191.66 46.0733C191.66 46.3681 191.776 46.6509 191.984 46.8594C192.192 47.0679 192.475 47.1849 192.769 47.1849H207.664C207.845 46.5503 208.239 45.9981 208.781 45.6221C209.211 45.4153 209.68 45.3037 210.158 45.2949L213.843 44.9662H213.903L213.833 44.9617Z" fill="#97999B"/>
<path d="M218.669 46.6615C218.619 46.3125 218.46 45.9884 218.214 45.7363C217.644 45.3269 216.993 45.0437 216.306 44.9052C215.619 44.7667 214.91 44.7761 214.226 44.9329L213.903 44.9618H213.843L210.158 45.2905C209.681 45.2992 209.211 45.4107 208.781 45.6176C208.239 45.9935 207.845 46.5458 207.664 47.1805C207.639 47.2459 207.615 47.3098 207.592 47.3752C206.643 50.052 206.256 53.0407 204.474 55.2457C203.354 56.4834 202.035 57.524 200.571 58.3242C192.508 63.3352 185.526 69.8529 176.928 73.8657C162.882 80.4229 149.148 86.8659 135.093 93.4231C134.46 92.2904 133.945 91.0957 133.555 89.8576C135.765 89.0357 137.573 87.3883 138.598 85.2604C139.04 83.8655 139.076 82.3731 138.701 80.9584C138.391 79.5976 137.915 78.2804 137.282 77.037C137.642 76.6651 137.982 76.275 138.302 75.8683C138.495 75.6706 138.604 75.4054 138.606 75.1287C138.564 74.9827 138.493 74.8471 138.396 74.7305C138.3 74.6139 138.18 74.5189 138.044 74.4516C136.627 73.501 135.179 72.6077 133.699 71.7717C132.462 70.3383 131.151 68.9704 129.772 67.6737C130.624 67.4801 131.389 67.0106 131.948 66.3378C132.507 65.665 132.829 64.8264 132.864 63.9515C132.86 63.5285 132.758 63.1121 132.567 62.7347C132.377 62.3574 132.102 62.0292 131.764 61.7755C131.189 61.4684 130.546 61.3105 129.895 61.3161C129.244 61.3217 128.604 61.4906 128.034 61.8074C126.531 62.3415 125.531 63.1146 123.989 63.5194C121.24 64.1168 118.607 65.1553 116.189 66.5948C114.982 67.3259 113.941 68.3008 113.131 69.4575C112.321 70.6142 111.76 71.9273 111.483 73.3132C111.069 76.1041 112.192 78.8691 113.293 81.4652L120.086 97.4982C114.796 100.376 110.37 105.624 107.105 110.711C103.977 115.891 101.304 121.333 99.1159 126.976C89.7831 149.231 83.2981 165.304 74.908 187.937C72.4913 194.453 63.8264 196.442 57.9531 200.099C57.3869 200.452 56.7388 200.986 56.8906 201.638C56.9719 201.87 57.1285 202.067 57.3353 202.198C57.5422 202.329 57.7872 202.387 58.0306 202.361C58.5164 202.296 58.9798 202.116 59.3831 201.836C61.0843 200.835 62.7542 199.783 64.3927 198.682C62.9833 200.42 61.8407 202.359 61.0029 204.435C60.586 205.26 60.4587 206.201 60.6415 207.108C60.7232 207.383 60.867 207.636 61.0618 207.847C61.2566 208.059 61.4971 208.222 61.7649 208.325C62.2203 208.509 62.1929 208.346 62.8092 208.152C64.7827 208.518 66.4056 206.712 67.7354 205.201C71.0631 201.682 75.0927 198.906 79.5621 197.052C79.0937 198.757 78.8449 200.515 78.8215 202.284C78.8124 202.882 79.078 203.702 79.6624 203.591C79.8416 203.539 80.0027 203.438 80.127 203.299C81.7077 201.697 82.6842 199.595 82.8897 197.352C83.0951 195.108 82.5167 192.863 81.2532 191L105.725 152.626L106.729 151.051L106.478 156.414L106.408 157.887L100.96 274.279L82.454 341.585L91.2419 345.145L95.673 346.939H114.088C114.332 346.68 114.492 346.354 114.546 346.002C114.6 345.651 114.546 345.291 114.392 344.971C114.198 344.453 113.848 344.008 113.39 343.699C112.248 343.142 111.005 342.826 109.736 342.771C107.262 342.241 104.88 341.347 102.668 340.117C100.054 338.828 95.1856 336.017 95.1856 336.017L119.699 287.112L133.464 230.941L133.704 229.96L133.88 229.247L160.837 345.015L161.036 345.873C161.104 346.168 161.269 346.432 161.506 346.62C161.742 346.809 162.035 346.911 162.337 346.911H195.238C195.409 346.913 195.578 346.878 195.734 346.809C195.89 346.74 196.03 346.639 196.143 346.511C196.257 346.384 196.342 346.234 196.394 346.071C196.445 345.908 196.461 345.736 196.441 345.566C196.423 345.337 196.339 345.119 196.198 344.938C196.058 344.757 195.867 344.621 195.65 344.548L176.659 339.648L151.157 108.887L181.139 88.8624C184.38 86.8025 187.476 84.5238 190.408 82.042C193.578 79.0831 196.514 75.8807 199.187 72.4641C203.45 67.2902 208.072 62.6824 211.518 56.9226C213.16 56.2577 214.571 55.125 215.578 53.6646C216.584 52.2041 217.142 50.48 217.182 48.7053C218.218 48.9366 218.842 47.707 218.669 46.6615Z" fill="#52565A"/>
<path d="M108.645 125.927L108.599 126.024C108.617 126.024 108.634 126 108.645 125.927Z" fill="white"/>
<path d="M107.067 129.744L107.06 129.716L107.067 129.744Z" fill="white"/>
<path d="M106.407 157.894L106.433 157.923C106.568 157.433 106.583 156.918 106.477 156.421L106.407 157.894Z" fill="white"/>
<path d="M108.107 138.425L108.162 138.468L108.107 138.425Z" fill="white"/>
<path d="M108.749 124.375L108.787 123.631C108.728 123.362 108.685 123.672 108.602 123.54C108.567 123.296 108.574 123.049 108.623 122.808L108.525 122.885C108.473 122.551 108.509 122.208 108.628 121.892C108.103 118.568 107.644 121.131 107.644 121.131C107.474 122.287 107.437 123.459 107.535 124.623C107.35 125.644 107.226 126.676 107.163 127.712C107.101 128.376 107.091 129.082 107.067 129.742C107.186 130.06 107.009 130.596 107.101 130.97L107.011 131.106C107.053 131.237 107.053 131.378 107.011 131.509L106.988 131.498C107.005 131.664 107.011 131.83 107.008 131.996L106.985 131.987V132.216L106.955 132.174C106.991 132.496 106.982 132.822 106.926 133.142L107.023 133.123C106.871 133.753 107.054 134 106.887 134.566L106.864 134.557C107.066 135.301 106.609 135.692 106.797 136.459C106.774 136.363 106.745 136.496 106.721 136.487C106.721 136.833 106.713 137.203 106.902 137.221C106.882 137.473 106.829 137.422 106.75 137.45C106.833 137.45 106.852 137.675 106.844 137.871L106.818 137.778L106.806 138.343L106.97 138.244C106.905 138.539 106.774 138.306 106.792 138.594H106.922C106.825 138.95 106.694 139.296 106.53 139.626C106.514 141.293 106.413 142.959 106.226 144.616L106.123 144.678C105.979 144.696 106.304 145.118 106.169 145.168L106.22 145.352C106.191 145.401 106.156 145.504 106.131 145.413C106.116 145.513 106.13 145.616 106.172 145.708L106.07 145.88C105.955 146.53 106.087 147.098 106.003 147.787C105.815 148.873 105.764 149.979 105.851 151.078C105.882 151.597 105.841 152.117 105.73 152.625L106.733 151.05L106.483 156.412C106.677 156.354 106.539 155.883 106.612 155.735L106.625 155.752C106.507 155.345 106.806 154.947 106.701 154.556C106.722 154.566 106.739 154.583 106.75 154.604C106.761 154.625 106.766 154.648 106.764 154.671C106.764 154.393 106.744 154.009 106.856 153.997C106.936 153.325 106.932 152.645 106.844 151.973L106.871 152.005C106.77 151.754 106.871 151.69 106.835 151.415C106.85 151.401 106.859 151.383 106.865 151.386C106.765 151.115 106.9 150.616 106.865 150.4L106.94 150.391L106.96 149.864L106.931 150.059C106.732 149.977 107.082 149.672 106.981 149.281C107.032 148.927 106.61 148.53 106.736 148.166C106.653 147.983 106.879 148.332 106.824 148.064C106.931 148.064 106.882 148.192 106.976 148.129C106.944 147.868 107.114 147.712 107.066 147.388L107.149 147.381C107.028 146.953 107.313 146.602 107.189 146.315C107.151 145.882 107.454 146.046 107.325 145.586L107.448 145.421C107.48 145.23 107.321 145.268 107.391 145.065C107.46 145.083 107.465 144.801 107.524 144.929C107.667 144.457 107.436 143.943 107.667 143.324C107.539 143.171 107.644 142.867 107.548 142.753C107.609 142.741 107.603 142.115 107.7 142.482C107.708 142.514 107.7 142.569 107.679 142.563L107.758 142.611C107.936 142.261 107.72 141.95 107.769 141.595C107.734 141.698 107.731 141.84 107.682 141.747L107.717 141.417L107.781 141.49L107.855 140.998L107.766 141.061C107.826 140.822 107.976 140.747 107.875 140.466C107.817 140.338 107.744 140.687 107.737 140.429C107.844 140.032 107.929 139.628 107.993 139.221C107.895 139.253 107.907 139.142 107.895 139.026L107.978 139.019C107.894 138.573 108.171 138.866 108.11 138.43L108.001 138.345C107.866 137.941 108.187 138.145 108.001 137.693C108.001 137.867 107.813 137.762 107.864 137.553L107.94 137.613C107.931 137.494 107.901 137.451 107.922 137.375C107.961 137.448 108.036 137.419 108.034 137.246L108.127 137.369L108.002 137.033C108.106 136.786 108.027 136.38 108.154 136.284C108.154 136.284 108.248 135.747 108.133 135.613C108.203 135.727 108.253 135.43 108.336 135.522C108.241 135.29 108.236 135.031 108.323 134.796L108.33 134.829C108.468 134.221 108.276 133.764 108.429 133.227C108.33 133.245 108.403 132.958 108.277 133.021C108.197 132.442 108.6 131.999 108.236 131.766C108.236 131.506 108.347 131.462 108.376 131.332L108.391 131.396C108.387 131.066 108.401 130.736 108.435 130.407C108.411 130.225 108.236 130.183 108.301 129.864C108.365 129.972 108.361 129.84 108.37 129.719C108.37 129.797 108.399 129.823 108.458 129.668C108.437 129.64 108.424 129.608 108.418 129.575C108.418 129.575 108.427 129.575 108.435 129.575C108.424 129.372 108.4 129.406 108.383 129.499C108.374 129.499 108.359 129.499 108.338 129.528C108.443 129.324 108.373 128.943 108.49 128.919C108.503 128.31 108.411 127.869 108.4 127.362C108.465 127.309 108.512 127.431 108.526 127.58V127.219C108.616 127.23 108.564 127.429 108.573 127.54C108.748 127.125 108.491 126.651 108.66 126.161L108.596 126.053L108.61 126.025C108.573 126.025 108.529 125.907 108.523 125.833C108.605 125.767 108.701 125.851 108.714 125.603C108.762 125.332 108.755 125.054 108.692 124.786C108.669 124.923 108.629 124.876 108.607 124.813C108.607 124.69 108.695 124.625 108.669 124.526H108.774C108.672 124.568 108.69 124.195 108.65 124.147C108.723 124.078 108.693 124.338 108.749 124.375Z" fill="white"/>
<path d="M115.762 207.99L115.784 208.084C115.797 208.071 115.797 208.045 115.762 207.99Z" fill="white"/>
<path d="M116.767 211.523L116.745 211.511L116.767 211.523Z" fill="white"/>
<path d="M133.528 229.565H133.569C133.346 229.178 133.024 228.858 132.635 228.638C132.736 228.463 132.332 228.281 132.295 228.141H132.315C131.974 227.989 131.928 227.532 131.608 227.372C131.627 227.363 131.649 227.361 131.67 227.365C131.691 227.37 131.71 227.381 131.725 227.397C131.545 227.232 131.293 227.012 131.365 226.923C130.996 226.459 130.563 226.049 130.079 225.706H130.12C129.891 225.627 129.926 225.511 129.724 225.374C129.724 225.354 129.724 225.338 129.724 225.335C129.482 225.24 129.268 224.84 129.105 224.726L129.153 224.668L128.837 224.333L128.939 224.473C128.746 224.563 128.805 224.128 128.484 223.962C128.3 223.71 127.75 223.761 127.615 223.449C127.442 223.394 127.822 223.449 127.615 223.324C127.691 223.248 127.737 223.363 127.767 223.262C127.582 223.124 127.615 222.909 127.371 222.745L127.425 222.682C127.075 222.503 127.064 222.086 126.797 221.994C126.503 221.753 126.823 221.643 126.446 221.45L126.433 221.261C126.339 221.121 126.251 221.261 126.173 221.081C126.234 221.043 126.064 220.865 126.185 220.905C126 220.512 125.52 220.351 125.309 219.806C125.127 219.806 125.006 219.535 124.875 219.532C124.91 219.482 124.524 219.096 124.825 219.254C124.851 219.267 124.88 219.306 124.858 219.318L124.945 219.295C124.861 218.954 124.517 218.905 124.338 218.65C124.376 218.738 124.459 218.829 124.365 218.802L124.191 218.571H124.282L124.039 218.211L124.011 218.31C123.911 218.119 123.977 217.971 123.732 217.863C123.611 217.822 123.77 218.09 123.608 217.933C123.446 217.611 123.266 217.299 123.069 216.997C123.016 217.084 122.958 217.005 122.879 216.939L122.937 216.878C122.607 216.653 122.991 216.655 122.682 216.422L122.55 216.443C122.206 216.279 122.568 216.191 122.153 216.034C122.26 216.143 122.056 216.204 121.968 216.034L122.059 216.02C121.982 215.952 121.935 215.946 121.907 215.882C121.98 215.901 122.02 215.833 121.915 215.729L122.056 215.746L121.763 215.615C121.695 215.389 121.393 215.182 121.426 215.04C121.426 215.04 121.176 214.635 121.01 214.626C121.13 214.654 120.991 214.43 121.107 214.433C120.963 214.39 120.682 214.15 120.667 213.976L120.693 213.992C120.438 213.509 120.027 213.346 119.822 212.896C119.759 212.972 119.644 212.744 119.586 212.864C119.183 212.546 119.231 211.991 118.827 212.08C118.676 211.913 118.735 211.812 118.676 211.707L118.724 211.738C118.529 211.527 118.347 211.303 118.179 211.068C118.055 210.965 117.898 211.053 117.763 210.801C117.873 210.831 117.794 210.747 117.73 210.662C117.78 210.709 117.812 210.711 117.766 210.572C117.736 210.566 117.708 210.555 117.683 210.537C117.683 210.537 117.683 210.527 117.695 210.524C117.569 210.397 117.57 210.435 117.611 210.507C117.601 210.507 117.593 210.524 117.593 210.556C117.555 210.355 117.282 210.152 117.366 210.061C117.026 209.653 116.695 209.428 116.396 209.099C116.417 209.023 116.521 209.073 116.617 209.162L116.412 208.923C116.487 208.872 116.564 209.037 116.632 209.104C116.526 208.717 116.06 208.571 115.907 208.141L115.796 208.11V208.083C115.767 208.106 115.668 208.057 115.62 208.013C115.646 207.917 115.772 207.909 115.635 207.737C115.593 207.556 115.316 207.369 115.151 207.212C115.212 207.317 115.151 207.311 115.101 207.285C115.035 207.199 115.061 207.103 114.985 207.056L115.064 206.984C115.01 207.077 114.812 206.818 114.761 206.812C114.788 206.716 114.912 206.908 114.978 206.896L114.583 206.377C114.383 206.237 114.528 206.47 114.389 206.435C114.223 206.297 114.087 206.127 113.988 205.936L113.956 206.05C113.727 205.86 113.56 205.606 113.475 205.321C111.198 203.428 112.282 205.432 112.282 205.432C112.802 206.318 113.442 207.127 114.184 207.836C114.626 208.632 115.125 209.395 115.676 210.119C116.016 210.595 116.424 211.07 116.786 211.514C117.059 211.647 117.241 212.111 117.53 212.295L117.542 212.447C117.649 212.505 117.732 212.598 117.775 212.712L117.753 212.72C117.904 212.815 117.986 212.984 118.056 213.024L118.033 213.033L118.164 213.185L118.117 213.177C118.333 213.363 118.518 213.581 118.666 213.824L118.729 213.748C118.987 214.256 119.271 214.295 119.48 214.772L119.457 214.781C120.049 215.127 119.946 215.682 120.543 216.049C120.468 216.003 120.526 216.107 120.503 216.116C120.713 216.337 120.925 216.582 121.077 216.467C121.212 216.642 121.142 216.646 121.103 216.714C121.167 216.661 121.314 216.789 121.426 216.919L121.352 216.878L121.683 217.245L121.745 217.07C121.873 217.303 121.637 217.242 121.824 217.414L121.923 217.33C122.066 217.625 122.178 217.934 122.255 218.253C123.253 219.319 124.195 220.437 125.079 221.6L125.042 221.71C124.948 221.822 125.444 221.862 125.378 221.984L125.529 222.063C125.539 222.113 125.578 222.201 125.504 222.163C125.555 222.236 125.63 222.29 125.715 222.316L125.748 222.494C126.068 222.978 126.507 223.242 126.882 223.723C127.422 224.527 128.081 225.246 128.834 225.854C129.721 226.549 130.158 227.89 131.098 228.571C131.108 228.613 131.205 228.654 131.218 228.641L131.901 229.427C132.354 229.936 132.844 230.412 133.367 230.849C133.408 230.881 133.449 230.912 133.488 230.939L133.728 229.958C133.657 229.844 133.602 229.713 133.528 229.565Z" fill="white"/>
</g>
<defs>
<clipPath id="clip0_1220_12012">
<rect width="239.609" height="350" fill="white" transform="translate(0.195435)"/>
</clipPath>
</defs>
</svg>
