<?xml version="1.0" encoding="utf-8"?>
<!-- Generator: Adobe Illustrator 25.4.1, SVG Export Plug-In . SVG Version: 6.00 Build 0)  -->
<svg version="1.1" xmlns="http://www.w3.org/2000/svg" xmlns:xlink="http://www.w3.org/1999/xlink" x="0px" y="0px"
	 viewBox="0 0 360 480" style="enable-background:new 0 0 360 480;" xml:space="preserve">
<style type="text/css">
	.st0{fill:#00F3B3;}
	.st1{fill:#97999B;}
</style>
<g id="Layer_1">
	<g>
		<path class="st0" d="M284.9,194.5c0,0,11.8-10.7-0.1-21.8c0,0,9.2-18-0.7-34.4c0,0,1.6-3.9,2-4.9c4.4-11,4.5-24.6-2.9-34.2
			c-1.2-1.6-2.6-2.9-4.2-4.1c-3.4-2.5-7.4-4.2-11.6-4.3c-2.6,0-5.2,0.6-7.6,1.9c-0.8,0.4-7.8,6-7.4,6.3c0,0-1.8-1.4-4.8-2.7
			c-0.2-1-0.4-2-0.7-3.1c0,0,3.2-11.2-2.9-17.9c0,0,3.1-14-8.3-21.7c0,0,1.5-9.9-7.8-13.4c0,0-2.1-13.9-18.1-18.5
			c0,0-2.4-12.2-13.9-8.4c0,0-4.4-10.4-18.7-6.3c0,0-8.9-7.7-19-1.8c0,0-13.9-7.5-25.7,3c0,0-17.7-1-27.4,14c0,0-9.9-2.5-10.2,8.5
			c0,0-15.9,5.2-15.5,20.9c0,0-10.1,5.2-7,17.2c0,0-9.5,7.2-4.3,21.7c0,0-0.4,0.8-1,2.2c-4.8,0-10.1,1.5-14.9,6.3
			c0,0-10.6-11.5-21.5,0c0,0-16.2,10.7-2.1,32.1c0,0-14.4,18.7,0,42.4c0,0-11.3,19,0.7,42.2c0,0-8.1,10.9,3.2,21.6
			c0,0-5.3,23.7,15.1,39.3c0,0-3.9,21.4,12,18c0,0,0,15.7,16.9,19.1c0,0,11.3,21.8,31.4,19.5c0,0,16.9,22.5,37,9.2
			c0,0,13.4,10.7,21.1,0.4c0,0,18.7,13.4,30.3-5.7c0,0,24.3,5,35.6-19.5c0,0,15.5,4.2,15.9-15.3c0,0,18.3-4.6,20.1-29.8
			c0,0,26.1-13.8,13.7-42C281.6,230.4,295.9,212.8,284.9,194.5z M160.7,260.2c0,0-7.9-7.3-15.5,0c0,0-6.3-4.3-15.5,0
			c0,0,7.2-7.5,6.5-22.3c0,0,8.5-5,4.5-16.9c0,0,8.7-8.1,4.1-16.2c0,0,1.4-6.9-5.7-6.8c0,0,0.9-9.7-5.2-12.6c0,0,5.1-5.4,2.3-15.8
			c0,0,8.1-4,8-9.5c0,0,9.3,3.1,16.8-6c0,0,6,11.5,19.7,12.1c0,0-4,10.5,4,13.9c0,0-7.3,4.7-5.7,13.4c0,0-7.8,1.4-3.8,9.6
			c0,0-7.4,10.7,2.7,15.3c0,0-4,13.7,5.2,19.4c0,0-6.1,13.7,5.2,22.6C188.3,260.2,173.2,254.3,160.7,260.2z M215.3,95.7
			c-7.9-5.3-25.5-13.5-43.3,2.1c0,0-10.6-8.8-17.6,1.1c0,0-15.5-13.8-29.9,0c0,0-11.8-9.4-24.5-8.2c0.1-1.5,0-3.3-0.5-5.2
			c0,0,8.1-1.3,4.6-11.3c0,0,7.5-4.2,9.8-14.4c0,0,10.7,0.4,12-11.3c0,0,6.8,3.5,8.5-4.4c0,0,9.5,8,15.3-4c0,0,10.8,9.8,20,0.7
			c0,0,10.2,9.3,20.5,9.3c0,0,2.5,9.7,11.2,9.8c0,0-1.5,11.3,10.3,18.8c0,0-4.5,8.2,4.3,12.2C216.1,91,215.6,92.9,215.3,95.7z"/>
		<g>
			<path d="M42.9,157.7c0.5,0,0.7,0.7,1.3,0.5c4.2,0.5,4.5-6.8,5.1-2.2c0.8,3.3,4.4,3,6.2-1c0.7-1.7,1.9,0.6,3.2,0.2
				c7.5-0.9,6.2-9.6,3.4-3.3c-0.4-0.2,0.1,0.9-0.2,0.7c-0.2-0.4-1.8,0.7-1.6,0.4c-0.2-0.5-0.2,0.5-0.3,0.1c-0.2,0-0.5,0.4-0.7,0
				c0,0.4-0.2,0.4-0.2,0.4c-0.1,0.1-0.1-0.2-0.1-0.2c-0.1,0.5-0.2-0.2-0.4,0.1c0-0.1,0-0.2,0-0.3c-0.6,0.2-1.4,0-1.3-0.4
				c-0.2-0.5-0.2-3-1.7-2.6c-0.7,1.7-0.5,3.4-1.6,4.6c0.4-0.1-0.2,0.1-0.1,0.2c-0.1,0.2,0.3,0.9-0.1,0.7c-0.5-0.2-1.8,1.3-2,1.1
				c-0.1-0.3-0.1-0.1-0.1,0.1c-0.1,0,0-0.3-0.1-0.1c0-0.1-0.4-0.2-0.1-0.5c-0.2,0.1-0.7-0.1-0.5-0.1c-0.1-0.2,0.2-0.3-0.1-0.8
				c0.2-1.2-0.5-2.4-0.7-3.8c0.5,0.3,0.3-0.4,0.1-0.7c0.5-0.4,2.3-5.1-0.5-3c-1.5,0.3-1,2.3-1.3,3.4c-0.3,0.8-0.6,0.9-0.3,1.8
				c-1.3,0.1-2.4,4.2-3.3,3.3c0.1,0.4-0.1,0.2-0.2,0.6c-0.1-0.3-0.2-0.2-0.7-0.3c0.1-0.1,0-0.2,0.1-0.3c-3-1-1.3-3.4-1.4-5.1
				c2.3-3.7,0.2-3.6-1.8-0.7c-1.8,2.6-2.3,5.1-4.7,5.6c0.1-0.3-0.2-0.1-0.2,0c-0.1,0,0-0.4-0.1-0.1c0-0.1-0.4-0.7,0-1
				c-1.1,0.5,2.2-7.5,2.2-6.6c1.1-2.8,6.5-8.9-1.3-3c-3.2,2.5-5.7,6-9,4.6c-0.2-0.5-0.6-1.9,0.5-2.4c-0.3-1.5,2.9-3,3.5-5.3
				c2.2-2.5,4.4-3.6,5.8-5.5c6.3-7.7-9.3,5.2-10,8.1c-1.6,1.7-3.9,8,2.2,7.1c5.5-2,7.1-6.3,4.2,1.5c-1.1,3.6,2.8,6.6,5.7,1.9
				C41.2,152.9,41,157.1,42.9,157.7z"/>
			<path d="M42.4,124.6c0.3,0.7,1.1,1.7,2.1,2.1c8.6,4,13.5-13.4,6.9-3.3c-0.6,0.5-0.6,1.3-0.9,1.4c-0.3-0.3-0.9,0.3-1.3,0.3
				c-0.2-0.3-1.4,0.6-1.4,0.3c-0.1-0.5-0.4,0.3-0.5,0.1c-0.1-0.3-1.1,0.3-1.2-0.4c-0.7,0.7-0.3,0-1.2-0.1c-1.6-1.9-1.3-1.7-1.3-3.9
				c1.1-2.2,3-6.3-2.1-1.4c-1.9,1.3-3.1,3.8-4.5,3.3c-2,0.3-0.5-4.2,0.3-4.8c-0.5-0.7,2-4.2,3-5.7c0.7-1.9,3.1-2.7,3.7-4.2
				c5.5-7.4-8.2,4.6-7.9,7.6c-0.5,1.7-2.3,4-1.7,7.3C37.5,128,42,118.2,42.4,124.6z"/>
			<path d="M76,130.5c-0.5,0.4-0.5,1.7-1,1.7c-1.5,3.1-2.6,3.6-5.2,2.7c0.2-0.5-0.5,0-0.5-0.2c0.1-0.3-1-0.7-0.5-1.2
				c-0.8,0.2-0.4-2.8-0.6-4c-0.2-2,1.1-3.3,1-4.7c0.6-7.3-4.4,6-2.7,8C69.4,144.3,81.7,128.6,76,130.5z"/>
			<path d="M53.4,172.6c-0.9-1.8,0.2-3.7,0.9-5.7c-2-3.2-3.4,5.4-5.1,5.6c0.3,0.8-1.9,3.6-3.5,3c-1.8-1.1-1.7-3.5-1.5-5.2
				c0,0,0,0,0-0.1l0,0.1c0.1-0.7,0.3-1.3,0.3-1.6c0.3-1-0.4-1.7,0.5-2.5c0.2-5.7-3.3,3.9-2.7,6c-0.3,4.5,4.8,7.6,7.4,3.2
				c3.1-7.9,2.5,5.7,9.1,0C59.7,173.2,54.5,177,53.4,172.6z"/>
			<path d="M116.1,136.8c0.5,0.3,7.2,4.2,7.9-1.4c2.1-5.5-4.4-15.7-1.4-4.3c1.1,4.3-1.5,8.3-4.5,4.6c-1.6-1.8-1.6-2.7-2-4.2
				c-2.8,0.2-1.3,1.5-1.9,3c1.2,1.3-0.6,3.7-0.5,6.1c-2.4,6-4.4-1.6-5.6-2.8C101.6,125.5,111.9,159.9,116.1,136.8z"/>
			<path d="M131.2,130.7c0.9-0.7,1.6-2.2,1.6-4.4c-0.1-1.4-5.7-10.5-3.7-3.6c-0.2,0.7,1.1,1.2,1.3,1.8c0.1-0.4,0,0.2,0.2,0.2
				c0.2,0.2,0.9,0,0.5,0.3c-0.5,0.2,0.3,1-0.2,1.3c-0.1,0,0.3,1.3,0.1,1.1c-0.5,0,0.2,0.4,0,0.4c-0.3,0,0,0.9-0.6,0.7
				c0.3,0.3,0,0.2,0.2,0.5c-0.2-0.1-0.3-0.1-0.6,0.2c0-0.1-0.1-0.1-0.1-0.2c-1.6,1.1-2.9-0.5-3.2-1.4
				C120.8,122.6,127.4,134.7,131.2,130.7z"/>
			<path d="M215.5,190c6.1-3.4-0.5-8.8,6.1-5c0.8,0.4,2.3,0.2,3.2-0.4c2.9-2.3,1.2-5.8-0.7-9.8c-2.1-2.6-1.5,2.9,0,3.4
				c-0.4,0.3,1,0.6,0.7,0.8c-0.5,0.1,0.2,2.5-0.1,2.4c-0.5,0,0.3,0.5-0.1,0.4c-0.1,0.3,0,0.9-0.5,0.7c0.3,0.3,0,0.2,0.2,0.5
				c-0.2-0.2-0.3-0.1-0.6,0.2c0-0.1-0.1-0.1-0.1-0.2c-1.6,1.1-3-0.3-3.5-1.2c-2-0.1-1.7-2.8-3.3-5.1c-2.6-0.6,0.9,6.2,0.6,6.5
				c-1,1.1-0.7,4.7-1.9,4.5c0.3,1.1-0.1,0.2-0.7,0.6c0-0.1-0.1-0.1,0-0.3c-2.8,0.3-2.7-2.2-3.2-3.7c-1.1-5.6-2.1-0.3-1.3,2.5
				C211.1,189.2,213.3,190.6,215.5,190z"/>
			<path d="M233.2,175.7c7.5,0.2,0.2-9.3,1-4.3c0.1,0.8,0.8,1.3,1.4,1.7c-0.5-0.1-0.4,0.5-0.8,0.4c0.1,0.1,0.1,0.1-0.1,0
				c-0.1,0-0.1,0.6-0.2,0.2c-0.3-0.4,0.1,0.4-0.2,0c-0.1,0.1-0.3,0.3-0.4-0.1c0,0.3-0.2,0.6-0.2,0.4c-0.1,0.1-0.1-0.2,0-0.2
				c-0.1,0.5-0.2-0.2-0.4,0.1c0-0.1,0-0.2,0.1-0.3c-1,0.2-0.9-0.3-1.8-0.7c0.6-0.2-0.5-0.7-0.2-0.8c-0.1-0.1-2.1-1.2-2.1-0.1
				C230,174,231.4,175.6,233.2,175.7z"/>
			<path d="M252.1,222c0.4,1.1,1.4,2.7,1.5,3.6c-0.1,0.3,0.6,0.9,0.3,1c-0.4-0.1-0.5,0.8-0.8,1c-0.3-0.2-0.8,1.1-0.9,0.8
				c-0.3-0.5-0.3,0.6-0.4,0.1c-0.3,0-0.9,0.4-1.1-0.1c-0.2,0.3-0.5,0.5-0.5,0.2c0,0.1-0.3-0.3-0.7-0.3c-0.9-1-1.9-1.4-2.5-2.9
				c0.5,0.1-0.2-1.6-0.3-2.2c0.1-4.2-2.4-2.4-1.7,0.4c-0.1,1.4,0.2,2.5-0.1,3.3c0.6,1,0,0.4-0.2,1.2c-0.9,1.4-2.1,3.8-2.8,2.7
				c-0.7,0.7-0.3,0-1.1-0.4c-0.6-1.4-1.9-3.3-1.7-4.6c0.4,0.3-0.3-1.7,0.1-1.7c0.1-0.2-0.6-1-0.2-1.7c-2.8-4.4-1.8,9.2,0.9,9.6
				c2.7,2.2,5.7-0.5,6.5-4.4c0.7,1.1,1.5,1.9,2.9,2.5c2.8,1.3,7.4-1.4,5.4-6.4C254.5,222.9,252.5,218.6,252.1,222z"/>
			<path d="M259.7,214.4c0.5-1.2-4.9-7.4-3-2.2c0.7,0.7,0.9,1.1,1.7,1.3c-0.4,0.1-0.3,0.9-0.2,1.1c-0.5,0.1,0.4,0.9-0.1,0.7
				c-0.5,0,0.4,0.3,0,0.3c-0.1,0.2,0.2,0.7-0.4,0.7c0.3,0.2,0.3,0.4,0.3,0.3c0.1,0.1-0.2,0-0.2,0c0.4,0.3-0.2,0.1,0,0.4
				c-0.1-0.1-0.1-0.1-0.2-0.1c-0.2,1-0.5,0.8-1.3,1.2c0.2-0.4-0.1-0.4-0.4-0.1c0.3-0.6-0.5,0.1-0.2-0.3c-6.1-1.4,2.1,5.1,3.8,0.1
				C259.3,216.9,259.9,216.3,259.7,214.4z"/>
			<path d="M238.6,241.3c-0.2,0.4,0,0.7-0.3,0.8c0.5,1-0.2-0.1-0.4,0.3c-0.3-0.3-0.7,0.2-0.7-0.1c-0.1-0.5-0.1,0.4-0.1,0
				c-0.1-0.1-0.3,0.3-0.4-0.2c-0.1,0.4-0.3,0.6-0.2,0.1c-0.2,0.4-0.1-0.2-0.3,0.1c0.1-0.1,0-0.1,0.1-0.3c-0.3,0-0.8,0.2-0.8-0.2
				c0.5-3.8-4-0.9-1.8,1c-0.5,2-0.1,3.5-1,4.5c-1,1.2-2.6,3.6-2.9,2.4c-0.9,0.5-0.2-0.1-0.9-0.7c-0.6-2.7-1.3-4.7-1.6-6.9
				c0.1-0.2,0.1,0,0-0.6c-1-0.1,2.3-3.4-1-1.8c-1.3-1-0.8,2.2-1.6,1.9c-1.1,1.3-1.3,2.6-2.1,3.4c-0.1,0.4,0.2,1.3-0.4,0.8
				c-1.4,1.6-3.6,3.9-3.9,1.9c-1,0.2-0.9-3.6-0.8-5.1c-0.4-1.8,1.4-3.4,1.2-4.7c1.8-8.5-5.5,6.7-2.8,9.4c4,9.8,8.8-6.2,9.9-2.8
				c0.6,2.3,0.7,3.8,1.8,5.8c5,5.2,5.9-3.6,8.2-6.3c-0.1,0.4,0.4-0.4,0.3,0c0.4-0.3,0.3-0.4,0.6,0.2c1.8-0.3,3.1-1,3.6-3.1
				C240.3,239.8,238.5,241.2,238.6,241.3z"/>
			<path d="M217.1,103.7c10.7,9.6,3.9-19,4-6.7c0.5,2.9,1.5,5.1-0.3,6.6c-0.3-0.1-1.3,0.4-1.4-0.5c-0.5,0.8-3.3-4.3-4.2-5.4
				c0.5-2-5.1-8.5-1.4,0.9C214.9,100.7,215.7,101.9,217.1,103.7z"/>
			<path d="M230.4,103c2.6,0.7,5.3-0.7,6.1-4.2c1.2,0.5,2.3,1,3.7,0.4c2.4-1,3.3-5.6-0.5-8.1c-1.2-1,1-2.3,0.3-4.2
				c-0.4-1.2-2.9-7.7-3.5-3.7c1.7,3.2,3.3,4.3,0.9,6.7c-0.4-0.2,0,0.4-0.5,0.3c0,0.1-0.8,0.5-0.9,0.1c-0.5,0.8-0.3,0.1-1.2,0.1
				c0.1-0.1,0-0.2,0.1-0.3c-1.8-0.3-2-1.2-3-2.4c0.5,0-0.1-0.8-0.3-1.4c-0.1,0,0-0.7-0.6-0.9c-3.6-4.9,0.2,7.8,3.7,6.8
				c1.4,0.2,3.5-0.9,5,1c0.6,0.2,0.4,0.5,0.7,0.8c0.1,0.1,0.9,0,0.5,0.3c-0.5,0.2,0.1,0.9-0.3,1.1c0.1,0.1,0.1,0.1,0,0.2
				c-0.1,0.2,0.2,1-0.1,0.8c-0.5,0,0.3,0.3-0.2,0.4c0,0.1-0.1,0.7-0.5,0.4c0.2,0.3,0,0.2,0.1,0.5c-0.2-0.2-0.2-0.2-0.6,0
				c0-0.1-0.1-0.1-0.1-0.3c-1.6,0.7-2.7-0.7-3-1.5c-0.5,0.5-0.6-3.7-2.1-1c-0.6,1.5,1.1,3,0.5,4.1c0.6,0.7,0.2,0.5-0.3,0.8
				c-0.1,0.5-0.5,0.8-0.7,0.8c-0.2,0.1-0.6,1-0.6,0.6c-0.2-0.5-0.3,0.6-0.4,0.1c-0.3,0-0.8,0.4-1-0.1c-0.6,0.9-0.3,0-1.1,0
				c-0.9-0.9-1.9-1.1-2.8-2.4c0.6-1.6-4.6-6.2-1.4,0.9C227.5,101.5,228.6,102.4,230.4,103z"/>
			<path d="M255.7,100.4c1.4,0.8,2.9-1.4,2.9-2.2c-0.3-0.3,0.4-1-0.2-1.4c-0.2,0.2-0.1-1-0.4-1.4c-1.5-1.7-2.9-1.8-3.9-2.4
				c-6,1,2.4,1.9,2.5,3.9c-0.4,0.1,0.6,0.2,0.1,0.3c0.7,0.2-0.4,2-1.3,2.1c-1.4,0.9-4.5-2.5-3.9,0.7
				C253,101,254.8,101.1,255.7,100.4z"/>
			<path d="M258.8,97.1C258.8,97.1,258.9,97.1,258.8,97.1L258.8,97.1z"/>
			<path d="M242,115.7c-0.8-1-1.3-1.1-1.7-2.4c-0.2-1.1-2.2-1.9-2.3-0.6c0.2,0.9,1.5,2.1,1.1,2.8c0.3,2,1,3.6-0.1,4.5
				c-1.3,1.3-3.4,2.4-4.1,1c-1,0.4-1.1-1.1-1.9-2.4c-1.8-2.1-1.7-4.3-2.1-6.1c-3.9-7-0.8,7.7,1.6,9.1c2,3.3,9.5,1.4,8.3-4.6
				c0.8,0.4,1.5,0.9,2.5,0.9c8.6,0.7,1.6-13.6,1.8-6.8c0.3,1.3,0.7,2.3,1.5,3.1c-0.4-0.1-1.1,1.9-1.3,1.6c-0.3-0.4-0.1,0.5-0.3,0.1
				c-0.2,0-0.7,0.5-0.9,0c-0.1,0.3-0.2,0.5-0.4,0.4c0.1-0.1-0.1-0.2,0-0.3c-0.2,0.5-0.3-0.2-0.6,0.1c0.1-0.1,0-0.2,0-0.3
				C242.9,116,242.5,115.5,242,115.7z"/>
			<path d="M202.4,8.8C202.4,8.8,202.5,8.7,202.4,8.8L202.4,8.8z"/>
			<path d="M202.1,25.8c1,0,2.6-2,2.1-2.3c1-1.8-0.3-2.1-0.9-3.1c-1.3-1.9-6.9-0.2-4-2.2c0.8-0.9,1.5-0.9,1.8-2.2
				c1,0.2,2.1-1.5,2.9-2.7c1-2.8-1.7-5-4.8-4.9c-3.5,1.2-9.1,2.1-9.2,5.6c3.5-1.3,6.9-3.8,10.4-3.6c1.3-0.5,2.8,1.8,1.2,3.4
				c-0.7,3.1-9.8,4.9-7.1,7.3c2.8-0.4,5.7-0.1,7.7,1c-0.3,0.3,0.7-0.1,0.3,0.2c1.3,1-2.1,2.9-4.3,3.3c-3.1-0.7-7.2-0.1-2,1.6
				c1.7,0.1,2.8,0,3.8-1C200.2,26.6,201.7,26.1,202.1,25.8z"/>
			<path d="M204.5,21.7C204.5,21.7,204.6,21.7,204.5,21.7L204.5,21.7z"/>
			<path d="M181.2,25c0,1.4,0.2,2.7,0.4,3.9c-0.4-0.3-1.9,1.5-2.1,1.2c-0.1-0.5-0.4,0.5-0.4,0c-0.3,0-0.9,0.2-1-0.4
				c-0.3,0.2-0.5,0.4-0.5,0.1c0,0.1-0.3-0.3-0.6-0.3c-0.7-1.1-1.6-1.6-2-3c1-1.4-2.7-7.3-1.6,0.5c0.6,2,1.4,3.2,3,4.2
				C186.5,35.9,181.9,17.9,181.2,25z"/>
			<path d="M226.8,53.5c0.5,0.3,1.6-0.4,1.8-0.1c1.6-0.2,2.6-1.1,3.3-1.6c0.9,0.5,2.4-0.8,3.1-1.1c0.5-0.1,1.6-2.1,1-3.2
				c-0.2,0.2-0.4-2.6-1.9-2.4c-2-0.9-3.5-0.8-4.8-0.1c-0.1-0.5-3.2,2-1.2,2.2c2.1-1,4.9-1.7,6,0.3c-0.4,0.2,0.7,0.2,0.2,0.3
				C236.6,50.8,222.9,51.5,226.8,53.5z"/>
			<path d="M223.2,281.6c8.9,0.2,2.7-11.8,6.4-8.9c7.5,2.3,2.5-10.1,1.2-5.3c0.9,1,1.1,1.8,2,2.6c-0.4-0.1-1.1,1.4-1.2,1.1
				c-0.2-0.3-0.2,0-0.1,0.1c-0.1,0-0.2-0.3-0.1,0c-0.1-0.1-0.4,0.2-0.4-0.3c-0.2,0.3-0.3,0.4-0.4,0.4c0.1-0.3,0.1-0.3-0.1-0.1
				c-0.1-0.1-0.1-0.4-0.4-0.2c0.1-0.1,0-0.2,0.1-0.3c-2.1-0.7-2.1-0.5-3.3-3.2c-3.4,0.2-1.2,1.5-0.7,3.2c0.5,2.6,1.3,3.6,0.8,5.6
				c-0.9,1.6-1.1,3.6-2.6,3.2c-0.4,1.4-3.7-1.5-4.3-2.1c-0.9-1.9-0.7-3.1-2-4.2c-0.4-5.6-2-2.6-1.9,0.4c-0.2,2.9,0.3,4.1-0.6,6.1
				c-1.1,1.5-1.3,4.2-2.6,3.8c-0.4,1-0.2,0.1-1-0.2c-1.7-2.9-2.5-5.2-3.1-7.6c0-0.4-0.2-1.5,0.5-3.4c-0.3-2.4-2.9,2.3-2.7,2.7
				c-1.2,2.4-1.2,4.2-2.4,5.5c-1.5,1.5-3.3,4.9-4.2,3.8c-0.9,0.5-0.3-0.2-0.8-1.1c0.3-1.7-0.7-6.5,0.2-6.5c0.1-0.5,0.1-0.9,0.2-1.3
				c0,0,0,0,0,0l0,0c0.2-1,0.5-1.6,0.2-2.5c-0.1-7.8-4.1,9.7-2.2,11.5c4.5,8,9.2-9.1,10-5.6c1,2.5,1.5,4.5,3.5,6.3
				c1.3,0.8,1.7,0,3.3,0C221.7,273.4,213.4,276.9,223.2,281.6z"/>
			<path d="M235.8,288c-0.3,1.4,0.3,3.1-0.2,4.1c0.4,0.9,0,0.6-0.5,0.9c-0.4,0.6-1.8,1.4-2,1.3c-0.5-0.2-1.5,0.6-2-0.3
				c-0.6,0.6-1.1-0.2-1.8-0.6c-2.6-1.4-2.6-2.5-3.5-4.4c-1.1-5.3-2.3-3.8-2.5,1.6c0.1,1.2-0.6,1.4-0.2,2.6c-0.1,0-0.5-0.1-0.6,0.4
				c-1.2,1.3-2.5,4.2-3.4,3.4c-0.5,0.9-0.1,0.1-0.9-0.3c-0.2-1.3-2.6-4.6-1.9-4.9c-0.6-1.6,0-3.8-1.8-4.9c-1.2,3.9,0.6,8.6,2.8,11.4
				c3.6,3.2,7-4.8,7.6-6.7c1.2,2,2.4,3.3,4.4,4.2c3.7,1.8,9.2-0.7,8.1-7.2C237.8,286.8,235.2,284.4,235.8,288z"/>
			<path d="M100.6,237.6c-0.6,0-1.5,0.9-1.8,0.7c-1.6,0.5-2.9,1.1-3.8,1.4c-0.3-0.5-2.7-0.6-2.6-1.2c0.3-0.2-0.2-0.3-0.2-0.2
				c-0.1-0.1,0.2-0.4,0-0.3c0.1-0.3-0.2-1,0.3-1.1c-0.9-0.8,1.4-1.8,1.6-3.4c1.9-1.5,3-1.6,4.8-2.5c0.3,1.1,0.4,0.3,0.6-0.1
				c0.4-0.2,0.6-0.4,0.1-0.3c-0.2-3.5-8.1,2.1-8.5,4.4C86,245.4,106.7,238.9,100.6,237.6z M98.8,230.9
				C98.8,230.9,98.8,230.9,98.8,230.9C98.8,230.9,98.8,230.9,98.8,230.9z"/>
			<path d="M82.7,247c-1.2,1.1-1.9,2.3-2.5,3c-0.8-0.3-2.4,1.4-2.9,1.3c-0.1-0.4-0.4,0.1-0.3,0.2c-0.1,0.1-0.3-0.3-0.3,0
				c-0.2-0.1-0.6,0-0.3-0.4c-0.9,0.2-0.1-0.1-0.5-0.9c0.6-0.7,0-2.4,0.4-3.3c-0.5-0.5,6.8-5.9,2-4.6c-1.6-3.8-2.7,5.2-7.7,5.9
				c-1.6,0.3-3.7,2.2-4.3,1c-0.6,0.3-0.6,0.1-0.5-0.6c0.6-3.8,2.5-6.5,4.3-8.3c-0.4-1,1.2-1.2,2.1-1.7c1.7-1.9-3.3-0.6-3.6-0.4
				c-2.1,0.8-3.6,2-5,1.1c-2-1.2-1.6-3.5,0-4.2c-0.2-0.9,1-1.2,1.9-1.9c2.9-2.7,5-3.1,7.5-3.6c7.4-4.5-8.5-0.1-9.7,2.9
				c-4.3,2.8-3.6,10.6,4.4,7.7c-2.3,2.4-3.9,5.5-3.9,8.7c3,7.4,11.4-5.7,10.1,1.8c0.4,0.9,0.8,2.4,2.6,2.4
				C79.9,253.3,89.9,242.3,82.7,247z"/>
			<path d="M87.5,260.5c-0.6,0-1.2,1.1-1.6,0.9c-1.1,0.7-1.6,1.6-2.4,1.9c-0.1,0.3-0.2,1.1-0.5,0.5c-1.5,0.5-4,2.3-3.9,1.3
				c-0.2,0.3-0.2,0.1-0.5,0.3c0.1-0.2,0.1-0.3-0.2-0.7c0.2-0.8-0.5-4.4,0.2-4.1c0.2-0.9,0.5-1.2,0.5-1.8c0.6,0.4-0.3-1,0.4-1.2
				c-1.4-4.4-4.4,6.8-2.6,8.1c0.6,0.8,2.1,2.3,3.9,1.1C81.5,266.2,92,260.7,87.5,260.5z"/>
			<path d="M124.7,303.4c7.4,3.2,7.5-13.7,4.7-7c-0.3,1.4-0.4,2.6,0,3.8c-0.5-0.2-1.6,1.8-1.9,1.5c-0.2-0.5-0.2,0.6-0.3,0.1
				c-0.3,0-0.8,0.4-0.9-0.2c-0.1,0.4-0.2,0.1-0.4,0.4c0-0.2-0.1-0.4-0.6-0.5c0.1-0.1,0-0.2,0.1-0.2c-2.9-0.9-1.5-3.2-2.8-4.6
				c-1.8-4.1-1.1,3-2.4,3.1c-1.2,1.8-1.4,4.7-2.7,4.8c-1.2,0.9-2.8-3.4-2.4-4.3c-1-0.6-0.4-2.1-0.7-3.9c-1-2.9,0.3-4.6,0.4-7
				c0.6,0.3-0.3-1.3,0.4-1.7c-0.9-5.2-3.4,6-3,7.4c0.2,1.3,0.1,2.6,0.5,4.1c0.5,1.5,0.8,4.2,2.7,6.7
				C121.9,308.6,118.4,296.8,124.7,303.4z"/>
			<path d="M177.9,308.6c-0.4-0.1-1.1,0.6-1.3,0.4c-1.2,0.3-2.1,0.9-2.7,1.1c0-0.5-1-0.1-1.2-0.5c0-0.1-1.5,0.1-1.2-0.1
				c0-0.5-0.7,0.3-0.5-0.1c-0.4-0.1-1.1,0.1-1.2-0.5c-0.3,0.3-0.5,0.5-0.6,0.2c0.1,0.1-0.4-0.3-0.7-0.2c-0.3-0.7-1.9-0.4-2.4-0.8
				c-0.4-0.4-1.5-0.8-1.8-1.4c-0.2-0.1-0.6-0.1-1-0.3c-0.8-3.2-2.3,2-1.9,3c-0.2,0.7-0.3,1.6-0.4,2.1c-0.6-0.1-1.8,1.9-2.2,1.7
				c-0.2-0.5-0.3,0.5-0.3,0.1c-0.2,0-0.8,0.1-0.7-0.5c-0.7,0.4-0.7-0.5-1.2-1.2c-0.9-1.2-2-2.5-2-3.4c-0.3-0.8-0.3-1.9-0.6-3.8
				c-1.9-1.3-2,1.7-1.6,2.9c-0.3,1.2,0,4.6-0.5,4.3c-1.1,1.6-2.4,4.8-3.2,3.8c-0.6,0.7-0.3,0-1.1-0.5c-0.4-1.2-2.5-4.5-1.9-4.8
				c-0.6-1.6-0.1-3.9-2-4.9c-0.8,3.9,0.6,8.7,3.1,11.3c7.5,4.1,4.8-10.8,8.8-3.1c3,3.8,7.2-0.4,7.8-5.6c1.4,1.9,3.3,2.1,5.1,2.7
				c0.1,0.2,0.9,0.1,0.9-0.2c0.3,1,2.2,0.3,3,0.9C172.9,311.4,181.8,310.4,177.9,308.6z"/>
			<path d="M139.6,322.4c-0.6,1.4-1.3,2.5-1.7,3.8c-0.2-0.4-2.2,0.1-2.2-0.2c0.1-0.5-0.6,0.2-0.3-0.1c-0.2-0.2-0.9-0.2-0.8-0.7
				c-0.2,0.1-0.7,0.2-0.5,0.1c-0.2,0,0-0.2,0.1-0.2c-0.5,0.2-0.1-0.4-0.6-0.4c0.1-0.6-0.8-1.3-1.1-2c0.1-0.5,0.1-1.1-0.2-1.7
				c0.5-1.2,1.6-3.4-1.5-2.2c-0.2,0.8-0.2,2-0.9,2.1c-1.9,2.7-3.2,4.8-5.8,5c-0.2-0.2-1.3-0.6-0.9-1.5c-0.9-0.2-0.4-1.3-0.3-2.2
				c-0.3-3.7,0.4-5.5,1.3-7.6c0.1-8.2-4.5,6.5-3.2,8.9c0.8,6.7,5.9,4.2,9.7-0.8c0.5,1.5,0.7,2.4,1.8,3.6
				C138.2,332.4,143.8,320.1,139.6,322.4z"/>
			<path d="M154.5,326.6c-0.2,0.7-0.7,0.4-0.7,1.3c-0.3-0.6-1.9,0.2-2-0.1c0-0.5-0.4,0.4-0.3,0c-0.3-0.1-0.8,0.2-0.8-0.3
				c-0.1,0.2-0.5,0.5-0.4,0.3c-0.1,0.1,0-0.2,0-0.2c-0.3,0.4-0.2-0.3-0.5-0.1c0.1-0.1,0-0.2,0.1-0.2c-1.7-0.4-2.2-1.6-2.3-2.5
				c-3.7-5.2-1.5,4.4,1.6,4.5c0.1,0.2,0.9,0.2,0.9-0.1c0.3,1,1.9,0.2,2.9,0.5c0.9-0.4,5.2-3.2,3.4-5
				C155.3,324.7,154.9,325.9,154.5,326.6z"/>
			<path d="M251.5,285.8c0,0.8,0.7,1.8,0.6,2.4c0.7,0.6,0.2,0.4-0.1,0.7c0,0.4-0.4,0.7-0.6,0.6c-0.2,0.1-0.4,0.9-0.4,0.5
				c-0.3-0.4-0.1,0.5-0.3,0.1c-0.2,0-0.6,0.4-0.8-0.1c-0.1,0.4-0.2,0.1-0.3,0.5c0-0.2-0.1-0.3-0.6-0.3c0.1-0.1,0-0.2,0.1-0.3
				c-1.9-0.2-2.5-1.6-2.8-2.6c-4.7-4.3-0.5,5.1,2.6,4.6c2.1,0.5,5.8-1.4,4.5-5.6C253.7,284.4,250.5,282.6,251.5,285.8z"/>
			<path d="M100.5,50.7c-0.7,0.3-1,1-1.3,1.1c-0.2-0.4-1,0-1.3-0.1c-0.1-0.4-1.6,0.1-1.4-0.2c0-0.5-0.5,0.1-0.5,0
				c0-0.4-1.2-0.1-1-0.8c-0.9,0.5-0.3-0.1-1.1-0.5c-0.9-2.3-0.7-2,0-4.1c1.8-1.7,4.8-5-1.5-2c-2.2,0.7-4.1,2.7-5.3,1.8
				c-2-0.4,0.8-4.2,1.8-4.4c-0.4-0.7,3.3-3.4,4.6-4.5c1.3-1.6,3.8-1.6,4.9-2.8c7.5-5.3-9.3,1.8-9.9,4.7c-1,1.5-3.4,3.1-3.9,6.4
				c1.4,5.5,8.7-2.4,7.1,3.8c0.1,0.7,0.6,2,1.3,2.6C99.8,58.2,110,43.2,100.5,50.7z"/>
		</g>
		<g>
			<path d="M197.7,419.9H160c0-9.7-0.6-17.5,0.4-26.6c0.4,0.7,0.2-2.3-0.2-1.5c0.1-1.1,0.4-1.3,0.2-2.6c-0.6-0.3,0.2-3.1,0.2-4.1
				c-1.1-1.2,0.8-2,1.4-2.9c1.2-0.2,1.5-2.7,2.5-3.5c-0.6,0.2,0.3-0.1,0.3-0.5c0.2-0.5-0.6-1.5,0.1-1.2c1,0.4,1.6-2.1,2.4-2
				c0.6-0.4,0.5-2.8,1.1-1.9c0.4-0.2,0.2-0.9,0-0.9c0.1-0.2,0.8-0.5,0.3-0.6c0.5-0.6,0.4-1.6,1.2-2.2c-0.8-0.4,0.2-0.3-0.2-0.7
				c-1-0.2,0.8-0.2,0.1-0.6c2-2.4,0.1-8,1.1-8.5c0.3-0.8-0.6-1.4,0-1.8c0.3-0.5-0.9-0.8-0.1-1c0-0.4-1.2-1.2-0.9-2.3
				c-4.2-4.3-1.6,5.9-2,7.8c0,1-1.2,4.7-0.5,5.2c-0.7,0.9-8,19.6-6.7,6.6c-1.2-1.4,0.1-35.3-3.6-26.6c-0.5,6.5,0.9,19.2-0.3,23.1
				c0.2-0.6-1.5-1.4-1.8-1.8c-1-0.8-0.6-1.3-2.2-1.6c1-0.5-0.8-2.3-0.4-2.9c0-0.6-1.5-1.5-0.9-1.7c0.1,0.1,0,0,0.2,0
				c0.1-0.7-0.7-0.3-0.7-0.7c0.3-0.1,0.1-0.5-0.1-0.8c-0.7,0.4,0.1-1-0.6-1c0.6-0.8,0.1-0.2-0.3-1c-0.4,0.4-0.1-2.1-0.6-3.5
				c-0.9-0.5-1.8-5.1-1.3-4.4c-0.3-1.1-0.1-1.3-0.4-2.2c-0.3,0.3-0.2-0.3,0.1-0.2c-0.7-0.4,0.2,0-0.2-0.7c-5.6-8.2-2.1,5.9-1.6,8.3
				c0.8,1.2,0.7,4.1,2,3.9c-1.1,1.3,1.6,3.7,1.5,5.5c1.1,3.2,8.1,7,7.8,11.1c0.6,12.7,0,26.5,0,41.6c0,0.1,0,0.5,0,0.9h-37.2
				c-1.5,0-2.6,1.3-2.3,2.7l3,17.9c0.1,0,0.2,0,0.4,0c0.2,0,1.7-0.3,2.3-0.2c0.7,0,1.3,0.1,1.3,0.1l0.4-0.1c1.5,0.2,3.2,0,3.2,0.1
				c0,0,3.2,0,5,0c0.1,0.2,2.6,0.1,2.4,0.1c0.4,0,1.5-0.1,2-0.1c1.1,0,2.8,0,2.8,0c0.4,0,0.5,0.2,1.3,0.2c0.6-0.5,2,0,3.7-0.1
				c-0.2-0.2,3.5-0.3,5.3-0.2l-0.1,0c0.5,0.1,1.7,0.1,2.1-0.1c-0.3,0.1,0.6,0.2,0.3,0.3c0.4-0.2,2-0.1,2-0.1c0.3,0.2,1.5,0,2.2,0.2
				l0.6-0.1c0.5,0,0.8,0.1,1.1,0.1c0,0,1,0.1,2.2-0.1l0.2-0.2c0,0,0,0,0,0l0.1-0.1l-0.1,0.1c1.3-0.1,0.5,0.3,1.8,0.1
				c0,0,0.7,0.1,0.6,0c1.2,0.1,2.7,0.2,3.6,0.3c0.8,0-0.3-0.1,0.1-0.2c0.8-0.2,1.6,0,1.6,0l1.5,0.1c0,0,0.6,0.1,0.3,0
				c1.1,0,1.9-0.3,3,0c0,0-0.3,0.1-0.4,0.1c-1.1,0.2,0.8,0.1,0.8,0.2c0.3-0.1,1.3,0,1.7-0.2c1.9,0.3,3.4-0.1,4.8,0.1
				c-0.4,0.1,0.5,0.1,0.4,0.2c0.6,0.1,0.5-0.1,1-0.1l0.5,0.2c1.3-0.2,0.9,0.2,2.2,0.1c0.8-0.2,1.9,0.2,3.2,0l0,0.1
				c1-0.1,1.4,0.1,2.2,0.1c0.2,0.1-0.2,0.1-0.2,0.2c0.8-0.1,2.5-0.3,3.6-0.3c1.1-0.2,1.7,0,1.7,0l1.6,0.1c0.1,0,0.2,0,0.3,0l2.5-19
				C200.2,421.1,199.1,419.9,197.7,419.9z"/>
			<path d="M189.6,442.9c-2-0.1-3.7,0.1-5.7,0l-0.5-0.1c-0.4,0.1-0.9,0-1.1,0l-0.5,0.1c-0.2-0.2-1.4,0.3-1.4,0.1l-0.2-0.1
				c-4.6-0.4-9.9,0-14.8-0.1c-1.2-0.1-3.1-0.3-3.1-0.3c-0.8,0-0.7,0-0.7,0l-1.4,0c-0.6,0-1.2,0-1.9,0c0,0.3-2.5,0.2-2.2,0.2
				c-2.2,0.3-5.6,0-5.6,0c-1.7-0.2-2.4,0.1-4.3-0.1l-2.7,0.1l-0.7,0l0,0c-0.3,0-1.4,0-1.4,0c-0.4-0.1-0.8,0-1.2,0l-0.4-0.1
				c-1.1,0.1-3.6,0.1-3.6,0.1l-0.1,0c0,0,0.1,0,0.1,0c-1.9,0-4,0-6,0c-4.1,0-5.2-0.2-9-0.3l5.9,35h65.8l4.5-34.1
				C194.7,443.1,191.5,443.1,189.6,442.9z"/>
		</g>
		<g>
			<path d="M334.9,474.5l2.9-0.8l-4.1-15l0-0.3l0,0l-17.9-65.3l-0.2-2l-0.3,0l-3.5-12.8l0-0.9c-0.1,0-0.1,0-0.2,0l-39.5-143.8
				l-2.9,0.8l2.8,10.2c-1.9,0.3-3.9,0.4-5.9,0.5l-3.1-11.5l-2.9,0.8L326,477.5l2.9-0.8l-3.8-14.1l6.3-0.8L334.9,474.5z M316.7,408.3
				l2.8,10.1l-6.2,0.8l-2.8-10.3C312.5,408.6,314.6,408.4,316.7,408.3z M309.7,405.9l-2.9-10.5l6.1-0.8l2.9,10.7
				C313.8,405.4,311.7,405.7,309.7,405.9z M320.3,421.4l2.9,10.5c-2.1,0.3-4.2,0.4-6.3,0.4l-2.8-10.2L320.3,421.4z M324,434.9
				l2.8,10c-2.1,0.1-4.2,0.4-6.3,0.6l-2.8-10.2C319.8,435.4,321.9,435.2,324,434.9z M306,392.4l-3-11.1c2-0.3,4.1-0.5,6.2-0.6
				l3,10.9L306,392.4z M302.2,378.4l-2.8-10.2c2.1,0,4.1-0.2,6.2-0.5l2.8,10C306.2,377.9,304.2,378.1,302.2,378.4z M279.8,273.9
				l2.9,10.6c-2,0.3-4,0.4-6,0.4l-2.8-10.3L279.8,273.9z M273.1,271.7l-2.8-10.3c2-0.2,3.9-0.4,5.9-0.5l2.8,10.1L273.1,271.7z
				 M283.5,287.4l2.8,10c-2,0.1-4,0.3-6,0.6l-2.8-10.1C279.5,287.8,281.5,287.7,283.5,287.4z M287.1,300.5l3,10.9l-6,0.8l-3-11.1
				C283.1,300.8,285.1,300.6,287.1,300.5z M290.9,314.3l3,10.8c-2,0.3-4,0.4-6.1,0.4l-2.9-10.5L290.9,314.3z M294.7,328.1l2.8,10.1
				c-2,0.1-4.1,0.3-6.1,0.6l-2.8-10.1C290.6,328.5,292.6,328.3,294.7,328.1z M298.2,341.1l2.8,10.1l-6,0.8l-2.8-10.3
				C294.2,341.4,296.2,341.2,298.2,341.1z M301.8,354.2l2.9,10.5c-2,0.2-4.1,0.4-6.2,0.4l-2.8-10.2L301.8,354.2z M272.6,247.7
				l2.8,10.1c-2,0.1-3.9,0.3-5.9,0.5l-2.7-10.1C268.7,248.2,270.6,248,272.6,247.7z M324.3,459.6l-3-11.1c2.1-0.3,4.2-0.5,6.3-0.6
				l3,10.9L324.3,459.6z"/>
		</g>
		<path class="st1" d="M291,313.2c2.1-15.2,4.2-30.5,6.3-45.7c0.6-4.6,1.3-9.3,0.8-13.9c-0.4-4.1-1.6-8.1-1.8-12.1
			c-0.2-5,1.2-9.9,1.8-14.9c0.7-6.7,0.7-13.7-1.7-19.9c1-0.3,1.9-0.8,2.7-1.4c3-2.2,4.9-6.1,3.2-9.7c-0.9-1.9-2.8-3.3-5-3.3
			c-3.4,0-5.5,3.3-7,6.2c-2.5-8.3-5-16.6-7.5-24.8c-0.4-1.4-1.4-3.2-2.9-2.8c0.9,12.3,3.1,24.5,6.4,36.4c-6.7-9-15.1-22.7-20-32.7
			c-0.5-1-2.1-0.5-1.9,0.6c2.3,13.1,9.4,30.3,17.8,40.6c-0.5,31.2-1.6,61.9,3.2,92.7c-2.7,0.6-5.5,2-7.6,3.9
			c-0.6,0.6-0.2,1.6,0.6,1.6C282.6,314,286.9,313.7,291,313.2z"/>
		<g>
			<path d="M252.6,128.8l0,0.2C252.6,128.9,252.6,128.9,252.6,128.8z"/>
			<path d="M254.5,134.8C254.5,134.8,254.5,134.8,254.5,134.8L254.5,134.8z"/>
			<path d="M263.9,144.5C263.9,144.5,264,144.5,263.9,144.5L263.9,144.5z"/>
			<path d="M247,123.8c4.5,6.7,9.2,13.2,13.6,19.4c0.1,0.7,1.5,1.3,1.3,1.6c2.2,2.3,7.8,12.7,0.3,6.4c-1.3-1.2-2.6-1.7-3.7-2.9
				c-1.2-0.3-3.5-4.3-4.4-5.6c0.4-0.2-0.4-0.5-0.5-0.8c0,0-1.5-1.9-1.4-2.7c-1.2-0.4-0.5-1-1.5-2.3c0.1,0.1,0.1-0.2,0.2-0.2
				c-1-1.7-1.8-3.5-2.4-5c0.2,0.2,0-0.6-0.1-0.2c0.3-0.5-0.9-2.3-0.4-1.8c0-0.1,0-0.7-0.3-1.5c0.1-0.3-0.4-1.3-0.1-1.5
				c-0.5-0.4,0.1-0.1-0.2-0.8c-0.6-0.2-1.3-5.5-2-2.3c0.2,5.5,1.8,10.5,4.1,14.9c2.2,5.3,9.3,12.9,15.3,16.8c2.2,4-7.5,23.8,0.2,22
				c1.2-0.9,0.8-2,1.1-3c-0.3,0.3,0.1-0.1,0-0.3c0-0.3-0.6-0.7-0.2-0.7c0.6,0.1,0.4-1.2,0.9-1.4c0.1-0.1,0.2-1.8,0.4-1.6
				c0.5,0-0.2-0.8,0.2-0.6c0.2-0.6,0-1.1,0.5-1.7c-0.2-0.2-0.3-0.5-0.2-0.6c0.2,0.1,0.4-0.5,0.3-1c0.1,0.1,0.2-0.1,0.3,0
				c-0.1-1.2,0.3-2.9,0.1-3.4c0.4-0.2-0.1-1.5,0.3-1.1c0.1-0.2,0.2-0.9,0.3-1.5c1,2.3,2.7,3.4,3.8,5.2c-0.3,0.3,0.8,0.2,0.3,0.4
				c1.3,1,2.4,4.3,4.5,6.2c7.7,5.8,2.3-4.6,0.2-7c-1.5-2.5-3.1-3.8-4.4-6c-0.8-0.5-2.5-3.6-3.7-5.5c1.1-0.4,2.9-2.9,3.4-3.7
				c1.1-1.6,1.1-3,1.9-4.4c0,0.5,0-2.3,0.5-1.7c0.9-1.5,1.6-4.4,1.9-5.3c0.4,0.1,0.1-0.7,0.2-1c0.2-1.4,0.6-3.8,0.4-6
				c0.1,0.1,0.2-0.2,0.3-0.1c-0.2-2.1-0.5-4.1-0.9-5.8c0.2,0.2,0-0.6-0.1-0.2c0.3-0.6-0.8-2.4-0.2-1.9c0.1-0.3-0.7-2.3-0.7-3
				c-0.1-0.5-1-1.2-1.2-2.3c-3.9-4.6,2.6,12.2,1.1,14.2c1.7,2.5-8.1,29.1-7.8,16.5c0-0.1,0.5-3.2,1-4.8c-0.2-0.7-0.3-1.9,0.2-1.6
				c-0.3-1,0.5-1.7,0.3-2.7c0.1,0.2,0.2-0.3,0.3-0.1c0.3-1.9,0.4-5,0.8-6.3c0.3-1.2,0-1.7,0.3-2.6c0,0.4,0.3-0.9,0-0.3
				c0.5-0.7,0.3-3.8,0.6-3c0-0.1,0.6-2.6,0.7-4.3c0.3-0.7,0-2.5,0.5-4.5c-1.3-8.3-4.4,19.4-5.2,22.1c-0.4,0.6,0.1,2-0.2,2
				c-0.2,0.7-0.8,5.1-1.5,5.5c-0.1-0.1-1.9-2.6-2.6-4.2c-0.6-0.4-1.5-1.1-1-1.3c-1-0.5-0.8-1.5-1.7-2.1c0.2,0.1,0-0.3,0.1-0.3
				c-1.1-1.6-3.2-3.9-3.9-5.1c-0.6-1.1-1.2-1.2-1.6-2c0.3,0.2-0.4-0.8-0.2-0.2c-0.1-0.9-2.4-2.9-1.6-2.5c0-0.1-1.4-2.3-2.5-3.6
				c0,0.4-0.3-0.6-0.7-0.7c0.7-0.2-2-1.5-2.2-2.7C245,120.3,247,123.8,247,123.8z M267.9,154.1c-0.2,0.5,0.5,1.4,0.6,1.4
				c0.2-0.1,0,0.2,0.1,0.1c-0.1,0.1-0.1,0.3,0.2,0.3l0,0c0.3,0.2,0,0.3,0.4,0.8c-0.2-0.2-1.3-0.2-1.3,0.1c0,0-0.1-0.2,0-0.2
				c0-0.5-0.2,0.3-0.1,0c-0.1-0.1,0,0-0.1,0.1c0-0.2-0.4,0-0.1-0.4c-0.3,0.3-0.6,0.4-0.2,0c-0.3,0.2,0-0.2-0.3-0.1
				c0.1,0,0.1-0.1,0.2-0.1C267,156.1,267.5,153.8,267.9,154.1z M267.4,160.2c-1,2.4-0.7,4.4-1.2,6.6c-0.4,0,0.4,0.7-0.1,0.6
				c0.2,0.3-0.4,2.8-0.9,4c-0.3,0.9,0,4.3-1.5,4.9c-1.5,0,1.4-6,1.1-7c0.7-2.8,0.5-4.9,1.1-7.4c-0.1,0.8,0.1-2.1,0-2.6
				C266.6,158.3,267.5,157.4,267.4,160.2z M268.8,160.5c0-0.1,0.1-0.1,0.1,0C268.9,160.6,268.8,160.6,268.8,160.5z M273.5,161.9
				c1.6,3.5,6.5,8.2,6.7,10.6c-0.4-0.1-1.5-0.8-1.8-1.4c0,0.4,0-0.2-0.2-0.3c-0.2-0.2-1,0-0.7-0.4c0.5-0.4-0.6-1.1-0.4-1.6
				c0-0.2-1.2-1.4-0.9-1.3c0.4-0.4-0.7-0.4-0.3-0.5c-0.2-0.5-1-0.9-0.8-1.5c-0.3,0.1-0.6-0.1-0.7-0.2c0.2,0-0.1-0.6-0.5-0.9
				c0.1,0,0.1-0.2,0.2-0.2c-0.9-0.8-1.9-2.2-2.4-2.4c0.2-0.4-1.1-1-0.6-0.9c0.1-0.2-1.1-1.1-1-1.4c-0.4,0.2,0.1-0.6-0.6-0.3
				c-0.6-0.5-1.1-0.7-0.5-0.9C270.7,156.1,271.7,160.5,273.5,161.9z"/>
			<path d="M270.4,162.9C270.4,162.9,270.4,162.9,270.4,162.9L270.4,162.9z"/>
			<path d="M269.8,130.9C269.8,130.9,269.8,130.8,269.8,130.9L269.8,130.9z"/>
			<path d="M269.6,144.4C269.6,144.4,269.7,144.4,269.6,144.4L269.6,144.4z"/>
			<path d="M278.2,134.7C278.2,134.7,278.3,134.7,278.2,134.7L278.2,134.7z"/>
			<path d="M268.9,161.2L268.9,161.2C268.8,161.2,268.9,161.2,268.9,161.2z"/>
			<path d="M266.7,163C266.7,163,266.7,163,266.7,163L266.7,163z"/>
			<path d="M268,168.1L268,168.1L268,168.1z"/>
		</g>
	</g>
</g>
<g id="Layer_2">
</g>
</svg>
