<svg width="406" height="384" viewBox="0 0 406 384" fill="none" xmlns="http://www.w3.org/2000/svg">
<g clip-path="url(#clip0_29_5073)">
<path d="M295.186 270.725C294.878 270.214 294.377 269.843 293.792 269.695C293.208 269.547 292.587 269.633 292.067 269.934C287.126 272.802 283.18 273.674 279.99 272.602L279.92 272.577L280.264 272.388C283.137 271.03 285.67 269.064 287.681 266.629C289.767 263.733 290.477 259.184 287.8 256.094C286.481 254.627 284.637 253.718 282.653 253.556C280.802 253.381 278.937 253.7 277.254 254.48C275.066 255.533 273.237 257.19 271.99 259.249C270.742 261.307 270.131 263.679 270.229 266.073C270.357 268.095 271.003 270.051 272.107 271.76L269.243 273.348C266.856 270.362 263.919 267.846 260.585 265.931C246.105 257.877 229.468 256.346 212.837 256.595L192.09 256.907C188.143 256.899 184.197 257.093 180.269 257.488C175.951 257.999 171.711 259.018 167.639 260.522C162.5 257.936 157.521 255.052 152.73 251.884C152.265 257.807 152.006 263.741 151.952 269.686C150.89 270.601 149.871 271.564 148.894 272.577C143.401 278.288 139.557 285.337 137.757 292.998L122.727 295.171C121.626 295.19 120.578 295.638 119.813 296.417C119.464 296.986 119.264 297.631 119.233 298.295C118.146 306.781 118.061 315.362 118.98 323.868C118.879 324.343 118.894 324.835 119.023 325.304C119.152 325.772 119.392 326.204 119.723 326.564C120.053 326.924 120.466 327.203 120.926 327.377C121.387 327.55 121.883 327.614 122.374 327.564L142.185 328.551C142.849 329.955 143.597 331.318 144.426 332.634C149.111 340.202 156.233 346.011 164.659 349.136C162.896 354.097 161.39 359.143 160.146 364.254C159.666 365.845 159.479 367.507 159.593 369.163C159.605 370.111 159.922 371.031 160.498 371.792C161.074 372.552 161.88 373.113 162.801 373.394C163.721 373.676 164.708 373.663 165.621 373.358C166.533 373.053 167.324 372.471 167.88 371.696C169.21 370.104 170.17 368.245 170.691 366.248C172.328 361.359 173.754 356.4 175.151 351.444C180.081 352.012 185.036 352.329 189.999 352.393C202.4 352.747 214.805 352.884 227.214 352.805C233.762 352.93 240.309 352.483 246.777 351.468C248.893 356.876 251.009 362.283 253.125 367.691C253.621 369.185 254.348 370.596 255.279 371.873C255.752 372.508 256.365 373.029 257.072 373.396C257.78 373.763 258.563 373.967 259.362 373.993C261.82 373.924 263.677 371.522 263.972 369.12C264.07 366.694 263.582 364.28 262.549 362.074L257.324 348.149C261.84 345.786 265.931 342.707 269.432 339.037C272.407 336.108 275.025 332.849 277.235 329.326C282.112 320.798 283.933 310.903 282.405 301.233C281.373 293.928 278.765 288.552 275.113 282.113C274.121 280.368 273.073 278.644 271.946 276.987L275.26 275.148C276.244 275.873 277.336 276.443 278.498 276.838C283.024 278.359 288.213 277.363 294.365 273.789C294.886 273.489 295.265 272.998 295.419 272.424C295.573 271.85 295.489 271.239 295.186 270.725V270.725ZM278.025 268.481L276.082 269.558C275.319 268.451 274.87 267.165 274.778 265.83C274.729 264.326 275.119 262.839 275.902 261.546C276.684 260.253 277.828 259.208 279.196 258.535C279.971 258.181 280.814 257.997 281.669 257.994C282.16 257.965 282.651 258.039 283.11 258.214C283.569 258.388 283.985 258.657 284.329 259.002C285.443 260.286 285.016 262.57 283.96 264.036C282.327 265.918 280.304 267.434 278.025 268.482V268.481Z" fill="#00F3B3"/>
<path d="M209.025 201.401C206.407 201.805 203.947 202.888 201.897 204.54C199.847 206.191 198.282 208.351 197.363 210.796C196.445 213.241 196.205 215.883 196.67 218.45C197.135 221.017 198.287 223.415 200.007 225.397C201.728 227.379 203.955 228.874 206.458 229.727C208.961 230.58 211.651 230.76 214.248 230.25C216.846 229.739 219.259 228.555 221.237 226.821C223.215 225.087 224.687 222.865 225.501 220.384C226.252 218.004 226.377 215.475 225.866 213.034C225.356 210.593 224.225 208.319 222.58 206.423C220.935 204.528 218.829 203.074 216.459 202.196C214.089 201.317 211.531 201.044 209.025 201.401V201.401Z" fill="#00F3B3"/>
<path d="M274.6 0L192.383 2.24398C192.787 16.3313 192.609 30.0321 192.831 44.1195C192.944 51.1843 192.755 58.3639 190.646 65.1183C188.335 71.9349 184.607 78.2033 179.699 83.5242C175.152 88.9534 170.003 93.8654 164.347 98.1688C158.957 102.09 144.984 111.974 139.593 115.896C128.922 123.658 118.194 131.48 109.004 140.891C108.885 141.015 108.764 141.131 108.646 141.254C108.435 141.473 108.223 141.694 108.012 141.916C105.225 144.866 102.619 148.149 101.748 152.063C100.9 155.873 102.241 160.384 105.52 162.384C105.866 162.601 106.231 162.785 106.61 162.937C106.976 163.078 107.353 163.189 107.737 163.27C110.148 163.684 112.63 163.231 114.73 161.994C117.119 160.515 119.273 158.697 121.12 156.598C125.846 151.736 131.734 146.309 137.032 141.169C138.766 139.487 140.437 137.835 141.983 136.244C140.266 138.579 138.719 141.029 137.352 143.577C134.594 148.751 132.586 154.537 132.953 159.734C133.268 163.432 134.494 166.998 136.527 170.124C138.559 173.249 141.335 175.84 144.615 177.671C145.122 177.944 145.644 178.199 146.175 178.427C146.333 178.868 146.497 179.307 146.666 179.743C148.491 184.457 150.963 188.904 154.014 192.958C154.297 193.333 154.584 193.707 154.877 194.08C159.266 199.596 164.662 204.258 170.789 207.826C171.465 208.222 172.152 208.607 172.852 208.98C173.332 210.149 173.915 211.276 174.594 212.346C176.387 215.349 179.124 217.697 182.391 219.037C184.731 219.893 187.281 220.023 189.698 219.411C191.953 218.88 193.94 217.57 195.296 215.719C197.65 212.37 197.404 207.865 196.321 203.935C193.565 193.931 186.051 184.985 186.582 174.632C186.876 168.897 189.707 163.519 193.478 159.141C197.411 154.895 201.811 151.093 206.599 147.806C211.058 144.506 216.261 141.042 221.743 142.064C227.631 143.161 231.411 149.363 231.562 155.259C231.713 161.154 229.077 166.747 226.241 171.945C223.408 176.823 221.044 181.951 219.18 187.262C217.351 192.799 217.346 199.263 220.722 204.047C222.093 205.959 223.996 207.442 226.203 208.316C228.409 209.189 230.825 209.418 233.161 208.974C233.522 208.889 233.877 208.782 234.225 208.653C234.946 208.389 235.627 208.032 236.252 207.591C239.982 204.949 241.153 200.125 242.783 195.895C243.641 193.696 244.664 191.563 245.842 189.512C246.117 189.026 246.401 188.545 246.689 188.066C253.952 176.065 265.35 166.147 269.71 152.801C273.406 141.489 273.653 129.408 273.868 117.528C274.579 78.3492 275.286 39.1715 274.6 0Z" fill="#75787B"/>
<path d="M178.9 138.384L178.688 138.532C178.708 138.544 178.768 138.512 178.9 138.384Z" fill="white"/>
<path d="M166.757 195.839L166.79 195.888C166.771 195.851 166.762 195.84 166.757 195.839Z" fill="white"/>
<path d="M171.116 144.736L171.125 144.726L171.154 144.664L171.116 144.736Z" fill="white"/>
<path d="M163.408 131.333L163.253 131.431C163.272 131.443 163.318 131.424 163.408 131.333Z" fill="white"/>
<path d="M144.33 168.188C144.336 168.2 144.34 168.215 144.346 168.226C144.339 168.198 144.335 168.19 144.33 168.188Z" fill="white"/>
<path d="M157.454 135.039L157.46 135.033L157.481 134.992L157.454 135.039Z" fill="white"/>
<path d="M154.99 140.683C154.864 140.626 155.26 140.309 155.051 140.29C155.606 139.468 156.523 139.225 156.398 138.621C156.69 138.281 156.856 138.325 157.038 138.178L156.982 138.273C157.538 137.649 157.701 137.467 158.147 137.026C158.33 136.769 158.19 136.569 158.624 136.211C158.565 136.405 158.714 136.229 158.859 136.086C158.777 136.192 158.773 136.246 159.011 136.094C159.023 136.039 159.044 135.987 159.075 135.94C159.081 135.94 159.094 135.94 159.096 135.951C159.317 135.68 159.252 135.702 159.129 135.808C159.129 135.793 159.101 135.789 159.047 135.808C159.391 135.636 159.747 135.083 159.897 135.161C160.596 134.376 161.004 133.731 161.544 133.042C161.67 133.027 161.589 133.226 161.44 133.436L161.84 132.958C161.926 133.044 161.649 133.267 161.536 133.424C162.185 133.011 162.433 132.178 163.152 131.654L163.198 131.455L163.245 131.427C163.204 131.395 163.281 131.204 163.353 131.096C163.514 131.072 163.533 131.262 163.811 130.932C164.154 130.601 164.44 130.218 164.659 129.798C164.488 129.969 164.493 129.871 164.532 129.77C164.666 129.603 164.825 129.571 164.894 129.414L165.021 129.486C164.863 129.469 165.262 128.958 165.266 128.863C165.425 128.833 165.128 129.18 165.155 129.272L165.954 128.248C166.158 127.823 165.794 128.232 165.827 127.985C166.031 127.615 166.274 127.266 166.553 126.946L166.363 126.992C166.615 126.47 166.972 126.003 167.413 125.62C168.515 122.965 168.329 122.554 167.932 122.784C167.527 123.096 167.167 123.461 166.863 123.87C166.273 124.58 165.734 125.33 165.25 126.114C164.725 127.005 164.15 127.867 163.526 128.695C162.757 129.545 162.214 130.036 161.691 130.552C161.031 131.158 160.411 131.803 159.832 132.484C159.024 133.292 158.222 134.21 157.452 135.03C157.216 135.541 156.419 136.084 156.092 136.651L155.839 136.752C155.731 136.96 155.573 137.138 155.378 137.272L155.365 137.241C155.197 137.531 154.904 137.759 154.823 137.907L154.809 137.875L154.544 138.174L154.558 138.093C154.235 138.551 153.86 138.972 153.441 139.347L153.568 139.405C152.702 140.123 152.642 140.613 151.836 141.242L151.821 141.212C151.569 141.705 151.222 142.145 150.798 142.506C150.357 142.867 150.008 143.324 149.777 143.84C149.843 143.684 149.681 143.855 149.663 143.827C149.326 144.334 148.953 144.863 149.156 145.018C148.889 145.369 148.875 145.259 148.758 145.248C148.846 145.306 148.676 145.654 148.491 145.943L148.542 145.788L148.029 146.63L148.315 146.584C147.976 146.984 148.023 146.556 147.79 146.999L147.944 147.088C147.502 147.659 147.094 147.912 146.622 148.459C146.433 148.773 146.249 149.096 146.069 149.422C145.889 149.747 145.761 150.104 145.611 150.448C145.302 151.133 145.033 151.834 144.805 152.55L144.116 154.645C143.923 155.341 143.669 156.003 143.463 156.655L143.306 156.742C143.103 156.755 143.425 157.537 143.225 157.601C143.233 157.71 143.237 157.818 143.25 157.928C143.202 158.009 143.134 158.187 143.124 158.024C143.084 158.194 143.084 158.371 143.124 158.541L142.953 158.833C142.823 159.371 142.759 159.922 142.762 160.475L142.727 161.299C142.727 161.579 142.713 161.867 142.683 162.171C142.418 164.08 142.485 166.019 142.882 167.906C143.083 169.053 143.198 170.214 143.225 171.378C143.255 172.559 143.465 173.729 143.85 174.849C143.854 174.943 143.894 175.032 143.962 175.098C144.112 175.768 144.279 176.433 144.443 177.1C144.443 177.1 144.505 177.327 144.609 177.679C145.115 177.952 145.637 178.206 146.168 178.434C146.327 178.875 146.491 179.314 146.66 179.751C146.642 179.501 146.622 179.252 146.596 178.954L146.651 178.989C146.527 178.141 146.256 177.321 145.848 176.564C146.072 176.382 145.65 175.683 145.669 175.413L145.696 175.431C145.316 174.829 145.55 174.052 145.225 173.464C145.261 173.475 145.293 173.497 145.318 173.525C145.342 173.554 145.357 173.589 145.362 173.626C145.218 173.177 145.057 172.554 145.196 172.492C145.07 171.948 144.956 171.288 144.853 170.679C144.774 170.164 144.643 169.659 144.463 169.17L144.51 169.214C144.299 168.826 144.425 168.691 144.289 168.245C144.306 168.219 144.312 168.185 144.321 168.19C144.204 167.647 144.131 167.095 144.102 166.541L144.201 166.512L144.147 165.628L144.136 165.96C143.856 165.854 144.283 165.286 144.093 164.648C144.142 164.053 143.514 163.417 143.686 162.787C143.575 162.482 143.883 163.06 143.813 162.609C143.96 162.6 143.892 162.821 144.014 162.711C143.973 162.27 144.206 162.004 144.141 161.464L144.255 161.452C144.128 160.734 144.545 160.154 144.407 159.668C144.432 158.94 144.819 159.242 144.723 158.466L144.92 158.207C145.005 157.899 144.783 157.948 144.932 157.615C145.022 157.655 145.105 157.193 145.15 157.414C145.303 156.535 145.545 155.673 145.874 154.842C145.774 154.572 146.064 154.107 145.989 153.901C146.077 153.901 146.369 152.904 146.33 153.527C146.33 153.579 146.293 153.664 146.266 153.652L146.345 153.756C146.52 153.529 146.628 153.258 146.658 152.975C146.681 152.838 146.696 152.698 146.727 152.561C146.764 152.422 146.816 152.288 146.882 152.161C146.774 152.306 146.684 152.523 146.68 152.351L146.933 151.853L146.97 151.994L147.368 151.27L147.214 151.325C147.44 150.982 147.677 150.943 147.721 150.453C147.721 150.225 147.42 150.731 147.568 150.328C147.904 149.888 148.41 149.242 148.778 148.66C148.633 148.651 148.73 148.492 148.8 148.311L148.908 148.35C149.177 147.654 149.269 148.255 149.563 147.583L149.595 147.679L149.502 147.392C149.68 146.72 149.894 147.226 150.045 146.446C149.9 146.695 149.76 146.42 150.004 146.15L150.041 146.286C150.088 146.162 150.155 146.045 150.24 145.941C150.217 146.066 150.332 146.082 150.493 145.839L150.487 146.073L150.655 145.517C151.006 145.245 151.295 144.62 151.523 144.572L151.841 144.206C151.996 144.047 152.108 143.854 152.168 143.642C152.131 143.849 152.487 143.486 152.49 143.673C152.62 143.278 152.868 142.93 153.203 142.676L153.18 142.726C153.972 142.029 154.233 141.272 154.99 140.683Z" fill="white"/>
<path d="M111.615 142.766L111.629 142.866C111.646 142.849 111.649 142.819 111.615 142.766Z" fill="white"/>
<path d="M111.778 146.361L111.758 146.349L111.778 146.361Z" fill="white"/>
<path d="M115.114 152.861L115.19 152.904L115.114 152.861Z" fill="white"/>
<path d="M114.94 152.202C114.946 152.354 114.687 152.257 114.749 152.077L114.854 152.129C114.841 152.025 114.795 151.99 114.817 151.923C114.876 151.985 114.977 151.961 114.958 151.808L115.095 151.914L114.895 151.622C115.012 151.4 114.865 151.052 115.021 150.956C115.021 150.956 115.061 150.474 114.883 150.378C114.996 150.465 115.01 150.2 115.144 150.263C115.067 150.181 115.012 150.081 114.984 149.971C114.957 149.862 114.958 149.748 114.987 149.64L115.005 149.665C115.049 149.104 114.694 148.777 114.725 148.276C114.598 148.327 114.612 148.062 114.463 148.163C114.209 147.724 114.532 147.194 113.991 147.176C113.896 146.973 114.029 146.885 114.014 146.766L114.058 146.807C113.919 146.556 113.801 146.294 113.706 146.023C113.6 145.899 113.376 145.967 113.305 145.698C113.431 145.739 113.366 145.644 113.32 145.551C113.363 145.604 113.405 145.608 113.402 145.459C113.369 145.451 113.338 145.437 113.311 145.416C113.317 145.416 113.32 145.404 113.331 145.402C113.224 145.26 113.205 145.3 113.234 145.379C113.219 145.379 113.205 145.395 113.192 145.429C113.224 145.214 112.964 144.985 113.099 144.89C112.823 144.531 112.514 144.198 112.177 143.893C112.222 143.807 112.342 143.849 112.441 143.935L112.239 143.698C112.343 143.633 112.399 143.807 112.474 143.872C112.419 143.463 111.895 143.347 111.765 142.91L111.639 142.898V142.869C111.6 142.9 111.484 142.869 111.431 142.829C111.475 142.717 111.626 142.682 111.484 142.519C111.461 142.317 111.135 142.18 110.937 142.061C111.005 142.16 110.937 142.171 110.872 142.159C110.796 142.085 110.832 141.969 110.746 141.939L110.843 141.835C110.773 141.959 110.546 141.732 110.477 141.745C110.51 141.62 110.656 141.801 110.73 141.766C110.583 141.609 110.424 141.463 110.254 141.33C110.01 141.254 110.191 141.454 110.025 141.472C109.856 141.358 109.645 141.303 109.535 141.088L109.505 141.231C109.321 141.155 109.154 141.043 109.017 140.9C108.897 141.024 108.776 141.14 108.658 141.262C108.447 141.482 108.236 141.702 108.024 141.924C108.612 142.274 109.18 142.655 109.726 143.066C110.377 143.872 110.329 144.233 110.993 145.047C111.115 145.272 111.25 145.491 111.396 145.703C111.531 145.922 111.657 146.147 111.776 146.361C112.068 146.486 112.029 146.955 112.29 147.153L112.228 147.291C112.274 147.32 112.311 147.361 112.333 147.41C112.356 147.459 112.363 147.514 112.355 147.567H112.323C112.45 147.678 112.45 147.847 112.508 147.902H112.475L112.542 148.064L112.489 148.048C112.638 148.25 112.722 148.493 112.728 148.744L112.855 148.695C112.832 149.194 113.119 149.327 113.015 149.792H112.982C113.064 149.889 113.119 150.005 113.141 150.129C113.163 150.254 113.152 150.381 113.108 150.5C113.072 150.621 113.06 150.747 113.074 150.873C113.087 150.998 113.126 151.119 113.188 151.229C113.148 151.158 113.12 151.261 113.088 151.256C113.125 151.516 113.144 151.798 113.404 151.81C113.404 152.006 113.321 151.966 113.218 151.987C113.332 151.987 113.366 152.162 113.359 152.315L113.321 152.242V152.679L113.543 152.616C113.461 152.844 113.277 152.647 113.31 152.875L113.487 152.894C113.402 153.212 113.098 153.356 112.921 153.629C112.85 153.936 112.76 154.243 112.71 154.564C112.661 154.886 112.561 155.199 112.488 155.518C112.395 155.828 112.281 156.131 112.144 156.425C112 156.702 111.818 156.958 111.602 157.186L111.461 157.165C111.289 157.087 111.53 157.587 111.351 157.533V157.696C111.3 157.711 111.225 157.758 111.225 157.677C111.147 157.779 111.173 157.802 111.17 157.91L110.995 157.956C110.615 158.297 110.553 158.793 110.144 159.153C109.467 159.682 108.857 160.289 108.328 160.962C108.162 161.161 107.959 161.327 107.729 161.451C107.482 161.564 107.228 161.663 106.969 161.746C106.716 161.844 106.44 161.895 106.2 161.996C105.959 162.092 105.734 162.222 105.53 162.381C105.53 162.381 105.519 162.381 105.514 162.381C105.859 162.597 106.224 162.782 106.603 162.933C106.969 163.074 107.346 163.186 107.731 163.266C107.833 163.206 107.937 163.141 108.032 163.078C108.278 162.943 108.481 162.742 108.616 162.499V162.548C108.695 162.299 108.825 162.371 108.968 162.174C108.991 162.183 109.01 162.18 109.013 162.189C109.109 161.939 109.532 161.77 109.628 161.595L109.703 161.665L110.039 161.357L109.894 161.45C109.755 161.208 110.274 161.362 110.391 160.996C110.644 160.799 110.439 160.175 110.736 160.033C110.736 159.836 110.804 160.273 110.879 160.04C110.991 160.131 110.879 160.178 111.005 160.213C111.102 160.003 111.361 160.038 111.472 159.77L111.565 159.834C111.636 159.432 112.105 159.389 112.097 159.086C112.249 158.742 112.523 159.076 112.558 158.63L112.77 158.585C112.884 158.46 112.679 158.385 112.844 158.269C112.92 158.329 113.039 158.112 113.056 158.251C113.214 158.089 113.321 157.887 113.367 157.667C113.44 157.419 113.58 157.195 113.771 157.018C113.652 156.829 113.868 156.62 113.771 156.483C113.854 156.502 114.012 155.977 114.05 156.329C114.05 156.361 114.029 156.403 114.001 156.388L114.088 156.465C114.421 156.248 114.188 155.874 114.33 155.593C114.262 155.67 114.229 155.79 114.185 155.687L114.298 155.417L114.366 155.503C114.437 155.372 114.499 155.238 114.554 155.1L114.427 155.126C114.54 154.937 114.75 154.912 114.653 154.635C114.592 154.511 114.45 154.794 114.471 154.567C114.564 154.416 114.648 154.262 114.725 154.103C114.803 153.925 114.869 153.742 114.921 153.556C114.786 153.569 114.807 153.472 114.794 153.37H114.909C114.816 152.966 115.187 153.261 115.1 152.859L114.949 152.774C114.768 152.414 115.214 152.607 114.94 152.202Z" fill="white"/>
<path d="M157.105 193.541L157.097 193.555L157.105 193.541Z" fill="white"/>
<path d="M160.462 191.644L160.497 191.573L160.462 191.644Z" fill="white"/>
<path d="M173.339 199.899L173.438 199.942C173.434 199.91 173.405 199.899 173.339 199.899Z" fill="white"/>
<path d="M176.663 201.846L176.639 201.855L176.663 201.846Z" fill="white"/>
<path d="M189.732 216.819C189.723 216.197 189.577 215.584 189.305 215.022L189.35 215.042C189.153 214.849 189.282 214.764 189.16 214.535C189.177 214.519 189.184 214.5 189.193 214.501C188.989 214.293 189.041 213.818 188.931 213.642L189.029 213.61L188.902 213.148L188.92 213.327C188.635 213.327 189.015 212.934 188.749 212.64C188.706 212.312 188.017 212.158 188.057 211.806C187.887 211.691 188.299 211.88 188.137 211.681C188.274 211.632 188.255 211.761 188.348 211.669C188.213 211.466 188.371 211.259 188.187 211.012L188.291 210.965C187.97 210.674 188.188 210.237 187.911 210.068C187.674 209.739 188.123 209.694 187.758 209.4L187.832 209.193C187.78 209.021 187.607 209.153 187.592 208.944C187.686 208.915 187.558 208.686 187.69 208.752C187.628 208.281 187.095 208.036 187.024 207.404C186.803 207.382 186.738 207.076 186.568 207.065C186.631 207.01 186.268 206.554 186.594 206.745C186.622 206.761 186.646 206.806 186.617 206.819L186.732 206.796C186.732 206.393 186.294 206.341 186.138 206.048C186.163 206.15 186.244 206.253 186.131 206.224C186.078 206.135 186.025 206.046 185.967 205.96H186.082L185.849 205.555L185.793 205.674C185.707 205.458 185.817 205.272 185.523 205.175C185.378 205.14 185.535 205.437 185.356 205.272C185.206 204.912 185.015 204.569 184.787 204.25C184.714 204.365 184.65 204.28 184.555 204.221L184.63 204.137C184.226 203.945 184.704 203.857 184.324 203.645L184.16 203.703C183.736 203.603 184.178 203.396 183.665 203.329C183.792 203.427 183.55 203.561 183.438 203.391L183.55 203.345C183.453 203.286 183.396 203.295 183.354 203.231C183.444 203.231 183.481 203.138 183.354 203.046L183.529 203.016L183.161 202.965C183.058 202.715 182.665 202.591 182.681 202.42C182.681 202.42 182.314 202.046 182.113 202.117C182.26 202.092 182.047 201.899 182.185 201.845C182.062 201.848 181.94 201.821 181.83 201.767C181.719 201.713 181.624 201.633 181.552 201.535H181.586C181.145 201.11 180.624 201.173 180.22 200.802C180.184 200.926 179.959 200.746 179.95 200.926C179.399 200.838 179.151 200.233 178.788 200.633C178.547 200.582 178.551 200.429 178.438 200.364L178.503 200.357C178.048 200.248 177.916 200.232 177.584 200.129C177.404 200.136 177.331 200.352 177.041 200.24C177.158 200.166 177.032 200.16 176.914 200.137C176.989 200.137 177.018 200.107 176.882 200.013C176.855 200.035 176.822 200.051 176.787 200.058C176.787 200.05 176.787 200.044 176.787 200.034C176.592 200.034 176.62 200.065 176.705 200.095C176.697 200.109 176.705 200.129 176.724 200.16C176.553 199.994 176.18 200.081 176.18 199.91C175.921 199.889 175.66 199.903 175.404 199.95L174.708 200.056C174.658 199.971 174.77 199.899 174.911 199.869L174.57 199.894C174.57 199.769 174.768 199.828 174.873 199.807C174.67 199.729 174.445 199.726 174.24 199.798C174.021 199.879 173.784 199.894 173.557 199.841L173.466 199.939L173.436 199.925C173.436 199.974 173.343 200.05 173.275 200.077C173.199 199.98 173.258 199.837 173.022 199.868C172.822 199.783 172.499 199.979 172.272 200.082C172.399 200.082 172.372 200.142 172.324 200.188C172.21 200.211 172.124 200.12 172.044 200.18L172.005 200.044C172.075 200.161 171.734 200.245 171.707 200.314C171.617 200.228 171.862 200.19 171.874 200.1L171.19 200.287C170.979 200.46 171.27 200.4 171.19 200.555C171.004 200.69 170.786 200.776 170.557 200.804L170.675 200.898C170.429 201.093 170.122 201.198 169.806 201.192C169.706 201.287 169.619 201.376 169.54 201.464C168.883 199.994 168.15 198.559 167.343 197.164L167.41 197.215C167.15 196.803 166.927 196.369 166.744 195.919C166.744 195.877 166.744 195.829 166.751 195.834C166.372 195.11 166.043 194.363 165.766 193.596L165.848 193.529C165.682 193.127 165.529 192.721 165.374 192.314L165.52 192.781C165.206 192.711 165.336 191.8 164.874 190.962C164.62 190.119 163.764 189.426 163.63 188.501C163.384 188.113 163.94 188.815 163.664 188.21C163.798 188.151 163.835 188.48 163.901 188.286C163.659 187.686 163.748 187.237 163.46 186.494L163.561 186.435C163.094 185.485 163.248 184.513 162.91 183.886C162.615 182.86 163.082 183.128 162.678 182.081L162.756 181.633C162.702 181.165 162.502 181.33 162.502 180.801C162.602 180.819 162.485 180.137 162.619 180.427C162.392 179.131 162.269 177.819 162.25 176.504C162.047 176.179 162.123 175.393 161.971 175.147C162.047 175.102 161.972 173.581 162.154 174.455C162.169 174.529 162.168 174.663 162.135 174.654L162.248 174.756C162.329 174.348 162.333 173.929 162.262 173.518C162.201 173.11 162.176 172.697 162.186 172.284C162.143 172.541 162.143 172.886 162.073 172.658C162.088 172.388 162.089 172.117 162.117 171.848L162.2 172.02L162.326 170.821L162.2 170.979C162.29 170.391 162.525 170.207 162.425 169.53C162.366 169.22 162.212 170.07 162.24 169.446C162.404 168.666 162.692 167.516 162.924 166.538C162.779 166.607 162.832 166.341 162.86 166.062L162.977 166.052C163.064 164.978 163.307 165.724 163.423 164.667L163.478 164.777L163.318 164.45C163.356 163.468 163.668 164.01 163.673 162.907C163.566 163.314 163.374 163.031 163.575 162.543L163.641 162.7C163.664 162.508 163.707 162.32 163.768 162.136C163.768 162.317 163.895 162.269 164 161.86L164.047 162.171C164.058 161.897 164.083 161.625 164.107 161.352C164.267 161.034 164.4 160.704 164.505 160.365C164.575 160.107 164.696 159.866 164.861 159.654C164.861 159.654 164.995 159.35 165.132 159.007C165.272 158.724 165.362 158.42 165.396 158.107C165.388 158.394 165.711 157.733 165.743 157.975C165.837 157.387 166.061 156.827 166.399 156.333L166.378 156.408C167.162 155.116 167.381 154.023 168.204 152.917C168.059 152.907 168.477 152.319 168.242 152.39C168.823 151.09 169.889 150.384 169.726 149.68C169.933 149.373 170.181 149.094 170.463 148.852L170.401 148.994C170.828 148.297 171.291 147.623 171.788 146.973C172.016 146.585 171.857 146.382 172.394 145.778C172.31 146.039 172.498 145.769 172.683 145.528C172.576 145.69 172.569 145.758 172.861 145.483C172.88 145.409 172.909 145.337 172.947 145.27C172.955 145.27 172.969 145.264 172.973 145.276C173.253 144.859 173.175 144.91 173.022 145.086C173.022 145.068 172.992 145.072 172.926 145.113C173.34 144.774 173.829 143.972 173.995 144.022C174.92 142.828 175.494 141.903 176.283 140.906C176.441 140.855 176.302 141.124 176.084 141.419L176.654 140.73C176.742 140.815 176.365 141.159 176.202 141.381C177.055 140.712 177.513 139.612 178.504 138.817L178.61 138.568L178.672 138.525C178.632 138.493 178.774 138.242 178.888 138.094C179.088 138.037 179.057 138.266 179.482 137.815C179.979 137.349 180.427 136.834 180.817 136.278C180.564 136.514 180.597 136.394 180.674 136.262C180.889 136.037 181.089 135.981 181.225 135.779L181.352 135.857C181.168 135.85 181.819 135.181 181.858 135.06C182.06 135.008 181.585 135.464 181.587 135.575L182.893 134.241C183.289 133.697 182.712 134.232 182.848 133.921C183.23 133.442 183.658 133.002 184.127 132.605L183.885 132.666C184.41 132.011 185.028 131.433 185.72 130.951C190.945 124.526 185.982 128.751 185.982 128.751C183.767 130.688 181.71 132.793 179.829 135.046C178.61 136.241 177.815 136.977 177.023 137.74C176.063 138.664 175.162 139.645 174.326 140.677C173.201 141.947 172.094 143.38 171.113 144.718C170.785 145.452 169.808 146.463 169.408 147.32L169.109 147.554C168.978 147.87 168.794 148.162 168.565 148.418L168.55 148.384C168.347 148.824 168.017 149.257 167.923 149.478L167.907 149.444L167.605 149.943L167.62 149.834C167.251 150.567 166.843 151.279 166.397 151.969L166.542 151.977C166.175 152.496 165.863 153.05 165.61 153.632C165.367 154.174 165.085 154.699 164.766 155.202L164.746 155.17C164.516 155.938 164.194 156.677 163.788 157.37C163.616 157.698 163.44 158.029 163.281 158.396C163.12 158.8 162.995 159.217 162.91 159.643C162.957 159.406 162.809 159.715 162.784 159.687C162.523 160.529 162.231 161.425 162.483 161.517C162.291 162.126 162.251 161.991 162.131 162.042C162.246 162.072 162.112 162.611 161.993 163.095L162.011 162.862L161.676 164.252L161.958 164.033C161.704 164.748 161.654 164.157 161.538 164.875L161.713 164.905C161.438 165.911 161.069 166.466 160.764 167.452C160.415 169.585 160.287 171.748 160.384 173.906C160.45 176.06 160.649 178.156 160.751 180.118L160.644 180.307C160.463 180.41 161.08 181.339 160.929 181.511L161.095 181.946C161.082 182.078 161.095 182.35 161.01 182.134C161.04 182.38 161.11 182.62 161.218 182.845C161.203 183.001 161.196 183.154 161.186 183.31C161.502 184.888 161.905 186.447 162.393 187.982C162.648 189.326 163.03 190.644 163.534 191.918C163.829 192.688 164.147 193.455 164.455 194.162L164.338 194.085L164.382 194.151C164.186 194.347 164.373 193.916 164.14 193.968C164.047 193.854 163.572 194.252 163.537 194.069C163.411 194.135 163.71 193.931 163.569 193.955C163.65 193.83 163.66 193.909 163.707 193.802C163.58 193.802 163.655 193.587 163.497 193.597L163.556 193.501C163.303 193.582 163.375 193.213 163.176 193.319C162.986 193.309 163.252 192.976 162.985 193.07L163 192.904C162.946 192.846 162.861 193.039 162.823 192.934C162.875 192.853 162.767 192.809 162.854 192.76C162.749 192.539 162.41 192.766 162.289 192.433C162.163 192.577 162.089 192.425 161.994 192.535C162.021 192.459 161.765 192.419 161.968 192.317C161.984 192.309 162.004 192.317 161.989 192.348L162.05 192.256C161.998 192.006 161.756 192.256 161.636 192.175C161.662 192.225 161.718 192.237 161.655 192.293L161.536 192.23L161.595 192.154C161.539 192.112 161.484 192.07 161.427 192.029L161.413 192.145C161.341 192.059 161.372 191.863 161.213 191.98C161.135 192.05 161.249 192.156 161.139 192.156C161.03 192.01 160.894 191.886 160.738 191.791C160.716 191.915 160.674 191.902 160.622 191.916L160.648 191.807C160.435 191.907 160.648 191.55 160.444 191.626L160.374 191.77C160.166 191.947 160.345 191.52 160.102 191.776C160.174 191.776 160.076 192.025 160.007 191.957L160.051 191.857C160 191.868 159.975 191.909 159.95 191.882C159.989 191.829 159.998 191.731 159.926 191.736L160 191.611L159.829 191.78C159.752 191.647 159.566 191.76 159.552 191.603C159.552 191.603 159.345 191.497 159.271 191.654C159.33 191.558 159.215 191.502 159.271 191.386C159.196 191.493 159.017 191.564 158.965 191.436L158.981 191.422C158.741 191.27 158.537 191.547 158.326 191.387C158.326 191.512 158.214 191.439 158.234 191.606C158.005 191.753 157.823 191.26 157.735 191.768C157.634 191.795 157.609 191.644 157.56 191.62L157.584 191.593C157.457 191.633 157.324 191.649 157.191 191.64C157.121 191.692 157.123 191.928 156.994 191.882C157.03 191.785 156.979 191.806 156.931 191.81C156.96 191.792 156.968 191.756 156.9 191.699C156.895 191.722 156.885 191.744 156.87 191.762C156.869 191.755 156.869 191.747 156.87 191.74C156.794 191.778 156.81 191.807 156.847 191.817C156.848 191.838 156.854 191.858 156.865 191.876C156.772 191.76 156.638 191.901 156.612 191.74C156.411 191.832 156.221 191.948 156.048 192.084C156.032 192.05 156.029 192.011 156.038 191.975C156.048 191.939 156.069 191.906 156.098 191.883L155.964 191.935C155.945 191.811 156.033 191.854 156.072 191.823C155.873 191.661 155.763 192.073 155.538 191.933L155.517 192.035L155.503 192.021C155.506 192.047 155.504 192.074 155.497 192.099C155.49 192.124 155.478 192.148 155.461 192.169C155.412 192.073 155.411 191.932 155.317 191.959C155.217 191.874 155.113 192.056 155.03 192.137C155.087 192.137 155.085 192.201 155.072 192.242C155.027 192.258 154.972 192.164 154.946 192.217L154.904 192.081C154.957 192.206 154.819 192.252 154.819 192.312C154.763 192.218 154.866 192.206 154.857 192.127C154.671 192.19 154.763 192.156 154.581 192.226C154.514 192.358 154.638 192.351 154.628 192.482C154.55 192.534 154.501 192.654 154.374 192.606L154.447 192.716C154.32 192.86 154.227 192.882 154.075 192.799C154.047 192.851 154.027 192.897 154.004 192.944C154.287 193.32 154.575 193.694 154.867 194.066C155.021 193.906 155.2 193.769 155.395 193.661C155.85 193.612 156.009 193.833 156.439 193.661C156.661 193.636 156.879 193.594 157.094 193.536C157.184 193.335 157.375 193.521 157.492 193.357L157.541 193.463C157.582 193.407 157.631 193.37 157.668 193.429V193.46C157.731 193.38 157.795 193.429 157.833 193.389V193.42L157.909 193.408L157.895 193.451C157.939 193.415 157.992 193.391 158.05 193.384C158.107 193.377 158.165 193.387 158.217 193.413V193.288C158.419 193.443 158.522 193.186 158.698 193.377L158.692 193.408C158.982 193.094 159.037 193.687 159.338 193.408C159.298 193.441 159.338 193.476 159.33 193.506C159.449 193.493 159.575 193.496 159.632 193.247C159.717 193.267 159.684 193.339 159.672 193.438C159.675 193.418 159.682 193.399 159.693 193.382C159.703 193.365 159.717 193.351 159.734 193.339C159.75 193.327 159.769 193.319 159.788 193.315C159.808 193.31 159.828 193.31 159.848 193.313L159.808 193.348L160.004 193.357L160.021 193.142C160.107 193.226 159.981 193.399 160.09 193.372L160.135 193.202C160.261 193.276 160.273 193.555 160.361 193.714C160.852 193.941 161.604 193.772 161.932 194.297L161.889 194.421C161.804 194.593 162.153 194.242 162.083 194.408L162.181 194.36C162.181 194.399 162.191 194.449 162.143 194.471C162.187 194.505 162.203 194.479 162.269 194.448L162.259 194.58C162.395 194.774 162.682 194.673 162.847 194.849C162.938 195.197 163.474 195.336 163.797 195.446C164.057 195.482 164.149 195.733 164.226 195.977C164.304 196.222 164.373 196.458 164.637 196.519C164.626 196.548 164.697 196.537 164.713 196.519C164.794 196.625 164.868 196.736 164.938 196.847C165.094 197.067 165.292 197.255 165.521 197.4C165.586 197.435 165.658 197.455 165.731 197.459C165.805 197.464 165.879 197.451 165.947 197.423C166.854 200.066 167.983 202.629 169.323 205.087C169.369 205.208 169.446 205.315 169.547 205.398L170.78 207.821C171.455 208.217 172.143 208.602 172.842 208.975C173.323 210.144 173.906 211.271 174.584 212.341C174.411 211.81 174.185 211.165 173.9 210.39L173.972 210.435C173.495 209.272 172.871 208.173 172.116 207.163C172.267 206.888 171.522 205.974 171.423 205.6L171.459 205.621C170.825 204.835 170.682 203.74 170.097 202.97C170.133 202.993 170.206 202.981 170.307 203.174C170.219 203.016 170.122 202.843 170.029 202.675C170.409 202.583 170.774 202.435 171.11 202.237C171.537 201.979 171.996 201.778 172.476 201.641C172.708 201.607 172.944 201.597 173.178 201.611C173.381 201.621 173.558 201.628 173.733 201.654C174.153 201.7 174.577 201.714 175 201.696C175.536 201.75 176.116 201.762 176.647 201.849C176.939 201.704 177.327 202.009 177.66 201.937L177.739 202.076C177.794 202.06 177.853 202.057 177.91 202.07C177.967 202.082 178.019 202.108 178.063 202.146L178.045 202.173C178.222 202.139 178.364 202.257 178.452 202.244L178.434 202.272L178.615 202.326L178.567 202.356C178.837 202.376 179.095 202.47 179.313 202.627L179.352 202.502C179.755 202.869 180.066 202.722 180.386 203.126L180.364 203.149C181.078 203.182 181.026 203.862 181.719 203.982C181.632 203.966 181.704 204.054 181.678 204.075C181.932 204.228 182.171 204.416 182.349 204.226C182.511 204.367 182.425 204.402 182.379 204.492C182.455 204.408 182.622 204.502 182.75 204.617L182.664 204.595C182.791 204.696 182.917 204.791 183.037 204.9L183.123 204.683C183.26 204.911 182.982 204.911 183.19 205.057L183.316 204.932C183.544 205.209 183.479 205.545 183.601 205.881C184.025 206.434 184.542 206.952 184.989 207.523C185.445 208.058 185.778 208.683 185.965 209.356L185.87 209.465C185.707 209.567 186.283 209.671 186.141 209.791L186.287 209.894C186.273 209.947 186.276 210.043 186.204 209.992C186.257 210.117 186.285 210.117 186.378 210.184L186.324 210.37C186.451 210.91 186.831 211.278 186.966 211.852C187.103 212.784 187.368 213.692 187.753 214.554C188.246 215.591 187.604 216.932 187.991 218.008C187.966 218.046 188.033 218.133 188.056 218.133C188.056 218.473 188.066 218.814 188.056 219.154L188.068 219.72C188.614 219.658 189.155 219.559 189.686 219.423C189.661 219.293 189.616 219.166 189.552 219.049C189.817 218.982 189.567 218.568 189.648 218.426L189.67 218.438C189.459 218.089 189.796 217.69 189.603 217.357C189.624 217.369 189.698 217.372 189.706 217.451C189.668 217.189 189.581 216.854 189.732 216.819ZM164.465 194.289L164.501 194.243L164.536 194.32C164.516 194.303 164.491 194.292 164.465 194.289V194.289Z" fill="white"/>
<path d="M184.319 203.639L184.4 203.611L184.319 203.639Z" fill="white"/>
<path d="M229.002 206.19L228.985 206.073C228.964 206.088 228.962 206.121 229.002 206.19Z" fill="white"/>
<path d="M229.059 201.995L229.078 202.015L229.059 201.995Z" fill="white"/>
<path d="M245.871 187.98C245.871 187.703 245.332 187.814 245.197 187.697L245.216 187.679C244.769 187.768 244.4 187.343 243.967 187.441C243.986 187.424 244.008 187.354 244.1 187.368C243.801 187.352 243.392 187.358 243.389 187.203C243.035 187.171 242.609 187.136 242.215 187.12C241.879 187.095 241.542 187.147 241.228 187.269L241.26 187.228C241.007 187.393 240.927 187.256 240.641 187.34C240.624 187.322 240.604 187.312 240.606 187.303C240.334 187.475 239.792 187.371 239.573 187.462L239.547 187.365L238.995 187.453H239.205C239.17 187.733 238.76 187.328 238.388 187.577C237.999 187.6 237.755 188.283 237.361 188.237C237.215 188.402 237.465 187.999 237.223 188.156C237.177 188.02 237.325 188.04 237.223 187.945C236.978 188.078 236.75 187.928 236.452 188.115L236.404 188.012C236.051 188.341 235.558 188.146 235.353 188.437C234.973 188.703 234.932 188.255 234.584 188.648L234.348 188.598C234.152 188.671 234.301 188.83 234.063 188.869C234.03 188.778 233.768 188.934 233.844 188.794C233.304 188.919 233.038 189.496 232.334 189.683C232.316 189.91 231.983 190.039 231.98 190.215C231.916 190.162 231.429 190.625 231.622 190.254C231.638 190.223 231.688 190.188 231.704 190.215L231.671 190.102C231.218 190.178 231.2 190.654 230.886 190.878C230.997 190.828 231.105 190.721 231.08 190.843C230.987 190.919 230.892 190.992 230.806 191.075L230.795 190.951L230.374 191.292L230.51 191.32C230.283 191.463 230.066 191.394 229.994 191.729C229.974 191.888 230.274 191.646 230.121 191.876C229.976 191.98 229.793 192.11 229.614 192.258C229.436 192.415 229.267 192.582 229.107 192.757C229.234 192.801 229.158 192.891 229.107 193.006L229.006 192.954C228.869 193.435 228.7 192.96 228.537 193.424L228.625 193.577C228.593 194.052 228.302 193.658 228.327 194.217C228.404 194.046 228.589 194.263 228.433 194.434L228.365 194.333C228.323 194.458 228.339 194.509 228.284 194.573C228.265 194.48 228.157 194.465 228.094 194.642L228.028 194.468L228.051 194.874C227.815 195.066 227.781 195.521 227.6 195.568C227.6 195.568 227.299 196.091 227.43 196.276C227.368 196.131 227.229 196.429 227.14 196.303C227.172 196.436 227.176 196.575 227.152 196.71C227.128 196.846 227.076 196.974 226.999 197.089L226.993 197.052C226.695 197.685 226.918 198.211 226.694 198.797C226.821 198.782 226.731 199.095 226.905 199.03C226.926 199.307 226.899 199.585 226.826 199.853C226.786 200.086 226.791 200.274 227.052 200.372C227.1 200.646 226.957 200.707 226.943 200.854L226.911 200.789C226.992 201.311 227.037 201.456 227.085 201.842C227.173 202.024 227.4 202.009 227.43 202.349C227.31 202.263 227.361 202.395 227.393 202.52C227.358 202.444 227.317 202.426 227.296 202.606C227.33 202.624 227.359 202.651 227.38 202.683C227.374 202.683 227.37 202.694 227.359 202.693C227.445 202.894 227.464 202.849 227.453 202.749C227.468 202.749 227.484 202.738 227.502 202.701C227.427 202.95 227.691 203.288 227.54 203.364C227.645 203.636 227.787 203.893 227.962 204.128L228.417 204.771C228.369 204.861 228.245 204.784 228.143 204.659L228.346 204.983C228.236 205.036 228.181 204.82 228.105 204.725C228.146 204.961 228.261 205.179 228.433 205.348C228.626 205.526 228.769 205.749 228.848 205.997L228.987 206.039V206.074C229.026 206.047 229.155 206.104 229.215 206.158C229.172 206.282 229.01 206.29 229.173 206.502C229.216 206.635 229.3 206.753 229.414 206.837C229.54 206.939 229.691 207.03 229.801 207.115C229.719 206.99 229.795 206.99 229.865 207.015C229.953 207.111 229.923 207.237 230.024 207.285L229.926 207.389C229.988 207.265 230.268 207.546 230.349 207.535C230.326 207.66 230.137 207.454 230.055 207.485L230.641 208.031C230.926 208.141 230.692 207.907 230.879 207.898C231.117 208.003 231.329 208.159 231.498 208.354L231.508 208.2C231.84 208.322 232.127 208.539 232.333 208.823C232.606 208.894 232.885 208.942 233.167 208.968C233.529 208.883 233.884 208.776 234.232 208.647C234.228 208.612 234.217 208.579 234.201 208.547C234.12 208.386 234.004 208.244 233.862 208.132C233.794 208.075 233.735 208.028 233.686 207.994C233.66 207.976 233.635 207.957 233.612 207.935C233.423 207.762 233.219 207.604 233.003 207.465C232.814 207.338 232.617 207.221 232.414 207.116C231.916 206.863 231.458 206.54 231.054 206.158C230.887 205.956 230.742 205.737 230.622 205.506C230.521 205.327 230.43 205.143 230.351 204.953C230.188 204.596 230.023 204.244 229.718 203.698C229.613 203.417 229.472 203.142 229.371 202.851C229.252 202.573 229.15 202.287 229.067 201.996C228.941 201.859 228.869 201.682 228.866 201.497C228.848 201.304 228.795 201.115 228.708 200.94L228.806 200.801C228.768 200.75 228.743 200.692 228.731 200.63C228.72 200.568 228.723 200.505 228.74 200.444H228.771C228.666 200.28 228.73 200.085 228.683 200.001L228.714 200.008L228.699 199.802L228.745 199.837C228.662 199.552 228.659 199.251 228.736 198.964L228.609 198.973C228.83 198.418 228.584 198.154 228.888 197.674L228.917 197.689C228.883 197.543 228.883 197.391 228.917 197.245C228.95 197.099 229.016 196.962 229.11 196.844C229.296 196.601 229.396 196.304 229.393 196C229.393 196.097 229.47 195.992 229.496 196.012C229.597 195.708 229.735 195.389 229.506 195.272C229.613 195.057 229.67 195.137 229.771 195.156C229.67 195.105 229.733 194.906 229.822 194.737V194.833C229.903 194.674 229.971 194.507 230.066 194.355L229.826 194.33C230.04 194.123 230.088 194.409 230.197 194.155L230.047 194.06C230.294 193.742 230.665 193.718 230.996 193.503C231.518 192.927 232.01 192.277 232.59 191.711C233.131 191.143 233.798 190.706 234.539 190.435L234.666 190.516C234.781 190.669 234.886 190.083 235.022 190.213L235.134 190.057C235.193 190.066 235.298 190.057 235.243 190.13C235.386 190.064 235.377 190.041 235.457 189.941L235.662 189.983C235.807 189.944 235.948 189.89 236.081 189.822C236.217 189.766 236.346 189.698 236.476 189.633C236.743 189.478 237.032 189.364 237.334 189.296C237.852 189.27 238.365 189.187 238.863 189.047C239.427 188.912 240.003 188.775 240.442 188.688C240.753 188.609 241.076 188.585 241.396 188.618C241.728 188.659 242.058 188.723 242.381 188.809C243.004 189.015 243.655 189.126 244.312 189.135C244.346 189.17 244.463 189.129 244.466 189.108C244.838 189.204 245.211 189.289 245.574 189.409L245.795 189.473L245.869 189.493C246.144 189.007 246.427 188.526 246.716 188.047C246.445 187.955 246.154 187.931 245.871 187.98V187.98Z" fill="white"/>
<path d="M228.529 193.424L228.486 193.348L228.529 193.424Z" fill="white"/>
<path d="M137.907 139.598L137.994 139.566C137.974 139.553 137.945 139.561 137.907 139.598Z" fill="white"/>
<path d="M142.424 136.056C142.836 135.766 142.727 135.463 143.131 135.226L143.153 135.249C143.213 134.606 143.878 134.716 143.968 134.073C143.957 134.154 144.041 134.091 144.062 134.115C144.189 133.888 144.353 133.66 144.152 133.492C144.279 133.346 144.313 133.422 144.406 133.464C144.316 133.394 144.384 133.239 144.471 133.119L144.462 133.199L144.702 132.847L144.481 132.779C144.673 132.643 144.722 132.897 144.818 132.698L144.678 132.59C144.903 132.37 145.229 132.396 145.522 132.245C146.379 131.332 146.909 130.021 147.915 129.343L148.049 129.39C148.211 129.499 148.049 128.964 148.21 129.047L148.233 128.888C148.285 128.888 148.359 128.847 148.359 128.925C148.448 128.837 148.426 128.814 148.442 128.708L148.623 128.686C149.023 128.379 149.129 127.909 149.51 127.564C150.176 127.053 150.723 126.406 151.112 125.668C151.552 124.771 152.886 124.504 153.332 123.581C153.373 123.581 153.386 123.476 153.37 123.456L154.02 122.84C154.445 122.432 154.824 121.979 155.152 121.491C155.502 120.894 155.424 120.433 153.666 121.034L153.652 120.989C153.224 121.262 152.987 121.466 152.901 121.862C152.675 121.719 152.596 122.132 152.452 122.156L152.445 122.133C152.378 122.486 151.886 122.459 151.811 122.79C151.804 122.768 151.756 122.714 151.8 122.666C151.673 122.84 151.517 123.09 151.396 122.996C151.073 123.389 150.528 123.849 150.484 124.243L150.467 124.199C150.461 124.448 150.322 124.39 150.242 124.596C150.219 124.596 150.201 124.595 150.197 124.587C150.178 124.842 149.817 125.032 149.753 125.196L149.672 125.137L149.418 125.444L149.537 125.35C149.707 125.573 149.199 125.454 149.138 125.789C148.928 125.967 149.197 126.578 148.905 126.695C148.912 126.881 148.827 126.468 148.766 126.682C148.653 126.591 148.766 126.558 148.639 126.515C148.557 126.706 148.31 126.656 148.219 126.901L148.127 126.834C148.069 127.208 147.621 127.185 147.621 127.47C147.472 127.776 147.222 127.417 147.161 127.816H146.957C146.84 127.909 147.029 128.015 146.866 128.089C146.798 128.019 146.671 128.192 146.664 128.061C146.308 128.242 146.339 128.762 145.827 128.964C145.902 129.163 145.657 129.275 145.714 129.425C145.642 129.383 145.385 129.785 145.428 129.465C145.428 129.439 145.461 129.409 145.484 129.431L145.42 129.335C145.077 129.411 145.183 129.792 144.982 129.979C145.063 129.94 145.125 129.854 145.138 129.955L144.962 130.139L144.924 130.04L144.639 130.289L144.765 130.323C144.599 130.426 144.405 130.353 144.398 130.616C144.408 130.74 144.632 130.579 144.535 130.752C144.256 130.915 143.996 131.107 143.758 131.324C143.878 131.382 143.82 131.448 143.786 131.528L143.691 131.466C143.601 131.822 143.42 131.406 143.311 131.741L143.397 131.884C143.382 132.258 143.111 131.864 143.144 132.31C143.212 132.196 143.379 132.416 143.237 132.511L143.178 132.412C143.139 132.494 143.156 132.547 143.102 132.579C143.088 132.502 142.994 132.454 142.927 132.579L142.875 132.426V132.744C142.662 132.822 142.588 133.15 142.416 133.118C142.416 133.118 142.1 133.394 142.173 133.571C142.143 133.447 141.968 133.596 141.911 133.472C141.938 133.628 141.817 133.933 141.64 133.958V133.931C141.25 134.223 141.289 134.67 140.905 134.908C141.022 134.971 140.829 135.105 140.996 135.157C140.861 135.597 140.236 135.586 140.563 136.017C140.467 136.192 140.324 136.132 140.241 136.198L140.248 136.145C140.127 136.366 139.984 136.574 139.822 136.768C139.78 136.908 139.961 137.065 139.769 137.228C139.738 137.103 139.693 137.199 139.642 137.274C139.665 137.218 139.642 137.183 139.524 137.243C139.536 137.272 139.539 137.303 139.534 137.334C139.528 137.334 139.52 137.334 139.514 137.323C139.45 137.466 139.49 137.462 139.543 137.412C139.554 137.424 139.571 137.43 139.607 137.427C139.412 137.484 139.353 137.79 139.205 137.71C139.026 138.07 138.869 138.439 138.734 138.816C138.639 138.802 138.63 138.692 138.668 138.577L138.541 138.816C138.444 138.745 138.575 138.649 138.605 138.567C138.254 138.719 138.377 139.223 138.007 139.43L138.041 139.554L138.014 139.563C138.057 139.59 138.064 139.699 138.045 139.755C137.927 139.739 137.846 139.613 137.742 139.77C137.57 139.834 137.539 140.144 137.476 140.337C137.551 140.261 137.58 140.321 137.585 140.379C137.534 140.459 137.416 140.444 137.413 140.529L137.286 140.457C137.413 140.502 137.267 140.74 137.295 140.801C137.177 140.786 137.302 140.63 137.25 140.567L136.944 141.043C136.927 141.192 136.991 141.167 137.05 141.167C138.785 139.486 140.455 137.834 142.001 136.243C140.284 138.577 138.737 141.028 137.371 143.576C137.398 143.551 137.416 143.532 137.416 143.532C138.189 142.883 138.162 142.269 138.74 141.268C139.374 140.473 139.737 140.396 140.26 139.488C140.573 139.095 140.842 138.633 141.108 138.222C141.089 137.921 141.488 137.705 141.527 137.391L141.679 137.37C141.678 137.317 141.692 137.264 141.719 137.219C141.747 137.173 141.786 137.135 141.834 137.11L141.855 137.133C141.874 136.971 142.01 136.873 142.02 136.793L142.041 136.817L142.134 136.671L142.152 136.721C142.229 136.488 142.367 136.279 142.552 136.115L142.424 136.056Z" fill="white"/>
<path d="M143.299 131.75L143.256 131.679L143.299 131.75Z" fill="white"/>
<path d="M152.414 277.719L152.331 277.709C152.342 277.72 152.356 277.727 152.371 277.728C152.386 277.73 152.401 277.727 152.414 277.719V277.719Z" fill="white"/>
<path d="M152.885 274.476C152.691 274.4 152.474 274.4 152.28 274.476C152.137 274.507 152.004 274.571 151.891 274.663C151.779 274.756 151.69 274.873 151.633 275.006C151.522 275.309 151.383 275.601 151.218 275.879C150.698 276.312 150.343 276.253 149.982 276.867C149.766 277.132 149.577 277.416 149.417 277.717C149.519 277.983 149.164 278.064 149.229 278.332L149.072 278.308C149.093 278.401 149.091 278.487 148.99 278.495L148.959 278.468C148.993 278.605 148.879 278.655 148.895 278.723L148.864 278.697L148.812 278.8L148.775 278.751C148.777 278.835 148.758 278.918 148.722 278.993C148.685 279.069 148.632 279.135 148.565 279.187L148.714 279.27C148.381 279.432 148.619 279.717 148.271 279.835L148.238 279.811C148.429 280.342 147.679 280.145 147.858 280.683C147.834 280.617 147.771 280.657 147.731 280.633C147.687 280.805 147.617 280.975 147.912 281.132C147.845 281.235 147.769 281.169 147.648 281.122C147.698 281.147 147.737 281.191 147.755 281.243C147.773 281.296 147.77 281.354 147.745 281.404L147.715 281.338L147.631 281.605L147.904 281.684C147.765 281.775 147.584 281.56 147.579 281.715L147.786 281.819C147.659 281.975 147.279 281.922 147.041 282.023C146.844 282.397 146.711 282.801 146.648 283.218C146.604 283.629 146.416 284.013 146.116 284.304L145.941 284.274C145.695 284.198 146.22 284.601 145.991 284.547L146.069 284.671C146.018 284.679 145.954 284.712 145.916 284.651C145.879 284.725 145.916 284.741 145.969 284.822L145.79 284.852C145.567 285.119 145.752 285.475 145.6 285.777C145.166 286.073 145.22 286.899 145.298 287.367C145.4 287.709 145.171 287.99 144.958 288.297C144.745 288.603 144.521 288.909 144.692 289.26C144.654 289.275 144.725 289.341 144.754 289.346L144.627 289.916C144.601 290.05 144.588 290.186 144.588 290.323C144.579 290.577 144.619 290.831 144.706 291.07C144.896 291.535 145.383 291.694 146.537 290.811L146.59 290.83C146.752 290.553 146.804 290.378 146.563 290.139C146.905 290.157 146.635 289.906 146.756 289.855L146.781 289.865C146.551 289.647 147.052 289.537 146.851 289.329C146.876 289.34 146.966 289.36 146.966 289.4C146.946 289.275 146.908 289.088 147.104 289.116C147.117 288.814 147.283 288.427 147.022 288.171L147.072 288.196C146.891 288.041 147.072 288.051 147.001 287.906C147.019 287.904 147.037 287.904 147.055 287.906C146.879 287.741 147.109 287.559 147.046 287.443L147.173 287.47L147.203 287.231L147.153 287.309C146.81 287.185 147.416 287.193 147.243 286.966C147.335 286.827 146.619 286.439 146.841 286.322C146.703 286.197 147.083 286.471 146.994 286.322C147.175 286.373 147.09 286.41 147.247 286.425C147.197 286.284 147.489 286.301 147.409 286.119L147.551 286.157C147.356 285.893 147.855 285.882 147.655 285.68C147.607 285.455 148.111 285.701 147.909 285.414L148.123 285.408C148.182 285.338 147.915 285.266 148.038 285.209C148.153 285.257 148.172 285.129 148.265 285.224C148.526 285.099 148.173 284.716 148.589 284.575C148.386 284.426 148.575 284.348 148.424 284.235C148.524 284.269 148.551 283.974 148.7 284.214C148.713 284.234 148.7 284.255 148.662 284.237L148.789 284.311C149.099 284.27 148.773 283.986 148.879 283.856C148.814 283.88 148.799 283.942 148.726 283.863L148.808 283.739L148.906 283.816L149.064 283.645L148.914 283.61C149.031 283.543 149.279 283.618 149.137 283.416C149.054 283.315 148.911 283.423 148.916 283.299C149.104 283.202 149.279 283.081 149.435 282.94C149.275 282.88 149.308 282.839 149.297 282.778L149.431 282.837C149.341 282.572 149.753 282.921 149.699 282.675L149.782 282.738L149.529 282.551C149.354 282.259 149.843 282.609 149.583 282.25C149.569 282.33 149.279 282.126 149.382 282.075L149.495 282.163C149.495 282.102 149.45 282.058 149.495 282.038C149.545 282.102 149.667 282.151 149.685 282.072L149.811 282.197L149.657 281.947C149.847 281.922 149.772 281.674 149.97 281.732C149.97 281.732 150.177 281.571 150.017 281.413C150.109 281.523 150.222 281.434 150.341 281.547C150.238 281.422 150.224 281.189 150.408 281.213L150.417 281.234C150.708 281.093 150.479 280.719 150.786 280.62C150.636 280.537 150.785 280.478 150.585 280.387C150.544 280.046 151.219 280.249 150.712 279.792C150.751 279.675 150.924 279.768 150.987 279.738L151 279.782C151.045 279.637 151.122 279.503 151.225 279.39C151.219 279.286 150.972 279.089 151.126 279.016C151.197 279.129 151.216 279.066 151.253 279.024C151.247 279.063 151.277 279.099 151.389 279.091C151.369 279.067 151.356 279.04 151.348 279.01C151.357 279.015 151.366 279.021 151.375 279.028C151.396 278.929 151.356 278.918 151.315 278.942C151.295 278.925 151.27 278.913 151.244 278.907C151.432 278.928 151.401 278.69 151.579 278.811C151.713 278.561 151.656 278.267 151.747 278.04C151.789 278.061 151.824 278.094 151.847 278.135C151.869 278.176 151.879 278.223 151.874 278.27L151.95 278.12C152.076 278.221 151.959 278.245 151.95 278.307C152.274 278.323 152.018 277.842 152.347 277.82L152.284 277.702H152.31C152.261 277.655 152.232 277.591 152.231 277.523C152.358 277.589 152.469 277.732 152.536 277.648C152.693 277.666 152.655 277.414 152.683 277.281C152.622 277.311 152.579 277.245 152.557 277.194C152.593 277.149 152.717 277.218 152.703 277.146L152.845 277.271C152.7 277.169 152.809 277.037 152.768 276.969C152.895 277.039 152.793 277.114 152.859 277.194L153.077 276.931C153.06 276.746 152.934 276.826 152.857 276.673C152.905 276.569 152.886 276.402 153.053 276.39L152.907 276.304C152.962 276.069 153.07 275.999 153.288 276.021C153.404 275.01 153.17 274.608 152.885 274.476Z" fill="white"/>
<path d="M275.165 297.546L275.106 297.584C275.135 297.575 275.16 297.563 275.165 297.546Z" fill="white"/>
<path d="M276.364 299.92L276.466 299.91L276.364 299.92Z" fill="white"/>
<path d="M276.413 300.802C276.672 300.687 276.243 300.687 276.273 300.609C276.229 300.637 276.247 300.665 276.147 300.66L276.155 300.59H276.282L276.337 300.478L276.19 300.515C276.258 300.453 276.509 300.391 276.287 300.373C276.16 300.367 276.095 300.452 276.04 300.408C276.145 300.326 276.231 300.224 276.293 300.108C276.128 300.145 276.13 300.121 276.091 300.108L276.237 300.079C276.019 300.025 276.548 299.99 276.372 299.929L276.168 299.949C275.865 299.922 276.461 299.851 276.052 299.835C276.083 299.865 275.735 299.909 275.791 299.855L275.933 299.84C275.898 299.822 275.839 299.825 275.864 299.803C275.943 299.803 276.069 299.772 276.038 299.742L276.218 299.732L275.946 299.715C276.087 299.635 275.882 299.59 276.073 299.53C276.073 299.53 276.147 299.406 275.926 299.419C276.064 299.419 276.104 299.343 276.264 299.328C276.106 299.328 275.965 299.272 276.119 299.204H276.138C276.275 299.043 275.865 299.039 276.039 298.883C275.873 298.926 275.952 298.847 275.741 298.91C275.506 298.843 276.121 298.599 275.456 298.713C275.408 298.669 275.596 298.614 275.622 298.579H275.66C275.582 298.494 275.569 298.468 275.566 298.392C275.493 298.371 275.186 298.442 275.245 298.36C275.371 298.35 275.341 298.33 275.335 298.306C275.357 298.316 275.404 298.306 275.476 298.258C275.448 298.261 275.42 298.261 275.392 298.258L275.422 298.25C275.369 298.22 275.332 298.238 275.321 298.26C275.295 298.266 275.271 298.274 275.247 298.285C275.392 298.204 275.205 298.174 275.412 298.114C275.331 298.007 275.095 297.978 274.986 297.902C275.066 297.867 275.155 297.858 275.24 297.877L275.18 297.817C275.333 297.775 275.28 297.834 275.317 297.846C275.54 297.694 275.02 297.743 275.218 297.581L275.091 297.594L275.11 297.583C275.051 297.6 274.989 297.604 274.928 297.597C275.055 297.544 275.234 297.509 275.212 297.463C275.329 297.387 275.115 297.372 275.028 297.339C275.014 297.372 274.938 297.385 274.889 297.387C274.876 297.365 275.004 297.311 274.942 297.31L275.119 297.254C274.954 297.314 274.918 297.245 274.842 297.254C274.968 297.2 274.968 297.254 275.07 297.233L274.999 297.096C274.848 297.084 274.833 297.157 274.669 297.179C274.62 297.146 274.483 297.14 274.573 297.054L274.421 297.121C274.272 297.075 274.273 297.021 274.413 296.912C273.925 296.813 273.417 296.868 272.962 297.07C272.823 297.132 272.705 297.232 272.621 297.357C272.351 297.695 272.847 297.663 273.056 297.902C273.056 298.168 272.756 298.317 272.955 298.526C272.986 298.652 273.048 298.77 273.137 298.867C273.39 298.867 273.178 299.021 273.399 299.037L273.272 299.095C273.347 299.102 273.399 299.118 273.332 299.158L273.291 299.166C273.405 299.175 273.352 299.229 273.408 299.234L273.367 299.241L273.395 299.279L273.337 299.285C273.463 299.318 273.484 299.38 273.444 299.446L273.612 299.403C273.451 299.562 273.808 299.528 273.612 299.682L273.571 299.689C274.045 299.731 273.318 299.962 273.762 300.014C273.707 300.008 273.677 300.039 273.636 300.045C273.698 300.1 273.736 300.163 274.068 300.101C274.068 300.149 273.971 300.159 273.845 300.189C273.99 300.161 274.059 300.189 274.074 300.226H274.015L274.083 300.322L274.354 300.252C274.286 300.323 274.022 300.327 274.101 300.368L274.329 300.327C274.298 300.414 273.961 300.519 273.807 300.621C273.761 300.94 274.396 301.192 274.031 301.538L273.86 301.572C273.606 301.61 274.24 301.605 274.012 301.646L274.131 301.665C274.085 301.688 274.033 301.699 273.982 301.696C273.982 301.728 274.017 301.723 274.097 301.737L273.944 301.789C273.836 301.924 274.154 301.995 274.103 302.132C273.799 302.318 274.122 302.579 274.305 302.738C274.705 302.956 273.709 303.29 274.153 303.508C274.117 303.518 274.199 303.536 274.229 303.535L274.201 303.759C274.199 303.844 274.219 303.928 274.258 304.004C274.296 304.079 274.353 304.145 274.424 304.194C274.666 304.356 275.169 304.443 276.214 303.981H276.268C276.395 303.845 276.429 303.758 276.141 303.676C276.482 303.651 276.173 303.566 276.282 303.531H276.31C276.044 303.461 276.522 303.355 276.283 303.282C276.311 303.282 276.41 303.282 276.41 303.298C276.363 303.243 276.283 303.173 276.481 303.154C276.422 303.02 276.503 302.823 276.18 302.757H276.235C276.017 302.721 276.199 302.694 276.086 302.647C276.102 302.643 276.118 302.639 276.135 302.637C275.92 302.598 276.091 302.483 275.997 302.446L276.124 302.433L276.086 302.328L276.06 302.37C275.698 302.387 276.281 302.271 276.039 302.213C276.077 302.135 275.279 302.137 275.443 302.047C275.271 302.029 275.721 302.047 275.585 302.011C275.676 302.011 275.766 302.005 275.855 301.995C275.76 301.953 276.039 301.89 275.905 301.838L276.052 301.82C275.774 301.764 276.225 301.638 275.963 301.611C275.836 301.538 276.391 301.501 276.09 301.444L276.283 301.384C276.31 301.342 276.038 301.384 276.128 301.331C276.254 301.318 276.22 301.263 276.342 301.274C276.523 301.15 276.038 301.11 276.348 300.935C276.102 300.942 276.238 300.856 276.053 300.861C276.158 300.842 276.053 300.728 276.29 300.768C276.31 300.768 276.307 300.783 276.267 300.788L276.413 300.802Z" fill="white"/>
<path d="M275.659 314.177L275.576 314.25C275.608 314.255 275.642 314.237 275.659 314.177Z" fill="white"/>
<path d="M272.693 316.863L272.682 316.838L272.693 316.863Z" fill="white"/>
<path d="M272.939 324.566L273.018 324.639L272.939 324.566Z" fill="white"/>
<path d="M275.853 312.864L275.911 312.23C275.801 311.99 275.73 312.25 275.582 312.124C275.571 311.924 275.466 311.719 275.608 311.501L275.433 311.555C275.38 311.417 275.364 311.268 275.386 311.122C275.408 310.976 275.468 310.838 275.56 310.722C274.991 309.301 274.533 309.16 274.231 309.338C274.01 309.516 273.847 309.756 273.764 310.025C273.579 310.437 273.522 310.894 273.599 311.338C273.671 311.833 273.709 312.333 273.713 312.834C273.62 313.243 273.479 313.64 273.292 314.017C273.126 314.407 273.026 314.821 272.998 315.244C272.864 315.772 272.763 316.308 272.693 316.848C272.886 317.157 272.504 317.511 272.624 317.851L272.455 317.923C272.483 317.974 272.493 318.034 272.483 318.092C272.474 318.15 272.445 318.204 272.402 318.244L272.365 318.226C272.423 318.403 272.312 318.548 272.341 318.637L272.303 318.618L272.268 318.802L272.221 318.753C272.249 319.02 272.182 319.288 272.032 319.512L272.202 319.548C271.843 319.972 272.114 320.27 271.741 320.631L271.704 320.612C271.925 321.332 271.06 321.36 271.227 322.084C271.207 321.993 271.134 322.084 271.101 322.058C271.036 322.334 270.944 322.621 271.25 322.761C271.165 322.949 271.087 322.872 270.956 322.843C271.092 322.902 271.069 323.093 271.007 323.237L270.988 323.146L270.83 323.582L271.122 323.617C270.942 323.806 270.788 323.53 270.742 323.771L270.952 323.865C270.761 324.153 270.36 324.18 270.066 324.395C269.726 325.001 269.439 325.633 269.207 326.285C268.962 326.914 268.578 327.482 268.084 327.948L267.91 327.902C267.688 327.786 268.025 328.39 267.802 328.302L267.813 328.487C267.753 328.495 267.661 328.54 267.656 328.448C267.57 328.554 267.603 328.58 267.611 328.698L267.396 328.729C266.985 329.091 266.99 329.652 266.581 330.054C266.199 330.295 265.887 330.63 265.676 331.025C265.41 331.444 265.157 331.887 264.982 332.223C264.877 332.475 264.712 332.698 264.502 332.874C264.273 333.049 264.031 333.208 263.78 333.35C263.267 333.594 262.839 333.981 262.55 334.463C262.499 334.463 262.489 334.579 262.51 334.599L261.771 335.229L261.275 335.691C260.965 335.968 260.688 336.28 260.45 336.62C260.045 337.258 260.089 337.867 262.214 337.47L262.229 337.528C262.452 337.429 262.66 337.3 262.847 337.145C262.999 336.995 263.1 336.803 263.137 336.595C263.412 336.802 263.501 336.31 263.672 336.301L263.682 336.33C263.752 335.911 264.355 336.009 264.43 335.615C264.44 335.643 264.503 335.715 264.45 335.771C264.592 335.572 264.765 335.281 264.92 335.407C265.281 334.957 265.921 334.45 265.933 333.965L265.957 334.021C265.936 333.723 266.112 333.796 266.184 333.55C266.212 333.557 266.232 333.55 266.239 333.562C266.23 333.255 266.65 333.043 266.702 332.848L266.811 332.922L267.085 332.562L266.958 332.672C266.717 332.401 267.362 332.558 267.378 332.151C267.604 331.936 267.167 331.207 267.504 331.069C267.461 330.85 267.641 331.337 267.677 331.082C267.831 331.19 267.706 331.236 267.861 331.281C267.926 331.054 268.241 331.109 268.307 330.817L268.434 330.894C268.434 330.453 268.984 330.454 268.913 330.114C269.024 329.74 269.42 330.155 269.399 329.679L269.653 329.666C269.779 329.548 269.517 329.435 269.703 329.338C269.801 329.416 269.92 329.202 269.957 329.354C270.351 329.105 270.171 328.494 270.746 328.204C270.6 327.978 270.873 327.819 270.76 327.652C270.86 327.693 271.065 327.192 271.102 327.569C271.102 327.602 271.077 327.639 271.042 327.615L271.148 327.72C271.553 327.595 271.3 327.15 271.49 326.903C271.404 326.961 271.355 327.073 271.307 326.953L271.464 326.713L271.542 326.824L271.813 326.482L271.652 326.464C271.82 326.316 272.084 326.37 272.009 326.064C271.956 325.916 271.733 326.144 271.799 325.93C272.087 325.698 272.341 325.428 272.553 325.127C272.385 325.082 272.434 325.002 272.445 324.895L272.583 324.949C272.565 324.52 272.935 324.962 272.955 324.553L272.798 324.406C272.683 323.981 273.157 324.368 272.959 323.865C272.917 324.009 272.634 323.796 272.772 323.659L272.881 323.757C272.898 323.655 272.858 323.6 272.91 323.549C272.919 323.572 272.936 323.591 272.958 323.604C272.98 323.616 273.005 323.621 273.03 323.617C273.055 323.613 273.078 323.6 273.095 323.582C273.111 323.563 273.121 323.54 273.123 323.515L273.249 323.678L273.123 323.314C273.348 323.174 273.306 322.783 273.527 322.777C273.527 322.777 273.8 322.382 273.64 322.202C273.728 322.339 273.878 322.12 273.998 322.246C273.903 322.076 273.927 321.704 274.125 321.623L274.134 321.655C274.473 321.21 274.229 320.723 274.583 320.341C274.414 320.306 274.583 320.099 274.36 320.092C274.331 319.569 275.056 319.371 274.469 319.006C274.5 318.783 274.697 318.799 274.764 318.698L274.783 318.759C274.819 318.477 274.887 318.2 274.986 317.934C274.967 317.768 274.676 317.666 274.813 317.418C274.913 317.536 274.917 317.418 274.939 317.32C274.939 317.389 274.981 317.42 275.095 317.309C275.067 317.283 275.046 317.251 275.034 317.214C275.044 317.213 275.055 317.213 275.065 317.214C275.065 317.036 275.018 317.056 274.982 317.13C274.969 317.125 274.955 317.124 274.94 317.125C274.926 317.126 274.913 317.13 274.9 317.137C275.099 317.002 275.009 316.651 275.222 316.681C275.246 316.227 275.232 315.772 275.177 315.321C275.294 315.296 275.371 315.414 275.39 315.545L275.407 315.237C275.562 315.271 275.464 315.428 275.478 315.526C275.797 315.217 275.366 314.74 275.677 314.363L275.569 314.255L275.594 314.232C275.528 314.222 275.457 314.108 275.447 314.048C275.596 314.012 275.761 314.105 275.792 313.896C275.959 313.752 275.81 313.416 275.76 313.188C275.721 313.301 275.65 313.253 275.609 313.195C275.618 313.09 275.763 313.049 275.715 312.961L275.901 312.976C275.721 312.993 275.749 312.677 275.678 312.629C275.802 312.598 275.754 312.824 275.853 312.864Z" fill="white"/>
<path d="M201.041 261.073L201.121 261.142C201.119 261.111 201.099 261.083 201.041 261.073Z" fill="#202020"/>
<path d="M204.134 263.37C204.128 263.376 204.119 263.38 204.114 263.387L204.134 263.37Z" fill="#202020"/>
<path d="M226.395 261.131L226.419 261.077C226.228 260.99 226.017 260.954 225.808 260.973C225.598 260.992 225.398 261.066 225.227 261.185C225.172 260.849 224.805 261.149 224.684 261.04L224.696 261.012C224.382 261.27 224.052 260.795 223.748 261.026C223.761 261 223.767 260.907 223.837 260.901C223.616 260.942 223.315 261.016 223.3 260.82C222.774 260.87 222.04 260.776 221.702 261.087L221.726 261.033C221.532 261.243 221.473 261.063 221.263 261.17C221.25 261.144 221.236 261.131 221.237 261.121C221.028 261.327 220.628 261.151 220.458 261.239L220.448 261.114L220.031 261.143L220.187 261.17C220.131 261.528 219.873 260.946 219.57 261.177C219.288 261.131 218.994 261.916 218.701 261.74C218.56 261.907 218.828 261.468 218.616 261.597C218.61 261.411 218.714 261.481 218.661 261.331C218.455 261.42 218.325 261.141 218.07 261.265L218.06 261.121C217.729 261.384 217.438 260.927 217.216 261.179C216.876 261.304 216.99 260.748 216.634 261.031L216.497 260.834C216.345 260.801 216.387 261.073 216.219 260.978C216.229 260.854 216.007 260.879 216.105 260.762C215.725 260.567 215.33 261.033 214.83 260.705C214.719 260.945 214.467 260.801 214.385 260.981C214.372 260.876 213.878 260.962 214.163 260.732C214.189 260.713 214.232 260.717 214.228 260.757L214.263 260.614C213.977 260.345 213.741 260.762 213.459 260.718C213.542 260.766 213.654 260.754 213.586 260.851L213.322 260.831L213.378 260.707L212.986 260.634L213.04 260.784C212.848 260.707 212.786 260.454 212.564 260.659C212.466 260.776 212.744 260.86 212.542 260.909C212.232 260.773 211.908 260.672 211.575 260.607C211.605 260.775 211.517 260.768 211.426 260.803L211.417 260.657C211.068 260.857 211.29 260.338 210.944 260.496L210.975 260.395L210.883 260.698C210.57 260.985 210.716 260.396 210.369 260.788C210.506 260.764 210.432 261.108 210.264 261.045L210.307 260.905C210.215 260.934 210.18 260.992 210.121 260.963C210.177 260.887 210.151 260.759 210.014 260.783L210.107 260.608L209.853 260.865C209.653 260.714 209.337 260.901 209.254 260.703C209.254 260.703 208.825 260.604 208.726 260.821C208.813 260.687 208.576 260.634 208.644 260.477C208.532 260.629 208.203 260.753 208.072 260.59L208.096 260.572C207.61 260.404 207.263 260.795 206.83 260.593C206.849 260.762 206.618 260.668 206.675 260.884C206.221 261.096 205.851 260.444 205.685 261.108C205.48 261.143 205.442 260.951 205.337 260.917L205.385 260.882C205.127 260.928 204.864 260.943 204.602 260.925C204.459 260.988 204.435 261.299 204.179 261.223C204.263 261.098 204.158 261.122 204.063 261.122C204.123 261.103 204.142 261.058 204.017 260.975C204.001 261.007 203.976 261.035 203.946 261.056C203.944 261.045 203.944 261.035 203.946 261.025C203.787 261.068 203.819 261.106 203.888 261.123C203.886 261.151 203.895 261.179 203.913 261.2C203.749 261.041 203.451 261.209 203.432 260.998C203.017 261.087 202.607 261.202 202.207 261.343C202.161 261.234 202.255 261.138 202.371 261.093L202.088 261.132C202.088 260.975 202.251 261.042 202.341 261.007C202.004 260.758 201.644 261.256 201.249 261.023L201.165 261.148L201.143 261.128C201.134 261.167 201.116 261.202 201.091 261.233C201.065 261.263 201.033 261.287 200.996 261.303C200.94 261.167 200.996 260.988 200.804 260.996C200.65 260.871 200.364 261.061 200.16 261.133C200.27 261.157 200.233 261.231 200.186 261.28C200.089 261.28 200.032 261.148 199.957 261.207L199.948 261.022C199.986 261.195 199.695 261.208 199.654 261.283C199.598 261.147 199.806 261.167 199.831 261.064L199.241 261.087C199.031 261.225 199.279 261.261 199.178 261.422C198.993 261.457 198.812 261.584 198.599 261.473L198.666 261.637C198.542 261.701 198.402 261.729 198.262 261.718C198.122 261.708 197.988 261.658 197.876 261.576C195.277 262.895 197.322 263.388 197.322 263.388C198.335 263.752 198.87 263.28 200.086 263.156C200.889 263.355 201.716 263.449 202.544 263.436C203.081 263.441 203.618 263.414 204.151 263.356C204.397 263.107 204.829 263.356 205.119 263.149L205.232 263.289C205.332 263.219 205.449 263.171 205.549 263.247L205.542 263.287C205.692 263.183 205.86 263.246 205.935 263.194L205.929 263.235L206.11 263.217L206.078 263.275C206.318 263.175 206.584 263.152 206.838 263.21L206.819 263.04C207.326 263.231 207.51 262.881 207.959 263.107V263.148C208.537 262.704 208.869 263.456 209.464 263.034C209.391 263.087 209.496 263.121 209.49 263.159C209.763 263.111 210.056 263.087 210.061 262.755C210.261 262.755 210.223 262.86 210.249 262.987C210.249 262.842 210.422 262.782 210.578 262.774L210.506 262.83L210.952 262.781L210.866 262.507C211.102 262.587 210.925 262.842 211.152 262.776V262.548C211.479 262.594 211.67 262.939 211.985 263.109C213.302 263.211 214.718 262.635 215.942 263.04L215.995 263.213C216.018 263.462 216.334 262.838 216.375 263.075L216.518 262.961C216.558 263.006 216.645 263.054 216.571 263.11C216.698 263.12 216.706 263.079 216.802 263.004L216.943 263.16C217.462 263.285 217.904 262.984 218.451 263.047C219.316 263.244 220.22 263.198 221.059 262.912C222.062 262.538 223.224 263.542 224.25 263.119C224.284 263.154 224.37 263.074 224.37 263.045L225.308 263.085C225.308 263.085 229.845 263.214 226.395 261.131Z" fill="#202020"/>
</g>
<defs>
<clipPath id="clip0_29_5073">
<rect width="194" height="374" fill="white" transform="translate(101.5)"/>
</clipPath>
</defs>
</svg>
